<svg xmlns="http://www.w3.org/2000/svg" xmlns:xlink="http://www.w3.org/1999/xlink" width="295" height="258.346" viewBox="0 0 295 258.346">
  <defs>
    <radialGradient id="radial-gradient" cx="0.879" cy="0.769" r="0.767" gradientTransform="translate(-0.247 0.003) scale(1.283 0.996)" gradientUnits="objectBoundingBox">
      <stop offset="0" stop-color="#ef8e0a"/>
      <stop offset="1" stop-color="#673a0d"/>
    </radialGradient>
    <clipPath id="clip-path">
      <path id="Trazado_113185" data-name="Trazado 113185" d="M94.825,61.2c.109-.166.213-.325.309-.476.143-.221-.039-.34-.187-.171-.065.073-.13.148-.192.221-.437-2.632-1.024-5.171-1.629-7.536-.026-.1-.179.034-.159.14.452,2.651.8,5.387,1.167,8.105a34.061,34.061,0,0,1-3.851,3.989c-2,1.642-2.557.652-3.729-.109a2.421,2.421,0,0,0-2.222-.273,2.732,2.732,0,0,0-1.572.6,10.467,10.467,0,0,0-.626-.9c-.062-.088-.127-.182-.2-.27a3.229,3.229,0,0,0,.452-2.822c-.366-.691-1.31-.551-2.131.156a3.788,3.788,0,0,0-1.37,3.129,1.108,1.108,0,0,0,1.806.806,1.731,1.731,0,0,0,.182-.135c.075.195.164.374.236.546.114.268.229.551.359.811a7.251,7.251,0,0,0-1.429,4.423c.151,2.113,1.767,3.046,1.3,5.512-.455,2.388-2.258,4.789-2.788,7.2-.068.309.229.452.45.138a21.447,21.447,0,0,0,3.467-8.856,12.686,12.686,0,0,0-.7-4.246,4.2,4.2,0,0,1,.657-3.425,53.373,53.373,0,0,0,2.807,5.06c1.169,2.128,1.2,4.558.447,7.645-1.58.977-3.246,3.352-4.542,4.963a59.2,59.2,0,0,0-4.659,6.4,20.822,20.822,0,0,0-2.536,5.865c-.657,2.762-.231,5.954-2.328,8.63-.478.07-.954.127-1.44.236-.46.1-.689.878-.418,1.071a3.468,3.468,0,0,0,1.684.1.533.533,0,0,0,.283-.052,4.692,4.692,0,0,0,.917-.32,1.111,1.111,0,0,0,.442-.543.748.748,0,0,0,.081-.413c.125-.348.244-.694.361-1.042a14.877,14.877,0,0,0,1.424-4.5,36.988,36.988,0,0,1,4.082-9.368c1.39-2.139,3.212-4.345,4.574-6.666-.582,2.44.086,5.265.767,7.354a6.379,6.379,0,0,0,.58,1.648c.1.27.192.512.265.709.049.138.187.133.317.049a2.549,2.549,0,0,0,.187.187c.133.107.374.008.564-.153a22.794,22.794,0,0,0,2.835-3.454c.754-.977,1.512-1.915,2.175-2.942a7.576,7.576,0,0,0,.1.821c.057.335.281,1.081.754.725a2.007,2.007,0,0,0,.468-1.619c-.042-.618-.125-1.466-.556-1.681-.125-.062-.262.013-.377.138a35.179,35.179,0,0,0-3.212,3.581c-.151.187-1.325,1.793-1.835,2.383a.6.6,0,0,1-.34.073c-.166-1.107-.512-2.063-.587-3.248a17.757,17.757,0,0,1,1.034-5.761c.338-1.242.356-2.427-.377-2.508,2.994-6.538-.639-11.393-3.526-13.791a1.726,1.726,0,0,0,.19-.426c.12-.156.239-.3.356-.444,1.427-.309,2.162.405,3.212,1.18a1.866,1.866,0,0,0,1.863.444c1.733-.577,4.142-3.633,5.764-5.98.239,1.749.486,3.49.785,5.184.044.244.431-.039.418-.3A49.527,49.527,0,0,0,94.825,61.2Z" transform="translate(-69.634 -53.198)" fill="none"/>
    </clipPath>
    <clipPath id="clip-path-2">
      <path id="Trazado_113207" data-name="Trazado 113207" d="M85.465,60.429c-.709.016-1.718.777-2.5,1.021a3.463,3.463,0,0,1-.5.1,1.531,1.531,0,0,0-.93.143,2.42,2.42,0,0,0-.346.109,10.516,10.516,0,0,0-1.016.353.8.8,0,0,0-.255.179,6.5,6.5,0,0,0-2.7.605c-.3.117-.465.767-.192.769.647.01,1.281.049,1.936.029l.226-.005c-.33.249-.657.515-.974.787a11.908,11.908,0,0,0-2.089,2.136c-.083.12-.031.27.075.205a24.879,24.879,0,0,0,2.139-1.687c.385-.3.774-.585,1.164-.878a1.579,1.579,0,0,0,.151.434c-.6,2.03-1.31,4.088-2.121,6.135-.27.494-.541.987-.772,1.486-.32.3-.626.665-.936,1.019-.122.138-.242.273-.359.411-1.845.013-3.88,2.926-5.179,4.815-2.3,3.35-4.337,7.471-7.562,8.843-1.832.782-3.586,1.312-4.992,3.862a7.664,7.664,0,0,0-.9,2.6c-.273.434-.528.894-.772,1.284a8.432,8.432,0,0,0-1.585,3.014c-.016.146.1.242.226.161a8.172,8.172,0,0,0,1.952-2.752c.078-.13.166-.268.255-.408a4.959,4.959,0,0,0,.312,1.684c.034.073.075.13.112.195a17.723,17.723,0,0,1-.691,5.249c-.039.12-.091.242-.138.361-.075.164-.138.325-.216.489a21.1,21.1,0,0,1-3,4.756,1.132,1.132,0,0,0-.294.847c.634,2.884.117,6.122-.987,9.779-.172.564.465.538.694-.018a21.477,21.477,0,0,0,1.52-6.047,17.465,17.465,0,0,0,.06-2.617,2.709,2.709,0,0,1,.572-2.471c.055-.081.107-.172.159-.257a24.272,24.272,0,0,0,3.248-4.433c.34-.582.738-1.3,1.117-2.05.117.161.223.3.309.405a.329.329,0,0,0,.223.122c-.185,1.824-1.572,3.8-2.9,5.631a1.091,1.091,0,0,0-.2.777c1.039,2.916.3,5.938-.79,9.862-.166.6.465.754.8.14a14.7,14.7,0,0,0,1.663-9.124,11.152,11.152,0,0,1,1.042-2.471c.317-.569.66-1.117,1-1.671q.37-.46.746-.951a.931.931,0,0,0,.221-.7,27.742,27.742,0,0,0,2.51-6.59,24.123,24.123,0,0,0,6.439-4.264,31.19,31.19,0,0,0,5.036-5.1,20.535,20.535,0,0,0,6.312,1.12,25.216,25.216,0,0,0,4.15.159c.268-.008.444-.53.234-.543-1.357-.1-2.671-.255-3.973-.439a21.742,21.742,0,0,1-4.2-1.7,27.206,27.206,0,0,0,2.848-.083,29.5,29.5,0,0,0,7.726-.881c.216-.057.325-.489.109-.442-2.757.582-5.626.967-7.934.257-1-.307-2.313-1.424-3.669-1.211,1.234-2.775,1.346-6.5.486-8.365a14.391,14.391,0,0,0,1.754-3.422,36.22,36.22,0,0,0,2.154-6.957,1.041,1.041,0,0,0,.236-.075c1.016-.463,1.767-2.139,2.794-2.38a.375.375,0,0,0,.223-.309,3.246,3.246,0,0,0,.767-.722C85.571,60.616,85.558,60.426,85.465,60.429Z" transform="translate(-51.965 -60.429)" fill="none"/>
    </clipPath>
    <clipPath id="clip-path-3">
      <path id="Trazado_113233" data-name="Trazado 113233" d="M91.939,97.547c-2-.179-4.207,1.783-6.05,3.937-1.351,1.58-2.588,3.329-3.945,4.9a6.984,6.984,0,0,1-2.552,2.126c-.291-.361-.655-.655-.938-.987.047-1.767-.644-3.7-1.655-4.4a19.676,19.676,0,0,0,.65-6.9,10.369,10.369,0,0,0,2.723-3.506A19.784,19.784,0,0,0,81.2,90.455c1.289-.863,3.241-2.43,2.973-3.576-.044-.187-.133-.281-.249-.309.062-.052.127-.1.19-.148.125-.1.127-.327,0-.288a15.265,15.265,0,0,0-4.067,2.295,19.384,19.384,0,0,0-3.035,2.466c-1.008-.73-2.8-.273-4.127,1.489-.361.478-.14,1.032.3.642a2.69,2.69,0,0,1,2.6-.829c-.047.094-.086.174-.125.257a3.737,3.737,0,0,0-.821,1.071,56.15,56.15,0,0,0-2.365,5.559c-.226.567.325.579.577.055.837-1.741,1.715-3.469,2.583-5.2a1.074,1.074,0,0,0,.1.312c-.06.491-.114.985-.153,1.471-.135.657-.27,1.312-.429,1.967-.476,1.965-1.242,4.023-1.564,5.946-.166.418-.335.839-.489,1.258-2.373,2.141-4.267,5.53-6.008,8.573a11.255,11.255,0,0,1-3.963,4.329,14.625,14.625,0,0,0-2.516,1.746c-.107.1-.2.208-.3.314-3.381,2.131-4.545,8.194-7.679,10.774-.473.39-.322,1.052.107.847,1.125-.538,2.505-2.185,3.713-4a14.9,14.9,0,0,0-.307,1.884c-.034.369-.052.728-.062,1.081-.507,1.915-.878,3.815-1.59,5.764a21.353,21.353,0,0,1-2.36,4.628A32.271,32.271,0,0,0,50,143.393a1.759,1.759,0,0,0-1.081,1.224,5.678,5.678,0,0,0-.312,1.913c-.174.871-.281,1.653-.33,1.853a12.542,12.542,0,0,1-1.2,3.2c-.348.618-.928,1.18-1.232,1.788-.413.832-.213,1.169.252,1.362.164.068.4-.088.52-.374.413-.982.873-1.975,1.188-2.96a14.279,14.279,0,0,0,.767-1.809,21.768,21.768,0,0,0,.613-2.71c.023-.088.042-.179.06-.27a6.223,6.223,0,0,0,.533-1.364c1.861-1.481,3.851-4.368,5.247-6.434.392-.579.826-1.255,1.234-1.965-.005.127-.005.252-.01.379-.013.2-.036.416-.055.624a37.129,37.129,0,0,1-2.991,7.107c-.094.161-.19.429-.1.5,1.741,1.523.437,6.008.205,6.681-.34,1-.865,1.52-1.214,2.508-.244.234-.483.964-.754,1.138s-.359.6-.133.637c.094.016.19.026.283.042.016.249.255.309.476.107.062-.057.125-.114.187-.169a.6.6,0,0,0,.213-.655,30.523,30.523,0,0,0,1.663-3.493,36.145,36.145,0,0,0,1.4-6.824c.13-1.385,1.068-2.853,1.653-4.337a26.061,26.061,0,0,0,1.829-7.113c1.484-1.458,3.248-1.868,4.909-3.324a22.718,22.718,0,0,0,4.639-6.187c1.424-2.63,2.445-5.364,3.706-8.04a32.8,32.8,0,0,1,2.695-4.8,4.92,4.92,0,0,0,1.2.626,4.848,4.848,0,0,0,2.344.463c.018.164.169.231.335.075.14-.13.278-.262.418-.4,1.679-1.577,3.321-3.2,5.054-4.6,1.876-1.52,3.778-2.573,5.655-4,.3-.231.3-.821,0-.7a23.847,23.847,0,0,0-5.527,3.62c-.379.3-3.7,3.087-4.963,4.425a1.2,1.2,0,0,0-.32-.45.679.679,0,0,1,.187-.385c1.318-.408,4.454-4.821,4.826-5.291,2.388-3.025,4.771-5.915,7.663-6.97C91.96,97.965,92.051,97.646,91.939,97.547Z" transform="translate(-45.62 -86.129)" fill="none"/>
    </clipPath>
    <clipPath id="clip-path-4">
      <path id="Trazado_113241" data-name="Trazado 113241" d="M77.589,60.948c-2.575,2.412-5.06,5.187-7.593,7.726-2.547,2.554-5.125,5.021-7.679,7.56-.174.171-.143.431.044.34.4-.192.325-.127.634-.613.073-.112-.021-.192-.1-.091.049-.062,1.585-1.221,1.739-1.364.616-.577,1.229-1.167,1.842-1.754Q68.5,70.814,70.5,68.825c2.43-2.412,4.966-4.821,7.253-7.521C77.971,61.052,77.823,60.73,77.589,60.948Z" transform="translate(-62.202 -60.876)" fill="none"/>
    </clipPath>
    <clipPath id="clip-path-5">
      <path id="Trazado_113249" data-name="Trazado 113249" d="M77.088,59.438C72.031,64.716,66.917,70.493,62.151,76.3c-.091.112-.029.262.075.156,5.073-5.244,10.21-10.966,14.992-16.741C77.377,59.519,77.265,59.254,77.088,59.438Z" transform="translate(-62.107 -59.376)" fill="none"/>
    </clipPath>
    <clipPath id="clip-path-6">
      <path id="Trazado_113272" data-name="Trazado 113272" d="M79.526,100.774a22.928,22.928,0,0,1-2.975-6.349c-.12-.333-.4-.738-.725-.678a9.864,9.864,0,0,0,.832-2.513,5.785,5.785,0,0,0,.192-2.869c-.117-.252-.478-.146-.657.281a12.62,12.62,0,0,0-.535,2.848c-.016.086-.034.177-.052.265-.416-1.731-1.325-2.861-1.952-4.558-.868-2.357.546-5.907.112-8.466a2.584,2.584,0,0,0-.2-.769c-.348-.678-1.32.338-1.1.9a4.531,4.531,0,0,1,.262,1.4c-.135,1.572-1.219,3.677-1.349,5.343-2.645-1.055-4.194-4.054-3.906-8.243.042-.6-.78-.255-.881.369-.5,3.025-.881,5.777-.195,7.965-2.57.031-4.579-1.2-4.452-4.859.018-.528-.673-.125-.7.4-.208,4.02-.353,9,2.744,9.81,1.642.429,3.791-.748,5.608-.85a4.873,4.873,0,0,1,5.369,3.7,3.294,3.294,0,0,1-.793-.042,8.646,8.646,0,0,0-2.082-.2c-.348.018-.652.722-.385.811a6.907,6.907,0,0,0,1.6.567,14.1,14.1,0,0,0-1.52,1.637,34.23,34.23,0,0,1-2.762,3.28c-1.045,1.016-3.94,3.625-4.774,2.713-.052-.055-.14-.01-.2.07a9.628,9.628,0,0,1-1.136-.9,8.392,8.392,0,0,0-1.894-1.655c-1.718-.873-3.339.613-5.486,1.952-3.056,1.9-5.379.182-8.4,2.076a6.691,6.691,0,0,0-.567.4c-2.165.743-3.477,4.683-4.581,6.889a30.363,30.363,0,0,1-3.864,6.1A25.763,25.763,0,0,1,35.809,120a15.917,15.917,0,0,0-1.954,1.58,23.309,23.309,0,0,0-1.538,3.539,20.7,20.7,0,0,1-4.457,6.51c-.369.372-.824.6-1,1.2-.226.777.395.657.452,1.18.036.356.683.164.642-.268a2.051,2.051,0,0,0-.031-.322,28.556,28.556,0,0,0,3.742-5.332c1.024-1.674,2.708-4.067,3.163-5.933,1.881-.8,4.08-2.807,5.774-4.485.169-.169.338-.343.507-.515a28.756,28.756,0,0,1-5.522,8.1.846.846,0,0,0-.242.707,21.478,21.478,0,0,0-.852,2.479c-.143.351-.283.7-.421,1.058-.39.99-.787,1.985-1.232,2.968a24.707,24.707,0,0,1-2.69,3.986.609.609,0,0,0-.127.631c.127.255.255.509.385.761.109.218.528-.031.639-.369.078-.229.161-.452.247-.676a16.887,16.887,0,0,0,2.882-5.3c.842-2.123,1.72-4.184,2.71-6.263a39.7,39.7,0,0,0,8.88-8.136,2.5,2.5,0,0,1,1.432-.6c1.159.1,1.64,1.671,2.807,1.876.868.151,1.863-.094,2.708.14.465.13.8.4,1.4.216.385-.117.884-.605,1.18-.681.572-.146,1.214.182,1.8.13a7.394,7.394,0,0,0,.772-.117c.185,1.616,1.221,2.432,2.082,3.43A8.277,8.277,0,0,1,61.5,124.4q.3,1.431.538,2.905c.057.34.081.743.122,1.128.034.728.042,1.473.008,2.24-.005.182.133.221.27.153l.346-.164a.6.6,0,0,0,.275-.47,91.725,91.725,0,0,0-2.295-13.279c.691.733,1.437,1.4,2.087,2.193.78.954,1.346,2.328,2.313,3a23.576,23.576,0,0,1,1.4,4.948c.016.109.159.114.255.018.174-.179.351-.348.53-.509a.465.465,0,0,0,.159-.405,21.259,21.259,0,0,0-.9-2.032,8.109,8.109,0,0,0-1.432-3.285,20.514,20.514,0,0,0-1.564-3.919,24.051,24.051,0,0,0-1.089-2.269c.062-.161.12-.322.179-.47.148-.379.356-.858.491-1.3,3.381-2.393,8.134-7.159,10.013-11.806,1.016-.218,2.045-.808,2.869-.3.572.353.707,1.292,1.281,1.632.626.372,1.489-.156,2.128-1.234A.409.409,0,0,0,79.526,100.774Z" transform="translate(-26.815 -77.054)" fill="none"/>
    </clipPath>
    <clipPath id="clip-path-7">
      <path id="Trazado_113289" data-name="Trazado 113289" d="M51.663,137.705c.239-2.128,1.281-5.54.268-6.892-.509-.678-1.7-.369-2.084-1.055-.439-.79-.418-2.123-.8-3-.772-1.767-1.985-3.415-4.2-3.448-1.931-.029-2.487.405-3.682-1.247a6.056,6.056,0,0,1-1.292-3.222c-.216-2.357,1.336-2.905,3.817-4.685a12.3,12.3,0,0,0,5-8.108c.889-4.231-2.4,3.68-3.191,4.821-1.84,2.63-2.838,1.7-5.073,3.056,1.341-1.5,2.224-5.436-1.133-3.264-2.069,1.341-2.6,3.105-1.5,4.036,1.26,1.06,2.263-1.4.556,1.18-1.19,1.8-2.043,2.482-2.718,4.511A40.73,40.73,0,0,0,33.485,130.6c0-.031,1.141-2.866,1.175-2.981.4-1.364.642-2.682,1.034-4.046a10.093,10.093,0,0,1,3.186-5.5c-.977,6.424,3.137,6.382,2.339,7.3a9.9,9.9,0,0,0-.624,2.019,14.366,14.366,0,0,0-.3,3.241,20.41,20.41,0,0,0,1.39,6.559c.426,1.3,2.885,4.233,2.5,5.618-.265.951-3.269,4.566-1.011,2.786a6.841,6.841,0,0,0,2.076-3.724c.364-2.258.46-5.579-.977-6.338-.611-.32-1.72.195-1.146-.813.21-.808.39-1.606.533-2.391a24.043,24.043,0,0,0,.444-4.722,12.188,12.188,0,0,1,6.2,8.246,7.682,7.682,0,0,1,.179,3.264c-.255.925-1.892,2.606-1.047,3.04S52.965,137.227,51.663,137.705Z" transform="translate(-33.485 -104.814)" fill="none"/>
    </clipPath>
    <linearGradient id="linear-gradient" x1="-6.975" y1="-2.584" x2="-6.688" y2="4.868" gradientUnits="objectBoundingBox">
      <stop offset="0" stop-color="#fff"/>
      <stop offset="1" stop-color="#ffcdb3"/>
    </linearGradient>
    <linearGradient id="linear-gradient-2" x1="-8.409" y1="-4.689" x2="-8.067" y2="8.298" xlink:href="#linear-gradient"/>
    <linearGradient id="linear-gradient-3" x1="-8.825" y1="-5.987" x2="-8.468" y2="9.962" xlink:href="#linear-gradient"/>
    <linearGradient id="linear-gradient-4" x1="-3.995" y1="-8.503" x2="-3.826" y2="1.216" xlink:href="#linear-gradient"/>
    <linearGradient id="linear-gradient-5" x1="-2.138" y1="-1.307" x2="-2.038" y2="1.066" xlink:href="#linear-gradient"/>
    <linearGradient id="linear-gradient-6" x1="-1.901" y1="-1.784" x2="-1.809" y2="1.74" xlink:href="#linear-gradient"/>
    <linearGradient id="linear-gradient-7" x1="-3.814" y1="-0.633" x2="-3.648" y2="4.401" xlink:href="#linear-gradient"/>
    <linearGradient id="linear-gradient-8" x1="-5.98" y1="-0.254" x2="-5.729" y2="6.149" xlink:href="#linear-gradient"/>
    <linearGradient id="linear-gradient-9" x1="-8.345" y1="-1.902" x2="-8.006" y2="4.199" xlink:href="#linear-gradient"/>
    <linearGradient id="linear-gradient-10" x1="-3.001" y1="-0.503" x2="-2.867" y2="2.003" xlink:href="#linear-gradient"/>
    <linearGradient id="linear-gradient-11" x1="-3.179" y1="-4.309" x2="-3.039" y2="4.547" xlink:href="#linear-gradient"/>
    <linearGradient id="linear-gradient-12" x1="-1.746" y1="-3.667" x2="-1.661" y2="1.07" xlink:href="#linear-gradient"/>
    <linearGradient id="linear-gradient-13" x1="-7.465" y1="-2.833" x2="-7.16" y2="4.177" xlink:href="#linear-gradient"/>
    <linearGradient id="linear-gradient-14" x1="-3.627" y1="0.12" x2="-3.467" y2="3.505" xlink:href="#linear-gradient"/>
    <linearGradient id="linear-gradient-15" x1="-2.062" y1="-0.239" x2="-1.964" y2="1.253" xlink:href="#linear-gradient"/>
    <linearGradient id="linear-gradient-16" x1="-6.207" y1="-5.741" x2="-5.954" y2="1.225" xlink:href="#linear-gradient"/>
    <linearGradient id="linear-gradient-17" x1="-2.838" y1="-2.048" x2="-2.711" y2="1.729" xlink:href="#linear-gradient"/>
    <linearGradient id="linear-gradient-18" x1="-2.24" y1="0.144" x2="-2.134" y2="2.794" xlink:href="#linear-gradient"/>
    <linearGradient id="linear-gradient-19" x1="-7.837" y1="-2.223" x2="-7.514" y2="13.635" xlink:href="#linear-gradient"/>
    <linearGradient id="linear-gradient-20" x1="-8.017" y1="-0.394" x2="-7.686" y2="8.492" xlink:href="#linear-gradient"/>
    <linearGradient id="linear-gradient-21" x1="-7.684" y1="-0.716" x2="-7.366" y2="12.248" xlink:href="#linear-gradient"/>
    <linearGradient id="linear-gradient-22" x1="-16.029" y1="-0.599" x2="-15.387" y2="12.003" xlink:href="#linear-gradient"/>
    <linearGradient id="linear-gradient-23" x1="-20.735" y1="-0.095" x2="-19.91" y2="8.716" xlink:href="#linear-gradient"/>
    <linearGradient id="linear-gradient-24" x1="-9.76" y1="0.19" x2="-9.361" y2="6.086" xlink:href="#linear-gradient"/>
    <linearGradient id="linear-gradient-25" x1="-12.166" y1="-1.772" x2="-11.678" y2="7.187" xlink:href="#linear-gradient"/>
    <linearGradient id="linear-gradient-26" x1="-16.616" y1="-2.556" x2="-15.956" y2="10.114" xlink:href="#linear-gradient"/>
    <linearGradient id="linear-gradient-27" x1="-17.533" y1="-2.01" x2="-16.836" y2="9.416" xlink:href="#linear-gradient"/>
    <linearGradient id="linear-gradient-28" x1="-18.022" y1="-1.75" x2="-17.307" y2="8.13" xlink:href="#linear-gradient"/>
    <linearGradient id="linear-gradient-29" x1="-27.36" y1="-35.593" x2="-26.288" y2="79.398" xlink:href="#linear-gradient"/>
    <linearGradient id="linear-gradient-30" x1="-5.099" y1="0.392" x2="-4.881" y2="10.098" xlink:href="#linear-gradient"/>
    <linearGradient id="linear-gradient-31" x1="-7.199" y1="-2.871" x2="-6.905" y2="3.645" xlink:href="#linear-gradient"/>
    <linearGradient id="linear-gradient-32" x1="-11.601" y1="-0.764" x2="-11.131" y2="16.789" xlink:href="#linear-gradient"/>
    <linearGradient id="linear-gradient-33" x1="-3.502" y1="-3.49" x2="-3.349" y2="3.661" xlink:href="#linear-gradient"/>
    <linearGradient id="linear-gradient-34" x1="-3.55" y1="-3.337" x2="-3.396" y2="3.639" xlink:href="#linear-gradient"/>
    <linearGradient id="linear-gradient-35" x1="-41.367" y1="-8.976" x2="-39.76" y2="16.947" xlink:href="#linear-gradient"/>
    <linearGradient id="linear-gradient-36" x1="-32.899" y1="-12.042" x2="-31.615" y2="24.518" xlink:href="#linear-gradient"/>
    <linearGradient id="linear-gradient-37" x1="-97.031" y1="-12.562" x2="-93.297" y2="16.98" xlink:href="#linear-gradient"/>
    <linearGradient id="linear-gradient-38" x1="-69.408" y1="-12.544" x2="-66.733" y2="16.178" xlink:href="#linear-gradient"/>
    <linearGradient id="linear-gradient-39" x1="-92.907" y1="-11.409" x2="-89.359" y2="6.689" xlink:href="#linear-gradient"/>
    <linearGradient id="linear-gradient-40" x1="-19.845" y1="-25.33" x2="-19.07" y2="20.632" xlink:href="#linear-gradient"/>
    <linearGradient id="linear-gradient-41" x1="-26.647" y1="-16.035" x2="-25.614" y2="11.654" xlink:href="#linear-gradient"/>
    <linearGradient id="linear-gradient-42" x1="-62.171" y1="-11.312" x2="-59.79" y2="7.059" xlink:href="#linear-gradient"/>
  </defs>
  <g id="Grupo_81574" data-name="Grupo 81574" transform="translate(-9.763 -42.389)">
    <g id="Grupo_81562" data-name="Grupo 81562" transform="translate(9.763 42.388)">
      <g id="Grupo_81538" data-name="Grupo 81538">
        <g id="Grupo_81537" data-name="Grupo 81537">
          <g id="Grupo_81528" data-name="Grupo 81528" transform="translate(142.222 107.184)">
            <g id="Grupo_81527" data-name="Grupo 81527">
              <path id="Trazado_113156" data-name="Trazado 113156" d="M65.126,83.634c.26,2.544.179,4.259-.455,3.838C64.312,87.231,64.507,85.869,65.126,83.634Z" transform="translate(-64.492 -83.634)" fill="#f5bd82"/>
            </g>
          </g>
          <path id="Trazado_113157" data-name="Trazado 113157" d="M199.364,150.817c-1.44,17.775.629,39.118-3.493,56.284-6.208,25.875-44.182,42.99-65.507,55.461-12.653,7.383-25.61,14.3-38.208,21.79-18.284,10.878-23.791,10.231-44.632,2.884-.845-.3-1.689-.59-2.518-.9-7.7-2.742-14.7-5.483-21.4-10.787C2.947,259.194,11.047,239.41,12.775,215.666c1.907-26.054,16.5-45.193,21.236-70.1,1.169-6.164,2.014-13.261,3.6-20.088,1.367-5.985,3.292-11.756,6.46-16.486,14.324-21.4,108.7-93.055,135.46-56.284,4.823,6.611.936,13.905,3.511,21.161,3.921,11.112,19.454,16.057,21.343,27.884C206.617,115.587,200.533,136.3,199.364,150.817Z" transform="translate(-9.763 -42.388)" fill="url(#radial-gradient)"/>
          <g id="Grupo_81536" data-name="Grupo 81536" transform="translate(44.312 28.09)">
            <g id="Grupo_81529" data-name="Grupo 81529" transform="translate(111.273)">
              <path id="Trazado_113158" data-name="Trazado 113158" d="M94.825,61.2c.109-.166.213-.325.309-.476.143-.221-.039-.34-.187-.171-.065.073-.13.148-.192.221-.437-2.632-1.024-5.171-1.629-7.536-.026-.1-.179.034-.159.14.452,2.651.8,5.387,1.167,8.105a34.061,34.061,0,0,1-3.851,3.989c-2,1.642-2.557.652-3.729-.109a2.421,2.421,0,0,0-2.222-.273,2.732,2.732,0,0,0-1.572.6,10.467,10.467,0,0,0-.626-.9c-.062-.088-.127-.182-.2-.27a3.229,3.229,0,0,0,.452-2.822c-.366-.691-1.31-.551-2.131.156a3.788,3.788,0,0,0-1.37,3.129,1.108,1.108,0,0,0,1.806.806,1.731,1.731,0,0,0,.182-.135c.075.195.164.374.236.546.114.268.229.551.359.811a7.251,7.251,0,0,0-1.429,4.423c.151,2.113,1.767,3.046,1.3,5.512-.455,2.388-2.258,4.789-2.788,7.2-.068.309.229.452.45.138a21.447,21.447,0,0,0,3.467-8.856,12.686,12.686,0,0,0-.7-4.246,4.2,4.2,0,0,1,.657-3.425,53.373,53.373,0,0,0,2.807,5.06c1.169,2.128,1.2,4.558.447,7.645-1.58.977-3.246,3.352-4.542,4.963a59.2,59.2,0,0,0-4.659,6.4,20.822,20.822,0,0,0-2.536,5.865c-.657,2.762-.231,5.954-2.328,8.63-.478.07-.954.127-1.44.236-.46.1-.689.878-.418,1.071a3.468,3.468,0,0,0,1.684.1.533.533,0,0,0,.283-.052,4.692,4.692,0,0,0,.917-.32,1.111,1.111,0,0,0,.442-.543.748.748,0,0,0,.081-.413c.125-.348.244-.694.361-1.042a14.877,14.877,0,0,0,1.424-4.5,36.988,36.988,0,0,1,4.082-9.368c1.39-2.139,3.212-4.345,4.574-6.666-.582,2.44.086,5.265.767,7.354a6.379,6.379,0,0,0,.58,1.648c.1.27.192.512.265.709.049.138.187.133.317.049a2.549,2.549,0,0,0,.187.187c.133.107.374.008.564-.153a22.794,22.794,0,0,0,2.835-3.454c.754-.977,1.512-1.915,2.175-2.942a7.576,7.576,0,0,0,.1.821c.057.335.281,1.081.754.725a2.007,2.007,0,0,0,.468-1.619c-.042-.618-.125-1.466-.556-1.681-.125-.062-.262.013-.377.138a35.179,35.179,0,0,0-3.212,3.581c-.151.187-1.325,1.793-1.835,2.383a.6.6,0,0,1-.34.073c-.166-1.107-.512-2.063-.587-3.248a17.757,17.757,0,0,1,1.034-5.761c.338-1.242.356-2.427-.377-2.508,2.994-6.538-.639-11.393-3.526-13.791a1.726,1.726,0,0,0,.19-.426c.12-.156.239-.3.356-.444,1.427-.309,2.162.405,3.212,1.18a1.866,1.866,0,0,0,1.863.444c1.733-.577,4.142-3.633,5.764-5.98.239,1.749.486,3.49.785,5.184.044.244.431-.039.418-.3A49.527,49.527,0,0,0,94.825,61.2Z" transform="translate(-69.634 -53.198)" fill="#663a1d"/>
            </g>
            <g id="Grupo_81530" data-name="Grupo 81530" transform="translate(65.356 18.791)">
              <path id="Trazado_113159" data-name="Trazado 113159" d="M85.465,60.429c-.709.016-1.718.777-2.5,1.021a3.463,3.463,0,0,1-.5.1,1.531,1.531,0,0,0-.93.143,2.42,2.42,0,0,0-.346.109,10.516,10.516,0,0,0-1.016.353.8.8,0,0,0-.255.179,6.5,6.5,0,0,0-2.7.605c-.3.117-.465.767-.192.769.647.01,1.281.049,1.936.029l.226-.005c-.33.249-.657.515-.974.787a11.908,11.908,0,0,0-2.089,2.136c-.083.12-.031.27.075.205a24.879,24.879,0,0,0,2.139-1.687c.385-.3.774-.585,1.164-.878a1.579,1.579,0,0,0,.151.434c-.6,2.03-1.31,4.088-2.121,6.135-.27.494-.541.987-.772,1.486-.32.3-.626.665-.936,1.019-.122.138-.242.273-.359.411-1.845.013-3.88,2.926-5.179,4.815-2.3,3.35-4.337,7.471-7.562,8.843-1.832.782-3.586,1.312-4.992,3.862a7.664,7.664,0,0,0-.9,2.6c-.273.434-.528.894-.772,1.284a8.432,8.432,0,0,0-1.585,3.014c-.016.146.1.242.226.161a8.172,8.172,0,0,0,1.952-2.752c.078-.13.166-.268.255-.408a4.959,4.959,0,0,0,.312,1.684c.034.073.075.13.112.195a17.723,17.723,0,0,1-.691,5.249c-.039.12-.091.242-.138.361-.075.164-.138.325-.216.489a21.1,21.1,0,0,1-3,4.756,1.132,1.132,0,0,0-.294.847c.634,2.884.117,6.122-.987,9.779-.172.564.465.538.694-.018a21.477,21.477,0,0,0,1.52-6.047,17.465,17.465,0,0,0,.06-2.617,2.709,2.709,0,0,1,.572-2.471c.055-.081.107-.172.159-.257a24.272,24.272,0,0,0,3.248-4.433c.34-.582.738-1.3,1.117-2.05.117.161.223.3.309.405a.329.329,0,0,0,.223.122c-.185,1.824-1.572,3.8-2.9,5.631a1.091,1.091,0,0,0-.2.777c1.039,2.916.3,5.938-.79,9.862-.166.6.465.754.8.14a14.7,14.7,0,0,0,1.663-9.124,11.152,11.152,0,0,1,1.042-2.471c.317-.569.66-1.117,1-1.671q.37-.46.746-.951a.931.931,0,0,0,.221-.7,27.742,27.742,0,0,0,2.51-6.59,24.123,24.123,0,0,0,6.439-4.264,31.19,31.19,0,0,0,5.036-5.1,20.535,20.535,0,0,0,6.312,1.12,25.216,25.216,0,0,0,4.15.159c.268-.008.444-.53.234-.543-1.357-.1-2.671-.255-3.973-.439a21.742,21.742,0,0,1-4.2-1.7,27.206,27.206,0,0,0,2.848-.083,29.5,29.5,0,0,0,7.726-.881c.216-.057.325-.489.109-.442-2.757.582-5.626.967-7.934.257-1-.307-2.313-1.424-3.669-1.211,1.234-2.775,1.346-6.5.486-8.365a14.391,14.391,0,0,0,1.754-3.422,36.22,36.22,0,0,0,2.154-6.957,1.041,1.041,0,0,0,.236-.075c1.016-.463,1.767-2.139,2.794-2.38a.375.375,0,0,0,.223-.309,3.246,3.246,0,0,0,.767-.722C85.571,60.616,85.558,60.426,85.465,60.429Z" transform="translate(-51.965 -60.429)" fill="#663a1d"/>
            </g>
            <g id="Grupo_81531" data-name="Grupo 81531" transform="translate(48.867 85.578)">
              <path id="Trazado_113160" data-name="Trazado 113160" d="M91.939,97.547c-2-.179-4.207,1.783-6.05,3.937-1.351,1.58-2.588,3.329-3.945,4.9a6.984,6.984,0,0,1-2.552,2.126c-.291-.361-.655-.655-.938-.987.047-1.767-.644-3.7-1.655-4.4a19.676,19.676,0,0,0,.65-6.9,10.369,10.369,0,0,0,2.723-3.506A19.784,19.784,0,0,0,81.2,90.455c1.289-.863,3.241-2.43,2.973-3.576-.044-.187-.133-.281-.249-.309.062-.052.127-.1.19-.148.125-.1.127-.327,0-.288a15.265,15.265,0,0,0-4.067,2.295,19.384,19.384,0,0,0-3.035,2.466c-1.008-.73-2.8-.273-4.127,1.489-.361.478-.14,1.032.3.642a2.69,2.69,0,0,1,2.6-.829c-.047.094-.086.174-.125.257a3.737,3.737,0,0,0-.821,1.071,56.15,56.15,0,0,0-2.365,5.559c-.226.567.325.579.577.055.837-1.741,1.715-3.469,2.583-5.2a1.074,1.074,0,0,0,.1.312c-.06.491-.114.985-.153,1.471-.135.657-.27,1.312-.429,1.967-.476,1.965-1.242,4.023-1.564,5.946-.166.418-.335.839-.489,1.258-2.373,2.141-4.267,5.53-6.008,8.573a11.255,11.255,0,0,1-3.963,4.329,14.625,14.625,0,0,0-2.516,1.746c-.107.1-.2.208-.3.314-3.381,2.131-4.545,8.194-7.679,10.774-.473.39-.322,1.052.107.847,1.125-.538,2.505-2.185,3.713-4a14.9,14.9,0,0,0-.307,1.884c-.034.369-.052.728-.062,1.081-.507,1.915-.878,3.815-1.59,5.764a21.353,21.353,0,0,1-2.36,4.628A32.271,32.271,0,0,0,50,143.393a1.759,1.759,0,0,0-1.081,1.224,5.678,5.678,0,0,0-.312,1.913c-.174.871-.281,1.653-.33,1.853a12.542,12.542,0,0,1-1.2,3.2c-.348.618-.928,1.18-1.232,1.788-.413.832-.213,1.169.252,1.362.164.068.4-.088.52-.374.413-.982.873-1.975,1.188-2.96a14.279,14.279,0,0,0,.767-1.809,21.768,21.768,0,0,0,.613-2.71c.023-.088.042-.179.06-.27a6.223,6.223,0,0,0,.533-1.364c1.861-1.481,3.851-4.368,5.247-6.434.392-.579.826-1.255,1.234-1.965-.005.127-.005.252-.01.379-.013.2-.036.416-.055.624a37.129,37.129,0,0,1-2.991,7.107c-.094.161-.19.429-.1.5,1.741,1.523.437,6.008.205,6.681-.34,1-.865,1.52-1.214,2.508-.244.234-.483.964-.754,1.138s-.359.6-.133.637c.094.016.19.026.283.042.016.249.255.309.476.107.062-.057.125-.114.187-.169a.6.6,0,0,0,.213-.655,30.523,30.523,0,0,0,1.663-3.493,36.145,36.145,0,0,0,1.4-6.824c.13-1.385,1.068-2.853,1.653-4.337a26.061,26.061,0,0,0,1.829-7.113c1.484-1.458,3.248-1.868,4.909-3.324a22.718,22.718,0,0,0,4.639-6.187c1.424-2.63,2.445-5.364,3.706-8.04a32.8,32.8,0,0,1,2.695-4.8,4.92,4.92,0,0,0,1.2.626,4.848,4.848,0,0,0,2.344.463c.018.164.169.231.335.075.14-.13.278-.262.418-.4,1.679-1.577,3.321-3.2,5.054-4.6,1.876-1.52,3.778-2.573,5.655-4,.3-.231.3-.821,0-.7a23.847,23.847,0,0,0-5.527,3.62c-.379.3-3.7,3.087-4.963,4.425a1.2,1.2,0,0,0-.32-.45.679.679,0,0,1,.187-.385c1.318-.408,4.454-4.821,4.826-5.291,2.388-3.025,4.771-5.915,7.663-6.97C91.96,97.965,92.051,97.646,91.939,97.547Z" transform="translate(-45.62 -86.129)" fill="#663a1d"/>
            </g>
            <g id="Grupo_81532" data-name="Grupo 81532" transform="translate(91.958 19.954)">
              <path id="Trazado_113161" data-name="Trazado 113161" d="M77.589,60.948c-2.575,2.412-5.06,5.187-7.593,7.726-2.547,2.554-5.125,5.021-7.679,7.56-.174.171-.143.431.044.34.4-.192.325-.127.634-.613.073-.112-.021-.192-.1-.091.049-.062,1.585-1.221,1.739-1.364.616-.577,1.229-1.167,1.842-1.754Q68.5,70.814,70.5,68.825c2.43-2.412,4.966-4.821,7.253-7.521C77.971,61.052,77.823,60.73,77.589,60.948Z" transform="translate(-62.202 -60.876)" fill="#663a1d"/>
            </g>
            <g id="Grupo_81533" data-name="Grupo 81533" transform="translate(91.712 16.055)">
              <path id="Trazado_113162" data-name="Trazado 113162" d="M77.088,59.438C72.031,64.716,66.917,70.493,62.151,76.3c-.091.112-.029.262.075.156,5.073-5.244,10.21-10.966,14.992-16.741C77.377,59.519,77.265,59.254,77.088,59.438Z" transform="translate(-62.107 -59.376)" fill="#663a1d"/>
            </g>
            <g id="Grupo_81534" data-name="Grupo 81534" transform="translate(0 61.995)">
              <path id="Trazado_113163" data-name="Trazado 113163" d="M79.526,100.774a22.928,22.928,0,0,1-2.975-6.349c-.12-.333-.4-.738-.725-.678a9.864,9.864,0,0,0,.832-2.513,5.785,5.785,0,0,0,.192-2.869c-.117-.252-.478-.146-.657.281a12.62,12.62,0,0,0-.535,2.848c-.016.086-.034.177-.052.265-.416-1.731-1.325-2.861-1.952-4.558-.868-2.357.546-5.907.112-8.466a2.584,2.584,0,0,0-.2-.769c-.348-.678-1.32.338-1.1.9a4.531,4.531,0,0,1,.262,1.4c-.135,1.572-1.219,3.677-1.349,5.343-2.645-1.055-4.194-4.054-3.906-8.243.042-.6-.78-.255-.881.369-.5,3.025-.881,5.777-.195,7.965-2.57.031-4.579-1.2-4.452-4.859.018-.528-.673-.125-.7.4-.208,4.02-.353,9,2.744,9.81,1.642.429,3.791-.748,5.608-.85a4.873,4.873,0,0,1,5.369,3.7,3.294,3.294,0,0,1-.793-.042,8.646,8.646,0,0,0-2.082-.2c-.348.018-.652.722-.385.811a6.907,6.907,0,0,0,1.6.567,14.1,14.1,0,0,0-1.52,1.637,34.23,34.23,0,0,1-2.762,3.28c-1.045,1.016-3.94,3.625-4.774,2.713-.052-.055-.14-.01-.2.07a9.628,9.628,0,0,1-1.136-.9,8.392,8.392,0,0,0-1.894-1.655c-1.718-.873-3.339.613-5.486,1.952-3.056,1.9-5.379.182-8.4,2.076a6.691,6.691,0,0,0-.567.4c-2.165.743-3.477,4.683-4.581,6.889a30.363,30.363,0,0,1-3.864,6.1A25.763,25.763,0,0,1,35.809,120a15.917,15.917,0,0,0-1.954,1.58,23.309,23.309,0,0,0-1.538,3.539,20.7,20.7,0,0,1-4.457,6.51c-.369.372-.824.6-1,1.2-.226.777.395.657.452,1.18.036.356.683.164.642-.268a2.051,2.051,0,0,0-.031-.322,28.556,28.556,0,0,0,3.742-5.332c1.024-1.674,2.708-4.067,3.163-5.933,1.881-.8,4.08-2.807,5.774-4.485.169-.169.338-.343.507-.515a28.756,28.756,0,0,1-5.522,8.1.846.846,0,0,0-.242.707,21.478,21.478,0,0,0-.852,2.479c-.143.351-.283.7-.421,1.058-.39.99-.787,1.985-1.232,2.968a24.707,24.707,0,0,1-2.69,3.986.609.609,0,0,0-.127.631c.127.255.255.509.385.761.109.218.528-.031.639-.369.078-.229.161-.452.247-.676a16.887,16.887,0,0,0,2.882-5.3c.842-2.123,1.72-4.184,2.71-6.263a39.7,39.7,0,0,0,8.88-8.136,2.5,2.5,0,0,1,1.432-.6c1.159.1,1.64,1.671,2.807,1.876.868.151,1.863-.094,2.708.14.465.13.8.4,1.4.216.385-.117.884-.605,1.18-.681.572-.146,1.214.182,1.8.13a7.394,7.394,0,0,0,.772-.117c.185,1.616,1.221,2.432,2.082,3.43A8.277,8.277,0,0,1,61.5,124.4q.3,1.431.538,2.905c.057.34.081.743.122,1.128.034.728.042,1.473.008,2.24-.005.182.133.221.27.153l.346-.164a.6.6,0,0,0,.275-.47,91.725,91.725,0,0,0-2.295-13.279c.691.733,1.437,1.4,2.087,2.193.78.954,1.346,2.328,2.313,3a23.576,23.576,0,0,1,1.4,4.948c.016.109.159.114.255.018.174-.179.351-.348.53-.509a.465.465,0,0,0,.159-.405,21.259,21.259,0,0,0-.9-2.032,8.109,8.109,0,0,0-1.432-3.285,20.514,20.514,0,0,0-1.564-3.919,24.051,24.051,0,0,0-1.089-2.269c.062-.161.12-.322.179-.47.148-.379.356-.858.491-1.3,3.381-2.393,8.134-7.159,10.013-11.806,1.016-.218,2.045-.808,2.869-.3.572.353.707,1.292,1.281,1.632.626.372,1.489-.156,2.128-1.234A.409.409,0,0,0,79.526,100.774Z" transform="translate(-26.815 -77.054)" fill="#663a1d"/>
            </g>
            <g id="Grupo_81535" data-name="Grupo 81535" transform="translate(17.333 134.133)">
              <path id="Trazado_113164" data-name="Trazado 113164" d="M51.663,137.705c.239-2.128,1.281-5.54.268-6.892-.509-.678-1.7-.369-2.084-1.055-.439-.79-.418-2.123-.8-3-.772-1.767-1.985-3.415-4.2-3.448-1.931-.029-2.487.405-3.682-1.247a6.056,6.056,0,0,1-1.292-3.222c-.216-2.357,1.336-2.905,3.817-4.685a12.3,12.3,0,0,0,5-8.108c.889-4.231-2.4,3.68-3.191,4.821-1.84,2.63-2.838,1.7-5.073,3.056,1.341-1.5,2.224-5.436-1.133-3.264-2.069,1.341-2.6,3.105-1.5,4.036,1.26,1.06,2.263-1.4.556,1.18-1.19,1.8-2.043,2.482-2.718,4.511A40.73,40.73,0,0,0,33.485,130.6c0-.031,1.141-2.866,1.175-2.981.4-1.364.642-2.682,1.034-4.046a10.093,10.093,0,0,1,3.186-5.5c-.977,6.424,3.137,6.382,2.339,7.3a9.9,9.9,0,0,0-.624,2.019,14.366,14.366,0,0,0-.3,3.241,20.41,20.41,0,0,0,1.39,6.559c.426,1.3,2.885,4.233,2.5,5.618-.265.951-3.269,4.566-1.011,2.786a6.841,6.841,0,0,0,2.076-3.724c.364-2.258.46-5.579-.977-6.338-.611-.32-1.72.195-1.146-.813.21-.808.39-1.606.533-2.391a24.043,24.043,0,0,0,.444-4.722,12.188,12.188,0,0,1,6.2,8.246,7.682,7.682,0,0,1,.179,3.264c-.255.925-1.892,2.606-1.047,3.04S52.965,137.227,51.663,137.705Z" transform="translate(-33.485 -104.814)" fill="#663a1d"/>
            </g>
          </g>
        </g>
        <path id="Trazado_113165" data-name="Trazado 113165" d="M51.053,113.438c.125,5.41,5.974,68,4.264,77-1.421,7.4-8.027,37.577-10.311,48.005-7.7-2.742-14.7-5.483-21.4-10.787C2.947,211.3,11.047,191.512,12.775,167.768c1.907-26.054,16.5-45.193,21.236-70.1,1.169-6.164,2.014-13.261,3.6-20.088a7.042,7.042,0,0,0,.987-1.936c1.764.538,4.051.252,6.949-1.632,10.041-6.486,12.7,8.082,12.7,8.082S50.944,108.043,51.053,113.438Z" transform="translate(-9.763 5.51)" fill="#4b2417" opacity="0.5"/>
      </g>
      <g id="Grupo_81561" data-name="Grupo 81561" transform="translate(44.312 28.09)" style="mix-blend-mode: multiply;isolation: isolate">
        <g id="Grupo_81560" data-name="Grupo 81560" transform="translate(0)">
          <g id="Grupo_81541" data-name="Grupo 81541" transform="translate(111.273)">
            <g id="Grupo_81540" data-name="Grupo 81540">
              <g id="Grupo_81539" data-name="Grupo 81539" clip-path="url(#clip-path)">
                <path id="Trazado_113166" data-name="Trazado 113166" d="M95.527,54.651l-25.952.876V53.172H95.527Z" transform="translate(-69.729 -53.24)" fill="#fffcfb"/>
                <path id="Trazado_113167" data-name="Trazado 113167" d="M95.527,56.764l-25.952.876V54.617l25.952-.876Z" transform="translate(-69.729 -52.329)" fill="#fffcfa"/>
                <path id="Trazado_113168" data-name="Trazado 113168" d="M95.527,57.928,69.575,58.8V55.78L95.527,54.9Z" transform="translate(-69.729 -50.469)" fill="#fffbf9"/>
                <path id="Trazado_113169" data-name="Trazado 113169" d="M95.527,59.091l-25.952.876V56.944l25.952-.876Z" transform="translate(-69.729 -48.609)" fill="#fffaf8"/>
                <path id="Trazado_113170" data-name="Trazado 113170" d="M95.527,60.254l-25.952.876V58.107l25.952-.876Z" transform="translate(-69.729 -46.75)" fill="#fffaf7"/>
                <path id="Trazado_113171" data-name="Trazado 113171" d="M95.527,61.418l-25.952.876V59.271l25.952-.876Z" transform="translate(-69.729 -44.89)" fill="#fff9f6"/>
                <path id="Trazado_113172" data-name="Trazado 113172" d="M95.527,62.581l-25.952.876V60.434l25.952-.876Z" transform="translate(-69.729 -43.03)" fill="#fff8f5"/>
                <path id="Trazado_113173" data-name="Trazado 113173" d="M95.527,63.744l-25.952.876V61.6l25.952-.876Z" transform="translate(-69.729 -41.17)" fill="#fff8f4"/>
                <path id="Trazado_113174" data-name="Trazado 113174" d="M95.527,64.908l-25.952.876V62.761l25.952-.876Z" transform="translate(-69.729 -39.31)" fill="#fff7f3"/>
                <path id="Trazado_113175" data-name="Trazado 113175" d="M95.527,66.071l-25.952.876V63.924l25.952-.876Z" transform="translate(-69.729 -37.45)" fill="#fff6f2"/>
                <path id="Trazado_113176" data-name="Trazado 113176" d="M95.527,67.235l-25.952.876V65.087l25.952-.876Z" transform="translate(-69.729 -35.591)" fill="#fff6f1"/>
                <path id="Trazado_113177" data-name="Trazado 113177" d="M95.527,68.4l-25.952.876V66.251l25.952-.876Z" transform="translate(-69.729 -33.731)" fill="#fff5f0"/>
                <path id="Trazado_113178" data-name="Trazado 113178" d="M95.527,69.561l-25.952.876V67.414l25.952-.876Z" transform="translate(-69.729 -31.871)" fill="#fff4ef"/>
                <path id="Trazado_113179" data-name="Trazado 113179" d="M95.527,70.725,69.575,71.6V68.577L95.527,67.7Z" transform="translate(-69.729 -30.011)" fill="#fff4ee"/>
                <path id="Trazado_113180" data-name="Trazado 113180" d="M95.527,71.888l-25.952.876V69.741l25.952-.876Z" transform="translate(-69.729 -28.151)" fill="#fff3ed"/>
                <path id="Trazado_113181" data-name="Trazado 113181" d="M95.527,73.052l-25.952.876V70.9l25.952-.876Z" transform="translate(-69.729 -26.292)" fill="#fff2ec"/>
                <path id="Trazado_113182" data-name="Trazado 113182" d="M95.527,74.215l-25.952.876V72.068l25.952-.876Z" transform="translate(-69.729 -24.432)" fill="#fff2eb"/>
                <path id="Trazado_113183" data-name="Trazado 113183" d="M95.527,75.378l-25.952.876V73.231l25.952-.876Z" transform="translate(-69.729 -22.572)" fill="#fff1ea"/>
                <path id="Trazado_113184" data-name="Trazado 113184" d="M69.575,74.394l25.952-.876v1.809H69.575Z" transform="translate(-69.729 -20.712)" fill="#fff0e9"/>
              </g>
            </g>
          </g>
          <g id="Grupo_81544" data-name="Grupo 81544" transform="translate(65.356 18.791)">
            <g id="Grupo_81543" data-name="Grupo 81543">
              <g id="Grupo_81542" data-name="Grupo 81542" clip-path="url(#clip-path-2)">
                <path id="Trazado_113186" data-name="Trazado 113186" d="M56.609,60.428l-4.7.159v-.159Z" transform="translate(-52.052 -60.431)" fill="#fff9f6"/>
                <path id="Trazado_113187" data-name="Trazado 113187" d="M88.977,62.358,51.91,63.609V60.586l4.7-.159H88.977Z" transform="translate(-52.052 -60.431)" fill="#fff8f5"/>
                <path id="Trazado_113188" data-name="Trazado 113188" d="M88.977,64.193,51.91,65.444V62.421L88.977,61.17Z" transform="translate(-52.052 -59.244)" fill="#fff8f4"/>
                <path id="Trazado_113189" data-name="Trazado 113189" d="M88.977,65.356,51.91,66.607V63.585l37.067-1.251Z" transform="translate(-52.052 -57.384)" fill="#fff7f3"/>
                <path id="Trazado_113190" data-name="Trazado 113190" d="M88.977,66.519,51.91,67.77V64.748L88.977,63.5Z" transform="translate(-52.052 -55.525)" fill="#fff6f2"/>
                <path id="Trazado_113191" data-name="Trazado 113191" d="M88.977,67.682,51.91,68.933V65.911L88.977,64.66Z" transform="translate(-52.052 -53.665)" fill="#fff6f1"/>
                <path id="Trazado_113192" data-name="Trazado 113192" d="M88.977,68.846,51.91,70.1V67.074l37.067-1.251Z" transform="translate(-52.052 -51.806)" fill="#fff5f0"/>
                <path id="Trazado_113193" data-name="Trazado 113193" d="M88.977,70.009,51.91,71.26V68.237l37.067-1.251Z" transform="translate(-52.052 -49.946)" fill="#fff4ef"/>
                <path id="Trazado_113194" data-name="Trazado 113194" d="M88.977,71.172,51.91,72.423V69.4l37.067-1.251Z" transform="translate(-52.052 -48.087)" fill="#fff4ee"/>
                <path id="Trazado_113195" data-name="Trazado 113195" d="M88.977,72.335,51.91,73.586V70.564l37.067-1.251Z" transform="translate(-52.052 -46.228)" fill="#fff3ed"/>
                <path id="Trazado_113196" data-name="Trazado 113196" d="M88.977,73.5,51.91,74.749V71.726l37.067-1.251Z" transform="translate(-52.052 -44.368)" fill="#fff2ec"/>
                <path id="Trazado_113197" data-name="Trazado 113197" d="M88.977,74.661,51.91,75.912V72.89l37.067-1.251Z" transform="translate(-52.052 -42.509)" fill="#fff2eb"/>
                <path id="Trazado_113198" data-name="Trazado 113198" d="M88.977,75.824,51.91,77.075V74.053L88.977,72.8Z" transform="translate(-52.052 -40.649)" fill="#fff1ea"/>
                <path id="Trazado_113199" data-name="Trazado 113199" d="M88.977,76.987,51.91,78.239V75.216l37.067-1.251Z" transform="translate(-52.052 -38.79)" fill="#fff0e9"/>
                <path id="Trazado_113200" data-name="Trazado 113200" d="M88.977,78.151,51.91,79.4V76.379l37.067-1.251Z" transform="translate(-52.052 -36.93)" fill="#fff0e8"/>
                <path id="Trazado_113201" data-name="Trazado 113201" d="M88.977,79.313,51.91,80.565V77.542l37.067-1.251Z" transform="translate(-52.052 -35.071)" fill="#ffefe7"/>
                <path id="Trazado_113202" data-name="Trazado 113202" d="M88.977,80.477,51.91,81.728V78.705l37.067-1.251Z" transform="translate(-52.052 -33.212)" fill="#ffeee6"/>
                <path id="Trazado_113203" data-name="Trazado 113203" d="M88.977,81.64,51.91,82.891V79.868l37.067-1.251Z" transform="translate(-52.052 -31.352)" fill="#ffeee5"/>
                <path id="Trazado_113204" data-name="Trazado 113204" d="M88.977,82.8,51.91,84.054V81.031L88.977,79.78Z" transform="translate(-52.052 -29.493)" fill="#ffede4"/>
                <path id="Trazado_113205" data-name="Trazado 113205" d="M88.977,83.966,51.91,85.217V82.195l37.067-1.251Z" transform="translate(-52.052 -27.633)" fill="#ffece3"/>
                <path id="Trazado_113206" data-name="Trazado 113206" d="M51.91,83.358l37.067-1.251v2.371H51.91Z" transform="translate(-52.052 -25.774)" fill="#ffece2"/>
              </g>
            </g>
          </g>
          <g id="Grupo_81547" data-name="Grupo 81547" transform="translate(48.867 85.578)">
            <g id="Grupo_81546" data-name="Grupo 81546">
              <g id="Grupo_81545" data-name="Grupo 81545" clip-path="url(#clip-path-3)">
                <path id="Trazado_113208" data-name="Trazado 113208" d="M59.767,86.116l-14.219.48v-.48Z" transform="translate(-45.735 -86.151)" fill="#ffeae0"/>
                <path id="Trazado_113209" data-name="Trazado 113209" d="M92.167,88.045,45.548,89.619V86.6l14.219-.48h32.4Z" transform="translate(-45.735 -86.151)" fill="#ffeadf"/>
                <path id="Trazado_113210" data-name="Trazado 113210" d="M92.167,89.882,45.548,91.455V88.432l46.619-1.574Z" transform="translate(-45.735 -84.964)" fill="#ffe9de"/>
                <path id="Trazado_113211" data-name="Trazado 113211" d="M92.167,91.045,45.548,92.618V89.6l46.619-1.573Z" transform="translate(-45.735 -83.104)" fill="#ffe8dd"/>
                <path id="Trazado_113212" data-name="Trazado 113212" d="M92.167,92.208,45.548,93.782V90.758l46.619-1.573Z" transform="translate(-45.735 -81.244)" fill="#ffe8dc"/>
                <path id="Trazado_113213" data-name="Trazado 113213" d="M92.167,93.371,45.548,94.945V91.922l46.619-1.573Z" transform="translate(-45.735 -79.384)" fill="#ffe7db"/>
                <path id="Trazado_113214" data-name="Trazado 113214" d="M92.167,94.535,45.548,96.108V93.085l46.619-1.574Z" transform="translate(-45.735 -77.525)" fill="#ffe6da"/>
                <path id="Trazado_113215" data-name="Trazado 113215" d="M92.167,95.7,45.548,97.272V94.248l46.619-1.573Z" transform="translate(-45.735 -75.665)" fill="#ffe6d8"/>
                <path id="Trazado_113216" data-name="Trazado 113216" d="M92.167,96.862,45.548,98.435V95.412l46.619-1.573Z" transform="translate(-45.735 -73.805)" fill="#ffe5d7"/>
                <path id="Trazado_113217" data-name="Trazado 113217" d="M92.167,98.025,45.548,99.6V96.575L92.167,95Z" transform="translate(-45.735 -71.945)" fill="#ffe4d6"/>
                <path id="Trazado_113218" data-name="Trazado 113218" d="M92.167,99.188l-46.619,1.573V97.739l46.619-1.574Z" transform="translate(-45.735 -70.085)" fill="#ffe4d5"/>
                <path id="Trazado_113219" data-name="Trazado 113219" d="M92.167,100.352l-46.619,1.573V98.9l46.619-1.573Z" transform="translate(-45.735 -68.225)" fill="#ffe3d4"/>
                <path id="Trazado_113220" data-name="Trazado 113220" d="M92.167,101.515l-46.619,1.573v-3.023l46.619-1.574Z" transform="translate(-45.735 -66.366)" fill="#ffe2d3"/>
                <path id="Trazado_113221" data-name="Trazado 113221" d="M92.167,102.678l-46.619,1.574v-3.024l46.619-1.573Z" transform="translate(-45.735 -64.506)" fill="#ffe2d2"/>
                <path id="Trazado_113222" data-name="Trazado 113222" d="M92.167,103.842l-46.619,1.573v-3.023l46.619-1.574Z" transform="translate(-45.735 -62.646)" fill="#ffe1d1"/>
                <path id="Trazado_113223" data-name="Trazado 113223" d="M92.167,105.005l-46.619,1.574v-3.023l46.619-1.573Z" transform="translate(-45.735 -60.786)" fill="#ffe0d0"/>
                <path id="Trazado_113224" data-name="Trazado 113224" d="M92.167,106.168l-46.619,1.573v-3.023l46.619-1.573Z" transform="translate(-45.735 -58.926)" fill="#ffe0cf"/>
                <path id="Trazado_113225" data-name="Trazado 113225" d="M92.167,107.332l-46.619,1.574v-3.024l46.619-1.573Z" transform="translate(-45.735 -57.066)" fill="#ffdfce"/>
                <path id="Trazado_113226" data-name="Trazado 113226" d="M92.167,108.5l-46.619,1.573v-3.023l46.619-1.574Z" transform="translate(-45.735 -55.207)" fill="#ffdecd"/>
                <path id="Trazado_113227" data-name="Trazado 113227" d="M92.167,109.659l-46.619,1.574v-3.023l46.619-1.573Z" transform="translate(-45.735 -53.347)" fill="#ffdecc"/>
                <path id="Trazado_113228" data-name="Trazado 113228" d="M92.167,110.822,45.548,112.4v-3.023L92.167,107.8Z" transform="translate(-45.735 -51.487)" fill="#ffddcb"/>
                <path id="Trazado_113229" data-name="Trazado 113229" d="M92.167,111.985l-46.619,1.573v-3.023l46.619-1.574Z" transform="translate(-45.735 -49.627)" fill="#ffdcca"/>
                <path id="Trazado_113230" data-name="Trazado 113230" d="M92.167,113.149l-46.619,1.574V111.7l46.619-1.574Z" transform="translate(-45.735 -47.767)" fill="#ffdcc9"/>
                <path id="Trazado_113231" data-name="Trazado 113231" d="M92.167,114.312l-46.619,1.574v-3.023l46.619-1.574Z" transform="translate(-45.735 -45.907)" fill="#ffdbc8"/>
                <path id="Trazado_113232" data-name="Trazado 113232" d="M45.548,114.026l46.619-1.573v2.237H45.548Z" transform="translate(-45.735 -44.048)" fill="#ffdac7"/>
              </g>
            </g>
          </g>
          <g id="Grupo_81550" data-name="Grupo 81550" transform="translate(91.958 19.954)">
            <g id="Grupo_81549" data-name="Grupo 81549">
              <g id="Grupo_81548" data-name="Grupo 81548" clip-path="url(#clip-path-4)">
                <path id="Trazado_113234" data-name="Trazado 113234" d="M78.007,61.554l-15.828.534V60.82H78.007Z" transform="translate(-62.238 -60.966)" fill="#fff8f5"/>
                <path id="Trazado_113235" data-name="Trazado 113235" d="M78.007,64.126l-15.828.534V61.637L78.007,61.1Z" transform="translate(-62.238 -60.515)" fill="#fff8f4"/>
                <path id="Trazado_113236" data-name="Trazado 113236" d="M78.007,65.289l-15.828.535V62.8l15.828-.534Z" transform="translate(-62.238 -58.655)" fill="#fff7f3"/>
                <path id="Trazado_113237" data-name="Trazado 113237" d="M78.007,66.453l-15.828.534V63.964l15.828-.535Z" transform="translate(-62.238 -56.795)" fill="#fff6f2"/>
                <path id="Trazado_113238" data-name="Trazado 113238" d="M78.007,67.616l-15.828.534V65.127l15.828-.534Z" transform="translate(-62.238 -54.935)" fill="#fff6f1"/>
                <path id="Trazado_113239" data-name="Trazado 113239" d="M78.007,68.779l-2.526.085h-13.3V66.29l15.828-.534Z" transform="translate(-62.238 -53.075)" fill="#fff5f0"/>
                <path id="Trazado_113240" data-name="Trazado 113240" d="M67.3,67l2.526-.086A24.859,24.859,0,0,1,67.3,67Z" transform="translate(-54.055 -51.216)" fill="#fff4ef"/>
              </g>
            </g>
          </g>
          <g id="Grupo_81553" data-name="Grupo 81553" transform="translate(91.712 16.055)">
            <g id="Grupo_81552" data-name="Grupo 81552">
              <g id="Grupo_81551" data-name="Grupo 81551" clip-path="url(#clip-path-5)">
                <path id="Trazado_113242" data-name="Trazado 113242" d="M77.4,60.939l-15.315.517V59.329H77.4Z" transform="translate(-62.136 -59.451)" fill="#fff9f6"/>
                <path id="Trazado_113243" data-name="Trazado 113243" d="M77.4,62.972l-15.315.517V60.466L77.4,59.949Z" transform="translate(-62.136 -58.46)" fill="#fff8f5"/>
                <path id="Trazado_113244" data-name="Trazado 113244" d="M77.4,64.135l-15.315.517V61.629L77.4,61.112Z" transform="translate(-62.136 -56.6)" fill="#fff8f4"/>
                <path id="Trazado_113245" data-name="Trazado 113245" d="M77.4,65.3l-15.315.517V62.793L77.4,62.275Z" transform="translate(-62.136 -54.741)" fill="#fff7f3"/>
                <path id="Trazado_113246" data-name="Trazado 113246" d="M77.4,66.462l-15.315.517V63.956L77.4,63.439Z" transform="translate(-62.136 -52.881)" fill="#fff6f2"/>
                <path id="Trazado_113247" data-name="Trazado 113247" d="M77.4,67.625l-15.315.517V65.119L77.4,64.6Z" transform="translate(-62.136 -51.021)" fill="#fff6f1"/>
                <path id="Trazado_113248" data-name="Trazado 113248" d="M62.089,66.282,77.4,65.766v.578H62.089Z" transform="translate(-62.136 -49.161)" fill="#fff5f0"/>
              </g>
            </g>
          </g>
          <g id="Grupo_81556" data-name="Grupo 81556" transform="translate(0 61.995)">
            <g id="Grupo_81555" data-name="Grupo 81555">
              <g id="Grupo_81554" data-name="Grupo 81554" clip-path="url(#clip-path-6)">
                <path id="Trazado_113250" data-name="Trazado 113250" d="M79.4,76.944,26.747,78.721V76.944Z" transform="translate(-26.924 -77.231)" fill="#fff0e8"/>
                <path id="Trazado_113251" data-name="Trazado 113251" d="M79.7,79.957l-52.95,1.787V78.721L79.4,76.944H79.7Z" transform="translate(-26.924 -77.231)" fill="#ffefe7"/>
                <path id="Trazado_113252" data-name="Trazado 113252" d="M79.7,81.127l-52.95,1.787V79.891L79.7,78.1Z" transform="translate(-26.924 -75.378)" fill="#ffeee6"/>
                <path id="Trazado_113253" data-name="Trazado 113253" d="M79.7,82.29l-52.95,1.787V81.054L79.7,79.267Z" transform="translate(-26.924 -73.518)" fill="#ffeee5"/>
                <path id="Trazado_113254" data-name="Trazado 113254" d="M79.7,83.454l-52.95,1.787V82.217L79.7,80.43Z" transform="translate(-26.924 -71.658)" fill="#ffede4"/>
                <path id="Trazado_113255" data-name="Trazado 113255" d="M79.7,84.617,26.747,86.4V83.381L79.7,81.594Z" transform="translate(-26.924 -69.798)" fill="#ffece3"/>
                <path id="Trazado_113256" data-name="Trazado 113256" d="M79.7,85.78l-52.95,1.787V84.544L79.7,82.757Z" transform="translate(-26.924 -67.938)" fill="#ffece2"/>
                <path id="Trazado_113257" data-name="Trazado 113257" d="M79.7,86.943l-52.95,1.787V85.707L79.7,83.92Z" transform="translate(-26.924 -66.078)" fill="#ffebe1"/>
                <path id="Trazado_113258" data-name="Trazado 113258" d="M79.7,88.107l-52.95,1.787V86.871L79.7,85.084Z" transform="translate(-26.924 -64.219)" fill="#ffeae0"/>
                <path id="Trazado_113259" data-name="Trazado 113259" d="M79.7,89.27l-52.95,1.787V88.034L79.7,86.247Z" transform="translate(-26.924 -62.359)" fill="#ffeadf"/>
                <path id="Trazado_113260" data-name="Trazado 113260" d="M79.7,90.434l-52.95,1.787V89.2L79.7,87.41Z" transform="translate(-26.924 -60.499)" fill="#ffe9de"/>
                <path id="Trazado_113261" data-name="Trazado 113261" d="M79.7,91.6l-52.95,1.787V90.361L79.7,88.574Z" transform="translate(-26.924 -58.639)" fill="#ffe8dd"/>
                <path id="Trazado_113262" data-name="Trazado 113262" d="M79.7,92.76l-52.95,1.787V91.524L79.7,89.737Z" transform="translate(-26.924 -56.779)" fill="#ffe8dc"/>
                <path id="Trazado_113263" data-name="Trazado 113263" d="M79.7,93.924l-52.95,1.787V92.688L79.7,90.9Z" transform="translate(-26.924 -54.919)" fill="#ffe7db"/>
                <path id="Trazado_113264" data-name="Trazado 113264" d="M79.7,95.087l-52.95,1.787V93.851L79.7,92.064Z" transform="translate(-26.924 -53.06)" fill="#ffe6da"/>
                <path id="Trazado_113265" data-name="Trazado 113265" d="M79.7,96.25l-52.95,1.787V95.015L79.7,93.227Z" transform="translate(-26.924 -51.2)" fill="#ffe6d8"/>
                <path id="Trazado_113266" data-name="Trazado 113266" d="M79.7,97.414,26.747,99.2V96.178L79.7,94.391Z" transform="translate(-26.924 -49.34)" fill="#ffe5d7"/>
                <path id="Trazado_113267" data-name="Trazado 113267" d="M79.7,98.577l-52.95,1.787V97.341L79.7,95.554Z" transform="translate(-26.924 -47.48)" fill="#ffe4d6"/>
                <path id="Trazado_113268" data-name="Trazado 113268" d="M79.7,99.74l-52.95,1.787V98.5L79.7,96.717Z" transform="translate(-26.924 -45.62)" fill="#ffe4d5"/>
                <path id="Trazado_113269" data-name="Trazado 113269" d="M79.7,100.9l-52.95,1.787V99.668L79.7,97.881Z" transform="translate(-26.924 -43.76)" fill="#ffe3d4"/>
                <path id="Trazado_113270" data-name="Trazado 113270" d="M79.7,102.067l-24.831.838H26.747v-2.074L79.7,99.044Z" transform="translate(-26.924 -41.901)" fill="#ffe2d3"/>
                <path id="Trazado_113271" data-name="Trazado 113271" d="M37.567,101.045l24.831-.838v.838Z" transform="translate(-9.626 -40.041)" fill="#ffe2d2"/>
              </g>
            </g>
          </g>
          <g id="Grupo_81559" data-name="Grupo 81559" transform="translate(17.333 134.133)">
            <g id="Grupo_81558" data-name="Grupo 81558">
              <g id="Grupo_81557" data-name="Grupo 81557" clip-path="url(#clip-path-7)">
                <path id="Trazado_113273" data-name="Trazado 113273" d="M52.965,104.3l-19.479.657v-1.292H52.965Z" transform="translate(-33.484 -106.657)" fill="#ffe0d0"/>
                <path id="Trazado_113274" data-name="Trazado 113274" d="M52.965,106.928l-19.479.657v-3.023l19.479-.657Z" transform="translate(-33.484 -106.267)" fill="#ffe0cf"/>
                <path id="Trazado_113275" data-name="Trazado 113275" d="M52.965,108.092l-19.479.657v-3.023l19.479-.657Z" transform="translate(-33.484 -104.408)" fill="#ffdfce"/>
                <path id="Trazado_113276" data-name="Trazado 113276" d="M52.965,109.255l-19.479.657v-3.023l19.479-.657Z" transform="translate(-33.484 -102.548)" fill="#ffdecd"/>
                <path id="Trazado_113277" data-name="Trazado 113277" d="M52.965,110.418l-19.479.657v-3.023l19.479-.657Z" transform="translate(-33.484 -100.688)" fill="#ffdecc"/>
                <path id="Trazado_113278" data-name="Trazado 113278" d="M52.965,111.582l-19.479.657v-3.023l19.479-.657Z" transform="translate(-33.484 -98.828)" fill="#ffddcb"/>
                <path id="Trazado_113279" data-name="Trazado 113279" d="M52.965,112.745l-19.479.657v-3.023l19.479-.657Z" transform="translate(-33.484 -96.968)" fill="#ffdcca"/>
                <path id="Trazado_113280" data-name="Trazado 113280" d="M52.965,113.908l-19.479.658v-3.023l19.479-.657Z" transform="translate(-33.484 -95.108)" fill="#ffdcc9"/>
                <path id="Trazado_113281" data-name="Trazado 113281" d="M52.965,115.072l-19.479.657v-3.023l19.479-.658Z" transform="translate(-33.484 -93.249)" fill="#ffdbc8"/>
                <path id="Trazado_113282" data-name="Trazado 113282" d="M52.965,116.235l-19.479.657v-3.023l19.479-.657Z" transform="translate(-33.484 -91.389)" fill="#ffdac7"/>
                <path id="Trazado_113283" data-name="Trazado 113283" d="M52.965,117.4l-19.479.657v-3.023l19.479-.657Z" transform="translate(-33.484 -89.529)" fill="#ffdac6"/>
                <path id="Trazado_113284" data-name="Trazado 113284" d="M52.965,118.562l-19.479.658V116.2l19.479-.657Z" transform="translate(-33.484 -87.669)" fill="#ffd9c5"/>
                <path id="Trazado_113285" data-name="Trazado 113285" d="M52.965,119.725l-19.479.657V117.36l19.479-.658Z" transform="translate(-33.484 -85.809)" fill="#ffd8c4"/>
                <path id="Trazado_113286" data-name="Trazado 113286" d="M52.965,120.889l-19.479.657v-3.023l19.479-.657Z" transform="translate(-33.484 -83.949)" fill="#ffd8c3"/>
                <path id="Trazado_113287" data-name="Trazado 113287" d="M52.965,122.052l-19.479.657v-3.023l19.479-.657Z" transform="translate(-33.484 -82.089)" fill="#ffd7c2"/>
                <path id="Trazado_113288" data-name="Trazado 113288" d="M33.485,120.85l19.479-.657v2.6H33.485Z" transform="translate(-33.484 -80.23)" fill="#ffd6c1"/>
              </g>
            </g>
          </g>
        </g>
      </g>
    </g>
    <g id="Grupo_81573" data-name="Grupo 81573" transform="translate(140.82 114.651)">
      <g id="Grupo_81567" data-name="Grupo 81567">
        <g id="Grupo_81566" data-name="Grupo 81566" transform="translate(0 9.071)">
          <g id="Grupo_81563" data-name="Grupo 81563" transform="translate(1.29 68.724)">
            <path id="Trazado_113290" data-name="Trazado 113290" d="M81.282,107.3a7.9,7.9,0,0,0-4.368-6.5c-1.931-.891-6.354-.917-8.121.073-4.108,2.305-6.754,4.576-7.866,9.088-1.473,5.982,4.236,14.3,10.293,13.542C77.15,122.763,81.879,113.351,81.282,107.3Z" transform="translate(-60.692 -100.132)" fill="#969594"/>
            <path id="Trazado_113291" data-name="Trazado 113291" d="M73.985,112.321c-3.066,2.2-7.736,3.29-10.946.7a5.2,5.2,0,0,1-1.05-1.12c-2.929-4.233,3.126-10.569,8.2-10.47A5.69,5.69,0,0,1,72.4,101.2a5.085,5.085,0,0,1,4.992,1.554,4.254,4.254,0,0,1,1.143,2.981C78.473,108.327,76.048,110.848,73.985,112.321Z" transform="translate(-59.842 -98.599)" fill="#656461"/>
            <path id="Trazado_113292" data-name="Trazado 113292" d="M73.513,110.786c-3.066,2.2-7.736,3.29-10.946.7a5.2,5.2,0,0,1-1.05-1.12c.049-3.851,4.844-8.043,8.971-7.965a5.682,5.682,0,0,1,2.214-.229,5.017,5.017,0,0,1,4.989,1.551l.372.476C78,106.792,75.577,109.312,73.513,110.786Z" transform="translate(-59.371 -97.064)" fill="#4b270e"/>
          </g>
          <g id="Grupo_81565" data-name="Grupo 81565">
            <g id="Grupo_81564" data-name="Grupo 81564">
              <path id="Trazado_113293" data-name="Trazado 113293" d="M106.294,134.894s-4.623,4.168-9.36,3.95-11.569,1.315-11.569,1.315-6-2.632-5.286,0l.707,2.632a6.722,6.722,0,0,0,3.477,3.511c2.425.876,3.937,6,7.588,5.74s3.729,1.939,11.359,0,11.676-.257,11.676-.257S116.868,137.747,106.294,134.894Z" transform="translate(-28.502 24.163)" fill="#d99f77"/>
              <path id="Trazado_113294" data-name="Trazado 113294" d="M78.262,114.249s-9.3.741-2.778,11.049S95,147.233,100.953,153.816s16.743,21.5,17.4,24.129,3.524,10.309,8.812,8.555,5.288-2.851,5.288-6.143-3.526-7.676-5.509-9.87-6.608-7.9-7.71-13.162S93.3,105.605,78.262,114.249Z" transform="translate(-39.462 -10.55)" fill="#d99f77"/>
              <path id="Trazado_113295" data-name="Trazado 113295" d="M76.834,114.4s-2.136-5.325,6.2-4.088,42.046,19.222,42.927,19.88,18.284,7.458,11.234,18.645-1.762,12.723-12.115,8.994-15.2-4.826-26.436-12.941S66.53,120.318,76.834,114.4Z" transform="translate(-38.035 -15.44)" fill="#e4a982"/>
              <path id="Trazado_113296" data-name="Trazado 113296" d="M104.143,107.926c.59-.683,1.266,3.763-2.432-1.962S78.465,92.875,78.029,90.224s-.67-5.2-.67-5.2-4.691-.967-7.471,2.336,2.43,6.6,8.2,15.522c6.853,10.582,15.457,17.068,19.474,16.66S104.143,107.926,104.143,107.926Z" transform="translate(-45.934 -55.768)" fill="#e4a982"/>
              <path id="Trazado_113297" data-name="Trazado 113297" d="M74.452,86.343l.21,1.237.821,4.782s-2.591,1.726-3.675-.725-5.733-5.054-7.752-3.937,2.172,2.627,2.825,3.867S70.437,97.4,70.437,97.4l7,3.617s5.709,4.155,8.144,5.46,1.115-6.541,1.115-6.541l.257-8.672s-.109-3.571-1.45-4.73-1.6-3.555-4.413-4.111a22.481,22.481,0,0,1-4.932-1.512c-1.255-.473-4.67-.075-5.751-.288s-3.16-2.188-3.675-.722-.081,2.666,2.427,3.607Z" transform="translate(-54.893 -64.607)" fill="#e4a982"/>
              <path id="Trazado_113298" data-name="Trazado 113298" d="M85.769,99.89s.881-6.58,5.067,0,11.9,22.593,11.9,22.593-3.085,4.826-8.482,2.414a30.82,30.82,0,0,1-8.482-5.483S84.667,105.155,85.769,99.89Z" transform="translate(-20.094 -36.471)" fill="#d99f77"/>
              <path id="Trazado_113299" data-name="Trazado 113299" d="M120.657,93.875c-1.32-.66-6.167-5.922-15.86-3.729s-7.713,0-14.321,2.193-9.693,6.58-10.574,14.477S81,118.661,81,119.758s-.452,16.234-1.328,19.3-1.536,6.8-1.536,6.8-1.983,7.9,1.1,10.309,6.387,5.486,11.013,0,7.931-28.515,7.931-29.83.9-16.016.9-16.016,8.921,9.558,11.658,15.025,4.407,8.885,4.407,8.885,3.305,17.549,5.507-2.632A181.228,181.228,0,0,0,120.657,93.875Z" transform="translate(-32.511 -48.223)" fill="#ecb590"/>
              <path id="Trazado_113300" data-name="Trazado 113300" d="M100.993,115.571c-.221-.878-1.541-3.568-8.37-3.867s-18.066,1.175-20.49,0-4.646-2.456-4.646-2.456-3.5,3.251-2.4,7.419,4.846,3.729,14.979,7.019,24.669,7.443,26.654,3.942S100.993,115.571,100.993,115.571Z" transform="translate(-52.722 -16.836)" fill="#ecb590"/>
              <path id="Trazado_113301" data-name="Trazado 113301" d="M118.288,127.337s5.933,5.382,10.345,7.575,6.38,3.321,6.38,3.321,1.341-6.393,6.847-3.542,8.152,9.433,11.676,10.53,7.05,3.511,7.05,4.826,5.039,1.206,5.288,2.851.881,5.265,0,8.118-8.373,3.365-9.693,3.108-7.931-3.986-7.931-3.986-7.279-8.425-12.338-9.212-36.176-10.564-39.284-14.254S118.288,127.337,118.288,127.337Z" transform="translate(-2.383 12.082)" fill="#d99f77"/>
              <path id="Trazado_113302" data-name="Trazado 113302" d="M65.727,114.31l1.177.447,4.553,1.728s2.2-2.193,0-3.729-3.869-6.58-2.375-8.334,2.167,2.63,3.261,3.508,5.062,4.607,5.062,4.607l2.2,7.539s-4.488-.52-3.675,2.113a28.472,28.472,0,0,1,.811,6.718l-8.591-1.432a26.113,26.113,0,0,1-2.425-3.311c-.881-1.536-.881-.439-.881-3.292s-2.2-4.166-2.422-5.483-1.544-5.044-1.544-6.141-1.541-3.511,0-3.729,2.645.439,3.085,3.069Z" transform="translate(-60.195 -25.208)" fill="#ecb590"/>
              <path id="Trazado_113303" data-name="Trazado 113303" d="M88.444,75.247a15.112,15.112,0,0,0-7.77,8.116c-2.365,5.7-.057,11.408,0,12.066s-1.38,1.536,0,4.826a18.518,18.518,0,0,1,1.38,7.458c0,1.315,1.1,4.272,4.186,3.89l3.085-.382,2.375,5.52s8.893-.473,15.943,1.9,9,6.616,9,6.616L112.9,109.466a5.576,5.576,0,0,1-5.2-3.142c-1.983-3.511-.748-3.22-.748-4.974s3.524-4.387,2.643-11.845-1.983-10.748-9.251-14.259S88.444,75.247,88.444,75.247Z" transform="translate(-29.157 -73.687)" fill="#e4a982"/>
              <path id="Trazado_113304" data-name="Trazado 113304" d="M145.6,178.442c-1.549,7.884-19.521,23.443-26.584,24.776-7.04,1.31-26.714-3.285-26.714-3.285s3.3-20.181,7.271-23.468c3.945-3.285,9.9.208,8.586-1.307-1.341-1.541-6.4-7.679-6.4-11.426a4.794,4.794,0,0,0-.335-1.772c-1.006-2.464-3.945-3.8-5.39-6.341C94.265,152.562,85.471,136.1,85.471,136.1a2.887,2.887,0,0,0,.387.179c1.985.9,8.69,3.519,13.718.335,2.165-1.336,4-3.75,5.054-7.754,3.971-15.148-1.11-39.923-1.11-39.923l5.286-2.414s7.5.974,10.805,4.545,7.271,15.867,7.271,15.867a137.726,137.726,0,0,1,4.41,19.716c1.107,9.012-1.315,14.714,0,17.33,1.315,2.645,7.271,8.344,10.132,12.941C144.289,161.548,147.15,170.534,145.6,178.442Z" transform="translate(-19.788 -53.159)" fill="#804b24"/>
            </g>
            <path id="Trazado_113305" data-name="Trazado 113305" d="M115.111,130.583c-1.544-.343-4.779-.216-1.738,4.758s3.911,1.731,7.822,8.438,2.391,8,5.431,10.6,4.782.19,5.868-1.419,3.181-1.788,3.04-4.854-1.115-3.628-1.115-3.628-4.316-.268-4.535,1.247a3.878,3.878,0,0,1-1.8,2.427,9.106,9.106,0,0,0-4.254-7.4C119.456,137.938,120.976,131.88,115.111,130.583Z" transform="translate(22.807 17.089)" fill="#e4a982"/>
          </g>
          <path id="Trazado_113306" data-name="Trazado 113306" d="M106.573,112.53S95.679,111.4,90.83,115.513s-11.325,13.464-7.609,26.706,14.443,16.369,14.443,16.369,13.206-2.57,14.968-2.567,21.1-12.975,15.018-22.928S106.573,112.53,106.573,112.53Z" transform="translate(-25.147 -11.815)" fill="#804b24"/>
        </g>
        <path id="Trazado_113307" data-name="Trazado 113307" d="M136.365,119.054c-.242-.457-.538-.871-.8-1.312-.322-.811-.657-1.622-1.026-2.425-1.3-2.835-4.288-9.35-7.993-8.238a33.325,33.325,0,0,0-.6-8.069,33.662,33.662,0,0,0-2.49-7.1,27.7,27.7,0,0,0-3.591-8.355,20.771,20.771,0,0,0-2.739-4.678c-3.243-4.158-11.71-9.28-17.975-8.212-4.046-.956-8.5-.559-11.73,2.154a9.4,9.4,0,0,0-3.072,4.522,4.6,4.6,0,0,0-.127.956A11.972,11.972,0,0,0,80.8,84.063c-4.841,5.353-1.034,17.393,2.552,22.133a29.352,29.352,0,0,0,12.653,9.75c4.982,1.861,9.818.748,14.714,1.034-.554,9.121,4.714,19.677,10.184,25.345,1.692,1.754,5.205.179,4.779-2.2a2.791,2.791,0,0,0,1.063-.4c.179.208.33.437.515.642a2.86,2.86,0,0,0,4.73-1.419,2.812,2.812,0,0,0,5.221-.413c.239-.813.411-1.624.569-2.435a2.844,2.844,0,0,0,1.4-1.162C141.9,130.228,138.683,123.432,136.365,119.054Z" transform="translate(-30.912 -70.196)" fill="#663a1d"/>
        <path id="Trazado_113308" data-name="Trazado 113308" d="M109.263,87.109c-1.835-3.69-8.438-2.63-11.468-1.214C94.5,87.439,90.9,91.149,91,95c.01.455.663.829,1,.411,2.165-2.731,3.539-5.387,7-6.788a11.832,11.832,0,0,1,6.255-.691c1.357.2,2.282.551,3.612.153A.674.674,0,0,0,109.263,87.109Z" transform="translate(-10.949 -47.19)" fill="#804b24"/>
        <path id="Trazado_113309" data-name="Trazado 113309" d="M97.627,97.659c-4.4-1.39-8.3-2.939-11.489-6.434-3.082-3.376-4.441-7.619-5.53-11.954-.039-.146-.286-.159-.312,0C78.758,88.426,88.18,98.891,97.471,98.8A.583.583,0,0,0,97.627,97.659Z" transform="translate(-28.327 -55.87)" fill="#4b270e"/>
        <path id="Trazado_113310" data-name="Trazado 113310" d="M101.975,92.32c-3.1-1.458-6.414-2.128-9.381-3.953a25.718,25.718,0,0,1-8.57-8.49.232.232,0,0,0-.4.234C87,86.226,94.039,93.617,101.731,93.216,102.173,93.193,102.441,92.538,101.975,92.32Z" transform="translate(-22.793 -54.894)" fill="#4b270e"/>
        <path id="Trazado_113311" data-name="Trazado 113311" d="M88.695,79.194c-.153-.12-.434.034-.3.231,1.5,2.162,3.105,4.236,4.511,6.465s2.5,4.654,3.888,6.907a.425.425,0,0,0,.774-.325A25.118,25.118,0,0,0,88.695,79.194Z" transform="translate(-15.169 -55.878)" fill="#4b270e"/>
        <path id="Trazado_113312" data-name="Trazado 113312" d="M91.661,76.667a.262.262,0,0,0-.411.314,55.364,55.364,0,0,1,3.994,9.059c.943,3.194,1.045,6.486,1.44,9.771.075.629,1,.868,1.188.159C99.61,89.41,96.788,81.061,91.661,76.667Z" transform="translate(-10.602 -59.965)" fill="#4b270e"/>
        <path id="Trazado_113313" data-name="Trazado 113313" d="M89.723,73.717a.09.09,0,0,0-.091.156c4.878,3.573,8.846,7.734,11.268,13.329,2.274,5.257,2.175,10.153,2.079,15.727a.4.4,0,0,0,.772.1C106.7,92.121,99.462,78.722,89.723,73.717Z" transform="translate(-13.204 -64.585)" fill="#4b270e"/>
        <path id="Trazado_113314" data-name="Trazado 113314" d="M102.59,107.354c-3.126-2.069-5.938-4.031-7.783-7.4S92.8,93.176,92.432,89.465c-.029-.278-.429-.457-.582-.156-3.594,7.089,2.645,17.861,10.2,19.311A.7.7,0,0,0,102.59,107.354Z" transform="translate(-11.261 -39.89)" fill="#4b270e"/>
        <path id="Trazado_113315" data-name="Trazado 113315" d="M101.574,102.579a28.545,28.545,0,0,1-8.589-13.115.132.132,0,0,0-.257.036,15.3,15.3,0,0,0,8.43,13.614C101.488,103.27,101.88,102.857,101.574,102.579Z" transform="translate(-8.189 -39.54)" fill="#4b270e"/>
        <path id="Trazado_113316" data-name="Trazado 113316" d="M95.166,87.6a.5.5,0,0,0-.556.722c1.362,2.165,3.285,3.869,4.509,6.172,1.336,2.516,1.783,5.192,2.531,7.9.159.574,1.128.647,1.242,0C103.8,97.248,100.355,89.437,95.166,87.6Z" transform="translate(-5.285 -42.408)" fill="#4b270e"/>
        <path id="Trazado_113317" data-name="Trazado 113317" d="M97.552,87.587a.324.324,0,0,0-.364.47c1.7,2.31,3.641,4.309,4.847,6.957,1.39,3.053,1.663,6.486,1.77,9.8a.446.446,0,0,0,.871.117C106.92,98.969,103.859,89.931,97.552,87.587Z" transform="translate(-1.135 -42.419)" fill="#4b270e"/>
        <path id="Trazado_113318" data-name="Trazado 113318" d="M99.673,96.609a5.044,5.044,0,0,1-5.01.151.1.1,0,0,0-.122.159,3.791,3.791,0,0,0,5.423.068A.241.241,0,0,0,99.673,96.609Z" transform="translate(-5.335 -28.019)" fill="#4b270e"/>
        <path id="Trazado_113319" data-name="Trazado 113319" d="M93.02,74.8c-4.467-2.23-11.512-2.386-12.455,3.823a.353.353,0,0,0,.681.184c2.978-9.672,14.09-1.788,18.076,1.988,3.261,3.087,5.418,6.777,7.882,10.457.164.244.592.1.5-.208C105.576,84.183,99.394,77.977,93.02,74.8Z" transform="translate(-27.641 -65.093)" fill="#4b270e"/>
        <path id="Trazado_113320" data-name="Trazado 113320" d="M105.507,130.586a1.846,1.846,0,0,1-2.76,1.567l-1.315-.694c-1.006-2.464-3.945-3.8-5.39-6.341-1.777-3.056-10.571-19.513-10.571-19.513a2.883,2.883,0,0,0,.387.179,1.315,1.315,0,0,1,.182.179c1.8.72,8.508,3.339,13.536.156A42.02,42.02,0,0,1,105.507,130.586Z" transform="translate(-19.788 -13.589)" fill="#663a1d"/>
        <path id="Trazado_113321" data-name="Trazado 113321" d="M74.676,86.644A12.015,12.015,0,0,0,70.292,83.2c-1.692-.92-3.347-2.466-5.161-3.116a3.519,3.519,0,0,0-.694-.161,1.1,1.1,0,0,0-1.7.9.919.919,0,0,0,.554,1.128A20.127,20.127,0,0,0,71.142,88.7c.954.47,2.518,1.463,3.578.657C75.684,88.632,75.235,87.444,74.676,86.644Z" transform="translate(-56.198 -54.966)" fill="#663a1d"/>
        <path id="Trazado_113322" data-name="Trazado 113322" d="M126.38,108.728a.334.334,0,0,0-.608.255c1.107,8.147-6.619,14.88-13.032,18.887-7.671,4.794-15.358,4.685-20.311-3.513-1-1.65-4.064-2.443-3.589-.569,2.5,9.823,16.174,11.1,23.245,6.949C118.155,127.171,131.569,116.893,126.38,108.728Z" transform="translate(-14.483 -8.856)" fill="#74421e"/>
        <path id="Trazado_113323" data-name="Trazado 113323" d="M126.091,108.072a.334.334,0,0,0-.608.255c1.107,8.147-6.619,14.883-13.032,18.89-7.671,4.792-15.358,4.683-20.311-3.516a1.709,1.709,0,0,0-3.111,1.3c2.5,9.823,15.7,9.225,22.767,5.075C117.866,126.515,131.28,116.24,126.091,108.072Z" transform="translate(-14.194 -9.905)" fill="#a0683e"/>
        <path id="Trazado_113324" data-name="Trazado 113324" d="M96.838,99.078c-.255-.221-.738.075-.5.387a24.206,24.206,0,0,1,2.827,6,.4.4,0,0,0,.772-.1C100.133,102.836,98.652,100.624,96.838,99.078Z" transform="translate(-2.521 -24.145)" fill="#a0683e"/>
        <path id="Trazado_113325" data-name="Trazado 113325" d="M100.152,97.737c-.146-.023-.26.179-.107.257a7.666,7.666,0,0,1,4.025,4.332.261.261,0,0,0,.5-.138A5.721,5.721,0,0,0,100.152,97.737Z" transform="translate(3.395 -26.17)" fill="#a0683e"/>
        <path id="Trazado_113326" data-name="Trazado 113326" d="M100.965,104.286a.151.151,0,0,0-.291.078,35.946,35.946,0,0,0,1.211,5.585.192.192,0,0,0,.369-.1A36.036,36.036,0,0,0,100.965,104.286Z" transform="translate(4.513 -15.872)" fill="#a0683e"/>
        <path id="Trazado_113327" data-name="Trazado 113327" d="M94.854,105.258c-.107-.221-.4-.049-.366.156a23.3,23.3,0,0,0,1.653,5.66c.143.333.611.081.551-.231A23.266,23.266,0,0,0,94.854,105.258Z" transform="translate(-5.378 -14.309)" fill="#a0683e"/>
        <path id="Trazado_113328" data-name="Trazado 113328" d="M97.166,118.48c.055-.273-.343-.483-.481-.2a10.832,10.832,0,0,0-.19,9.314c.2.416.767.1.7-.294A22.577,22.577,0,0,1,97.166,118.48Z" transform="translate(-3.703 6.458)" fill="#a0683e"/>
        <path id="Trazado_113329" data-name="Trazado 113329" d="M111.268,115.645c-1.273-2.011-5.093-4.189-7.414-2.6a.3.3,0,0,0,0,.52,16.545,16.545,0,0,0,3.2,1.021,35.3,35.3,0,0,1,3.6,1.661C111.034,116.435,111.517,116.04,111.268,115.645Z" transform="translate(9.364 -2.569)" fill="#a0683e"/>
        <path id="Trazado_113330" data-name="Trazado 113330" d="M107.946,120.252a19.2,19.2,0,0,0-5.195-5.753c-.286-.2-.6.179-.455.452a19.182,19.182,0,0,0,5.208,5.74C107.772,120.889,108.1,120.509,107.946,120.252Z" transform="translate(7.049 0.539)" fill="#a0683e"/>
        <path id="Trazado_113331" data-name="Trazado 113331" d="M99.895,117.163c.01-.148-.218-.174-.257-.034-.873,3.318-.923,6.271,1.138,9.225.249.359.91.153.754-.317C100.623,123.29,99.7,120.089,99.895,117.163Z" transform="translate(1.948 4.686)" fill="#a0683e"/>
      </g>
      <g id="Grupo_81572" data-name="Grupo 81572" transform="translate(0 5.533)" style="mix-blend-mode: multiply;isolation: isolate">
        <g id="Grupo_81571" data-name="Grupo 81571" transform="translate(0 3.538)">
          <g id="Grupo_81568" data-name="Grupo 81568" transform="translate(1.29 68.724)">
            <path id="Trazado_113332" data-name="Trazado 113332" d="M81.282,107.3a7.9,7.9,0,0,0-4.368-6.5c-1.931-.891-6.354-.917-8.121.073-4.108,2.305-6.754,4.576-7.866,9.088-1.473,5.982,4.236,14.3,10.293,13.542C77.15,122.763,81.879,113.351,81.282,107.3Z" transform="translate(-60.692 -100.132)" fill="url(#linear-gradient)"/>
            <path id="Trazado_113333" data-name="Trazado 113333" d="M73.985,112.321c-3.066,2.2-7.736,3.29-10.946.7a5.2,5.2,0,0,1-1.05-1.12c-2.929-4.233,3.126-10.569,8.2-10.47A5.69,5.69,0,0,1,72.4,101.2a5.085,5.085,0,0,1,4.992,1.554,4.254,4.254,0,0,1,1.143,2.981C78.473,108.327,76.048,110.848,73.985,112.321Z" transform="translate(-59.842 -98.599)" fill="url(#linear-gradient-2)"/>
            <path id="Trazado_113334" data-name="Trazado 113334" d="M73.513,110.786c-3.066,2.2-7.736,3.29-10.946.7a5.2,5.2,0,0,1-1.05-1.12c.049-3.851,4.844-8.043,8.971-7.965a5.682,5.682,0,0,1,2.214-.229,5.017,5.017,0,0,1,4.989,1.551l.372.476C78,106.792,75.577,109.312,73.513,110.786Z" transform="translate(-59.371 -97.064)" fill="url(#linear-gradient-3)"/>
          </g>
          <g id="Grupo_81570" data-name="Grupo 81570">
            <g id="Grupo_81569" data-name="Grupo 81569">
              <path id="Trazado_113335" data-name="Trazado 113335" d="M106.294,134.894s-4.623,4.168-9.36,3.95-11.569,1.315-11.569,1.315-6-2.632-5.286,0l.707,2.632a6.722,6.722,0,0,0,3.477,3.511c2.425.876,3.937,6,7.588,5.74s3.729,1.939,11.359,0,11.676-.257,11.676-.257S116.868,137.747,106.294,134.894Z" transform="translate(-28.502 24.163)" fill="url(#linear-gradient-4)"/>
              <path id="Trazado_113336" data-name="Trazado 113336" d="M78.262,114.249s-9.3.741-2.778,11.049S95,147.233,100.953,153.816s20.927,34.437,26.215,32.683,5.288-2.851,5.288-6.143-3.526-7.676-5.509-9.87-6.608-7.9-7.71-13.162S93.3,105.605,78.262,114.249Z" transform="translate(-39.462 -10.55)" fill="url(#linear-gradient-5)"/>
              <path id="Trazado_113337" data-name="Trazado 113337" d="M76.834,114.4s-2.136-5.325,6.2-4.088,42.046,19.222,42.927,19.88,18.284,7.458,11.234,18.645-1.762,12.723-12.115,8.994-15.2-4.826-26.436-12.941S66.53,120.318,76.834,114.4Z" transform="translate(-38.035 -15.44)" fill="url(#linear-gradient-6)"/>
              <path id="Trazado_113338" data-name="Trazado 113338" d="M104.143,107.926c.59-.683,1.266,3.763-2.432-1.962S78.465,92.875,78.029,90.224s-.67-5.2-.67-5.2-4.691-.967-7.471,2.336,2.43,6.6,8.2,15.522c6.853,10.582,15.457,17.068,19.474,16.66S104.143,107.926,104.143,107.926Z" transform="translate(-45.934 -55.768)" fill="url(#linear-gradient-7)"/>
              <path id="Trazado_113339" data-name="Trazado 113339" d="M74.452,86.343l.21,1.237.821,4.782s-2.591,1.726-3.675-.725-5.733-5.054-7.752-3.937,2.172,2.627,2.825,3.867S70.437,97.4,70.437,97.4l7,3.617s5.709,4.155,8.144,5.46,1.115-6.541,1.115-6.541l.257-8.672s-.109-3.571-1.45-4.73-1.6-3.555-4.413-4.111a22.481,22.481,0,0,1-4.932-1.512c-1.255-.473-4.67-.075-5.751-.288s-3.16-2.188-3.675-.722-.081,2.666,2.427,3.607Z" transform="translate(-54.893 -64.607)" fill="url(#linear-gradient-8)"/>
              <path id="Trazado_113340" data-name="Trazado 113340" d="M85.769,99.89s.881-6.58,5.067,0,11.9,22.593,11.9,22.593-3.085,4.826-8.482,2.414a30.82,30.82,0,0,1-8.482-5.483S84.667,105.155,85.769,99.89Z" transform="translate(-20.094 -36.471)" fill="url(#linear-gradient-9)"/>
              <path id="Trazado_113341" data-name="Trazado 113341" d="M120.657,93.875c-1.32-.66-6.167-5.922-15.86-3.729s-7.713,0-14.321,2.193-9.693,6.58-10.574,14.477S81,118.661,81,119.758s-.452,16.234-1.328,19.3-1.536,6.8-1.536,6.8-1.983,7.9,1.1,10.309,6.387,5.486,11.013,0,7.931-28.515,7.931-29.83.9-16.016.9-16.016,8.921,9.558,11.658,15.025,4.407,8.885,4.407,8.885,3.305,17.549,5.507-2.632A181.228,181.228,0,0,0,120.657,93.875Z" transform="translate(-32.511 -48.223)" fill="url(#linear-gradient-10)"/>
              <path id="Trazado_113342" data-name="Trazado 113342" d="M100.993,115.571c-.221-.878-1.541-3.568-8.37-3.867s-18.066,1.175-20.49,0-4.646-2.456-4.646-2.456-3.5,3.251-2.4,7.419,4.846,3.729,14.979,7.019,24.669,7.443,26.654,3.942S100.993,115.571,100.993,115.571Z" transform="translate(-52.722 -16.836)" fill="url(#linear-gradient-11)"/>
              <path id="Trazado_113343" data-name="Trazado 113343" d="M118.288,127.337s5.933,5.382,10.345,7.575,6.38,3.321,6.38,3.321,1.341-6.393,6.847-3.542,8.152,9.433,11.676,10.53,7.05,3.511,7.05,4.826,5.039,1.206,5.288,2.851.881,5.265,0,8.118-8.373,3.365-9.693,3.108-7.931-3.986-7.931-3.986-7.279-8.425-12.338-9.212-36.176-10.564-39.284-14.254S118.288,127.337,118.288,127.337Z" transform="translate(-2.383 12.082)" fill="url(#linear-gradient-12)"/>
              <path id="Trazado_113344" data-name="Trazado 113344" d="M65.727,114.31l1.177.447,4.553,1.728s2.2-2.193,0-3.729-3.869-6.58-2.375-8.334,2.167,2.63,3.261,3.508,5.062,4.607,5.062,4.607l2.2,7.539s-4.488-.52-3.675,2.113a28.472,28.472,0,0,1,.811,6.718l-8.591-1.432a26.113,26.113,0,0,1-2.425-3.311c-.881-1.536-.881-.439-.881-3.292s-2.2-4.166-2.422-5.483-1.544-5.044-1.544-6.141-1.541-3.511,0-3.729,2.645.439,3.085,3.069Z" transform="translate(-60.195 -25.208)" fill="url(#linear-gradient-13)"/>
              <path id="Trazado_113345" data-name="Trazado 113345" d="M88.444,75.247a15.112,15.112,0,0,0-7.77,8.116c-2.365,5.7-.057,11.408,0,12.066s-1.38,1.536,0,4.826a18.518,18.518,0,0,1,1.38,7.458c0,1.315,1.1,4.272,4.186,3.89l3.085-.382,2.375,5.52s8.893-.473,15.943,1.9,9,6.616,9,6.616L112.9,109.466a5.576,5.576,0,0,1-5.2-3.142c-1.983-3.511-.748-3.22-.748-4.974s3.524-4.387,2.643-11.845-1.983-10.748-9.251-14.259S88.444,75.247,88.444,75.247Z" transform="translate(-29.157 -73.687)" fill="url(#linear-gradient-14)"/>
              <path id="Trazado_113346" data-name="Trazado 113346" d="M145.6,178.442c-1.549,7.884-19.521,23.443-26.584,24.776-7.04,1.31-26.714-3.285-26.714-3.285s3.3-20.181,7.271-23.468c3.945-3.285,9.9.208,8.586-1.307-1.341-1.541-6.4-7.679-6.4-11.426a4.794,4.794,0,0,0-.335-1.772c-1.006-2.464-3.945-3.8-5.39-6.341C94.265,152.562,85.471,136.1,85.471,136.1a2.887,2.887,0,0,0,.387.179c1.985.9,8.69,3.519,13.718.335,2.165-1.336,4-3.75,5.054-7.754,3.971-15.148-1.11-39.923-1.11-39.923l5.286-2.414s7.5.974,10.805,4.545,7.271,15.867,7.271,15.867a137.726,137.726,0,0,1,4.41,19.716c1.107,9.012-1.315,14.714,0,17.33,1.315,2.645,7.271,8.344,10.132,12.941C144.289,161.548,147.15,170.534,145.6,178.442Z" transform="translate(-19.788 -53.159)" fill="url(#linear-gradient-15)"/>
            </g>
            <path id="Trazado_113347" data-name="Trazado 113347" d="M115.111,130.583c-1.544-.343-4.779-.216-1.738,4.758s3.911,1.731,7.822,8.438,2.391,8,5.431,10.6,4.782.19,5.868-1.419,3.181-1.788,3.04-4.854-1.115-3.628-1.115-3.628-4.316-.268-4.535,1.247a3.878,3.878,0,0,1-1.8,2.427,9.106,9.106,0,0,0-4.254-7.4C119.456,137.938,120.976,131.88,115.111,130.583Z" transform="translate(22.807 17.089)" fill="url(#linear-gradient-16)"/>
          </g>
          <path id="Trazado_113348" data-name="Trazado 113348" d="M106.573,112.53S95.679,111.4,90.83,115.513s-11.325,13.464-7.609,26.706,14.443,16.369,14.443,16.369,13.206-2.57,14.968-2.567,21.1-12.975,15.018-22.928S106.573,112.53,106.573,112.53Z" transform="translate(-25.147 -11.815)" fill="url(#linear-gradient-17)"/>
        </g>
        <path id="Trazado_113349" data-name="Trazado 113349" d="M131.061,116.489c-.218-.413-.486-.787-.72-1.185-.291-.735-.6-1.466-.928-2.193-1.175-2.562-3.877-8.453-7.227-7.448a30.171,30.171,0,0,0-.538-7.292,30.548,30.548,0,0,0-2.25-6.419,25.051,25.051,0,0,0-3.246-7.552,18.783,18.783,0,0,0-2.477-4.225c-2.931-3.76-10.584-8.391-16.249-7.424-3.656-.865-7.682-.507-10.6,1.946a8.491,8.491,0,0,0-2.775,4.088,4.229,4.229,0,0,0-.117.865,10.832,10.832,0,0,0-3.1,5.21c-4.376,4.839-.933,15.722,2.308,20a26.549,26.549,0,0,0,11.437,8.815c4.5,1.681,8.874.676,13.3.936-.5,8.243,4.262,17.785,9.2,22.91,1.531,1.585,4.706.161,4.322-1.985a2.5,2.5,0,0,0,.961-.361c.161.19.3.395.465.582a2.584,2.584,0,0,0,4.275-1.284,2.542,2.542,0,0,0,4.719-.374c.216-.733.372-1.466.515-2.2a2.573,2.573,0,0,0,1.266-1.05C136.066,126.59,133.155,120.447,131.061,116.489Z" transform="translate(-30.507 -72.325)" fill="url(#linear-gradient-18)"/>
        <path id="Trazado_113350" data-name="Trazado 113350" d="M107.88,87.8c-1.837-3.69-8.438-2.632-11.468-1.214-3.3,1.541-6.9,5.254-6.8,9.1.013.455.665.832,1,.411,2.165-2.729,3.537-5.384,7-6.788a11.828,11.828,0,0,1,6.255-.689c1.357.2,2.279.551,3.612.151A.671.671,0,0,0,107.88,87.8Z" transform="translate(-13.165 -51.621)" fill="url(#linear-gradient-19)"/>
        <path id="Trazado_113351" data-name="Trazado 113351" d="M97.627,97.659c-4.4-1.39-8.3-2.939-11.489-6.434-3.082-3.376-4.441-7.619-5.53-11.954-.039-.146-.286-.159-.312,0C78.758,88.426,88.18,98.891,97.471,98.8A.583.583,0,0,0,97.627,97.659Z" transform="translate(-28.327 -61.403)" fill="url(#linear-gradient-20)"/>
        <path id="Trazado_113352" data-name="Trazado 113352" d="M101.975,92.32c-3.1-1.458-6.414-2.128-9.381-3.953a25.718,25.718,0,0,1-8.57-8.49.232.232,0,0,0-.4.234C87,86.226,94.039,93.617,101.731,93.216,102.173,93.193,102.441,92.538,101.975,92.32Z" transform="translate(-22.793 -60.427)" fill="url(#linear-gradient-21)"/>
        <path id="Trazado_113353" data-name="Trazado 113353" d="M88.695,79.194c-.153-.12-.434.034-.3.231,1.5,2.162,3.105,4.236,4.511,6.465s2.5,4.654,3.888,6.907a.425.425,0,0,0,.774-.325A25.118,25.118,0,0,0,88.695,79.194Z" transform="translate(-15.169 -61.411)" fill="url(#linear-gradient-22)"/>
        <path id="Trazado_113354" data-name="Trazado 113354" d="M91.661,76.667a.262.262,0,0,0-.411.314,55.364,55.364,0,0,1,3.994,9.059c.943,3.194,1.045,6.486,1.44,9.771.075.629,1,.868,1.188.159C99.61,89.41,96.788,81.061,91.661,76.667Z" transform="translate(-10.602 -65.497)" fill="url(#linear-gradient-23)"/>
        <path id="Trazado_113355" data-name="Trazado 113355" d="M89.723,73.717a.09.09,0,0,0-.091.156c4.878,3.573,8.846,7.734,11.268,13.329,2.274,5.257,2.175,10.153,2.079,15.727a.4.4,0,0,0,.772.1C106.7,92.121,99.462,78.722,89.723,73.717Z" transform="translate(-13.204 -70.118)" fill="url(#linear-gradient-24)"/>
        <path id="Trazado_113356" data-name="Trazado 113356" d="M102.59,107.354c-3.126-2.069-5.938-4.031-7.783-7.4S92.8,93.176,92.432,89.465c-.029-.278-.429-.457-.582-.156-3.594,7.089,2.645,17.861,10.2,19.311A.7.7,0,0,0,102.59,107.354Z" transform="translate(-11.261 -45.423)" fill="url(#linear-gradient-25)"/>
        <path id="Trazado_113357" data-name="Trazado 113357" d="M101.574,102.579a28.545,28.545,0,0,1-8.589-13.115.132.132,0,0,0-.257.036,15.3,15.3,0,0,0,8.43,13.614C101.488,103.27,101.88,102.857,101.574,102.579Z" transform="translate(-8.189 -45.073)" fill="url(#linear-gradient-26)"/>
        <path id="Trazado_113358" data-name="Trazado 113358" d="M95.166,87.6a.5.5,0,0,0-.556.722c1.362,2.165,3.285,3.869,4.509,6.172,1.336,2.516,1.783,5.192,2.531,7.9.159.574,1.128.647,1.242,0C103.8,97.248,100.355,89.437,95.166,87.6Z" transform="translate(-5.285 -47.941)" fill="url(#linear-gradient-27)"/>
        <path id="Trazado_113359" data-name="Trazado 113359" d="M97.552,87.587a.324.324,0,0,0-.364.47c1.7,2.31,3.641,4.309,4.847,6.957,1.39,3.053,1.663,6.486,1.77,9.8a.446.446,0,0,0,.871.117C106.92,98.969,103.859,89.931,97.552,87.587Z" transform="translate(-1.135 -47.952)" fill="url(#linear-gradient-28)"/>
        <path id="Trazado_113360" data-name="Trazado 113360" d="M99.673,96.609a5.044,5.044,0,0,1-5.01.151.1.1,0,0,0-.122.159,3.791,3.791,0,0,0,5.423.068A.241.241,0,0,0,99.673,96.609Z" transform="translate(-5.335 -33.552)" fill="url(#linear-gradient-29)"/>
        <path id="Trazado_113361" data-name="Trazado 113361" d="M93.02,74.8c-4.467-2.23-11.512-2.386-12.455,3.823a.353.353,0,0,0,.681.184c2.978-9.672,14.09-1.788,18.076,1.988,3.261,3.087,5.418,6.777,7.882,10.457.164.244.592.1.5-.208C105.576,84.183,99.394,77.977,93.02,74.8Z" transform="translate(-27.641 -70.625)" fill="url(#linear-gradient-30)"/>
        <path id="Trazado_113362" data-name="Trazado 113362" d="M105.507,130.586a1.846,1.846,0,0,1-2.76,1.567l-1.315-.694c-1.006-2.464-3.945-3.8-5.39-6.341-1.777-3.056-10.571-19.513-10.571-19.513a2.883,2.883,0,0,0,.387.179,1.315,1.315,0,0,1,.182.179c1.8.72,8.508,3.339,13.536.156A42.02,42.02,0,0,1,105.507,130.586Z" transform="translate(-19.788 -19.122)" fill="url(#linear-gradient-31)"/>
        <path id="Trazado_113363" data-name="Trazado 113363" d="M74.676,86.644A12.015,12.015,0,0,0,70.292,83.2c-1.692-.92-3.347-2.466-5.161-3.116a3.519,3.519,0,0,0-.694-.161,1.1,1.1,0,0,0-1.7.9.919.919,0,0,0,.554,1.128A20.127,20.127,0,0,0,71.142,88.7c.954.47,2.518,1.463,3.578.657C75.684,88.632,75.235,87.444,74.676,86.644Z" transform="translate(-56.198 -60.498)" fill="url(#linear-gradient-32)"/>
        <path id="Trazado_113364" data-name="Trazado 113364" d="M126.38,108.728a.334.334,0,0,0-.608.255c1.107,8.147-6.619,14.88-13.032,18.887-7.671,4.794-15.358,4.685-20.311-3.513-1-1.65-4.064-2.443-3.589-.569,2.5,9.823,16.174,11.1,23.245,6.949C118.155,127.171,131.569,116.893,126.38,108.728Z" transform="translate(-14.483 -14.389)" fill="url(#linear-gradient-33)"/>
        <path id="Trazado_113365" data-name="Trazado 113365" d="M126.091,108.072a.334.334,0,0,0-.608.255c1.107,8.147-6.619,14.883-13.032,18.89-7.671,4.792-15.358,4.683-20.311-3.516a1.709,1.709,0,0,0-3.111,1.3c2.5,9.823,15.7,9.225,22.767,5.075C117.866,126.515,131.28,116.24,126.091,108.072Z" transform="translate(-14.194 -15.438)" fill="url(#linear-gradient-34)"/>
        <path id="Trazado_113366" data-name="Trazado 113366" d="M96.838,99.078c-.255-.221-.738.075-.5.387a24.206,24.206,0,0,1,2.827,6,.4.4,0,0,0,.772-.1C100.133,102.836,98.652,100.624,96.838,99.078Z" transform="translate(-2.521 -29.678)" fill="url(#linear-gradient-35)"/>
        <path id="Trazado_113367" data-name="Trazado 113367" d="M100.152,97.737c-.146-.023-.26.179-.107.257a7.666,7.666,0,0,1,4.025,4.332.261.261,0,0,0,.5-.138A5.721,5.721,0,0,0,100.152,97.737Z" transform="translate(3.395 -31.702)" fill="url(#linear-gradient-36)"/>
        <path id="Trazado_113368" data-name="Trazado 113368" d="M100.965,104.286a.151.151,0,0,0-.291.078,35.946,35.946,0,0,0,1.211,5.585.192.192,0,0,0,.369-.1A36.036,36.036,0,0,0,100.965,104.286Z" transform="translate(4.513 -21.405)" fill="url(#linear-gradient-37)"/>
        <path id="Trazado_113369" data-name="Trazado 113369" d="M94.854,105.258c-.107-.221-.4-.049-.366.156a23.3,23.3,0,0,0,1.653,5.66c.143.333.611.081.551-.231A23.266,23.266,0,0,0,94.854,105.258Z" transform="translate(-5.378 -19.842)" fill="url(#linear-gradient-38)"/>
        <path id="Trazado_113370" data-name="Trazado 113370" d="M97.166,118.48c.055-.273-.343-.483-.481-.2a10.832,10.832,0,0,0-.19,9.314c.2.416.767.1.7-.294A22.577,22.577,0,0,1,97.166,118.48Z" transform="translate(-3.703 0.926)" fill="url(#linear-gradient-39)"/>
        <path id="Trazado_113371" data-name="Trazado 113371" d="M111.268,115.645c-1.273-2.011-5.093-4.189-7.414-2.6a.3.3,0,0,0,0,.52,16.545,16.545,0,0,0,3.2,1.021,35.3,35.3,0,0,1,3.6,1.661C111.034,116.435,111.517,116.04,111.268,115.645Z" transform="translate(9.364 -8.102)" fill="url(#linear-gradient-40)"/>
        <path id="Trazado_113372" data-name="Trazado 113372" d="M107.946,120.252a19.2,19.2,0,0,0-5.195-5.753c-.286-.2-.6.179-.455.452a19.182,19.182,0,0,0,5.208,5.74C107.772,120.889,108.1,120.509,107.946,120.252Z" transform="translate(7.049 -4.993)" fill="url(#linear-gradient-41)"/>
        <path id="Trazado_113373" data-name="Trazado 113373" d="M99.895,117.163c.01-.148-.218-.174-.257-.034-.873,3.318-.923,6.271,1.138,9.225.249.359.91.153.754-.317C100.623,123.29,99.7,120.089,99.895,117.163Z" transform="translate(1.948 -0.847)" fill="url(#linear-gradient-42)"/>
      </g>
    </g>
  </g>
</svg>
