<svg xmlns="http://www.w3.org/2000/svg" width="190" height="190" viewBox="0 0 190 190">
  <g id="Filled_outline" data-name="Filled outline" transform="translate(-16 -16)">
    <path id="Trazado_100504" data-name="Trazado 100504" d="M72,56H172.489V171.267H72Z" transform="translate(-35.311 -25.222)" fill="#ffa726"/>
    <path id="Trazado_100505" data-name="Trazado 100505" d="M96,432h65.022v11.822H96Z" transform="translate(-47.111 -249.644)" fill="#633a2c"/>
    <path id="Trazado_100506" data-name="Trazado 100506" d="M40,56H140.489V171.267H40Z" transform="translate(-15.133 -25.222)" fill="#fdd835"/>
    <g id="Grupo_53565" data-name="Grupo 53565" transform="translate(16 18.956)">
      <path id="Trazado_100507" data-name="Trazado 100507" d="M176,24h11.822V35.822H176Z" transform="translate(-116.889 -24)" fill="#844e3a"/>
      <path id="Trazado_100508" data-name="Trazado 100508" d="M16,368H140.133v11.822H16Z" transform="translate(-16 -230.825)" fill="#844e3a"/>
      <path id="Trazado_100509" data-name="Trazado 100509" d="M90.6,400l-3.225,8.867-8.6,23.644H64l8.6-23.644L75.822,400Z" transform="translate(-46.267 -248.422)" fill="#844e3a"/>
      <path id="Trazado_100510" data-name="Trazado 100510" d="M258.6,432.511H243.822l-8.6-23.644L232,400h14.778L250,408.867Z" transform="translate(-152.2 -248.422)" fill="#844e3a"/>
    </g>
    <path id="Trazado_100511" data-name="Trazado 100511" d="M90.5,400h14.778l-3.225,8.867H87.27Z" transform="translate(-44.94 -229.467)" fill="#784533"/>
    <path id="Trazado_100512" data-name="Trazado 100512" d="M250,408.867H235.225L232,400h14.778Z" transform="translate(-129.856 -229.467)" fill="#784533"/>
    <path id="Trazado_100513" data-name="Trazado 100513" d="M156.333,110.167v60.589H112V110.167a22.167,22.167,0,1,1,44.333,0Z" transform="translate(-57.156 -41.837)" fill="#7d4935"/>
    <path id="Trazado_100514" data-name="Trazado 100514" d="M145.022,248.873v23.282H80V248.873a11.82,11.82,0,0,1,8.956-11.468l10.211-2.553a5.911,5.911,0,0,0,4.478-5.734V216h17.733v2.956a18.922,18.922,0,0,0,14.342,18.362l.347.088a11.82,11.82,0,0,1,8.955,11.468Z" transform="translate(-40.356 -118.388)" fill="#fdc8a2"/>
    <path id="Trazado_100515" data-name="Trazado 100515" d="M162.679,224.867H149.911A17.688,17.688,0,0,1,144,223.858V216h17.733v2.956A18.846,18.846,0,0,0,162.679,224.867Z" transform="translate(-76.936 -120.556)" fill="#fdb683"/>
    <path id="Trazado_100516" data-name="Trazado 100516" d="M145.022,284.184v23.282H80V284.184a11.82,11.82,0,0,1,8.956-11.468L91.822,272v5.911a8.867,8.867,0,0,0,8.867,8.867h26.6a8.867,8.867,0,0,0,8.867-8.867v-5.169a11.815,11.815,0,0,1,8.867,11.442Z" transform="translate(-40.356 -152.978)" fill="#26ccda"/>
    <path id="Trazado_100517" data-name="Trazado 100517" d="M141.555,120v38.422H129.733A17.733,17.733,0,0,1,112,140.689V130.344A22.026,22.026,0,0,1,114.56,120Z" transform="translate(-57.493 -62.074)" fill="#fdc8a2"/>
    <path id="Trazado_100518" data-name="Trazado 100518" d="M160.7,110.158v46.55a19.51,19.51,0,0,1-14.778-18.927V99.814h-27A22.167,22.167,0,0,1,160.7,110.158Z" transform="translate(-61.35 -45.392)" fill="#844e3a"/>
    <path id="Trazado_100519" data-name="Trazado 100519" d="M284.181,272C258.676,272,238,288.54,238,308.944s20.676,36.944,46.181,36.944a56.653,56.653,0,0,0,14.907-1.97,9.464,9.464,0,0,0,4.238-15.83l-2.212-2.212a6.532,6.532,0,0,1-.087-9.147,6.671,6.671,0,0,1,9.445.032l.337.337a11.21,11.21,0,0,0,15.1.685l.5-.417a10.977,10.977,0,0,0,3.95-8.423C330.361,288.54,309.686,272,284.181,272Zm4.8,65.022a5.911,5.911,0,1,1,5.911-5.911A5.911,5.911,0,0,1,288.983,337.022Z" transform="translate(-127.317 -148.756)" fill="#f1ddc1"/>
    <circle id="Elipse_4021" data-name="Elipse 4021" cx="8.444" cy="8.444" r="8.444" transform="translate(168 134.444)" fill="#96b268"/>
    <ellipse id="Elipse_4022" data-name="Elipse 4022" cx="9.5" cy="10.556" rx="9.5" ry="10.556" transform="translate(136.84 127.832)" fill="#de5540"/>
    <ellipse id="Elipse_4023" data-name="Elipse 4023" cx="9.5" cy="10.556" rx="9.5" ry="10.556" transform="translate(114.04 139.243)" fill="#4db6e4"/>
    <ellipse id="Elipse_4024" data-name="Elipse 4024" cx="9.5" cy="8.444" rx="9.5" ry="8.444" transform="translate(127.72 165.889)" fill="#348ed8"/>
    <path id="Trazado_100520" data-name="Trazado 100520" d="M387.111,30.127v.591a6.129,6.129,0,0,1-1.342,3.827l-30.182,37.73-15.764,19.7L328,80.156l16.747-18.72,31.671-35.393a6.126,6.126,0,0,1,10.693,4.084Z" transform="translate(-184.067 -5.044)" fill="#844e3a"/>
    <path id="Trazado_100521" data-name="Trazado 100521" d="M304.511,182.778l-4.47,7.448a15.066,15.066,0,0,1-5.5,5.372,14.856,14.856,0,0,1-1.847.883A15.094,15.094,0,0,1,272,182.46V168l5.32,7.093a5.911,5.911,0,0,0,8.276,1.182l.384-.288,6.709-5.032Z" transform="translate(-153.15 -91.031)" fill="#f1ddc1"/>
    <path id="Trazado_100522" data-name="Trazado 100522" d="M292.689,195.823v.658A15.094,15.094,0,0,1,272,182.46V168l5.32,7.093a5.911,5.911,0,0,0,8.276,1.182l.384-.288a10.108,10.108,0,0,1,.8,3.935v1.633a10.092,10.092,0,0,0,2.954,7.133A10.092,10.092,0,0,1,292.689,195.823Z" transform="translate(-153.774 -91.031)" fill="#844e3a"/>
    <path id="Trazado_100523" data-name="Trazado 100523" d="M355.586,136.169l-15.764,19.7L328,144.05l16.747-18.72Z" transform="translate(-186.983 -65.453)" fill="#ffb431"/>
    <path id="Trazado_100524" data-name="Trazado 100524" d="M196.268,16a9.742,9.742,0,0,0-7.252,3.242L137.349,76.988,130,82.5a3.17,3.17,0,0,1-4.433-.633l-5.7-7.6a3.167,3.167,0,0,0-5.7,1.9V91.66a19.339,19.339,0,0,0,35.925,9.95l4.68-7.8,49.1-61.369A9.769,9.769,0,0,0,206,26.364v-.633A9.743,9.743,0,0,0,196.268,16Zm-62.761,88.667A13.023,13.023,0,0,1,120.5,91.66V85.667a9.525,9.525,0,0,0,9.5,3.613v1.41a13.979,13.979,0,0,0,4.093,9.881,7.7,7.7,0,0,1,2.068,3.821,13,13,0,0,1-2.653.275Zm11.153-6.314a13.012,13.012,0,0,1-2.721,3.211,14.039,14.039,0,0,0-3.367-5.47,7.646,7.646,0,0,1-2.239-5.4V88.94A13.936,13.936,0,0,0,136,85.917l3.2-2.4,8.976,8.976ZM151.9,87.259l-8.047-8.047L145,77.935l12.572-14.052,7.24,7.24Zm47.762-60.895a3.409,3.409,0,0,1-.745,2.122l-30.13,37.662L161.8,59.157l31.936-35.692a3.4,3.4,0,0,1,5.93,2.266ZM28.667,35H130V69.833h6.333V35h6.333V58.006H149V31.833a3.167,3.167,0,0,0-3.167-3.167H95.167v-9.5A3.167,3.167,0,0,0,92,16H79.333a3.167,3.167,0,0,0-3.167,3.167v9.5H25.5a3.167,3.167,0,0,0-3.167,3.167V47.667h6.333ZM82.5,22.333h6.333v6.333H82.5ZM19.167,171.167H46.312L35.189,201.751A3.167,3.167,0,0,0,38.167,206H54a3.167,3.167,0,0,0,2.976-2.085l2.7-7.415H111.66l2.7,7.416A3.167,3.167,0,0,0,117.333,206h15.833v-6.333H119.55l-2.7-7.416a3.167,3.167,0,0,0-2.975-2.084h-51.9l2.3-6.333H101.5V177.5H66.582l2.3-6.333H95.167v-6.333H22.333V158.5H95.167v-6.333H60.333v-9.5H54v9.5H47.667V130.388A9.48,9.48,0,0,1,54,121.436v2.231a12.681,12.681,0,0,0,12.667,12.667h28.5a12.681,12.681,0,0,0,12.667-12.667v-.356a9.53,9.53,0,0,1,1.718,2.039l5.366-3.365a15.754,15.754,0,0,0-7.085-6.1V68.25A26.917,26.917,0,1,0,54,68.25v46.611l-.673.168a15.807,15.807,0,0,0-11.994,15.359v21.779H28.667V54H22.333v98.167H19.167A3.167,3.167,0,0,0,16,155.333V168a3.167,3.167,0,0,0,3.167,3.167Zm42.979,0-10.363,28.5h-9.1l10.363-28.5Zm18.771-123.5A20.578,20.578,0,0,1,101.5,68.25v45.411A17.085,17.085,0,0,1,92,98.333V57.167A3.167,3.167,0,0,0,88.833,54H66.059a20.533,20.533,0,0,1,14.858-6.333ZM60.333,68.25a20.619,20.619,0,0,1,1.591-7.917H85.667v6.61a4.75,4.75,0,1,0,0,8.946V95.167h-9.5A15.851,15.851,0,0,1,60.333,79.333Zm0,26.575a22.266,22.266,0,0,0,6.333,4.531v9.866a3.162,3.162,0,0,1-2.4,3.071l-3.934.984Zm0,24.98,5.47-1.368a9.486,9.486,0,0,0,7.2-9.215V101.27a22.22,22.22,0,0,0,3.167.23h9.715A23.4,23.4,0,0,0,101.5,120.509v3.157A6.341,6.341,0,0,1,95.167,130h-28.5a6.341,6.341,0,0,1-6.333-6.333Zm-19-72.139H35V41.333h6.333ZM35,54h6.333V79.333H35ZM68.25,76.167A4.75,4.75,0,1,1,73,71.417,4.75,4.75,0,0,1,68.25,76.167Zm136.663,72.054a35.393,35.393,0,0,1,1.087,8.7,14.891,14.891,0,0,1-5.371,11.457l-.536.447a15.1,15.1,0,0,1-20.448-.927l-.361-.361a4.2,4.2,0,0,0-2.939-1.188,3.7,3.7,0,0,0-2.662,1.112,3.849,3.849,0,0,0,.052,5.365l2.37,2.37a13.307,13.307,0,0,1-5.946,22.255,63.865,63.865,0,0,1-16.806,2.22c-13.933,0-27.06-4.364-36.965-12.287-10.112-8.09-15.681-18.908-15.681-30.463s5.569-22.373,15.681-30.463c9.9-7.924,23.032-12.287,36.965-12.287a61.187,61.187,0,0,1,30.008,7.6c8.748,4.928,15.376,11.786,19.169,19.831l-5.729,2.7c-6.711-14.235-24.171-23.8-43.448-23.8-25.537,0-46.312,16.336-46.312,36.417s20.776,36.417,46.312,36.417a57.513,57.513,0,0,0,15.138-2,6.973,6.973,0,0,0,3.136-11.666l-2.371-2.37a10.216,10.216,0,0,1-.135-14.237,9.988,9.988,0,0,1,7.165-3.051,10.49,10.49,0,0,1,7.476,3.044l.361.361a8.8,8.8,0,0,0,11.915.541l.536-.447a8.572,8.572,0,0,0,3.093-6.595,29.041,29.041,0,0,0-.893-7.135Zm-52.746,32.446A6.333,6.333,0,1,1,158.5,187a6.333,6.333,0,0,1-6.333-6.333Zm12.667-38a9.5,9.5,0,1,0,9.5-9.5A9.5,9.5,0,0,0,164.833,142.667Zm12.667,0a3.167,3.167,0,1,1-3.167-3.167A3.167,3.167,0,0,1,177.5,142.667Zm-19-4.75A11.083,11.083,0,1,0,147.417,149,11.083,11.083,0,0,0,158.5,137.917Zm-15.833,0a4.75,4.75,0,1,1,4.75,4.75A4.75,4.75,0,0,1,142.667,137.917ZM133.167,149a9.5,9.5,0,1,0-9.5,9.5A9.5,9.5,0,0,0,133.167,149Zm-9.5,3.167A3.167,3.167,0,1,1,126.833,149a3.167,3.167,0,0,1-3.167,3.167Zm12.667,28.5a9.5,9.5,0,1,0-9.5-9.5,9.5,9.5,0,0,0,9.5,9.5Zm0-12.667a3.167,3.167,0,1,1-3.167,3.167A3.167,3.167,0,0,1,136.333,168ZM73,79.333h1.855a7.6,7.6,0,0,0,5.406-2.239l4.478,4.478a13.887,13.887,0,0,1-9.884,4.094H73Z" transform="translate(0 0)"/>
  </g>
</svg>
