<svg xmlns="http://www.w3.org/2000/svg" width="715" height="429" viewBox="0 0 715 429">
  <g id="_104" data-name="104" transform="translate(-705 -1647)">
    <rect id="Rectángulo_34940" data-name="Rectángulo 34940" width="715" height="429" transform="translate(705 1647)" fill="#f3f9ff"/>
    <g id="Grupo_81939" data-name="Grupo 81939" transform="translate(895 1693.997)">
      <g id="Grupo_55997" data-name="Grupo 55997" transform="translate(0 0)">
        <g id="Grupo_55974" data-name="Grupo 55974" transform="translate(241.624 49.061)" style="isolation: isolate">
          <g id="Grupo_55973" data-name="Grupo 55973">
            <path id="Trazado_106121" data-name="Trazado 106121" d="M1012.586,672.321l60.56-16.229a167.358,167.358,0,0,0-43.392-75.078L985.43,625.335A104.7,104.7,0,0,1,1012.586,672.321Z" transform="translate(-985.43 -581.014)" fill="#cecece" stroke="#fffeff" stroke-miterlimit="10" stroke-width="0.5"/>
          </g>
        </g>
        <g id="Grupo_55976" data-name="Grupo 55976" transform="translate(124.142 268.777)" style="isolation: isolate">
          <g id="Grupo_55975" data-name="Grupo 55975">
            <path id="Trazado_106122" data-name="Trazado 106122" d="M994.536,648.628a105.041,105.041,0,0,1-27.135-3.546l-16.226,60.561a168.742,168.742,0,0,0,86.729,0l-16.229-60.56A104.908,104.908,0,0,1,994.536,648.628Z" transform="translate(-951.175 -645.078)" fill="#cecece" stroke="#fffeff" stroke-miterlimit="10" stroke-width="0.5"/>
          </g>
        </g>
        <g id="Grupo_55978" data-name="Grupo 55978" transform="translate(49.061 241.624)" style="isolation: isolate">
          <g id="Grupo_55977" data-name="Grupo 55977">
            <path id="Trazado_106123" data-name="Trazado 106123" d="M973.608,637.161l-44.324,44.325a167.372,167.372,0,0,0,75.081,43.392l16.226-60.561A104.7,104.7,0,0,1,973.608,637.161Z" transform="translate(-929.283 -637.161)" fill="#cecece" stroke="#fffeff" stroke-miterlimit="10" stroke-width="0.5"/>
          </g>
        </g>
        <g id="Grupo_55980" data-name="Grupo 55980" transform="translate(194.642 241.621)" style="isolation: isolate">
          <g id="Grupo_55979" data-name="Grupo 55979">
            <path id="Trazado_106124" data-name="Trazado 106124" d="M971.731,664.316l16.229,60.56a167.314,167.314,0,0,0,75.078-43.392l-44.325-44.325A104.693,104.693,0,0,1,971.731,664.316Z" transform="translate(-971.731 -637.16)" fill="#cecece" stroke="#fffeff" stroke-miterlimit="10" stroke-width="0.5"/>
          </g>
        </g>
        <g id="Grupo_55982" data-name="Grupo 55982" transform="translate(5.666 194.642)">
          <g id="Grupo_55981" data-name="Grupo 55981">
            <path id="Trazado_106125" data-name="Trazado 106125" d="M977.194,623.462,916.63,639.688a167.345,167.345,0,0,0,43.4,75.082l44.324-44.325A104.714,104.714,0,0,1,977.194,623.462Z" transform="translate(-916.63 -623.462)" fill="#006fc4" stroke="#fffeff" stroke-miterlimit="10" stroke-width="0.5"/>
          </g>
        </g>
        <g id="Grupo_55984" data-name="Grupo 55984" transform="translate(241.624 194.638)">
          <g id="Grupo_55983" data-name="Grupo 55983">
            <path id="Trazado_106126" data-name="Trazado 106126" d="M1012.586,623.461a104.692,104.692,0,0,1-27.156,46.982l44.325,44.325a167.376,167.376,0,0,0,43.392-75.078Z" transform="translate(-985.43 -623.461)" fill="#ff2600" stroke="#fffeff" stroke-miterlimit="10" stroke-width="0.5"/>
          </g>
        </g>
        <g id="Grupo_55986" data-name="Grupo 55986" transform="translate(194.642 5.666)" style="isolation: isolate">
          <g id="Grupo_55985" data-name="Grupo 55985">
            <path id="Trazado_106127" data-name="Trazado 106127" d="M1018.714,656.077l44.325-44.321a167.351,167.351,0,0,0-75.078-43.395l-16.229,60.564A104.72,104.72,0,0,1,1018.714,656.077Z" transform="translate(-971.731 -568.361)" fill="#cecece" stroke="#fffeff" stroke-miterlimit="10" stroke-width="0.5"/>
          </g>
        </g>
        <g id="Grupo_55988" data-name="Grupo 55988" transform="translate(124.142)">
          <g id="Grupo_55987" data-name="Grupo 55987">
            <path id="Trazado_106128" data-name="Trazado 106128" d="M994.536,629.389a104.9,104.9,0,0,1,27.139,3.55l16.229-60.564a168.778,168.778,0,0,0-86.729,0c3.923,14.651,8.159,30.452,16.226,60.56A105.038,105.038,0,0,1,994.536,629.389Z" transform="translate(-951.175 -566.709)" fill="#feef00" stroke="#fffeff" stroke-miterlimit="10" stroke-width="0.5"/>
          </g>
        </g>
        <g id="Grupo_55990" data-name="Grupo 55990" transform="translate(268.78 124.139)" style="isolation: isolate">
          <g id="Grupo_55989" data-name="Grupo 55989">
            <path id="Trazado_106129" data-name="Trazado 106129" d="M996.894,646.269a105.056,105.056,0,0,1-3.546,27.135l60.56,16.229a168.774,168.774,0,0,0,0-86.728l-60.56,16.229A105.032,105.032,0,0,1,996.894,646.269Z" transform="translate(-993.348 -602.905)" fill="#cecece" stroke="#fffeff" stroke-miterlimit="10" stroke-width="0.5"/>
          </g>
        </g>
        <g id="Grupo_55992" data-name="Grupo 55992" transform="translate(0 124.139)" style="isolation: isolate">
          <g id="Grupo_55991" data-name="Grupo 55991">
            <path id="Trazado_106130" data-name="Trazado 106130" d="M977.658,646.269a104.906,104.906,0,0,1,3.55-27.139c-30.109-8.066-45.913-12.3-60.564-16.225a168.783,168.783,0,0,0,0,86.728l60.564-16.226A104.927,104.927,0,0,1,977.658,646.269Z" transform="translate(-914.978 -602.905)" fill="#cecece" stroke="#fffeff" stroke-miterlimit="10" stroke-width="0.5"/>
          </g>
        </g>
        <g id="Grupo_55994" data-name="Grupo 55994" transform="translate(49.061 5.666)" style="isolation: isolate">
          <g id="Grupo_55993" data-name="Grupo 55993">
            <path id="Trazado_106131" data-name="Trazado 106131" d="M1020.591,628.921c-8.067-30.109-12.3-45.909-16.226-60.56a167.335,167.335,0,0,0-75.081,43.391l44.324,44.325A104.7,104.7,0,0,1,1020.591,628.921Z" transform="translate(-929.283 -568.361)" fill="#cecece" stroke="#fffeff" stroke-miterlimit="10" stroke-width="0.5"/>
          </g>
        </g>
        <g id="Grupo_55996" data-name="Grupo 55996" transform="translate(5.666 49.057)" style="isolation: isolate">
          <g id="Grupo_55995" data-name="Grupo 55995">
            <path id="Trazado_106132" data-name="Trazado 106132" d="M1004.35,625.338l-44.324-44.325a167.344,167.344,0,0,0-43.4,75.082c14.651,3.923,30.455,8.159,60.564,16.225A104.694,104.694,0,0,1,1004.35,625.338Z" transform="translate(-916.63 -581.013)" fill="#cecece" stroke="#fffeff" stroke-miterlimit="10" stroke-width="0.5"/>
          </g>
        </g>
      </g>
    </g>
  </g>
</svg>
