<svg xmlns="http://www.w3.org/2000/svg" width="715" height="429" viewBox="0 0 715 429">
  <g id="_105" data-name="105" transform="translate(743 10310)">
    <rect id="Rectángulo_35061" data-name="Rectángulo 35061" width="715" height="429" transform="translate(-743 -10310)" fill="#f3f9ff"/>
    <g id="Grupo_81940" data-name="Grupo 81940" transform="translate(-553 -10263)">
      <g id="Grupo_56023" data-name="Grupo 56023" transform="translate(0 0)">
        <g id="Grupo_56000" data-name="Grupo 56000" transform="translate(241.62 49.06)">
          <g id="Grupo_55999" data-name="Grupo 55999">
            <path id="Trazado_106133" data-name="Trazado 106133" d="M1012.586,786.528l60.559-16.225a167.367,167.367,0,0,0-43.391-75.08L985.43,739.546A104.711,104.711,0,0,1,1012.586,786.528Z" transform="translate(-985.43 -695.223)" fill="#f69f23" stroke="#fffeff" stroke-miterlimit="10" stroke-width="0.5"/>
          </g>
        </g>
        <g id="Grupo_56002" data-name="Grupo 56002" transform="translate(124.14 268.775)">
          <g id="Grupo_56001" data-name="Grupo 56001">
            <path id="Trazado_106134" data-name="Trazado 106134" d="M994.535,762.834a105.051,105.051,0,0,1-27.135-3.546l-16.225,60.559a168.679,168.679,0,0,0,86.727,0l-16.229-60.559A105.058,105.058,0,0,1,994.535,762.834Z" transform="translate(-951.175 -759.288)" fill="#7421b0" stroke="#fffeff" stroke-miterlimit="10" stroke-width="0.5"/>
          </g>
        </g>
        <g id="Grupo_56004" data-name="Grupo 56004" transform="translate(49.06 241.623)">
          <g id="Grupo_56003" data-name="Grupo 56003">
            <path id="Trazado_106135" data-name="Trazado 106135" d="M973.607,751.371l-44.323,44.32a167.3,167.3,0,0,0,75.08,43.391l16.225-60.559A104.717,104.717,0,0,1,973.607,751.371Z" transform="translate(-929.283 -751.371)" fill="#cecece" stroke="#fffeff" stroke-miterlimit="10" stroke-width="0.5"/>
          </g>
        </g>
        <g id="Grupo_56006" data-name="Grupo 56006" transform="translate(194.638 241.619)">
          <g id="Grupo_56005" data-name="Grupo 56005">
            <path id="Trazado_106136" data-name="Trazado 106136" d="M971.731,778.525l16.229,60.559a167.349,167.349,0,0,0,75.077-43.394l-44.324-44.32A104.692,104.692,0,0,1,971.731,778.525Z" transform="translate(-971.731 -751.37)" fill="#cecece" stroke="#fffeff" stroke-miterlimit="10" stroke-width="0.5"/>
          </g>
        </g>
        <g id="Grupo_56008" data-name="Grupo 56008" transform="translate(5.666 194.638)">
          <g id="Grupo_56007" data-name="Grupo 56007">
            <path id="Trazado_106137" data-name="Trazado 106137" d="M977.193,737.671,916.63,753.9a167.338,167.338,0,0,0,43.394,75.08l44.323-44.32A104.721,104.721,0,0,1,977.193,737.671Z" transform="translate(-916.63 -737.671)" fill="#cecece" stroke="#fffeff" stroke-miterlimit="10" stroke-width="0.5"/>
          </g>
        </g>
        <g id="Grupo_56010" data-name="Grupo 56010" transform="translate(241.62 194.638)">
          <g id="Grupo_56009" data-name="Grupo 56009">
            <path id="Trazado_106138" data-name="Trazado 106138" d="M1012.586,737.671a104.708,104.708,0,0,1-27.155,46.981l44.324,44.32a167.337,167.337,0,0,0,43.391-75.077Z" transform="translate(-985.43 -737.671)" fill="#cecece" stroke="#fffeff" stroke-miterlimit="10" stroke-width="0.5"/>
          </g>
        </g>
        <g id="Grupo_56012" data-name="Grupo 56012" transform="translate(194.638 5.669)">
          <g id="Grupo_56011" data-name="Grupo 56011">
            <path id="Trazado_106139" data-name="Trazado 106139" d="M1018.713,770.285l44.324-44.323a167.373,167.373,0,0,0-75.077-43.391L971.731,743.13A104.692,104.692,0,0,1,1018.713,770.285Z" transform="translate(-971.731 -682.571)" fill="#cecece" stroke="#fffeff" stroke-miterlimit="10" stroke-width="0.5"/>
          </g>
        </g>
        <g id="Grupo_56014" data-name="Grupo 56014" transform="translate(124.14)">
          <g id="Grupo_56013" data-name="Grupo 56013">
            <path id="Trazado_106140" data-name="Trazado 106140" d="M994.535,743.6a104.9,104.9,0,0,1,27.138,3.55l16.229-60.559a168.734,168.734,0,0,0-86.727,0c3.923,14.651,8.159,30.454,16.225,60.563A104.9,104.9,0,0,1,994.535,743.6Z" transform="translate(-951.175 -680.918)" fill="#cecece" stroke="#fffeff" stroke-miterlimit="10" stroke-width="0.5"/>
          </g>
        </g>
        <g id="Grupo_56016" data-name="Grupo 56016" transform="translate(268.775 124.14)">
          <g id="Grupo_56015" data-name="Grupo 56015">
            <path id="Trazado_106141" data-name="Trazado 106141" d="M996.894,760.475a105.062,105.062,0,0,1-3.546,27.138l60.559,16.225a168.758,168.758,0,0,0,0-86.723L993.348,733.34A105.052,105.052,0,0,1,996.894,760.475Z" transform="translate(-993.348 -717.115)" fill="#cecece" stroke="#fffeff" stroke-miterlimit="10" stroke-width="0.5"/>
          </g>
        </g>
        <g id="Grupo_56018" data-name="Grupo 56018" transform="translate(0 124.136)">
          <g id="Grupo_56017" data-name="Grupo 56017">
            <path id="Trazado_106142" data-name="Trazado 106142" d="M977.657,760.477a104.879,104.879,0,0,1,3.549-27.135c-30.108-8.07-45.912-12.3-60.563-16.229a168.779,168.779,0,0,0,0,86.726l60.563-16.225A104.907,104.907,0,0,1,977.657,760.477Z" transform="translate(-914.978 -717.114)" fill="#cecece" stroke="#fffeff" stroke-miterlimit="10" stroke-width="0.5"/>
          </g>
        </g>
        <g id="Grupo_56020" data-name="Grupo 56020" transform="translate(49.06 5.666)">
          <g id="Grupo_56019" data-name="Grupo 56019">
            <path id="Trazado_106143" data-name="Trazado 106143" d="M1020.589,743.133c-8.066-30.108-12.3-45.911-16.225-60.563a167.339,167.339,0,0,0-75.08,43.394l44.323,44.32A104.654,104.654,0,0,1,1020.589,743.133Z" transform="translate(-929.283 -682.57)" fill="#cecece" stroke="#fffeff" stroke-miterlimit="10" stroke-width="0.5"/>
          </g>
        </g>
        <g id="Grupo_56022" data-name="Grupo 56022" transform="translate(5.666 49.06)">
          <g id="Grupo_56021" data-name="Grupo 56021">
            <path id="Trazado_106144" data-name="Trazado 106144" d="M1004.348,739.543l-44.323-44.32A167.327,167.327,0,0,0,916.63,770.3c14.651,3.927,30.454,8.159,60.563,16.229A104.7,104.7,0,0,1,1004.348,739.543Z" transform="translate(-916.63 -695.223)" fill="#00b500" stroke="#fffeff" stroke-miterlimit="10" stroke-width="0.5"/>
          </g>
        </g>
      </g>
    </g>
  </g>
</svg>
