<svg xmlns="http://www.w3.org/2000/svg" width="715" height="429" viewBox="0 0 715 429">
  <g id="_107" data-name="107" transform="translate(743 9398)">
    <rect id="Rect치ngulo_35063" data-name="Rect치ngulo 35063" width="715" height="429" transform="translate(-743 -9398)" fill="#f3f9ff"/>
    <g id="Grupo_81955" data-name="Grupo 81955" transform="translate(275.982 87.177)">
      <g id="Grupo_81953" data-name="Grupo 81953" transform="translate(-828.982 -9438.177)">
        <g id="Grupo_55783" data-name="Grupo 55783" transform="translate(84.168 0)">
          <path id="Trazado_105793" data-name="Trazado 105793" d="M577.536,996.96c-.183,0-.362-.015-.544-.015a166.658,166.658,0,0,0-83.332,22.226l83.876,145.274Z" transform="translate(-493.66 -996.945)" fill="#fef121"/>
        </g>
        <g id="Grupo_55784" data-name="Grupo 55784" transform="translate(22.595 22.226)">
          <path id="Trazado_105794" data-name="Trazado 105794" d="M539.392,1002.663a166.921,166.921,0,0,0-61.573,61.3l145.449,83.973Z" transform="translate(-477.819 -1002.663)" fill="#8ad21b"/>
        </g>
        <g id="Grupo_55785" data-name="Grupo 55785" transform="translate(168.044 22.696)">
          <path id="Trazado_105795" data-name="Trazado 105795" d="M659.872,1064.085a166.906,166.906,0,0,0-61.033-61.3l-83.6,144.8Z" transform="translate(-515.239 -1002.784)" fill="#f6ac43"/>
        </g>
        <g id="Grupo_55786" data-name="Grupo 55786" transform="translate(168.044 0.015)">
          <path id="Trazado_105796" data-name="Trazado 105796" d="M598.839,1019.629a166.621,166.621,0,0,0-83.6-22.68v167.484Z" transform="translate(-515.239 -996.949)" fill="#face32"/>
        </g>
        <g id="Grupo_55787" data-name="Grupo 55787" transform="translate(168.044 83.997)">
          <path id="Trazado_105797" data-name="Trazado 105797" d="M682.195,1102.058a166.676,166.676,0,0,0-22.323-83.5l-144.633,83.5Z" transform="translate(-515.239 -1018.555)" fill="#fb7833"/>
        </g>
        <g id="Grupo_55788" data-name="Grupo 55788" transform="translate(0 83.527)">
          <path id="Trazado_105798" data-name="Trazado 105798" d="M494.6,1018.434a166.641,166.641,0,0,0-22.595,83.973H640.05Z" transform="translate(-472.006 -1018.434)" fill="#34b534"/>
        </g>
        <g id="Grupo_55789" data-name="Grupo 55789" transform="translate(22.595 167.5)">
          <path id="Trazado_105799" data-name="Trazado 105799" d="M477.819,1124.012a166.913,166.913,0,0,0,61.573,61.3l83.876-145.274Z" transform="translate(-477.819 -1040.038)" fill="#197ac4"/>
        </g>
        <g id="Grupo_55790" data-name="Grupo 55790" transform="translate(0 167.5)">
          <path id="Trazado_105800" data-name="Trazado 105800" d="M472.006,1040.038a166.644,166.644,0,0,0,22.595,83.974l145.449-83.974Z" transform="translate(-472.006 -1040.038)" fill="#1bb3cf"/>
        </g>
        <g id="Grupo_55791" data-name="Grupo 55791" transform="translate(168.044 167.5)">
          <path id="Trazado_105801" data-name="Trazado 105801" d="M515.239,1040.038l144.633,83.5a166.666,166.666,0,0,0,22.323-83.5Z" transform="translate(-515.239 -1040.038)" fill="#ff4929"/>
        </g>
        <g id="Grupo_55792" data-name="Grupo 55792" transform="translate(168.044 167.5)">
          <path id="Trazado_105802" data-name="Trazado 105802" d="M598.839,1184.846a166.948,166.948,0,0,0,61.033-61.3l-144.633-83.5Z" transform="translate(-515.239 -1040.038)" fill="#d24499"/>
        </g>
        <g id="Grupo_55793" data-name="Grupo 55793" transform="translate(84.168 167.5)">
          <path id="Trazado_105803" data-name="Trazado 105803" d="M493.66,1185.313a166.652,166.652,0,0,0,83.332,22.226c.183,0,.362-.016.544-.016V1040.038Z" transform="translate(-493.66 -1040.038)" fill="#525eba"/>
        </g>
        <g id="Grupo_55794" data-name="Grupo 55794" transform="translate(168.044 167.5)">
          <path id="Trazado_105804" data-name="Trazado 105804" d="M515.239,1207.522a166.655,166.655,0,0,0,83.6-22.676l-83.6-144.808Z" transform="translate(-515.239 -1040.038)" fill="#7e38b0"/>
        </g>
      </g>
      <g id="Grupo_81954" data-name="Grupo 81954" transform="translate(-803.583 -9414.268)">
        <g id="Grupo_55898" data-name="Grupo 55898" transform="translate(23.536 23.493)">
          <rect id="Rect치ngulo_7069" data-name="Rect치ngulo 7069" width="335.298" height="6.248" transform="translate(0 238.247) rotate(-45.28)" fill="#2b2b2b"/>
        </g>
        <g id="Grupo_55899" data-name="Grupo 55899" transform="translate(235.997 0)">
          <path id="Trazado_105903" data-name="Trazado 105903" d="M568.437,1048.335a22.591,22.591,0,1,1,16.057-27.621A22.6,22.6,0,0,1,568.437,1048.335Z" transform="translate(-536.936 -1000.779)" fill="#f6ac43"/>
          <path id="Trazado_105904" data-name="Trazado 105904" d="M564.984,1054.535a25.725,25.725,0,1,1,6.577-.859h0A25.823,25.823,0,0,1,564.984,1054.535Zm-.016-45.194a19.468,19.468,0,1,0,18.821,14.487A19.527,19.527,0,0,0,564.969,1009.342Z" transform="translate(-539.256 -1003.096)" fill="#2b2b2b"/>
        </g>
        <g id="Grupo_55900" data-name="Grupo 55900" transform="translate(0 238.185)">
          <path id="Trazado_105905" data-name="Trazado 105905" d="M507.725,1109.611a22.59,22.59,0,1,1,16.053-27.621A22.588,22.588,0,0,1,507.725,1109.611Z" transform="translate(-476.215 -1062.052)" fill="#197ac4"/>
          <path id="Trazado_105906" data-name="Trazado 105906" d="M504.275,1115.82a25.755,25.755,0,1,1,6.577-.863A25.764,25.764,0,0,1,504.275,1115.82Zm-.012-45.193a19.473,19.473,0,1,0,18.821,14.49A19.482,19.482,0,0,0,504.263,1070.627Z" transform="translate(-478.54 -1064.375)" fill="#2b2b2b"/>
        </g>
      </g>
    </g>
  </g>
</svg>
