<svg xmlns="http://www.w3.org/2000/svg" width="715" height="429" viewBox="0 0 715 429">
  <g id="_108" data-name="108" transform="translate(743 8942)">
    <rect id="Rectángulo_35064" data-name="Rectángulo 35064" width="715" height="429" transform="translate(-743 -8942)" fill="#f3f9ff"/>
    <g id="Grupo_81960" data-name="Grupo 81960" transform="translate(275.794 -44.184)">
      <g id="Grupo_81959" data-name="Grupo 81959" transform="translate(-828.794 -8860.816)">
        <g id="Grupo_55809" data-name="Grupo 55809" transform="translate(84.168 19.462)">
          <path id="Trazado_105817" data-name="Trazado 105817" d="M803.72,996.958c-.179,0-.358-.012-.54-.012a166.634,166.634,0,0,0-83.332,22.222l83.872,145.274Z" transform="translate(-719.848 -996.946)" fill="#fef121"/>
        </g>
        <g id="Grupo_55810" data-name="Grupo 55810" transform="translate(22.595 41.684)">
          <path id="Trazado_105818" data-name="Trazado 105818" d="M765.58,1002.663a166.921,166.921,0,0,0-61.573,61.3l145.445,83.973Z" transform="translate(-704.007 -1002.663)" fill="#8ad21b"/>
        </g>
        <g id="Grupo_55811" data-name="Grupo 55811" transform="translate(168.04 42.154)">
          <path id="Trazado_105819" data-name="Trazado 105819" d="M886.059,1064.085a166.862,166.862,0,0,0-61.029-61.3l-83.6,144.8Z" transform="translate(-741.426 -1002.784)" fill="#f6ac43"/>
        </g>
        <g id="Grupo_55812" data-name="Grupo 55812" transform="translate(168.04 19.473)">
          <path id="Trazado_105820" data-name="Trazado 105820" d="M825.03,1019.629a166.625,166.625,0,0,0-83.6-22.68v167.484Z" transform="translate(-741.426 -996.949)" fill="#face32"/>
        </g>
        <g id="Grupo_55813" data-name="Grupo 55813" transform="translate(168.04 103.455)">
          <path id="Trazado_105821" data-name="Trazado 105821" d="M908.386,1102.058a166.639,166.639,0,0,0-22.327-83.5l-144.633,83.5Z" transform="translate(-741.426 -1018.555)" fill="#fb7833"/>
        </g>
        <g id="Grupo_55814" data-name="Grupo 55814" transform="translate(0 102.984)">
          <path id="Trazado_105822" data-name="Trazado 105822" d="M720.789,1018.434a166.654,166.654,0,0,0-22.595,83.973h168.04Z" transform="translate(-698.194 -1018.434)" fill="#34b534"/>
        </g>
        <g id="Grupo_55815" data-name="Grupo 55815" transform="translate(22.595 186.958)">
          <path id="Trazado_105823" data-name="Trazado 105823" d="M704.007,1124.012a166.913,166.913,0,0,0,61.573,61.3l83.872-145.274Z" transform="translate(-704.007 -1040.038)" fill="#197ac4"/>
        </g>
        <g id="Grupo_55816" data-name="Grupo 55816" transform="translate(0 186.958)">
          <path id="Trazado_105824" data-name="Trazado 105824" d="M698.194,1040.038a166.645,166.645,0,0,0,22.595,83.974l145.445-83.974Z" transform="translate(-698.194 -1040.038)" fill="#1bb3cf"/>
        </g>
        <g id="Grupo_55817" data-name="Grupo 55817" transform="translate(168.04 186.958)">
          <path id="Trazado_105825" data-name="Trazado 105825" d="M741.426,1040.038l144.633,83.507a166.651,166.651,0,0,0,22.327-83.507Z" transform="translate(-741.426 -1040.038)" fill="#ff4929"/>
        </g>
        <g id="Grupo_55818" data-name="Grupo 55818" transform="translate(168.04 186.958)">
          <path id="Trazado_105826" data-name="Trazado 105826" d="M825.03,1184.846a166.928,166.928,0,0,0,61.029-61.3l-144.633-83.507Z" transform="translate(-741.426 -1040.038)" fill="#d24499"/>
        </g>
        <g id="Grupo_55819" data-name="Grupo 55819" transform="translate(84.168 186.958)">
          <path id="Trazado_105827" data-name="Trazado 105827" d="M719.848,1185.313a166.652,166.652,0,0,0,83.332,22.226c.183,0,.362-.011.54-.016V1040.038Z" transform="translate(-719.848 -1040.038)" fill="#525eba"/>
        </g>
        <g id="Grupo_55820" data-name="Grupo 55820" transform="translate(168.04 186.958)">
          <path id="Trazado_105828" data-name="Trazado 105828" d="M741.426,1207.522a166.659,166.659,0,0,0,83.6-22.676l-83.6-144.808Z" transform="translate(-741.426 -1040.038)" fill="#7e38b0"/>
        </g>
        <g id="Grupo_55821" data-name="Grupo 55821" transform="translate(126.107 22.599)">
          <path id="Trazado_105829" data-name="Trazado 105829" d="M888.9,1048.32l-71.285-44.313H730.638v-6.253h88.755l72.8,45.254Z" transform="translate(-730.638 -997.753)" fill="#2b2b2b"/>
        </g>
        <g id="Grupo_55822" data-name="Grupo 55822" transform="translate(100.375 0)">
          <path id="Trazado_105830" data-name="Trazado 105830" d="M753.2,1037.18a22.592,22.592,0,1,1,16.053-27.621A22.594,22.594,0,0,1,753.2,1037.18Z" transform="translate(-721.69 -989.616)" fill="#fef121"/>
          <path id="Trazado_105831" data-name="Trazado 105831" d="M749.708,1043.391a25.751,25.751,0,1,1,6.623-.867A25.918,25.918,0,0,1,749.708,1043.391Zm.074-45.2a19.565,19.565,0,0,0-5.014.657,19.361,19.361,0,1,0,5.014-.657Z" transform="translate(-724.018 -991.939)" fill="#2b2b2b"/>
        </g>
        <g id="Grupo_55823" data-name="Grupo 55823" transform="translate(188.253 0.012)">
          <path id="Trazado_105832" data-name="Trazado 105832" d="M775.808,1037.18a22.591,22.591,0,1,1,16.057-27.621A22.594,22.594,0,0,1,775.808,1037.18Z" transform="translate(-744.305 -989.628)" fill="#face32"/>
          <path id="Trazado_105833" data-name="Trazado 105833" d="M772.357,1043.378a25.738,25.738,0,1,1,6.577-.863h0A25.826,25.826,0,0,1,772.357,1043.378Zm-.019-45.189a19.473,19.473,0,1,0,18.824,14.487A19.508,19.508,0,0,0,772.338,998.188Z" transform="translate(-746.626 -991.942)" fill="#2b2b2b"/>
        </g>
        <g id="Grupo_55824" data-name="Grupo 55824" transform="translate(260.281 44.779)">
          <path id="Trazado_105834" data-name="Trazado 105834" d="M794.341,1048.7A22.591,22.591,0,1,1,810.4,1021.08,22.593,22.593,0,0,1,794.341,1048.7Z" transform="translate(-762.83 -1001.133)" fill="#f6ac43"/>
          <path id="Trazado_105835" data-name="Trazado 105835" d="M790.888,1054.909a25.722,25.722,0,1,1,6.585-.859A25.764,25.764,0,0,1,790.888,1054.909Zm.031-45.2a19.609,19.609,0,0,0-5.014.657,19.362,19.362,0,1,0,5.014-.657Z" transform="translate(-765.157 -1003.459)" fill="#2b2b2b"/>
        </g>
      </g>
    </g>
  </g>
</svg>
