<svg xmlns="http://www.w3.org/2000/svg" width="190" height="190" viewBox="0 0 190 190">
  <g id="web-design" transform="translate(-16 -16)">
    <path id="Trazado_100525" data-name="Trazado 100525" d="M242.667,410.667H192l6.333-38V360h38v12.667Z" transform="translate(-106.333 -207.833)" fill="#757c80"/>
    <rect id="Rectángulo_5271" data-name="Rectángulo 5271" width="183.667" height="145.667" rx="4" transform="translate(19.167 19.167)" fill="#b5b8b9"/>
    <path id="Trazado_100526" data-name="Trazado 100526" d="M30.333,24h171a6.333,6.333,0,0,1,6.333,6.333v19H24v-19A6.333,6.333,0,0,1,30.333,24Z" transform="translate(-4.833 -4.833)" fill="#26ccda"/>
    <path id="Trazado_100527" data-name="Trazado 100527" d="M24,88H207.667v88.667H24Z" transform="translate(-4.833 -43.5)" fill="#fae8d8"/>
    <path id="Trazado_100528" data-name="Trazado 100528" d="M88,152h38v38H88Z" transform="translate(-43.5 -82.167)" fill="#fdd835"/>
    <path id="Trazado_100529" data-name="Trazado 100529" d="M0,0H12.667V74.238A6.333,6.333,0,1,1,0,74.238V0Z" transform="translate(138.159 140.816) rotate(-45)" fill="#f57c00"/>
    <path id="Trazado_100530" data-name="Trazado 100530" d="M0,0H12.667V37.391H0Z" transform="translate(123.913 126.564) rotate(-45)" fill="#fcb442"/>
    <path id="Trazado_100531" data-name="Trazado 100531" d="M248,120h82.333v19H248Z" transform="translate(-140.167 -62.833)" fill="#f57c00"/>
    <path id="Trazado_100532" data-name="Trazado 100532" d="M248,232l4.973,21.55a12.667,12.667,0,0,0,9.27,9.44l10.387,2.6,8.957-8.957-2.6-10.387a12.667,12.667,0,0,0-9.44-9.27Z" transform="translate(-140.167 -130.5)" fill="#976048"/>
    <path id="Trazado_100533" data-name="Trazado 100533" d="M206,158.5V25.5a9.511,9.511,0,0,0-9.5-9.5H25.5A9.511,9.511,0,0,0,16,25.5v133a9.511,9.511,0,0,0,9.5,9.5H88.262l-5.278,31.667H69.833a3.167,3.167,0,1,0,0,6.333h82.333a3.167,3.167,0,1,0,0-6.333H139.016L133.738,168H160.9l27.546,27.546a9.5,9.5,0,0,0,13.435-13.435L187.768,168H196.5A9.511,9.511,0,0,0,206,158.5Zm-69.057-23.411,4.478-4.478,13.435,13.435-4.478,4.48Zm-5.449-3.508-8.65-2.162a9.458,9.458,0,0,1-6.953-7.08l-3.834-16.614,16.614,3.834a9.458,9.458,0,0,1,7.08,6.953l2.162,8.65Zm12.785-7.068-2.384-9.54a15.764,15.764,0,0,0-11.8-11.588l-21.549-4.972a3.167,3.167,0,0,0-3.8,3.8l4.973,21.55A15.833,15.833,0,0,0,112.708,130H22.333V47.667H199.667V130h-49.9ZM25.5,22.333h171a3.17,3.17,0,0,1,3.167,3.167V41.333H22.333V25.5A3.17,3.17,0,0,1,25.5,22.333ZM132.6,199.667H89.4L94.683,168h32.635Zm-107.1-38a3.17,3.17,0,0,1-3.167-3.167V136.333H124.39l6.454,1.613,23.72,23.72Zm171.9,29.4a3.167,3.167,0,0,1-4.478,0L154.856,153l4.478-4.477L197.4,186.59A3.171,3.171,0,0,1,197.4,191.067Zm-41.3-54.734h43.566V158.5a3.17,3.17,0,0,1-3.167,3.167H181.434Z"/>
    <path id="Trazado_100534" data-name="Trazado 100534" d="M247.833,336H235.167a3.167,3.167,0,0,0,0,6.333h12.667a3.167,3.167,0,1,0,0-6.333Z" transform="translate(-130.5 -193.333)"/>
    <circle id="Elipse_4025" data-name="Elipse 4025" cx="3.167" cy="3.167" r="3.167" transform="translate(28.667 28.667)"/>
    <circle id="Elipse_4026" data-name="Elipse 4026" cx="3.167" cy="3.167" r="3.167" transform="translate(41.333 28.667)"/>
    <circle id="Elipse_4027" data-name="Elipse 4027" cx="3.167" cy="3.167" r="3.167" transform="translate(54 28.667)"/>
    <path id="Trazado_100535" data-name="Trazado 100535" d="M99.167,118.333H105.5a3.167,3.167,0,1,0,0-6.333H99.167a3.167,3.167,0,1,0,0,6.333Z" transform="translate(-48.333 -58)"/>
    <path id="Trazado_100536" data-name="Trazado 100536" d="M147.167,118.333H153.5a3.167,3.167,0,1,0,0-6.333h-6.333a3.167,3.167,0,1,0,0,6.333Z" transform="translate(-77.333 -58)"/>
    <path id="Trazado_100537" data-name="Trazado 100537" d="M57.5,262.333H54.333v-3.167a3.167,3.167,0,1,0-6.333,0V265.5a3.167,3.167,0,0,0,3.167,3.167H57.5a3.167,3.167,0,0,0,0-6.333Z" transform="translate(-19.333 -145)"/>
    <path id="Trazado_100538" data-name="Trazado 100538" d="M105.5,272H99.167a3.167,3.167,0,1,0,0,6.333H105.5a3.167,3.167,0,1,0,0-6.333Z" transform="translate(-48.333 -154.667)"/>
    <path id="Trazado_100539" data-name="Trazado 100539" d="M153.5,272h-6.333a3.167,3.167,0,1,0,0,6.333H153.5a3.167,3.167,0,1,0,0-6.333Z" transform="translate(-77.333 -154.667)"/>
    <path id="Trazado_100540" data-name="Trazado 100540" d="M201.5,112h-6.333a3.167,3.167,0,0,0,0,6.333h3.167V121.5a3.167,3.167,0,0,0,6.333,0v-6.333A3.167,3.167,0,0,0,201.5,112Z" transform="translate(-106.333 -58)"/>
    <path id="Trazado_100541" data-name="Trazado 100541" d="M211.167,160A3.167,3.167,0,0,0,208,163.167V169.5a3.167,3.167,0,0,0,6.333,0v-6.333A3.167,3.167,0,0,0,211.167,160Z" transform="translate(-116 -87)"/>
    <path id="Trazado_100542" data-name="Trazado 100542" d="M211.167,208A3.167,3.167,0,0,0,208,211.167V217.5a3.167,3.167,0,0,0,6.333,0v-6.333A3.167,3.167,0,0,0,211.167,208Z" transform="translate(-116 -116)"/>
    <path id="Trazado_100543" data-name="Trazado 100543" d="M201.5,256a3.167,3.167,0,0,0-3.167,3.167v3.167h-3.167a3.167,3.167,0,0,0,0,6.333H201.5a3.167,3.167,0,0,0,3.167-3.167v-6.333A3.167,3.167,0,0,0,201.5,256Z" transform="translate(-106.333 -145)"/>
    <path id="Trazado_100544" data-name="Trazado 100544" d="M51.167,124.667a3.167,3.167,0,0,0,3.167-3.167v-3.167H57.5a3.167,3.167,0,0,0,0-6.333H51.167A3.167,3.167,0,0,0,48,115.167V121.5A3.167,3.167,0,0,0,51.167,124.667Z" transform="translate(-19.333 -58)"/>
    <path id="Trazado_100545" data-name="Trazado 100545" d="M51.167,172.667a3.167,3.167,0,0,0,3.167-3.167v-6.333a3.167,3.167,0,0,0-6.333,0V169.5A3.167,3.167,0,0,0,51.167,172.667Z" transform="translate(-19.333 -87)"/>
    <path id="Trazado_100546" data-name="Trazado 100546" d="M51.167,220.667a3.167,3.167,0,0,0,3.167-3.167v-6.333a3.167,3.167,0,1,0-6.333,0V217.5A3.167,3.167,0,0,0,51.167,220.667Z" transform="translate(-19.333 -116)"/>
    <path id="Trazado_100547" data-name="Trazado 100547" d="M262.167,192h-19a3.167,3.167,0,0,0,0,6.333h19a3.167,3.167,0,0,0,0-6.333Z" transform="translate(-135.333 -106.333)"/>
    <path id="Trazado_100548" data-name="Trazado 100548" d="M373.833,192H323.167a3.167,3.167,0,1,0,0,6.333h50.667a3.167,3.167,0,1,0,0-6.333Z" transform="translate(-183.667 -106.333)"/>
    <path id="Trazado_100549" data-name="Trazado 100549" d="M383.5,224H339.167a3.167,3.167,0,1,0,0,6.333H383.5a3.167,3.167,0,1,0,0-6.333Z" transform="translate(-193.333 -125.667)"/>
    <path id="Trazado_100550" data-name="Trazado 100550" d="M325.5,112H243.167A3.167,3.167,0,0,0,240,115.167v19a3.167,3.167,0,0,0,3.167,3.167H325.5a3.167,3.167,0,0,0,3.167-3.167v-19A3.167,3.167,0,0,0,325.5,112Zm-3.167,19h-76V118.333h76Z" transform="translate(-135.333 -58)"/>
    <path id="Trazado_100551" data-name="Trazado 100551" d="M124.333,147.167A3.167,3.167,0,0,0,121.167,144h-38A3.167,3.167,0,0,0,80,147.167v38a3.167,3.167,0,0,0,3.167,3.167h38a3.167,3.167,0,0,0,3.167-3.167ZM118,182H86.333V150.333H118Z" transform="translate(-38.667 -77.333)"/>
  </g>
</svg>
