<svg xmlns="http://www.w3.org/2000/svg" width="106" height="106" viewBox="0 0 106 106">
  <g id="Grupo_82216" data-name="Grupo 82216" transform="translate(378 8124)">
    <g id="Grupo_81971" data-name="Grupo 81971" transform="translate(-16 -15)">
      <circle id="Elipse_4214" data-name="Elipse 4214" cx="53" cy="53" r="53" transform="translate(-362 -8109)" fill="#fff"/>
      <circle id="Elipse_4215" data-name="Elipse 4215" cx="42.257" cy="42.257" r="42.257" transform="translate(-351.257 -8098.257)" fill="#26ccda"/>
    </g>
    <path id="Trazado_115754" data-name="Trazado 115754" d="M7.5,0H-7.383V-3.223L-.527-10.43q2.534-2.886,2.534-4.585a3.189,3.189,0,0,0-.6-2.095,2.144,2.144,0,0,0-1.743-.718,2.171,2.171,0,0,0-1.831.959,3.943,3.943,0,0,0-.7,2.4H-7.822A7,7,0,0,1-6.841-18.1a6.882,6.882,0,0,1,2.725-2.6,8.094,8.094,0,0,1,3.9-.937,7.962,7.962,0,0,1,5.325,1.6,5.7,5.7,0,0,1,1.868,4.585A6.658,6.658,0,0,1,6.5-13a10.76,10.76,0,0,1-1.458,2.5A36.715,36.715,0,0,1,1.86-6.987L-.894-3.809H7.5Z" transform="translate(-325 -8061)" fill="#fff"/>
  </g>
</svg>
