<svg xmlns="http://www.w3.org/2000/svg" width="106" height="106" viewBox="0 0 106 106">
  <g id="Grupo_82281" data-name="Grupo 82281" transform="translate(685 7931)">
    <g id="Grupo_81970" data-name="Grupo 81970" transform="translate(-16 -18)">
      <circle id="Elipse_4216" data-name="Elipse 4216" cx="53" cy="53" r="53" transform="translate(-669 -7913)" fill="#fff"/>
      <circle id="Elipse_4219" data-name="Elipse 4219" cx="42.257" cy="42.257" r="42.257" transform="translate(-658.257 -7902.257)" fill="#fdd835"/>
    </g>
    <path id="Trazado_115772" data-name="Trazado 115772" d="M-2.871-12.729H-.542q2.769,0,2.769-2.71a2.343,2.343,0,0,0-.659-1.721,2.5,2.5,0,0,0-1.86-.667A2.676,2.676,0,0,0-2-17.256a1.743,1.743,0,0,0-.725,1.421H-7.661a5.053,5.053,0,0,1,.938-3,6.191,6.191,0,0,1,2.6-2.058,8.89,8.89,0,0,1,3.655-.74,8.735,8.735,0,0,1,5.6,1.626,5.405,5.405,0,0,1,2.036,4.468,4.505,4.505,0,0,1-.842,2.6,6,6,0,0,1-2.454,1.985A5.734,5.734,0,0,1,6.533-9.089a4.919,4.919,0,0,1,.967,3.1,5.5,5.5,0,0,1-2.2,4.57A9.12,9.12,0,0,1-.469.293a9.458,9.458,0,0,1-3.889-.8A6.093,6.093,0,0,1-7.075-2.717,5.751,5.751,0,0,1-8-5.933h4.966a2.223,2.223,0,0,0,.791,1.7,2.793,2.793,0,0,0,1.948.718,2.925,2.925,0,0,0,2.08-.725,2.424,2.424,0,0,0,.776-1.853,2.833,2.833,0,0,0-.806-2.285A3.368,3.368,0,0,0-.469-9.053h-2.4Z" transform="translate(-632 -7865)" fill="#12263f"/>
  </g>
</svg>
