<svg xmlns="http://www.w3.org/2000/svg" width="163" height="159.356" viewBox="0 0 163 159.356">
  <g id="_123" data-name="123" transform="translate(-212.027 -101.811)" style="isolation: isolate">
    <g id="Grupo_81976" data-name="Grupo 81976" transform="translate(212.027 101.811)">
      <g id="Grupo_81973" data-name="Grupo 81973" transform="translate(46.309 36.02)" style="mix-blend-mode: screen;isolation: isolate">
        <circle id="Elipse_4220" data-name="Elipse 4220" cx="41.257" cy="41.257" r="41.257" transform="translate(0 58.346) rotate(-45)" fill="red"/>
      </g>
      <g id="Grupo_81974" data-name="Grupo 81974" transform="translate(35.9)" style="mix-blend-mode: screen;isolation: isolate">
        <circle id="Elipse_4221" data-name="Elipse 4221" cx="41.257" cy="41.257" r="41.257" fill="blue"/>
      </g>
      <g id="Grupo_81975" data-name="Grupo 81975" transform="translate(0 44.705)" style="mix-blend-mode: screen;isolation: isolate">
        <circle id="Elipse_4222" data-name="Elipse 4222" cx="41.257" cy="41.257" r="41.257" transform="matrix(0.231, -0.973, 0.973, 0.231, 0, 80.288)" fill="lime"/>
      </g>
    </g>
    <g id="Grupo_81980" data-name="Grupo 81980" transform="translate(270.056 244.846)">
      <g id="Grupo_81977" data-name="Grupo 81977" transform="translate(0 0.048)">
        <path id="Trazado_114618" data-name="Trazado 114618" d="M225.37,135.047a21.149,21.149,0,0,1,3.962-.335c2.2,0,3.631.4,4.627,1.3a3.994,3.994,0,0,1,1.257,3.036,4.2,4.2,0,0,1-3.014,4.084v.07c1.235.426,1.97,1.566,2.348,3.227a25.251,25.251,0,0,0,1.235,4.388H233.65A20.828,20.828,0,0,1,232.58,147c-.474-2.2-1.326-3.036-3.2-3.109h-1.944v6.928H225.37Zm2.066,7.28h2.109c2.2,0,3.605-1.209,3.605-3.036,0-2.061-1.492-2.966-3.675-2.988a8.721,8.721,0,0,0-2.04.187Z" transform="translate(-225.37 -134.712)"/>
      </g>
      <g id="Grupo_81978" data-name="Grupo 81978" transform="translate(11.89)">
        <path id="Trazado_114619" data-name="Trazado 114619" d="M241.22,150.144a14.776,14.776,0,0,1-4.906.878,7.508,7.508,0,0,1-8.211-8.067c.026-4.766,3.3-8.254,8.659-8.254a9.86,9.86,0,0,1,3.988.739l-.5,1.683a8.321,8.321,0,0,0-3.536-.687c-3.888,0-6.428,2.418-6.428,6.428,0,4.053,2.444,6.449,6.167,6.449a6.78,6.78,0,0,0,2.753-.426v-4.766h-3.249v-1.661h5.262Z" transform="translate(-228.104 -134.701)"/>
      </g>
      <g id="Grupo_81979" data-name="Grupo 81979" transform="translate(28.172 0.048)">
        <path id="Trazado_114620" data-name="Trazado 114620" d="M231.848,135.047a19.836,19.836,0,0,1,3.77-.335,6.588,6.588,0,0,1,4.388,1.165,3.348,3.348,0,0,1,1.331,2.822,3.8,3.8,0,0,1-2.7,3.51v.048a4.118,4.118,0,0,1,3.3,4.01,4.3,4.3,0,0,1-1.352,3.2c-1.113,1.022-2.918,1.5-5.527,1.5a23.9,23.9,0,0,1-3.2-.191Zm2.066,6.545h1.87c2.183,0,3.466-1.139,3.466-2.679,0-1.874-1.426-2.609-3.514-2.609a8.573,8.573,0,0,0-1.822.143Zm0,7.663a11.211,11.211,0,0,0,1.731.1c2.135,0,4.1-.783,4.1-3.109,0-2.183-1.87-3.083-4.127-3.083h-1.7Z" transform="translate(-231.848 -134.712)"/>
      </g>
    </g>
  </g>
</svg>
