<svg xmlns="http://www.w3.org/2000/svg" width="161.949" height="160.607" viewBox="0 0 161.949 160.607">
  <g id="_124" data-name="124" transform="translate(-253.079 -101.811)">
    <g id="Grupo_81985" data-name="Grupo 81985" transform="translate(253.079 101.811)">
      <g id="Grupo_81982" data-name="Grupo 81982" transform="translate(44.341 36.303)" style="mix-blend-mode: multiply;isolation: isolate">
        <circle id="Elipse_4223" data-name="Elipse 4223" cx="41.581" cy="41.581" r="41.581" transform="translate(0 58.804) rotate(-45)" fill="#f0047f"/>
      </g>
      <g id="Grupo_81983" data-name="Grupo 81983" transform="translate(33.851)" style="mix-blend-mode: multiply;isolation: isolate">
        <circle id="Elipse_4224" data-name="Elipse 4224" cx="41.581" cy="41.581" r="41.581" fill="#00aed0"/>
      </g>
      <g id="Grupo_81984" data-name="Grupo 81984" transform="translate(0 47.386)" style="mix-blend-mode: multiply;isolation: isolate">
        <circle id="Elipse_4225" data-name="Elipse 4225" cx="41.581" cy="41.581" r="41.581" transform="translate(0 82.081) rotate(-80.755)" fill="#fefe00"/>
      </g>
    </g>
    <g id="Grupo_81990" data-name="Grupo 81990" transform="translate(299.404 245.802)">
      <g id="Grupo_81986" data-name="Grupo 81986">
        <path id="Trazado_114621" data-name="Trazado 114621" d="M275.863,150.512a10.239,10.239,0,0,1-4.251.767c-4.545,0-7.964-2.871-7.964-8.152,0-5.045,3.419-8.464,8.415-8.464a8.614,8.614,0,0,1,3.826.719l-.5,1.7a7.587,7.587,0,0,0-3.252-.671c-3.774,0-6.285,2.415-6.285,6.649,0,3.94,2.271,6.478,6.193,6.478a8.3,8.3,0,0,0,3.393-.671Z" transform="translate(-263.648 -134.663)"/>
      </g>
      <g id="Grupo_81987" data-name="Grupo 81987" transform="translate(14.398 0.263)">
        <path id="Trazado_114622" data-name="Trazado 114622" d="M280.945,143.761c-.123-2.248-.263-4.948-.241-6.956h-.07c-.552,1.889-1.223,3.9-2.034,6.119l-2.844,7.819h-1.578l-2.6-7.675c-.767-2.27-1.411-4.352-1.867-6.263h-.048c-.048,2.008-.167,4.707-.311,7.122l-.43,6.908h-1.985l1.126-16.112h2.652l2.748,7.793c.671,1.985,1.223,3.756,1.626,5.426h.075c.4-1.622.977-3.392,1.7-5.426l2.871-7.793h2.652l1,16.112h-2.034Z" transform="translate(-266.933 -134.723)"/>
      </g>
      <g id="Grupo_81988" data-name="Grupo 81988" transform="translate(32.557 0.263)">
        <path id="Trazado_114623" data-name="Trazado 114623" d="M276.165,150.835V144l-5.089-9.279h2.362l2.271,4.449c.627,1.219,1.1,2.2,1.6,3.322h.048c.451-1.052,1-2.1,1.626-3.322l2.319-4.449h2.367l-5.4,9.253v6.859Z" transform="translate(-271.076 -134.723)"/>
      </g>
      <g id="Grupo_81989" data-name="Grupo 81989" transform="translate(46.833 0.263)">
        <path id="Trazado_114624" data-name="Trazado 114624" d="M274.333,134.723h2.082v7.771h.07c.429-.622.863-1.2,1.267-1.723l4.927-6.049h2.582l-5.834,6.838,6.285,9.274h-2.459l-5.308-7.911-1.53,1.771v6.141h-2.082Z" transform="translate(-274.333 -134.723)"/>
      </g>
    </g>
  </g>
</svg>
