<svg xmlns="http://www.w3.org/2000/svg" width="400" height="400" viewBox="0 0 400 400">
  <g id="Grupo_82226" data-name="Grupo 82226" transform="translate(-180 -5846)">
    <rect id="Rectángulo_35090" data-name="Rectángulo 35090" width="400" height="400" rx="20" transform="translate(180 5846)" fill="#ffa726" opacity="0.3"/>
    <g id="Grupo_81994" data-name="Grupo 81994" transform="translate(778.174 6349.143)">
      <path id="Trazado_114625" data-name="Trazado 114625" d="M-439.137-441.476l-53.208,92.159h106.416Z" transform="translate(40.655 0)" fill="#ae2318"/>
      <path id="Trazado_114626" data-name="Trazado 114626" d="M-472.018-384.525l-53.208,92.159H-418.81Z" transform="translate(20.328 35.208)" fill="#c26820"/>
      <path id="Trazado_114627" data-name="Trazado 114627" d="M-439.137-292.366l53.208-92.159H-492.346Z" transform="translate(40.655 35.208)" fill="#904e69"/>
      <path id="Trazado_114628" data-name="Trazado 114628" d="M-472.018-235.416l53.208-92.159H-525.226Z" transform="translate(20.328 70.417)" fill="#9e9350"/>
      <path id="Trazado_114629" data-name="Trazado 114629" d="M-406.257-235.416l53.208-92.159H-459.465Z" transform="translate(60.983 70.417)" fill="#517a90"/>
      <path id="Trazado_114630" data-name="Trazado 114630" d="M-406.257-384.525l-53.208,92.159h106.416Z" transform="translate(60.983 35.208)" fill="#7b3a64"/>
      <path id="Trazado_114631" data-name="Trazado 114631" d="M-373.376-327.575l-53.208,92.159h106.416Z" transform="translate(81.31 70.417)" fill="#4a82c6"/>
      <path id="Trazado_114632" data-name="Trazado 114632" d="M-439.137-327.575l-53.208,92.159h106.416Z" transform="translate(40.655 70.417)" fill="#487f38"/>
      <path id="Trazado_114633" data-name="Trazado 114633" d="M-504.9-327.575l-53.208,92.159H-451.69Z" transform="translate(0 70.417)" fill="#f0e537"/>
    </g>
    <path id="Trazado_115776" data-name="Trazado 115776" d="M-63-10.415h-3.841V0H-69.93V-10.415H-73.7V-12.8H-63Zm6.346,3.586-.976-.07a1.752,1.752,0,0,0-1.793.879V0h-2.962V-9.51h2.777l.1,1.222a2.294,2.294,0,0,1,2.083-1.4,2.888,2.888,0,0,1,.826.105ZM-52.466,0h-2.971V-9.51h2.971Zm-3.146-11.971a1.334,1.334,0,0,1,.457-1.043,1.718,1.718,0,0,1,1.187-.407,1.718,1.718,0,0,1,1.187.407,1.334,1.334,0,0,1,.457,1.043,1.334,1.334,0,0,1-.457,1.043,1.718,1.718,0,0,1-1.187.407,1.718,1.718,0,0,1-1.187-.407A1.334,1.334,0,0,1-55.613-11.971ZM-45.286,0a3.344,3.344,0,0,1-.281-.853A2.754,2.754,0,0,1-47.852.176a3.374,3.374,0,0,1-2.285-.813,2.588,2.588,0,0,1-.94-2.043,2.66,2.66,0,0,1,1.143-2.338,5.821,5.821,0,0,1,3.322-.791h.914v-.5q0-1.316-1.134-1.316a.927.927,0,0,0-1.055,1.042h-2.962a2.655,2.655,0,0,1,1.173-2.239,4.931,4.931,0,0,1,2.993-.86,4.323,4.323,0,0,1,2.874.888,3.086,3.086,0,0,1,1.081,2.435v4.21a4.311,4.311,0,0,0,.4,2V0ZM-47.14-1.934a1.652,1.652,0,0,0,.918-.237,1.487,1.487,0,0,0,.523-.536V-4.228h-.861q-1.547,0-1.547,1.389a.848.848,0,0,0,.272.655A.986.986,0,0,0-47.14-1.934ZM-46.4-13.5h3.129l-2.443,2.76-2.417,0Zm8.033,3.99.1,1.116a3.225,3.225,0,0,1,2.716-1.292,2.713,2.713,0,0,1,2.219.888,4.226,4.226,0,0,1,.76,2.672V0h-2.971V-6a1.6,1.6,0,0,0-.29-1.059A1.342,1.342,0,0,0-36.892-7.4a1.413,1.413,0,0,0-1.292.686V0h-2.962V-9.51Zm7.084,4.685a6.421,6.421,0,0,1,.475-2.549,3.821,3.821,0,0,1,1.362-1.709,3.591,3.591,0,0,1,2.065-.6,2.855,2.855,0,0,1,2.32,1l.105-.826h2.689V-.36a4.009,4.009,0,0,1-.584,2.184,3.75,3.75,0,0,1-1.692,1.424,6.219,6.219,0,0,1-2.566.5,5.365,5.365,0,0,1-2.026-.4,3.657,3.657,0,0,1-1.5-1.028L-29.4.58a2.716,2.716,0,0,0,2.18.976A1.764,1.764,0,0,0-25.247-.466v-.3A2.781,2.781,0,0,1-27.4.176a3.437,3.437,0,0,1-2.812-1.332A5.517,5.517,0,0,1-31.285-4.72Zm2.971.185a3.383,3.383,0,0,0,.439,1.85,1.386,1.386,0,0,0,1.23.681,1.573,1.573,0,0,0,1.4-.642v-4a1.534,1.534,0,0,0-1.38-.65,1.4,1.4,0,0,0-1.239.708A3.858,3.858,0,0,0-28.314-4.641Zm13.395,3.612a3.054,3.054,0,0,1-2.54,1.2,3,3,0,0,1-2.369-.91,3.826,3.826,0,0,1-.8-2.615V-9.51h2.962v6.179a1.065,1.065,0,0,0,1.187,1.222,1.548,1.548,0,0,0,1.45-.729V-9.51h2.979V0h-2.777ZM-7.308,0h-2.971V-13.5h2.971Zm1.45-4.843A5.613,5.613,0,0,1-5.3-7.378,3.96,3.96,0,0,1-3.713-9.088a4.791,4.791,0,0,1,2.435-.6A4.373,4.373,0,0,1,2.087-8.363a5.076,5.076,0,0,1,1.23,3.6v.105A4.925,4.925,0,0,1,2.083-1.129,4.384,4.384,0,0,1-1.261.176,4.434,4.434,0,0,1-4.522-1.042a4.761,4.761,0,0,1-1.327-3.3Zm2.962.185a3.538,3.538,0,0,0,.413,1.934,1.376,1.376,0,0,0,1.222.615q1.582,0,1.617-2.435v-.3Q.356-7.4-1.279-7.4q-1.485,0-1.608,2.206ZM8.732-4.825a5.809,5.809,0,0,1,.976-3.56,3.211,3.211,0,0,1,2.725-1.3,2.731,2.731,0,0,1,2.145,1V-13.5h2.971V0H14.884l-.149-1.02a2.8,2.8,0,0,1-2.32,1.2,3.205,3.205,0,0,1-2.689-1.3A5.993,5.993,0,0,1,8.732-4.825Zm2.962.185q0,2.531,1.477,2.531a1.458,1.458,0,0,0,1.406-.826V-6.557A1.419,1.419,0,0,0,13.188-7.4q-1.371,0-1.485,2.215ZM23.832.176A4.889,4.889,0,0,1,20.29-1.129a4.507,4.507,0,0,1-1.354-3.4v-.246a5.84,5.84,0,0,1,.541-2.575,3.955,3.955,0,0,1,1.578-1.727,4.763,4.763,0,0,1,2.461-.611,4.117,4.117,0,0,1,3.164,1.244,4.887,4.887,0,0,1,1.16,3.467v1.151H21.951a2.135,2.135,0,0,0,.694,1.257,2.066,2.066,0,0,0,1.389.457,2.662,2.662,0,0,0,2.2-.984l1.354,1.6A3.784,3.784,0,0,1,26.016-.277,5.3,5.3,0,0,1,23.832.176ZM23.5-7.4q-1.3,0-1.547,1.723h2.988v-.229a1.467,1.467,0,0,0-.36-1.1A1.434,1.434,0,0,0,23.5-7.4ZM37.534-2.109a1.317,1.317,0,0,0,.967-.338,1.241,1.241,0,0,0,.334-.945h2.777A3.288,3.288,0,0,1,40.491-.826a4.168,4.168,0,0,1-2.887,1,4.22,4.22,0,0,1-3.27-1.3,5.125,5.125,0,0,1-1.2-3.6v-.123A5.792,5.792,0,0,1,33.671-7.4a3.872,3.872,0,0,1,1.534-1.7,4.573,4.573,0,0,1,2.373-.593,4.116,4.116,0,0,1,2.944,1.028,3.647,3.647,0,0,1,1.09,2.786H38.834A1.626,1.626,0,0,0,38.474-7a1.244,1.244,0,0,0-.967-.4q-1.151,0-1.345,1.468A10.357,10.357,0,0,0,36.1-4.649a4.068,4.068,0,0,0,.343,1.986A1.187,1.187,0,0,0,37.534-2.109Zm4.957-2.733a5.613,5.613,0,0,1,.554-2.536,3.96,3.96,0,0,1,1.591-1.709,4.791,4.791,0,0,1,2.435-.6,4.373,4.373,0,0,1,3.366,1.323,5.076,5.076,0,0,1,1.23,3.6v.105a4.925,4.925,0,0,1-1.235,3.529A4.384,4.384,0,0,1,47.087.176a4.434,4.434,0,0,1-3.261-1.217,4.761,4.761,0,0,1-1.327-3.3Zm2.962.185a3.538,3.538,0,0,0,.413,1.934,1.376,1.376,0,0,0,1.222.615q1.582,0,1.617-2.435v-.3Q48.7-7.4,47.07-7.4q-1.485,0-1.608,2.206ZM56.1,0H53.125V-13.5H56.1Zm1.45-4.843A5.613,5.613,0,0,1,58.1-7.378a3.96,3.96,0,0,1,1.591-1.709,4.791,4.791,0,0,1,2.435-.6,4.373,4.373,0,0,1,3.366,1.323,5.076,5.076,0,0,1,1.23,3.6v.105a4.925,4.925,0,0,1-1.235,3.529A4.384,4.384,0,0,1,62.143.176a4.434,4.434,0,0,1-3.261-1.217,4.761,4.761,0,0,1-1.327-3.3Zm2.962.185a3.538,3.538,0,0,0,.413,1.934,1.376,1.376,0,0,0,1.222.615q1.582,0,1.617-2.435v-.3q0-2.558-1.635-2.558-1.485,0-1.608,2.206ZM73.78-6.829,72.8-6.9a1.752,1.752,0,0,0-1.793.879V0H68.049V-9.51h2.777l.1,1.222a2.294,2.294,0,0,1,2.083-1.4,2.888,2.888,0,0,1,.826.105Z" transform="translate(380 6217)" fill="#12263f"/>
  </g>
</svg>
