<svg xmlns="http://www.w3.org/2000/svg" width="400" height="400" viewBox="0 0 400 400">
  <g id="_128" data-name="128" transform="translate(4180 5939)">
    <rect id="Rectángulo_35093" data-name="Rectángulo 35093" width="400" height="400" rx="20" transform="translate(-4180 -5939)" fill="#ffa726" opacity="0.3"/>
    <path id="Trazado_115777" data-name="Trazado 115777" d="M5.019-12.8l2.856,8.9,2.848-8.9h4.061V0H11.689V-2.988l.3-6.117L8.895,0H6.855l-3.1-9.114.3,6.126V0H.967V-12.8ZM21.208.176a4.889,4.889,0,0,1-3.542-1.305,4.507,4.507,0,0,1-1.354-3.4v-.246a5.84,5.84,0,0,1,.541-2.575,3.955,3.955,0,0,1,1.578-1.727,4.763,4.763,0,0,1,2.461-.611,4.117,4.117,0,0,1,3.164,1.244,4.887,4.887,0,0,1,1.16,3.467v1.151H19.327a2.135,2.135,0,0,0,.694,1.257,2.066,2.066,0,0,0,1.389.457,2.662,2.662,0,0,0,2.2-.984l1.354,1.6A3.784,3.784,0,0,1,23.392-.277,5.3,5.3,0,0,1,21.208.176ZM20.874-7.4q-1.3,0-1.547,1.723h2.988v-.229a1.467,1.467,0,0,0-.36-1.1A1.434,1.434,0,0,0,20.874-7.4ZM29.531,0H26.561V-13.5h2.971Zm7.181,0a3.344,3.344,0,0,1-.281-.853A2.754,2.754,0,0,1,34.146.176,3.374,3.374,0,0,1,31.86-.637a2.588,2.588,0,0,1-.94-2.043,2.66,2.66,0,0,1,1.143-2.338,5.821,5.821,0,0,1,3.322-.791H36.3v-.5q0-1.316-1.134-1.316A.927.927,0,0,0,34.11-6.587H31.148a2.655,2.655,0,0,1,1.173-2.239,4.931,4.931,0,0,1,2.993-.86,4.323,4.323,0,0,1,2.874.888A3.086,3.086,0,0,1,39.27-6.363v4.21a4.311,4.311,0,0,0,.4,2V0ZM34.857-1.934a1.652,1.652,0,0,0,.918-.237,1.487,1.487,0,0,0,.523-.536V-4.228h-.861q-1.547,0-1.547,1.389a.848.848,0,0,0,.272.655A.986.986,0,0,0,34.857-1.934ZM43.629-9.51l.1,1.116a3.225,3.225,0,0,1,2.716-1.292,2.713,2.713,0,0,1,2.219.888,4.226,4.226,0,0,1,.76,2.672V0H46.45V-6a1.6,1.6,0,0,0-.29-1.059A1.342,1.342,0,0,0,45.105-7.4a1.413,1.413,0,0,0-1.292.686V0H40.852V-9.51Zm11.452,7.4a1.317,1.317,0,0,0,.967-.338,1.241,1.241,0,0,0,.334-.945h2.777A3.288,3.288,0,0,1,58.039-.826a4.168,4.168,0,0,1-2.887,1,4.22,4.22,0,0,1-3.27-1.3,5.125,5.125,0,0,1-1.2-3.6v-.123A5.792,5.792,0,0,1,51.218-7.4a3.872,3.872,0,0,1,1.534-1.7,4.573,4.573,0,0,1,2.373-.593,4.116,4.116,0,0,1,2.944,1.028,3.647,3.647,0,0,1,1.09,2.786H56.382A1.626,1.626,0,0,0,56.021-7a1.244,1.244,0,0,0-.967-.4Q53.9-7.4,53.71-5.933a10.357,10.357,0,0,0-.062,1.283,4.068,4.068,0,0,0,.343,1.986A1.187,1.187,0,0,0,55.081-2.109Zm4.957-2.733a5.613,5.613,0,0,1,.554-2.536,3.96,3.96,0,0,1,1.591-1.709,4.791,4.791,0,0,1,2.435-.6,4.373,4.373,0,0,1,3.366,1.323,5.076,5.076,0,0,1,1.23,3.6v.105a4.925,4.925,0,0,1-1.235,3.529A4.384,4.384,0,0,1,64.635.176a4.434,4.434,0,0,1-3.261-1.217,4.761,4.761,0,0,1-1.327-3.3ZM63-4.658a3.538,3.538,0,0,0,.413,1.934,1.376,1.376,0,0,0,1.222.615q1.582,0,1.617-2.435v-.3q0-2.558-1.635-2.558-1.485,0-1.608,2.206ZM65.021-13.5H68.15l-2.443,2.76-2.417,0ZM73.644,0H70.673V-13.5h2.971Zm4.948,0H75.621V-9.51h2.971ZM75.445-11.971a1.334,1.334,0,0,1,.457-1.043,1.718,1.718,0,0,1,1.187-.407,1.718,1.718,0,0,1,1.187.407,1.334,1.334,0,0,1,.457,1.043,1.334,1.334,0,0,1-.457,1.043,1.718,1.718,0,0,1-1.187.407,1.718,1.718,0,0,1-1.187-.407A1.334,1.334,0,0,1,75.445-11.971Zm8.991,9.861a1.317,1.317,0,0,0,.967-.338,1.241,1.241,0,0,0,.334-.945h2.777A3.288,3.288,0,0,1,87.394-.826a4.168,4.168,0,0,1-2.887,1,4.22,4.22,0,0,1-3.27-1.3,5.125,5.125,0,0,1-1.2-3.6v-.123A5.792,5.792,0,0,1,80.574-7.4a3.872,3.872,0,0,1,1.534-1.7,4.573,4.573,0,0,1,2.373-.593,4.116,4.116,0,0,1,2.944,1.028,3.647,3.647,0,0,1,1.09,2.786H85.737A1.626,1.626,0,0,0,85.377-7a1.244,1.244,0,0,0-.967-.4q-1.151,0-1.345,1.468A10.357,10.357,0,0,0,83-4.649a4.068,4.068,0,0,0,.343,1.986A1.187,1.187,0,0,0,84.437-2.109Zm4.957-2.733a5.613,5.613,0,0,1,.554-2.536,3.96,3.96,0,0,1,1.591-1.709,4.791,4.791,0,0,1,2.435-.6,4.373,4.373,0,0,1,3.366,1.323,5.076,5.076,0,0,1,1.23,3.6v.105a4.925,4.925,0,0,1-1.235,3.529A4.384,4.384,0,0,1,93.99.176a4.434,4.434,0,0,1-3.261-1.217,4.761,4.761,0,0,1-1.327-3.3Zm2.962.185a3.538,3.538,0,0,0,.413,1.934,1.376,1.376,0,0,0,1.222.615q1.582,0,1.617-2.435v-.3q0-2.558-1.635-2.558-1.485,0-1.608,2.206Z" transform="translate(-4029 -5567)" fill="#12263f"/>
    <g id="Grupo_81999" data-name="Grupo 81999" transform="translate(-3581.893 -5617.716)">
      <path id="Trazado_114670" data-name="Trazado 114670" d="M-439.012-259.617l-53.333,92.376h106.667Z" transform="translate(40.906)" fill="#6f6f6f"/>
      <path id="Trazado_114671" data-name="Trazado 114671" d="M-471.893-202.666l-53.333,92.376h106.667Z" transform="translate(20.453 35.425)" fill="#757575"/>
      <path id="Trazado_114672" data-name="Trazado 114672" d="M-439.012-110.29l53.333-92.376H-492.346Z" transform="translate(40.906 35.425)" fill="#777"/>
      <path id="Trazado_114673" data-name="Trazado 114673" d="M-471.893-53.339l53.333-92.376H-525.226Z" transform="translate(20.453 70.851)" fill="#757575"/>
      <path id="Trazado_114674" data-name="Trazado 114674" d="M-406.132-53.339l53.333-92.376H-459.465Z" transform="translate(61.359 70.851)" fill="#517a90"/>
      <path id="Trazado_114675" data-name="Trazado 114675" d="M-406.132-202.666l-53.333,92.376H-352.8Z" transform="translate(61.359 35.425)" fill="#7b3a64"/>
      <path id="Trazado_114676" data-name="Trazado 114676" d="M-373.251-145.715l-53.333,92.376h106.667Z" transform="translate(81.811 70.851)" fill="#4a82c6"/>
      <path id="Trazado_114677" data-name="Trazado 114677" d="M-439.012-145.715l-53.333,92.376h106.667Z" transform="translate(40.906 70.851)" fill="#487f38"/>
      <path id="Trazado_114678" data-name="Trazado 114678" d="M-504.773-145.715l-53.333,92.376H-451.44Z" transform="translate(0 70.851)" fill="#7c7c7c"/>
    </g>
  </g>
</svg>
