<svg xmlns="http://www.w3.org/2000/svg" width="400" height="400" viewBox="0 0 400 400">
  <g id="_130" data-name="130" transform="translate(3353 5939)">
    <rect id="Rectángulo_35091" data-name="Rectángulo 35091" width="400" height="400" rx="20" transform="translate(-3353 -5939)" fill="#ffa726" opacity="0.3"/>
    <path id="Trazado_115779" data-name="Trazado 115779" d="M4.052-2.373h5.37V0H.967V-12.8H4.052ZM16.128-1.028a3.054,3.054,0,0,1-2.54,1.2,3,3,0,0,1-2.369-.91,3.826,3.826,0,0,1-.8-2.615V-9.51h2.962v6.179a1.065,1.065,0,0,0,1.187,1.222,1.548,1.548,0,0,0,1.45-.729V-9.51h2.979V0H16.216ZM15.073-13.5H18.2l-2.443,2.76-2.417,0ZM24.636-2.109a1.317,1.317,0,0,0,.967-.338,1.241,1.241,0,0,0,.334-.945h2.777A3.288,3.288,0,0,1,27.593-.826a4.168,4.168,0,0,1-2.887,1,4.22,4.22,0,0,1-3.27-1.3,5.125,5.125,0,0,1-1.2-3.6v-.123A5.792,5.792,0,0,1,20.773-7.4a3.872,3.872,0,0,1,1.534-1.7,4.573,4.573,0,0,1,2.373-.593,4.116,4.116,0,0,1,2.944,1.028,3.647,3.647,0,0,1,1.09,2.786H25.937A1.626,1.626,0,0,0,25.576-7a1.244,1.244,0,0,0-.967-.4q-1.151,0-1.345,1.468A10.357,10.357,0,0,0,23.2-4.649a4.068,4.068,0,0,0,.343,1.986A1.187,1.187,0,0,0,24.636-2.109ZM33.091,0H30.12V-9.51h2.971ZM29.944-11.971a1.334,1.334,0,0,1,.457-1.043,1.718,1.718,0,0,1,1.187-.407,1.718,1.718,0,0,1,1.187.407,1.334,1.334,0,0,1,.457,1.043,1.334,1.334,0,0,1-.457,1.043,1.718,1.718,0,0,1-1.187.407,1.718,1.718,0,0,1-1.187-.407A1.334,1.334,0,0,1,29.944-11.971Zm4.6,7.146a5.809,5.809,0,0,1,.976-3.56,3.211,3.211,0,0,1,2.725-1.3,2.731,2.731,0,0,1,2.145,1V-13.5h2.971V0H40.693l-.149-1.02a2.8,2.8,0,0,1-2.32,1.2,3.205,3.205,0,0,1-2.689-1.3A5.993,5.993,0,0,1,34.541-4.825Zm2.962.185q0,2.531,1.477,2.531a1.458,1.458,0,0,0,1.406-.826V-6.557A1.419,1.419,0,0,0,39-7.4q-1.371,0-1.485,2.215Zm7.163-.2a5.613,5.613,0,0,1,.554-2.536,3.96,3.96,0,0,1,1.591-1.709,4.791,4.791,0,0,1,2.435-.6,4.373,4.373,0,0,1,3.366,1.323,5.076,5.076,0,0,1,1.23,3.6v.105a4.925,4.925,0,0,1-1.235,3.529A4.384,4.384,0,0,1,49.263.176,4.434,4.434,0,0,1,46-1.042a4.761,4.761,0,0,1-1.327-3.3Zm2.962.185a3.538,3.538,0,0,0,.413,1.934,1.376,1.376,0,0,0,1.222.615q1.582,0,1.617-2.435v-.3q0-2.558-1.635-2.558-1.485,0-1.608,2.206Z" transform="translate(-3180 -5567)" fill="#12263f"/>
    <g id="Grupo_81997" data-name="Grupo 81997" transform="translate(-2960.199 -5435.857)">
      <path id="Trazado_114652" data-name="Trazado 114652" d="M-233.706-441.476-287.039-349.1h106.667Z" transform="translate(40.906 0)" fill="#ae2318"/>
      <path id="Trazado_114653" data-name="Trazado 114653" d="M-266.587-384.525l-53.333,92.376h106.667Z" transform="translate(20.453 35.425)" fill="#c26820"/>
      <path id="Trazado_114654" data-name="Trazado 114654" d="M-233.706-292.149l53.333-92.376H-287.039Z" transform="translate(40.906 35.425)" fill="#904e69"/>
      <path id="Trazado_114655" data-name="Trazado 114655" d="M-266.587-235.2l53.333-92.376H-319.92Z" transform="translate(20.453 70.851)" fill="#9e9350"/>
      <path id="Trazado_114656" data-name="Trazado 114656" d="M-200.826-235.2l53.333-92.376H-254.159Z" transform="translate(61.359 70.851)" fill="#626262"/>
      <path id="Trazado_114657" data-name="Trazado 114657" d="M-200.826-384.525l-53.333,92.376h106.667Z" transform="translate(61.359 35.425)" fill="#626262"/>
      <path id="Trazado_114658" data-name="Trazado 114658" d="M-167.945-327.575-221.279-235.2h106.667Z" transform="translate(81.811 70.851)" fill="#666"/>
      <path id="Trazado_114659" data-name="Trazado 114659" d="M-233.706-327.575-287.039-235.2h106.667Z" transform="translate(40.906 70.851)" fill="#434441"/>
      <path id="Trazado_114660" data-name="Trazado 114660" d="M-299.467-327.575-352.8-235.2h106.667Z" transform="translate(0 70.851)" fill="#f0e537"/>
    </g>
  </g>
</svg>
