<svg xmlns="http://www.w3.org/2000/svg" width="400" height="400" viewBox="0 0 400 400">
  <g id="_131" data-name="131" transform="translate(3766 5515)">
    <rect id="Rectángulo_35095" data-name="Rectángulo 35095" width="400" height="400" rx="20" transform="translate(-3766 -5515)" fill="#ffa726" opacity="0.3"/>
    <path id="Trazado_115780" data-name="Trazado 115780" d="M7.567-3.4a1.268,1.268,0,0,0-.479-1.055,5.954,5.954,0,0,0-1.683-.782,16.147,16.147,0,0,1-1.969-.782Q.949-7.242.949-9.378a3.011,3.011,0,0,1,.62-1.876A4.008,4.008,0,0,1,3.322-12.52a6.823,6.823,0,0,1,2.549-.453,5.969,5.969,0,0,1,2.474.492,3.917,3.917,0,0,1,1.7,1.4A3.661,3.661,0,0,1,10.652-9H7.576A1.547,1.547,0,0,0,7.1-10.213a1.867,1.867,0,0,0-1.3-.431,2.106,2.106,0,0,0-1.305.365,1.119,1.119,0,0,0-.479.927,1.127,1.127,0,0,0,.527.892A6.65,6.65,0,0,0,6.4-7.633a11.36,11.36,0,0,1,2.18.918,3.663,3.663,0,0,1,2.074,3.3A3.125,3.125,0,0,1,9.387-.782,5.629,5.629,0,0,1,5.915.176,6.888,6.888,0,0,1,3.1-.382,4.247,4.247,0,0,1,1.2-1.912,3.985,3.985,0,0,1,.563-4.148H3.656a1.963,1.963,0,0,0,.532,1.516,2.513,2.513,0,0,0,1.727.488,1.985,1.985,0,0,0,1.208-.33A1.088,1.088,0,0,0,7.567-3.4ZM16.7.176a4.889,4.889,0,0,1-3.542-1.305,4.507,4.507,0,0,1-1.354-3.4v-.246a5.84,5.84,0,0,1,.541-2.575,3.955,3.955,0,0,1,1.578-1.727,4.763,4.763,0,0,1,2.461-.611,4.117,4.117,0,0,1,3.164,1.244,4.887,4.887,0,0,1,1.16,3.467v1.151H14.818a2.135,2.135,0,0,0,.694,1.257,2.066,2.066,0,0,0,1.389.457,2.662,2.662,0,0,0,2.2-.984l1.354,1.6A3.784,3.784,0,0,1,18.883-.277,5.3,5.3,0,0,1,16.7.176ZM16.365-7.4q-1.3,0-1.547,1.723h2.988v-.229a1.467,1.467,0,0,0-.36-1.1A1.434,1.434,0,0,0,16.365-7.4Zm11.285.571-.976-.07a1.752,1.752,0,0,0-1.793.879V0H21.92V-9.51H24.7l.1,1.222a2.294,2.294,0,0,1,2.083-1.4,2.888,2.888,0,0,1,.826.105Zm5.5,7A4.889,4.889,0,0,1,29.61-1.129a4.507,4.507,0,0,1-1.354-3.4v-.246A5.84,5.84,0,0,1,28.8-7.348a3.955,3.955,0,0,1,1.578-1.727,4.763,4.763,0,0,1,2.461-.611A4.117,4.117,0,0,1,36-8.442a4.887,4.887,0,0,1,1.16,3.467v1.151H31.271a2.135,2.135,0,0,0,.694,1.257,2.066,2.066,0,0,0,1.389.457,2.662,2.662,0,0,0,2.2-.984l1.354,1.6A3.784,3.784,0,0,1,35.336-.277,5.3,5.3,0,0,1,33.152.176ZM32.818-7.4q-1.3,0-1.547,1.723H34.26v-.229a1.467,1.467,0,0,0-.36-1.1A1.434,1.434,0,0,0,32.818-7.4ZM41.071-9.51l.1,1.116a3.225,3.225,0,0,1,2.716-1.292A2.713,2.713,0,0,1,46.1-8.8a4.226,4.226,0,0,1,.76,2.672V0H43.893V-6a1.6,1.6,0,0,0-.29-1.059A1.342,1.342,0,0,0,42.548-7.4a1.413,1.413,0,0,0-1.292.686V0H38.294V-9.51Zm7.058,4.667a5.613,5.613,0,0,1,.554-2.536,3.96,3.96,0,0,1,1.591-1.709,4.791,4.791,0,0,1,2.435-.6,4.373,4.373,0,0,1,3.366,1.323,5.076,5.076,0,0,1,1.23,3.6v.105A4.925,4.925,0,0,1,56.07-1.129,4.384,4.384,0,0,1,52.726.176a4.434,4.434,0,0,1-3.261-1.217,4.761,4.761,0,0,1-1.327-3.3Zm2.962.185A3.538,3.538,0,0,0,51.5-2.725a1.376,1.376,0,0,0,1.222.615q1.582,0,1.617-2.435v-.3q0-2.558-1.635-2.558-1.485,0-1.608,2.206Z" transform="translate(-3587 -5143)" fill="#12263f"/>
    <g id="Grupo_81995" data-name="Grupo 81995" transform="translate(-3568.317 -5193.947)">
      <path id="Trazado_114634" data-name="Trazado 114634" d="M-30.947-259.617l-53.333,92.376H22.386Z" transform="translate(40.906)" fill="#6f6f6f"/>
      <path id="Trazado_114635" data-name="Trazado 114635" d="M-63.828-202.666l-53.333,92.376H-10.495Z" transform="translate(20.453 35.425)" fill="#c26820"/>
      <path id="Trazado_114636" data-name="Trazado 114636" d="M-30.947-110.29l53.333-92.376H-84.281Z" transform="translate(40.906 35.425)" fill="#777"/>
      <path id="Trazado_114637" data-name="Trazado 114637" d="M-63.828-53.339l53.333-92.376H-117.161Z" transform="translate(20.453 70.851)" fill="#9e9350"/>
      <path id="Trazado_114638" data-name="Trazado 114638" d="M1.933-53.339l53.333-92.376H-51.4Z" transform="translate(61.359 70.851)" fill="#616161"/>
      <path id="Trazado_114639" data-name="Trazado 114639" d="M1.933-202.666-51.4-110.29H55.266Z" transform="translate(61.359 35.425)" fill="#636363"/>
      <path id="Trazado_114640" data-name="Trazado 114640" d="M34.814-145.715-18.52-53.339H88.147Z" transform="translate(81.811 70.851)" fill="#666"/>
      <path id="Trazado_114641" data-name="Trazado 114641" d="M-30.947-145.715-84.281-53.339H22.386Z" transform="translate(40.906 70.851)" fill="#487f38"/>
      <path id="Trazado_114642" data-name="Trazado 114642" d="M-96.708-145.715l-53.333,92.376H-43.375Z" transform="translate(0 70.851)" fill="#f0e537"/>
    </g>
  </g>
</svg>
