<svg xmlns="http://www.w3.org/2000/svg" width="400" height="400" viewBox="0 0 400 400">
  <g id="_132" data-name="132" transform="translate(3353 5515)">
    <rect id="Rectángulo_35094" data-name="Rectángulo 35094" width="400" height="400" rx="20" transform="translate(-3353 -5515)" fill="#ffa726" opacity="0.3"/>
    <path id="Trazado_115781" data-name="Trazado 115781" d="M-34.734-4.342V0h-3.085V-12.8h5.106a5.948,5.948,0,0,1,2.6.541,4.074,4.074,0,0,1,1.749,1.538,4.2,4.2,0,0,1,.62,2.263,3.7,3.7,0,0,1-1.34,2.993,5.561,5.561,0,0,1-3.678,1.121Zm0-2.382h2.021a1.906,1.906,0,0,0,1.367-.448,1.665,1.665,0,0,0,.47-1.266,2.059,2.059,0,0,0-.483-1.433,1.712,1.712,0,0,0-1.318-.545h-2.057Zm8.007,1.881a5.613,5.613,0,0,1,.554-2.536,3.96,3.96,0,0,1,1.591-1.709,4.791,4.791,0,0,1,2.435-.6,4.373,4.373,0,0,1,3.366,1.323,5.076,5.076,0,0,1,1.23,3.6v.105a4.925,4.925,0,0,1-1.235,3.529A4.384,4.384,0,0,1-22.131.176a4.434,4.434,0,0,1-3.261-1.217,4.761,4.761,0,0,1-1.327-3.3Zm2.962.185a3.538,3.538,0,0,0,.413,1.934,1.376,1.376,0,0,0,1.222.615q1.582,0,1.617-2.435v-.3q0-2.558-1.635-2.558-1.485,0-1.608,2.206Zm7.146-.167a5.809,5.809,0,0,1,.976-3.56,3.211,3.211,0,0,1,2.725-1.3,2.731,2.731,0,0,1,2.145,1V-13.5H-7.8V0h-2.663l-.149-1.02a2.8,2.8,0,0,1-2.32,1.2,3.205,3.205,0,0,1-2.689-1.3A5.993,5.993,0,0,1-16.62-4.825Zm2.962.185q0,2.531,1.477,2.531a1.458,1.458,0,0,0,1.406-.826V-6.557A1.419,1.419,0,0,0-12.164-7.4q-1.371,0-1.485,2.215ZM-1.521.176A4.889,4.889,0,0,1-5.062-1.129a4.507,4.507,0,0,1-1.354-3.4v-.246a5.84,5.84,0,0,1,.541-2.575A3.955,3.955,0,0,1-4.3-9.075a4.763,4.763,0,0,1,2.461-.611A4.117,4.117,0,0,1,1.327-8.442a4.887,4.887,0,0,1,1.16,3.467v1.151H-3.4a2.135,2.135,0,0,0,.694,1.257,2.066,2.066,0,0,0,1.389.457,2.662,2.662,0,0,0,2.2-.984l1.354,1.6A3.784,3.784,0,0,1,.664-.277,5.3,5.3,0,0,1-1.521.176ZM-1.854-7.4q-1.3,0-1.547,1.723H-.413v-.229a1.467,1.467,0,0,0-.36-1.1A1.434,1.434,0,0,0-1.854-7.4Zm11.285.571L8.455-6.9a1.752,1.752,0,0,0-1.793.879V0H3.7V-9.51H6.478l.1,1.222a2.294,2.294,0,0,1,2.083-1.4,2.888,2.888,0,0,1,.826.105Zm.378,1.986a5.613,5.613,0,0,1,.554-2.536,3.96,3.96,0,0,1,1.591-1.709,4.791,4.791,0,0,1,2.435-.6,4.373,4.373,0,0,1,3.366,1.323,5.076,5.076,0,0,1,1.23,3.6v.105A4.925,4.925,0,0,1,17.75-1.129,4.384,4.384,0,0,1,14.405.176a4.434,4.434,0,0,1-3.261-1.217,4.761,4.761,0,0,1-1.327-3.3Zm2.962.185a3.538,3.538,0,0,0,.413,1.934,1.376,1.376,0,0,0,1.222.615q1.582,0,1.617-2.435v-.3q0-2.558-1.635-2.558-1.485,0-1.608,2.206Zm12.5,1.986a.684.684,0,0,0-.4-.606,6.016,6.016,0,0,0-1.5-.475A6.853,6.853,0,0,1,21.542-4.4a3.062,3.062,0,0,1-1.1-.971,2.319,2.319,0,0,1-.378-1.31,2.628,2.628,0,0,1,1.081-2.158,4.453,4.453,0,0,1,2.83-.848A4.934,4.934,0,0,1,27-8.833a2.666,2.666,0,0,1,1.143,2.241H25.172q0-1.143-1.2-1.143a1.194,1.194,0,0,0-.782.259.8.8,0,0,0-.316.646.737.737,0,0,0,.387.642,3.654,3.654,0,0,0,1.235.4,10.671,10.671,0,0,1,1.49.378A2.706,2.706,0,0,1,28.125-2.76,2.491,2.491,0,0,1,26.969-.642a5.068,5.068,0,0,1-2.993.817A5.172,5.172,0,0,1,21.8-.264a3.645,3.645,0,0,1-1.494-1.2,2.707,2.707,0,0,1-.536-1.591h2.769a1.145,1.145,0,0,0,.439.962,1.808,1.808,0,0,0,1.081.3,1.422,1.422,0,0,0,.91-.246A.787.787,0,0,0,25.269-2.672Zm3.867-2.171a5.613,5.613,0,0,1,.554-2.536A3.96,3.96,0,0,1,31.28-9.088a4.791,4.791,0,0,1,2.435-.6,4.373,4.373,0,0,1,3.366,1.323,5.076,5.076,0,0,1,1.23,3.6v.105a4.925,4.925,0,0,1-1.235,3.529A4.384,4.384,0,0,1,33.732.176a4.434,4.434,0,0,1-3.261-1.217,4.761,4.761,0,0,1-1.327-3.3Zm2.962.185a3.538,3.538,0,0,0,.413,1.934,1.376,1.376,0,0,0,1.222.615q1.582,0,1.617-2.435v-.3q0-2.558-1.635-2.558-1.485,0-1.608,2.206Z" transform="translate(-3153 -5143)" fill="#12263f"/>
    <g id="Grupo_81996" data-name="Grupo 81996" transform="translate(-2960.199 -5193.947)">
      <path id="Trazado_114643" data-name="Trazado 114643" d="M-233.706-259.617l-53.333,92.376h106.667Z" transform="translate(40.906)" fill="#ae2318"/>
      <path id="Trazado_114644" data-name="Trazado 114644" d="M-266.587-202.666-319.92-110.29h106.667Z" transform="translate(20.453 35.425)" fill="#c26820"/>
      <path id="Trazado_114645" data-name="Trazado 114645" d="M-233.706-110.29l53.333-92.376H-287.039Z" transform="translate(40.906 35.425)" fill="#904e69"/>
      <path id="Trazado_114646" data-name="Trazado 114646" d="M-266.587-53.339l53.333-92.376H-319.92Z" transform="translate(20.453 70.851)" fill="#757575"/>
      <path id="Trazado_114647" data-name="Trazado 114647" d="M-200.826-53.339l53.333-92.376H-254.159Z" transform="translate(61.359 70.851)" fill="#626261"/>
      <path id="Trazado_114648" data-name="Trazado 114648" d="M-200.826-202.666l-53.333,92.376h106.667Z" transform="translate(61.359 35.425)" fill="#7b3a64"/>
      <path id="Trazado_114649" data-name="Trazado 114649" d="M-167.945-145.715l-53.333,92.376h106.667Z" transform="translate(81.811 70.851)" fill="#666"/>
      <path id="Trazado_114650" data-name="Trazado 114650" d="M-233.706-145.715l-53.333,92.376h106.667Z" transform="translate(40.906 70.851)" fill="#434343"/>
      <path id="Trazado_114651" data-name="Trazado 114651" d="M-299.467-145.715-352.8-53.339h106.667Z" transform="translate(0 70.851)" fill="#7c7c7c"/>
    </g>
  </g>
</svg>
