<svg xmlns="http://www.w3.org/2000/svg" xmlns:xlink="http://www.w3.org/1999/xlink" width="1240" height="500" viewBox="0 0 1240 500">
  <defs>
    <clipPath id="clip-path">
      <rect id="Rectángulo_34919" data-name="Rectángulo 34919" width="1240" height="500" transform="translate(501.333 940.828)" fill="#d952ab"/>
    </clipPath>
  </defs>
  <g id="_15" data-name="15" transform="translate(-501.333 -940.828)" clip-path="url(#clip-path)">
    <g id="Grupo_81705" data-name="Grupo 81705" transform="translate(253.028 940.827)">
      <g id="Grupo_81690" data-name="Grupo 81690" transform="translate(0 2)">
        <g id="Grupo_81689" data-name="Grupo 81689" transform="translate(0 0)">
          <rect id="Rectángulo_34913" data-name="Rectángulo 34913" width="1542.869" height="514.29" transform="translate(0)" fill="#ffefac"/>
          <path id="Trazado_113988" data-name="Trazado 113988" d="M3046.055,1233.656s86.531-59.146,118.53-61.571,189.718,118.787,224,130.18,116.572-35.568,150.859-36.086,133.624,47.078,133.624,47.078,195.666-239.6,266.449-239.6,184.472,110.435,210.313,106.643,152.926-1.707,212.728,2.562,226.362,93.5,226.362,93.5L3466.3,1486.7l-420.247-8.441Z" transform="translate(-3046.055 -1009.658)" fill="#e6c532"/>
          <path id="Trazado_113989" data-name="Trazado 113989" d="M3046.055,1398.892V1263.834s271.675,66.514,500.25-13.433c59.572-20.836,256.171-89.984,439.758-116.689s602.861,17.6,602.861,17.6v247.585Z" transform="translate(-3046.055 -884.602)" fill="#fdd835"/>
        </g>
        <g id="Grupo_81706" data-name="Grupo 81706" transform="translate(264.104 -593.687)">
          <g id="Grupo_81654" data-name="Grupo 81654" transform="translate(902.324 988.347)">
            <g id="Grupo_81643" data-name="Grupo 81643" transform="translate(156.814 18.337)">
              <path id="Trazado_113751" data-name="Trazado 113751" d="M2273.448,1554.243a.929.929,0,0,1-.929-.929v-69.351l-10.8-17.125a.929.929,0,1,1,1.571-.991l10.941,17.352a.922.922,0,0,1,.144.5v69.619A.929.929,0,0,1,2273.448,1554.243Z" transform="translate(-2261.578 -1465.414)" fill="#a36f4b"/>
            </g>
            <g id="Grupo_81644" data-name="Grupo 81644" transform="translate(4.794 6.034)">
              <path id="Trazado_113752" data-name="Trazado 113752" d="M1877.963,1534.553a1.041,1.041,0,0,1-1.041-1.041v-79.085l-11.905-19.534a1.041,1.041,0,1,1,1.778-1.083l12.058,19.784a1.042,1.042,0,0,1,.152.542v79.377A1.041,1.041,0,0,1,1877.963,1534.553Z" transform="translate(-1864.865 -1433.31)" fill="#a36f4b"/>
            </g>
            <g id="Grupo_81645" data-name="Grupo 81645" transform="translate(108.346 61.102)">
              <path id="Trazado_113753" data-name="Trazado 113753" d="M2136.023,1598.551a.928.928,0,0,1-.655-1.586l19.758-19.68a.928.928,0,1,1,1.31,1.315l-19.758,19.681A.928.928,0,0,1,2136.023,1598.551Z" transform="translate(-2135.095 -1577.014)" fill="#a36f4b"/>
            </g>
            <g id="Grupo_81646" data-name="Grupo 81646" transform="translate(116.779 59.059)">
              <path id="Trazado_113754" data-name="Trazado 113754" d="M2160.967,1583.939a.929.929,0,0,1-.894-.677l-2.936-10.4a.928.928,0,1,1,1.787-.5l2.937,10.4a.927.927,0,0,1-.641,1.145A.906.906,0,0,1,2160.967,1583.939Z" transform="translate(-2157.102 -1571.682)" fill="#a36f4b"/>
            </g>
            <path id="Trazado_113755" data-name="Trazado 113755" d="M1960.306,1618.863l-5.592,18.126,37.764,2.945L1993,1625.6Z" transform="translate(-1915.491 -1541.725)" fill="#a36f4b"/>
            <path id="Trazado_113756" data-name="Trazado 113756" d="M1974.291,1562.074l-7.542,6.7,44.815,34.146,6.111-11.063Z" transform="translate(-1922.913 -1506.697)" fill="#a36f4b"/>
            <path id="Trazado_113757" data-name="Trazado 113757" d="M2083.133,1619.76c1.152-.492,66.529-23.11,66.529-23.11l2.78,8.25-60.06,24.515Z" transform="translate(-1994.699 -1528.024)" fill="#a36f4b"/>
            <g id="Grupo_81647" data-name="Grupo 81647" transform="translate(83.016 27.875)">
              <path id="Trazado_113758" data-name="Trazado 113758" d="M2162.607,1498.366l-.063,0c-24.851-1.881-89.789-6.686-92.542-6.427a.828.828,0,0,1-.439-1.6c1.549-.512,71.656,4.747,93.106,6.371a.828.828,0,0,1-.062,1.654Zm-92.524-6.452c-.022.007-.043.013-.065.018C2070.046,1491.926,2070.067,1491.919,2070.083,1491.914Z" transform="translate(-2068.994 -1490.306)" fill="#180000"/>
            </g>
            <path id="Trazado_113759" data-name="Trazado 113759" d="M1997.087,1419.011s25.231,7.477,46.48,19.552,28.043,6.61,30.263,9.733,1.8,7.351-1,8.445-15.305.883-19.535,3.95-42.375,16.225-66.138,9.263S1997.087,1419.011,1997.087,1419.011Z" transform="translate(-1930.268 -1418.456)" fill="#632e1a"/>
            <path id="Trazado_113760" data-name="Trazado 113760" d="M1995.465,1448.621c-3.65,13.923-15.649,22.84-26.8,19.917s-17.23-16.58-13.58-30.5,15.649-22.84,26.8-19.917S1999.115,1434.7,1995.465,1448.621Z" transform="translate(-1915.065 -1417.563)" fill="#f77d48"/>
            <g id="Grupo_81648" data-name="Grupo 81648" transform="translate(52.565 16.496)">
              <path id="Trazado_113761" data-name="Trazado 113761" d="M2004.437,1471.784c-1.313,5.009-5.63,8.217-9.642,7.165s-6.2-5.965-4.886-10.974,5.631-8.217,9.642-7.165S2005.75,1466.774,2004.437,1471.784Z" transform="translate(-1989.528 -1460.61)" fill="#ffb27d"/>
            </g>
            <g id="Grupo_81649" data-name="Grupo 81649" transform="translate(41.476 3.297)">
              <path id="Trazado_113762" data-name="Trazado 113762" d="M1977.448,1471.1a15.271,15.271,0,0,1-3.882-.5c-4.807-1.26-8.7-4.758-10.969-9.85a26.65,26.65,0,0,1,8.1-30.882c4.473-3.325,9.584-4.462,14.391-3.2s8.7,4.758,10.969,9.85a25.525,25.525,0,0,1,1.088,16.787h0a25.533,25.533,0,0,1-9.185,14.094A17.631,17.631,0,0,1,1977.448,1471.1Zm3.766-42.613a15.348,15.348,0,0,0-9.137,3.242,24.34,24.34,0,0,0-7.361,28.076c1.975,4.436,5.327,7.472,9.438,8.55s8.522.077,12.42-2.819a24.339,24.339,0,0,0,7.361-28.076c-1.976-4.436-5.327-7.472-9.438-8.55A12.924,12.924,0,0,0,1981.214,1428.49Z" transform="translate(-1960.591 -1426.167)" fill="#ffb27d"/>
            </g>
            <path id="Trazado_113763" data-name="Trazado 113763" d="M2089.5,1580.926s9.106-2.223,5.8-16-17.222-14.439-18.76-22.915,7.875-11.32,1.406-27.739c0,0-4.246,14.048-18.728,20.268-11.923,5.121-21.295,16.328-17.562,31.076s11.851,15.311,29.851,15.311Z" transform="translate(-1968.601 -1477.213)" fill="#f77d48"/>
            <path id="Trazado_113764" data-name="Trazado 113764" d="M2095.271,1601.458s5.645-1.841,2.708-10.429-13.819-11.438-15.309-16.746,4.375-5.861,4-14.588c0,0-27.465,15.524-21.684,31.972,3.232,9.194,7.43,11.49,18.855,10.641Z" transform="translate(-1983.016 -1505.229)" fill="#ffb27d"/>
            <g id="Grupo_81650" data-name="Grupo 81650" transform="translate(22.922 82.476)">
              <path id="Trazado_113765" data-name="Trazado 113765" d="M1912.991,1662.958s-1.843-4.113,0-7.2,6.134-8.876,12.469-8.64,8.787,1.871,8.992,3.71,2.248,11.852-3.27,13.692S1912.17,1666.1,1912.991,1662.958Z" transform="translate(-1912.172 -1641.623)" fill="#7e8580"/>
              <path id="Trazado_113766" data-name="Trazado 113766" d="M2201.686,1656s10.627-11.93,17.78-8.928,12.663,9.148,10.626,12.739-1.345,3.627-12.67,5.279a40.845,40.845,0,0,1-19.618-1.732Z" transform="translate(-2088.35 -1641.303)" fill="#7e8580"/>
              <path id="Trazado_113767" data-name="Trazado 113767" d="M1960.8,1657.34a6.06,6.06,0,0,1-5.088-9.367c4.235-6.484,10.26-14.108,15.58-14.9,9.418-1.4,19.3,2.693,22.1,6.765s7.615,13.819,1.329,15.883C1990.573,1657.081,1972.588,1657.329,1960.8,1657.34Z" transform="translate(-1938.413 -1632.792)" fill="#3f4541"/>
              <path id="Trazado_113768" data-name="Trazado 113768" d="M2080,1666.257s-.307-11.035-10.116-12.568-14.713,3.306-16.245,5.638-4.9,7.064,0,8.836S2078.778,1669.015,2080,1666.257Z" transform="translate(-1997.852 -1645.5)" fill="#7e8580"/>
              <path id="Trazado_113769" data-name="Trazado 113769" d="M2152.294,1659.058s3-15.763-5.428-18.223-16.492,2.789-24.359,5.287-11.028,12.1-6.554,13.965S2150.5,1662.615,2152.294,1659.058Z" transform="translate(-2036.601 -1637.358)" fill="#3f4541"/>
            </g>
            <g id="Grupo_81651" data-name="Grupo 81651" transform="translate(0 23.022)">
              <path id="Trazado_113770" data-name="Trazado 113770" d="M1912.566,1481.212h-.034c-22.736-.93-57.187-2.2-59.135-1.894a.828.828,0,0,1-.473-1.587c1.538-.505,46.064,1.269,59.675,1.826a.828.828,0,0,1-.033,1.656Zm-59.122-1.909-.035.011Z" transform="translate(-1852.355 -1477.64)" fill="#180000"/>
            </g>
            <path id="Trazado_113771" data-name="Trazado 113771" d="M2092.178,1536.38s10.234-7.26,8.149-11.916-7.9-2.056-7.159.543S2095.979,1532.326,2092.178,1536.38Z" transform="translate(-2000.278 -1481.916)" fill="#f77d48"/>
            <path id="Trazado_113772" data-name="Trazado 113772" d="M2080.414,1515.269s3.339-3.073,2.43-6.143a11.034,11.034,0,0,1,.085-6.006s-4.627,2.289-4.4,5.251S2081.105,1512.917,2080.414,1515.269Z" transform="translate(-1991.856 -1470.335)" fill="#f77d48"/>
            <g id="Grupo_81652" data-name="Grupo 81652" transform="translate(16.851 8.533)">
              <path id="Trazado_113773" data-name="Trazado 113773" d="M1897.369,1459.2a1.041,1.041,0,0,1-.886-1.587l10.641-17.285a1.041,1.041,0,0,1,1.773,1.092l-10.641,17.285A1.04,1.04,0,0,1,1897.369,1459.2Z" transform="translate(-1896.329 -1439.83)" fill="#a36f4b"/>
            </g>
            <g id="Grupo_81653" data-name="Grupo 81653" transform="translate(167.756 20.528)">
              <path id="Trazado_113774" data-name="Trazado 113774" d="M2291.058,1488.152a.929.929,0,0,1-.782-1.428l9.656-15.16a.929.929,0,0,1,1.567,1l-9.656,15.161A.929.929,0,0,1,2291.058,1488.152Z" transform="translate(-2290.13 -1471.134)" fill="#a36f4b"/>
            </g>
          </g>
          <rect id="Rectángulo_34911" data-name="Rectángulo 34911" width="294.633" height="249.604" transform="translate(509.559 843.757)" fill="#0d1723"/>
          <path id="Trazado_113775" data-name="Trazado 113775" d="M1533.876,988.154l32.178,216.3c1.976,13.285-11.543,26.7-26.884,26.684l-66.292-.085c-9.905-.013-17.58-5.811-19-14.352L1413.12,970.729c-2.087-12.591,9.955-25.679,24.727-26.875l28.264-2.29C1501.128,938.728,1529.417,958.177,1533.876,988.154Z" transform="translate(-678.966 -135.451)" fill="#edc5a2"/>
          <path id="Trazado_113776" data-name="Trazado 113776" d="M433.863,774.015l-44.7,13a91.231,91.231,0,0,0-65.667,83.523l-11.4,254.739H459.921L550.1,842.014l-82.489-61.852A38.385,38.385,0,0,0,433.863,774.015Z" transform="translate(0 -31.333)" fill="#d8a987"/>
          <path id="Trazado_113777" data-name="Trazado 113777" d="M1042.54,769.308,845.377,823.463,744.626,811.584,725.149,799.9l-68.921-41.35c-8.729-5.241-6.638-17.919,2.307-20.73a11.916,11.916,0,0,1,2.557-.508l171.226-15.447q1.9-.171,3.8-.173a42.136,42.136,0,0,1,29.01,11.582A72.347,72.347,0,0,0,906.137,752.6Z" transform="translate(-208.822 0)" fill="#f4cdb0"/>
          <path id="Trazado_113778" data-name="Trazado 113778" d="M1057.036,881l219.182-35.461a19.8,19.8,0,0,1,22.964,19.547v25.3a19.8,19.8,0,0,1-16.089,19.45l-230.05,43.907a19.8,19.8,0,0,1-22.561-25.521l10.867-33.746A19.8,19.8,0,0,1,1057.036,881Z" transform="translate(-442.498 -76.231)" fill="#f9ddbf"/>
          <path id="Trazado_113779" data-name="Trazado 113779" d="M748.86,808.364l-23.71,16.675-68.921-41.35c-8.729-5.241-6.638-17.919,2.307-20.73l2.557-.508s13.263-.228,25.962,11.2S748.86,808.364,748.86,808.364Z" transform="translate(-208.822 -25.142)" fill="#f9ddbf"/>
          <path id="Trazado_113780" data-name="Trazado 113780" d="M662,895.872l-74.4,242.584a23.176,23.176,0,0,0,22.158,29.971h67.345a23.176,23.176,0,0,0,22.06-16.072L788.006,876.5a23.176,23.176,0,0,0-19.93-30.183l-28.264-2.609A74.248,74.248,0,0,0,662,895.872Z" transform="translate(-169.296 -75.067)" fill="#edc5a2"/>
          <g id="Grupo_81655" data-name="Grupo 81655" transform="translate(538.574 1021.378)">
            <path id="Trazado_113781" data-name="Trazado 113781" d="M1084.586,1577.378l2.288-45.077s-23.807-18.732-27.2-20.01-54.433-8.473-54.433-8.473l2.648,42.309,16.283,30.663Z" transform="translate(-966.109 -1503.796)" fill="#edc5a2"/>
            <path id="Trazado_113782" data-name="Trazado 113782" d="M905.5,1576.513s-3.64-32.791-1.922-36.388,33.357-37.35,38.677-36.343,34.721,11.34,39.892,15.286,17.41,34.924,17.246,38.154-1.01,19.885-1.01,19.885Z" transform="translate(-903.113 -1503.76)" fill="#f9ddbf"/>
          </g>
          <g id="Grupo_81656" data-name="Grupo 81656" transform="translate(404.631 992.845)">
            <path id="Trazado_113783" data-name="Trazado 113783" d="M808.013,1514.4l1.97-37.851a18.517,18.517,0,0,0-6.854-15.383c-9.978-8.062-26.956-21.573-30.223-22.855-2.931-1.149-31.661-5.615-52.777-8.8a18.543,18.543,0,0,0-21.276,19.4l1.953,34.389a18.552,18.552,0,0,0,1.974,7.335l15.553,30.684a18.55,18.55,0,0,0,16.373,10.162l54.609.509A18.55,18.55,0,0,0,808.013,1514.4Z" transform="translate(-643.164 -1429.3)" fill="#d8a987"/>
            <path id="Trazado_113784" data-name="Trazado 113784" d="M573.542,1531.922a18.55,18.55,0,0,1-18.379-17.019c-1.178-14.124-2.367-32.437-.928-35.554,2.4-5.189,61.931-50.27,69.294-48.824S656,1443.2,663.146,1448.89s23.945,50.346,23.7,55.006l-.572,10.991a18.549,18.549,0,0,1-18.633,17.585Z" transform="translate(-553.575 -1430.035)" fill="#f9ddbf"/>
          </g>
          <g id="Grupo_81657" data-name="Grupo 81657" transform="translate(744.475 1026.548)">
            <path id="Trazado_113785" data-name="Trazado 113785" d="M1602.372,1585.485l2.126-41.876s-21.2-17.356-24.221-18.536-48.539-7.769-48.539-7.769l2.282,39.3,14.467,28.452Z" transform="translate(-1496.75 -1517.284)" fill="#d8a987"/>
            <path id="Trazado_113786" data-name="Trazado 113786" d="M1442.5,1584.9s-3.185-30.453-1.646-33.8,29.825-34.758,34.569-33.833,30.95,10.469,35.555,14.125,15.464,32.408,15.312,35.409-.938,18.473-.938,18.473Z" transform="translate(-1440.432 -1517.252)" fill="#f9ddbf"/>
          </g>
          <g id="Grupo_81658" data-name="Grupo 81658" transform="translate(692.247 1044.852)">
            <path id="Trazado_113787" data-name="Trazado 113787" d="M1427.648,1606.327l.956-18.373a8.988,8.988,0,0,0-3.327-7.467c-4.843-3.913-13.085-10.472-14.671-11.094-1.422-.558-15.368-2.726-25.618-4.272a9,9,0,0,0-10.328,9.415l.948,16.693a9,9,0,0,0,.958,3.56l7.55,14.895a9.005,9.005,0,0,0,7.948,4.933l26.508.247A9,9,0,0,0,1427.648,1606.327Z" transform="translate(-1347.627 -1565.018)" fill="#edc5a2"/>
            <path id="Trazado_113788" data-name="Trazado 113788" d="M1313.832,1614.833a9.006,9.006,0,0,1-8.922-8.262c-.572-6.856-1.149-15.745-.45-17.259,1.162-2.519,30.062-24.4,33.636-23.7s15.763,6.155,19.231,8.914,11.623,24.439,11.505,26.7l-.278,5.335a9,9,0,0,1-9.045,8.536Z" transform="translate(-1304.139 -1565.374)" fill="#f9ddbf"/>
          </g>
          <g id="Grupo_81661" data-name="Grupo 81661" transform="translate(1077.17 734.369)">
            <path id="Trazado_113789" data-name="Trazado 113789" d="M2329.192,1077.8s-5.883-9.6-9.587-8.014-4.119,9.6-2.638,10.865,10.564,5,10.564,5Z" transform="translate(-2313.281 -948.964)" fill="#ffb27d"/>
            <path id="Trazado_113790" data-name="Trazado 113790" d="M2475.981,840.8s-14.288.6-16.995,8.723c0,0-.677,2.105,1.955,2.03s4.96-2.5,6.5-3.083c0,0-12.068,8.272-10.038,12.859s8.5-2.557,8.5-2.557-10.829,11.806-6.467,21.883,14.739-1.931,14.739-1.931,11.563,14.865,20.9,9.3,4.07-18.349,4.07-18.349,3.911,5.463,6.467,9.048,8.122-2.732,4.963-8.747-9.324-13.085-9.324-13.085a31.176,31.176,0,0,1,7.67,5.866c2.857,3.309,6.016-1.2,5.114-4.211s-12.032-12.968-20.6-14.38a9.622,9.622,0,0,1,5.565,0c3.008.919,3.158-3.217-1.5-4.043s-11.28,1.2-11.28,1.2,1.053-3.233-1.655-4.06-1.73,3.76-1.73,3.76-1.2-3.384-3.91-2.933A3.27,3.27,0,0,0,2475.981,840.8Z" transform="translate(-2400.255 -805.596)" fill="#180000"/>
            <path id="Trazado_113791" data-name="Trazado 113791" d="M2429.634,1658.169h35.1c2.515-1.837-.678-19.809-.678-19.809s-9.581-3.918-11.236,4.05-12.2,10.493-17.783,11.464C2431.222,1654.543,2430.016,1656.8,2429.634,1658.169Z" transform="translate(-2383.267 -1299.178)" fill="#ca773b"/>
            <path id="Trazado_113792" data-name="Trazado 113792" d="M2456.527,1232.943s.717,23.83,2.571,47.492c2.52,32.145,10.313,112.146,10.313,112.146s1.362-1.675,11.236-3.757c0,0,8.971-31.689,11.271-57.146,1.245-13.784-10.44-30.1,1.873-61.593,7.563-19.343,5.96-35.724,5.96-35.724Z" transform="translate(-2399.854 -1049.711)" fill="#ca773b"/>
            <path id="Trazado_113793" data-name="Trazado 113793" d="M2565.494,1658.169h35.1c2.515-1.837-.679-19.809-.679-19.809s-9.581-3.918-11.235,4.05-12.2,10.493-17.784,11.464C2567.083,1654.543,2565.876,1656.8,2565.494,1658.169Z" transform="translate(-2467.065 -1299.178)" fill="#ca773b"/>
            <path id="Trazado_113794" data-name="Trazado 113794" d="M2479.165,1206.6s25.068,62.4,33.082,86.052c5.708,16.848,23.19,76.245,23.19,76.245a13.79,13.79,0,0,0,11.5-2.279s5.989-60.386-6.109-77.413c-6.418-9.034-1.595-93.905-27.62-94.632S2479.165,1206.6,2479.165,1206.6Z" transform="translate(-2413.817 -1026.025)" fill="#ca773b"/>
            <path id="Trazado_113795" data-name="Trazado 113795" d="M2395.746,1010.823c-1.52,4.932-12.377,22.826-21.268,35.191-3.963,5.516-7.531,9.931-9.707,11.608-2.383,1.842-8.242-.762-14.96-5.012-13.165-8.335-29.624-23.016-29.624-23.016l8.686-2s26.927,12.937,29,10.515,16.823-53.165,36.558-47.289C2394.429,990.817,2397.939,1003.69,2395.746,1010.823Z" transform="translate(-2315.76 -900.075)" fill="#ca773b"/>
            <path id="Trazado_113796" data-name="Trazado 113796" d="M2493.874,1047.669c-2.875,23.422-1.655,21.348,1.439,34.154,1.24,5.126-52.027.707-59.879-7.637a108.363,108.363,0,0,0-.106-49.262c-.576-2.35-.58-5.042-.961-7.8-5.448-2.29-11.861,8.335-12.039,8.636.174-.63,8.327-29.971,11.438-38.962,3.81-11.007,21.217-11.921,30.284-10.947a73.353,73.353,0,0,1,27.038,8.712c4.064,2.434,5.288,21.137,4.572,40.372-.284,7.645-.876,15.375-1.718,22.2C2493.92,1047.313,2493.9,1047.491,2493.874,1047.669Z" transform="translate(-2378.76 -890.953)" fill="#ca773b"/>
            <path id="Trazado_113797" data-name="Trazado 113797" d="M2552.12,981.317s12.211,2.059,20.355,8.613c3.75,3.018,17.532,23.988,17.532,23.988s-3.624,10.948-22.712,12.855c-19.429,1.94-18.589-30.031-18.589-30.031Z" transform="translate(-2456.707 -894.508)" fill="#ca773b"/>
            <path id="Trazado_113798" data-name="Trazado 113798" d="M2512.507,943.023a2.432,2.432,0,0,1-.28,2.76c-1.944,2.287-7.073,6.019-18.995,3.718-4.084-.789-4.673-3.88-1.7-6.608.723-.664,1.02-4.971,1.157-6.7a53.619,53.619,0,0,1,.657-6.208l9.178-4.493,8.714-4.313C2508.417,933.48,2511.089,940.429,2512.507,943.023Z" transform="translate(-2420.294 -857.417)" fill="#b55624"/>
            <path id="Trazado_113799" data-name="Trazado 113799" d="M2514.189,936.562a27.864,27.864,0,0,1-16.641,6.577,53.614,53.614,0,0,1,.657-6.208l9.179-4.493Z" transform="translate(-2425.156 -864.359)" fill="#ed985f"/>
            <path id="Trazado_113800" data-name="Trazado 113800" d="M2486.167,892.954s19.239,7.032,23.428-4.82,9.5-18.927-2.611-23.918-16.1-1.3-18.481,2.311S2481.27,890.819,2486.167,892.954Z" transform="translate(-2416.837 -820.783)" fill="#ca773b"/>
            <g id="Grupo_81659" data-name="Grupo 81659" transform="translate(67.306 112.634)">
              <path id="Trazado_113801" data-name="Trazado 113801" d="M2485.822,1050.261c0,.857-.347,1.552-.773,1.552s-.774-.695-.774-1.552.347-1.552.774-1.552S2485.822,1049.4,2485.822,1050.261Z" transform="translate(-2484.275 -1048.709)" fill="#b55624"/>
              <path id="Trazado_113802" data-name="Trazado 113802" d="M2552.966,1050.261c0,.857-.346,1.552-.773,1.552s-.774-.695-.774-1.552.346-1.552.774-1.552S2552.966,1049.4,2552.966,1050.261Z" transform="translate(-2525.689 -1048.709)" fill="#b55624"/>
              <path id="Trazado_113803" data-name="Trazado 113803" d="M2514,1161.247c0,.857-.346,1.552-.773,1.552s-.773-.7-.773-1.552.347-1.552.773-1.552S2514,1160.39,2514,1161.247Z" transform="translate(-2501.653 -1117.165)" fill="#b55624"/>
            </g>
            <path id="Trazado_113804" data-name="Trazado 113804" d="M2493.248,1183.838s-48.632,5.73-55.2,4.1l-15.289,61.189s5.192,5.192,9.085,5.192a7.525,7.525,0,0,1,6.814,4.542c.648,1.622,6.813,10.059,7.787,11.681s7.139,5.211,7.139,5.211,11.357-3.588,16.873-7.807,3.569-2.271,12.006-4.218,9.734-4.867,10.707-8.436,12.979-5.841,12.979-5.841Z" transform="translate(-2379.026 -1019.423)" fill="#180000"/>
            <path id="Trazado_113805" data-name="Trazado 113805" d="M2486.385,1343a3,3,0,0,0,1.625-.571,3.919,3.919,0,0,0,1.06-2.616,3.976,3.976,0,0,0,.025-1.414,3.729,3.729,0,0,0-1.279-1.814,26,26,0,0,0-4.455-3.267,2.528,2.528,0,0,0-1.849-.476c-1.108.3-1.291,1.959-.549,2.834,1.933,2.277-1.821,2.221-.329,4.722A6.444,6.444,0,0,0,2486.385,1343Z" transform="translate(-2414.501 -1111.302)" fill="#f77d48"/>
            <path id="Trazado_113806" data-name="Trazado 113806" d="M2478.277,1235.1a2.6,2.6,0,0,0,1.411-.5,3.4,3.4,0,0,0,.92-2.271,3.464,3.464,0,0,0,.022-1.228,3.24,3.24,0,0,0-1.11-1.575,22.583,22.583,0,0,0-3.868-2.836,2.2,2.2,0,0,0-1.606-.414c-.962.258-1.121,1.7-.476,2.461,1.679,1.977-1.581,1.928-.286,4.1A5.6,5.6,0,0,0,2478.277,1235.1Z" transform="translate(-2409.997 -1045.575)" fill="#f77d48"/>
            <path id="Trazado_113807" data-name="Trazado 113807" d="M2449.488,1307.78a2.6,2.6,0,0,0,1.411-.5,3.4,3.4,0,0,0,.92-2.271,3.462,3.462,0,0,0,.022-1.228,3.243,3.243,0,0,0-1.111-1.575,22.578,22.578,0,0,0-3.868-2.836,2.194,2.194,0,0,0-1.6-.413c-.962.258-1.122,1.7-.477,2.461,1.679,1.976-1.581,1.928-.286,4.1A5.6,5.6,0,0,0,2449.488,1307.78Z" transform="translate(-2392.24 -1090.405)" fill="#f77d48"/>
            <path id="Trazado_113808" data-name="Trazado 113808" d="M2538.379,1304.177a2.6,2.6,0,0,0-.187-1.484,3.405,3.405,0,0,0-2.026-1.378,3.46,3.46,0,0,0-1.2-.28,3.235,3.235,0,0,0-1.774.753,22.562,22.562,0,0,0-3.588,3.183,2.194,2.194,0,0,0-.743,1.482c.049,1,1.427,1.455,2.305.984,2.286-1.224,1.551,1.953,3.947,1.144A5.6,5.6,0,0,0,2538.379,1304.177Z" transform="translate(-2444.472 -1091.71)" fill="#f77d48"/>
            <path id="Trazado_113809" data-name="Trazado 113809" d="M2486.353,1268.288c-.516,1.068.462,2.2.9,3.3.175.434.267.9.458,1.326a3.426,3.426,0,0,0,2.343,1.882,4.078,4.078,0,0,0,2.993-.518c.872-.528,1.55-1.346,2.458-1.81a21.667,21.667,0,0,1,3.327-.9c1.1-.354,2.191-1.3,2.038-2.439a2.759,2.759,0,0,0-.741-1.381c-.881-1.016-2.268-1.895-3.508-1.376a10.347,10.347,0,0,0-1.764,1.379C2492.4,1269.5,2488.15,1264.562,2486.353,1268.288Z" transform="translate(-2418.16 -1070.239)" fill="#f77d48"/>
            <path id="Trazado_113810" data-name="Trazado 113810" d="M2547.279,1230.62c-.7.958.061,2.251.3,3.412.094.458.1.932.212,1.386a3.431,3.431,0,0,0,1.969,2.271,4.081,4.081,0,0,0,3.038.026c.952-.363,1.766-1.046,2.742-1.341a21.677,21.677,0,0,1,3.434-.287c1.141-.152,2.388-.884,2.442-2.034a2.761,2.761,0,0,0-.483-1.491c-.684-1.158-1.891-2.27-3.2-1.982a10.34,10.34,0,0,0-1.982,1.04C2553.011,1232.892,2549.715,1227.276,2547.279,1230.62Z" transform="translate(-2455.652 -1047.613)" fill="#f77d48"/>
            <path id="Trazado_113811" data-name="Trazado 113811" d="M2551.666,1338.164c-1.137.335-1.323,1.822-1.842,2.888-.2.42-.487.8-.676,1.229a3.426,3.426,0,0,0,.178,3,4.083,4.083,0,0,0,2.394,1.871c.977.291,2.038.245,2.991.606a21.653,21.653,0,0,1,2.9,1.864c1,.574,2.432.753,3.176-.126a2.761,2.761,0,0,0,.525-1.477c.162-1.335-.118-2.953-1.335-3.524a10.321,10.321,0,0,0-2.206-.381C2554.828,1343.457,2555.634,1336.995,2551.666,1338.164Z" transform="translate(-2456.82 -1114.524)" fill="#f77d48"/>
            <path id="Trazado_113812" data-name="Trazado 113812" d="M2590.162,1312.513a3.361,3.361,0,0,1-2.223,1.15c-.062,1.094.021,2.383.93,2.993a2.512,2.512,0,0,0,1.574.331,5.049,5.049,0,0,0,3.016-1.272,1.758,1.758,0,0,1,.42-.32,3.506,3.506,0,0,1,.869-.133,1.344,1.344,0,0,0,.823-2.11c-.259-.36-.7-.555-.992-.9a8.489,8.489,0,0,1-.569-.916,1.6,1.6,0,0,0-1.8-.8C2590.874,1310.724,2590.79,1311.542,2590.162,1312.513Z" transform="translate(-2480.899 -1097.553)" fill="#f77d48"/>
            <path id="Trazado_113813" data-name="Trazado 113813" d="M2589.969,1258.069a4.146,4.146,0,0,0-2.035,3.191,2.783,2.783,0,0,0,1.289,2.737,2.623,2.623,0,0,0,2.193-.015,5.667,5.667,0,0,0,1.8-1.354,3.876,3.876,0,0,0,1.249-2.283,1.291,1.291,0,0,0-.344-1.052,1.79,1.79,0,0,0-.966-.348l-1.555-.236a1.235,1.235,0,0,1-.8-.328c-.189-.226-.11-.666.182-.694Z" transform="translate(-2480.898 -1064.972)" fill="#f77d48"/>
            <path id="Trazado_113814" data-name="Trazado 113814" d="M2522.374,1381.693a4.146,4.146,0,0,0-2.035,3.19,2.783,2.783,0,0,0,1.289,2.738,2.621,2.621,0,0,0,2.192-.015,5.645,5.645,0,0,0,1.8-1.354,3.872,3.872,0,0,0,1.249-2.284,1.288,1.288,0,0,0-.344-1.052,1.79,1.79,0,0,0-.965-.348l-1.556-.237a1.235,1.235,0,0,1-.8-.328c-.188-.226-.11-.666.182-.695Z" transform="translate(-2439.206 -1141.224)" fill="#f77d48"/>
            <path id="Trazado_113815" data-name="Trazado 113815" d="M2586.157,1193.6s-5.951-1.788-8.092-1.166-7.33.264-7.046,1.653,4.152,1.234,4.841,2.577-11.068,5.719-10.133,7,9.552,6.519,12.578,3.964,11.439-9.9,13.318-11.214C2594.136,1194.665,2586.157,1193.6,2586.157,1193.6Z" transform="translate(-2467.177 -1024.646)" fill="#ca773b"/>
            <path id="Trazado_113816" data-name="Trazado 113816" d="M2503.7,860.186s.481-5.08-10.208-3.016c-4.385.847-8.632,7.7-6.561,7.937s4.531-2.162,6.667-3.351C2496.707,860.028,2500.69,860.4,2503.7,860.186Z" transform="translate(-2418.276 -817.63)" fill="#180000"/>
            <path id="Trazado_113817" data-name="Trazado 113817" d="M2478.532,914.1s-5.343,2.475-3.332,11.341,6.879,7.7,6.879,7.7,1.8,3.5,6.561,2.545,4.867-3.18,4.867-3.18,1.378.741,3.811-.317,2.807-4.869,2.807-4.869a2.714,2.714,0,0,0,3.484-1.069c1.329-2.106,1.58-10.476,1.58-10.476s-3.956,2.021-7.66,1.385-7.725-4.6-12.594-4.735S2478.532,914.1,2478.532,914.1Z" transform="translate(-2411.093 -852.014)" fill="#180000"/>
            <path id="Trazado_113818" data-name="Trazado 113818" d="M2494.57,925.838a8.306,8.306,0,0,1,5.926.847S2496.581,928.908,2494.57,925.838Z" transform="translate(-2423.319 -860.158)" fill="#ffb27d"/>
            <path id="Trazado_113819" data-name="Trazado 113819" d="M2564.3,1003.328s13.26,1.481,19.081,6.152,29.623,37.476,32.085,46.042-32.2,27.878-32.2,27.878l-4.2-7.454s17.2-18.386,15.712-21.2S2551.565,1019.507,2564.3,1003.328Z" transform="translate(-2464.841 -908.084)" fill="#ca773b"/>
            <g id="Grupo_81660" data-name="Grupo 81660" transform="translate(0 0)">
              <rect id="Rectángulo_34912" data-name="Rectángulo 34912" width="6.169" height="323.072" transform="translate(6.192 37.391) rotate(-1.088)" fill="#180000"/>
              <path id="Trazado_113820" data-name="Trazado 113820" d="M2312.344,786.64l-3.71-11.368,8.389-20.493,9.63,15.7.187,9.846-3.7,6.107Z" transform="translate(-2308.634 -754.78)" fill="#628bdd"/>
              <path id="Trazado_113821" data-name="Trazado 113821" d="M2330.525,754.78l1.6,16.809,5.533,1.378,2.494-2.483Z" transform="translate(-2322.136 -754.78)" fill="#8fadf9"/>
              <path id="Trazado_113822" data-name="Trazado 113822" d="M2312.344,786.64l6.281-15.052-1.6-16.809-8.389,20.493Z" transform="translate(-2308.634 -754.78)" fill="#163560"/>
              <path id="Trazado_113823" data-name="Trazado 113823" d="M2324.36,848.164h-6.17c-2.062.039-4.241-5.554-4.28-7.615l-.024-1.265a3.76,3.76,0,0,1,3.677-3.819l7.126-.135a3.76,3.76,0,0,1,3.819,3.677l.024,1.265C2328.571,842.332,2326.422,848.125,2324.36,848.164Z" transform="translate(-2311.873 -804.462)" fill="#180000"/>
            </g>
            <path id="Trazado_113824" data-name="Trazado 113824" d="M2422.161,1094.008c-3.963,5.516-7.531,9.931-9.707,11.607-2.383,1.842-8.242-.762-14.96-5.012h0c2.333-1.025,4.864-.106,11.074,2.573s9.876-34.573,11.544-35,.589,4.377.589,10.159A142.57,142.57,0,0,0,2422.161,1094.008Z" transform="translate(-2363.443 -948.07)" fill="#b55624" opacity="0.5"/>
            <path id="Trazado_113825" data-name="Trazado 113825" d="M2318.741,1069.41s-.918-2.539-5.372-1.595-5.184,7.683-3.174,10.328,7.5,5.115,9.3,3.422S2320.8,1072.288,2318.741,1069.41Z" transform="translate(-2308.943 -947.73)" fill="#ca773b"/>
            <path id="Trazado_113826" data-name="Trazado 113826" d="M2594.983,1085.951c-.283,7.645-.876,15.375-1.718,22.2-.021.182-.042.36-.068.538-1.152-1.274-2.392-3.6-2.469-7.747-.139-7.832-9.593-26.669-6.883-26.458C2586.318,1074.678,2593.7,1084.262,2594.983,1085.951Z" transform="translate(-2478.083 -951.972)" fill="#b55624" opacity="0.5"/>
            <path id="Trazado_113827" data-name="Trazado 113827" d="M2517.447,859.43s-11.16,2.238-8.3,4.249,8.89-.741,8.89-.741-5.08,6.985-2.011,8.678,7.99-3.81,7.99-3.81-2.063,14.182,1.112,16.086,5.221-5.053,5.221-5.053l1.869-12.409-9.63-8.466Z" transform="translate(-2432.019 -818.424)" fill="#180000"/>
          </g>
          <g id="Grupo_81664" data-name="Grupo 81664" transform="translate(585.119 925.006)">
            <path id="Trazado_113828" data-name="Trazado 113828" d="M1054.146,1257.267s-11.333-2.85-19.17,3.848-11.623,16.71-5.241,15.979c0,0-7.441,9.6-4.449,16.976s7.98-.4,7.98-.4-8.692,14.447-.855,18.521,31.032-9.322,31.032-9.322h12s9.405,5.415,8.194-.427-9.333-15-9.333-15,5.129,1.459,7.98,5.307,5.7-4.255.285-10.678-8.835-7.705-8.835-7.705,5.842,2.423,6.7.713-4.4-9.383-12.245-12.031c0,0,7.542.107,4.692-3.265s-8.2,0-8.2,0-5.9-8.787-8.755-7.362S1054.146,1257.267,1054.146,1257.267Z" transform="translate(-1024.577 -1252.266)" fill="#180000"/>
            <path id="Trazado_113829" data-name="Trazado 113829" d="M1125,1538.427l2,46.346h8.153s10.866-42.986,8.3-48.362S1130.229,1525.235,1125,1538.427Z" transform="translate(-1086.516 -1423.811)" fill="#ffb27d"/>
            <path id="Trazado_113830" data-name="Trazado 113830" d="M1169.588,1524.378l13.132,50.564,7.844-1.649s.288-49.953-3.332-54.685S1171.992,1510.392,1169.588,1524.378Z" transform="translate(-1114.02 -1413.979)" fill="#ffb27d"/>
            <path id="Trazado_113831" data-name="Trazado 113831" d="M1094.693,1350.2c-4.434-3.307-10.546-3.9-10.967-3.936a65.213,65.213,0,0,1-1.117-7.391,21.93,21.93,0,0,1,.2-2.673l-12.061-4.739a37.379,37.379,0,0,1,.506,8.074c0,.031,0,.063,0,.094a8.214,8.214,0,0,1-6.474,7.529,14.869,14.869,0,0,0-7.113,3.623c-3.234,3.122-2.992,20.715,2.906,21.618.006-.007.01-.015.016-.022s12.237-5.312,22.191-10.864c2.985-.279,5.379-.507,5.379-.507s.165-1.219.37-2.921C1093.635,1354.771,1096.788,1351.761,1094.693,1350.2Z" transform="translate(-1043.703 -1301.112)" fill="#ffb27d"/>
            <path id="Trazado_113832" data-name="Trazado 113832" d="M1108.794,1357.4c-6.544.473-12.327-5.94-12.327-5.94l11.358-.662A41.032,41.032,0,0,0,1108.794,1357.4Z" transform="translate(-1068.919 -1313.042)" fill="#ea9c68"/>
            <path id="Trazado_113833" data-name="Trazado 113833" d="M1101.641,1314.344s-12.678,4.729-18.2-5.179c-5.955-10.692-1.445-19.358,2.922-20.346,8.707-1.969,14.161.885,16.063,4.285S1108.642,1311.8,1101.641,1314.344Z" transform="translate(-1059.122 -1274.413)" fill="#ffb27d"/>
            <path id="Trazado_113834" data-name="Trazado 113834" d="M1120.559,1339.012s.678,1.289,4.037.194c0,0,2.821-.918,2.343-2.4A9.526,9.526,0,0,0,1120.559,1339.012Z" transform="translate(-1083.779 -1304.398)" fill="#fff"/>
            <path id="Trazado_113835" data-name="Trazado 113835" d="M1130.451,1391.241s18.734,29.248,25.031,29.862c6.165.6,21.2-8.373,21.2-8.373l-.78-3.012c-7.637,1.176-14.839,2.517-16.838,2.431-.693-.03-13.1-26.562-17.683-30.792C1138.735,1378.916,1130.451,1391.241,1130.451,1391.241Z" transform="translate(-1089.88 -1331.692)" fill="#ffb27d"/>
            <g id="Grupo_81662" data-name="Grupo 81662" transform="translate(83.961 73.483)">
              <path id="Trazado_113836" data-name="Trazado 113836" d="M1246.521,1451.582s3.461-2.266,4-3.223-.015-4.272-.015-4.272-1.453-.465-1.086,1.193c.38,1.723-2.516,1.508-3.615,2.149a4.345,4.345,0,0,0-2.121,3.244Z" transform="translate(-1243.681 -1444.027)" fill="#ffb27d"/>
              <path id="Trazado_113837" data-name="Trazado 113837" d="M1244.1,1450.138a13.77,13.77,0,0,1,1.532-3.438c.434-.477,1.678-.831,2.552-2.112.3-.442.493.074.492.33a20.971,20.971,0,0,1-1.444,3.333Z" transform="translate(-1243.943 -1444.267)" fill="#ffb27d"/>
            </g>
            <path id="Trazado_113838" data-name="Trazado 113838" d="M1088.747,1371.391s-.725,12.661-24.179,19.929c0,0-11.741,34.881-1.139,50.892s21.289,18.149,21.289,18.149,24.652-2.063,34.3-30.065c0,0-1.969-2.362-16.986-12.306-8.322-5.51-6.613-41.038-8.222-45.5A6.306,6.306,0,0,0,1088.747,1371.391Z" transform="translate(-1045.806 -1325.668)" fill="#180000"/>
            <path id="Trazado_113839" data-name="Trazado 113839" d="M1044.095,1379.94s-11.863,9.566-11.869,41.223c0,4.788,13.732,1.8,13.849-10.259.084-8.606,7.384-20.436,7.384-20.436Z" transform="translate(-1029.295 -1331.015)" fill="#ffb27d"/>
            <path id="Trazado_113840" data-name="Trazado 113840" d="M1063.885,1450.923l-24.659,5.289s-4.484,8.671-2.569,10.818c0,0,6.3,1.136,27.722-13.174Z" transform="translate(-1031.734 -1374.798)" fill="#ffb27d"/>
            <path id="Trazado_113841" data-name="Trazado 113841" d="M1091.051,1287.763s-.02,8.866-6.342,10.189c0,0-1.353,0-1.353-1.639s1.639-4.916,1.639-4.916-3.409,9.9-6.763,9.405-.575-13.8,4.7-15.094,10.831-1.195,12.968.395,7.121,5.172,6.128,6.15S1094.756,1291.112,1091.051,1287.763Z" transform="translate(-1056.77 -1272.343)" fill="#180000"/>
            <path id="Trazado_113842" data-name="Trazado 113842" d="M1211.616,1665.362s2.233,3.595,4.691,4.45,9.547,3.038,7.481,5.233c-1.32,1.4-10.9-.353-14.962-.032s-5.4-1.717-5.054-8S1211.616,1665.362,1211.616,1665.362Z" transform="translate(-1135.071 -1506.048)" fill="#ffb27d"/>
            <path id="Trazado_113843" data-name="Trazado 113843" d="M1137.985,1665.362s2.233,3.595,4.691,4.45,9.547,3.038,7.481,5.233c-1.321,1.4-10.9-.353-14.962-.032s-5.405-1.717-5.054-8S1137.985,1665.362,1137.985,1665.362Z" transform="translate(-1089.656 -1506.048)" fill="#ffb27d"/>
            <path id="Trazado_113844" data-name="Trazado 113844" d="M1137.333,1532.381a1.654,1.654,0,0,1,.119-.942,2.161,2.161,0,0,1,1.286-.875,2.2,2.2,0,0,1,.76-.177,2.055,2.055,0,0,1,1.126.478,14.329,14.329,0,0,1,2.279,2.021,1.4,1.4,0,0,1,.472.941c-.031.632-.906.923-1.463.625-1.452-.777-.985,1.239-2.506.727A3.554,3.554,0,0,1,1137.333,1532.381Z" transform="translate(-1094.113 -1423.811)" fill="#f77d48"/>
            <path id="Trazado_113845" data-name="Trazado 113845" d="M1135.259,1506.028a1.653,1.653,0,0,1,.119-.942,2.164,2.164,0,0,1,1.286-.875,2.208,2.208,0,0,1,.759-.178,2.057,2.057,0,0,1,1.127.479,14.321,14.321,0,0,1,2.278,2.021,1.392,1.392,0,0,1,.472.941c-.031.631-.906.924-1.464.625-1.452-.778-.985,1.239-2.506.726A3.554,3.554,0,0,1,1135.259,1506.028Z" transform="translate(-1092.834 -1407.556)" fill="#f77d48"/>
            <path id="Trazado_113846" data-name="Trazado 113846" d="M1075.657,1499.666a1.647,1.647,0,0,1,.119-.942,2.158,2.158,0,0,1,1.286-.875,2.2,2.2,0,0,1,.76-.178,2.054,2.054,0,0,1,1.126.478,14.32,14.32,0,0,1,2.279,2.021,1.394,1.394,0,0,1,.472.941c-.031.631-.906.924-1.463.625-1.452-.777-.985,1.24-2.506.727A3.554,3.554,0,0,1,1075.657,1499.666Z" transform="translate(-1056.072 -1403.632)" fill="#f77d48"/>
            <path id="Trazado_113847" data-name="Trazado 113847" d="M1139.619,1484.6a1.652,1.652,0,0,1,.118-.942,2.161,2.161,0,0,1,1.286-.875,2.2,2.2,0,0,1,.759-.178,2.057,2.057,0,0,1,1.126.479,14.31,14.31,0,0,1,2.279,2.021,1.393,1.393,0,0,1,.472.941c-.031.632-.906.924-1.463.625-1.451-.778-.985,1.239-2.506.727A3.553,3.553,0,0,1,1139.619,1484.6Z" transform="translate(-1095.524 -1394.341)" fill="#f77d48"/>
            <path id="Trazado_113848" data-name="Trazado 113848" d="M1166.118,1552.555a1.649,1.649,0,0,1,.118-.942,2.161,2.161,0,0,1,1.286-.875,2.208,2.208,0,0,1,.759-.178,2.056,2.056,0,0,1,1.126.479,14.324,14.324,0,0,1,2.278,2.021,1.4,1.4,0,0,1,.472.941c-.031.632-.906.924-1.464.625-1.451-.777-.985,1.24-2.506.727A3.551,3.551,0,0,1,1166.118,1552.555Z" transform="translate(-1111.868 -1436.254)" fill="#f77d48"/>
            <path id="Trazado_113849" data-name="Trazado 113849" d="M1094.675,1432.2a1.644,1.644,0,0,1,.119-.942,2.163,2.163,0,0,1,1.286-.875,2.207,2.207,0,0,1,.76-.178,2.06,2.06,0,0,1,1.126.478,14.35,14.35,0,0,1,2.278,2.021,1.392,1.392,0,0,1,.472.941c-.031.632-.906.924-1.464.625-1.451-.777-.985,1.24-2.506.727A3.554,3.554,0,0,1,1094.675,1432.2Z" transform="translate(-1067.802 -1362.017)" fill="#f77d48"/>
            <path id="Trazado_113850" data-name="Trazado 113850" d="M1121.7,1557.013c.722.212.84,1.157,1.169,1.833.13.268.309.509.429.781a2.176,2.176,0,0,1-.113,1.9,2.593,2.593,0,0,1-1.52,1.188c-.62.185-1.294.156-1.9.385a13.73,13.73,0,0,0-1.84,1.183,1.634,1.634,0,0,1-2.017-.08,1.758,1.758,0,0,1-.333-.938,2.108,2.108,0,0,1,.848-2.237,6.559,6.559,0,0,1,1.4-.242C1119.687,1560.374,1119.176,1556.271,1121.7,1557.013Z" transform="translate(-1080.686 -1440.179)" fill="#f77d48"/>
            <path id="Trazado_113851" data-name="Trazado 113851" d="M1111,1487.811c-.751-.05-1.072-.945-1.541-1.534-.186-.232-.413-.429-.589-.668a2.175,2.175,0,0,1-.305-1.883,2.589,2.589,0,0,1,1.224-1.491c.564-.317,1.229-.435,1.769-.791a13.825,13.825,0,0,0,1.537-1.557,1.633,1.633,0,0,1,1.985-.363,1.759,1.759,0,0,1,.53.842,2.108,2.108,0,0,1-.339,2.369,6.558,6.558,0,0,1-1.313.542C1112.23,1484.093,1113.625,1487.985,1111,1487.811Z" transform="translate(-1076.327 -1392.309)" fill="#f77d48"/>
            <path id="Trazado_113852" data-name="Trazado 113852" d="M1174.189,1521.44c-.443-.609.039-1.429.191-2.167.06-.29.065-.592.136-.88a2.175,2.175,0,0,1,1.251-1.44,2.586,2.586,0,0,1,1.929-.015c.6.231,1.121.665,1.74.852a13.783,13.783,0,0,0,2.18.184c.725.1,1.516.562,1.55,1.293a1.749,1.749,0,0,1-.307.946c-.435.735-1.2,1.44-2.036,1.257a6.549,6.549,0,0,1-1.258-.662C1177.829,1520,1175.734,1523.565,1174.189,1521.44Z" transform="translate(-1116.745 -1415.405)" fill="#f77d48"/>
            <path id="Trazado_113853" data-name="Trazado 113853" d="M1101.92,1540.727a2.135,2.135,0,0,0,1.412.73,2.066,2.066,0,0,1-.591,1.9,1.6,1.6,0,0,1-1,.21,3.208,3.208,0,0,1-1.915-.808,1.135,1.135,0,0,0-.267-.2,2.223,2.223,0,0,0-.552-.085.853.853,0,0,1-.522-1.34c.164-.229.446-.353.63-.57a5.453,5.453,0,0,0,.361-.582,1.018,1.018,0,0,1,1.145-.508C1101.468,1539.591,1101.521,1540.11,1101.92,1540.727Z" transform="translate(-1070.064 -1429.404)" fill="#f77d48"/>
            <path id="Trazado_113854" data-name="Trazado 113854" d="M1104.9,1514.689a2.63,2.63,0,0,1,1.292,2.026,1.767,1.767,0,0,1-.818,1.738,1.664,1.664,0,0,1-1.392-.01,3.581,3.581,0,0,1-1.141-.859,2.458,2.458,0,0,1-.793-1.45.819.819,0,0,1,.219-.668,1.139,1.139,0,0,1,.613-.221l.988-.149a.79.79,0,0,0,.506-.208c.119-.143.07-.423-.116-.441Z" transform="translate(-1072.361 -1413.979)" fill="#f77d48"/>
            <path id="Trazado_113855" data-name="Trazado 113855" d="M1170.392,1415.782a5.691,5.691,0,0,0,.864-3.644,5.9,5.9,0,0,0-6.416-5.1c-2.307.2-3.164,1.624-4.193,4.413a6.316,6.316,0,0,1-.7,1.366c-.391.574-.938,1.249-1.357,1.249h-27.4a3.534,3.534,0,0,1-3.433-2.639q-.067-.259-.163-.523a5.773,5.773,0,0,0-5.507-3.885,5.706,5.706,0,0,0-5.248,7.6,8.4,8.4,0,0,1,.016,5.665,5.7,5.7,0,0,0,10.042,5.2,6.365,6.365,0,0,1,5.21-2.789h20.652a13.119,13.119,0,0,1,8.933,3.7,5.7,5.7,0,0,0,8.66-7.291A3.06,3.06,0,0,1,1170.392,1415.782Z" transform="translate(-1081.283 -1347.716)" fill="#f9ddbf"/>
            <g id="Grupo_81663" data-name="Grupo 81663" transform="translate(32.151 75.641)">
              <path id="Trazado_113856" data-name="Trazado 113856" d="M1108.97,1453.423s3.568,2.072,4.664,2.118,4.818-.423,4.818-.423-.269-.843-2.03-.951-3.024-2.562-4.093-3.253a4.343,4.343,0,0,0-3.852-.423Z" transform="translate(-1108.477 -1450.006)" fill="#ffb27d"/>
              <path id="Trazado_113857" data-name="Trazado 113857" d="M1110.47,1449.938a13.779,13.779,0,0,1,3.759-.19c.621.171,1.5,1.12,3.039,1.32.531.069.157.473-.071.588a20.977,20.977,0,0,1-3.625.221Z" transform="translate(-1109.706 -1449.659)" fill="#ffb27d"/>
            </g>
          </g>
          <g id="Grupo_81670" data-name="Grupo 81670" transform="translate(535.202 763.296)">
            <g id="Grupo_81665" data-name="Grupo 81665" transform="translate(1.345 5.32)">
              <path id="Trazado_113858" data-name="Trazado 113858" d="M932.9,873.5c-.006.091-.013.181-.019.268-.011.13-.024.264-.036.4v0c-.17,1.8-.527,4.29-.933,7.137-.126.883-.257,1.8-.389,2.748-.028.189-.053.377-.081.568v0c-.359,2.591-.732,5.4-1.051,8.3-.03.27-.059.54-.087.81v0c-.2,1.833-.368,3.7-.5,5.581-.013.164-.023.328-.034.491v0c-.187,2.726-.291,5.466-.268,8.14,0,.164,0,.327,0,.491.028,1.989.128,3.938.321,5.811.034.331.07.664.11.989a.008.008,0,0,0,0,.006c.153,1.28.355,2.525.61,3.715q.137.658.3,1.3l-.328.083c-.1-.41-.2-.827-.292-1.251,0,0,0,0,0,0-.238-1.106-.43-2.256-.583-3.439a.027.027,0,0,0,0-.011c-.057-.451-.111-.908-.158-1.37v-.006c-.178-1.74-.279-3.543-.315-5.381,0,0,0,0,0,0,0-.3-.008-.6-.011-.908-.023-2.738.085-5.545.279-8.335v0c0-.078.011-.157.017-.236.156-2.209.366-4.407.6-6.547v0c0-.032.006-.064.01-.1.328-2.963.708-5.813,1.074-8.437q.026-.182.049-.357.2-1.4.385-2.7c.438-3.065.815-5.708.966-7.523,0-.026,0-.051.006-.077.006-.087.013-.179.017-.272a29.336,29.336,0,0,0-1.593-9.662v0c-.032-.1-.066-.2-.1-.3a39.255,39.255,0,0,0-3.952-8.546c-.091-.147-.183-.291-.276-.436a29.4,29.4,0,0,0-2.572-3.418,22.019,22.019,0,0,0-4.058-3.658c-.106-.075-.213-.145-.319-.215-.185-.121-.37-.238-.557-.351a15.993,15.993,0,0,0-4.077-1.77,0,0,0,0,1,0,0,15.329,15.329,0,0,0-3.319-.521q-.294-.012-.581-.019-.268-.006-.53-.007c-.064,0-.128,0-.191,0h0a16.387,16.387,0,0,0-12.1,4.817c-.17.015-.34.028-.513.04,2.531-2.72,6.589-5.234,12.927-5.2,0,0,0,0,0,0,.326,0,.659.008,1,.023a15.454,15.454,0,0,1,4.394.845,16.521,16.521,0,0,1,3.493,1.7c.094.055.185.117.277.177l.008.006a.272.272,0,0,1,.023.015s0,0,0,0c.5.33.993.693,1.478,1.085l.006.006a23.72,23.72,0,0,1,2.892,2.8,29.549,29.549,0,0,1,2.586,3.437c.006.008.011.017.017.025a0,0,0,0,0,0,0,39.362,39.362,0,0,1,4.277,9.114c.057.181.115.359.171.538A29.1,29.1,0,0,1,932.9,873.5Z" transform="translate(-897.824 -844.152)" fill="#82b378"/>
            </g>
            <path id="Trazado_113859" data-name="Trazado 113859" d="M968.894,970.989s-5.748.564-8.2,5.579C960.694,976.568,965.231,977.189,968.894,970.989Z" transform="translate(-935.257 -917.065)" fill="#82b378"/>
            <path id="Trazado_113860" data-name="Trazado 113860" d="M969.249,988.282s-5.548,1.609-7.037,6.989C962.212,995.271,966.785,995.048,969.249,988.282Z" transform="translate(-936.193 -927.731)" fill="#82b378"/>
            <path id="Trazado_113861" data-name="Trazado 113861" d="M973.1,1010.473s-4.175,2.459-4.27,7.142C968.831,1017.615,972.5,1016.484,973.1,1010.473Z" transform="translate(-940.276 -941.419)" fill="#82b378"/>
            <path id="Trazado_113862" data-name="Trazado 113862" d="M976.454,1026.783s-3.361,3.491-2.193,8.026C974.26,1034.809,977.493,1032.734,976.454,1026.783Z" transform="translate(-943.473 -951.479)" fill="#82b378"/>
            <path id="Trazado_113863" data-name="Trazado 113863" d="M982.239,1038.644s-1.222,4.689,2.016,8.073C984.255,1046.717,986.058,1043.324,982.239,1038.644Z" transform="translate(-948.406 -958.795)" fill="#82b378"/>
            <path id="Trazado_113864" data-name="Trazado 113864" d="M980.478,1026.783s1.288,4.672,5.785,5.981C986.263,1032.764,986.127,1028.925,980.478,1026.783Z" transform="translate(-947.46 -951.479)" fill="#82b378"/>
            <path id="Trazado_113865" data-name="Trazado 113865" d="M979.973,1010.473s1.288,4.672,5.785,5.981C985.758,1016.454,985.621,1012.615,979.973,1010.473Z" transform="translate(-947.148 -941.419)" fill="#82b378"/>
            <path id="Trazado_113866" data-name="Trazado 113866" d="M980.918,987.938s.506,4.82,4.729,6.847C985.647,994.785,986.14,990.975,980.918,987.938Z" transform="translate(-947.731 -927.519)" fill="#82b378"/>
            <path id="Trazado_113867" data-name="Trazado 113867" d="M982.093,971.036s.588,5.6,5.491,7.95C987.584,978.986,988.157,974.563,982.093,971.036Z" transform="translate(-948.456 -917.094)" fill="#82b378"/>
            <path id="Trazado_113868" data-name="Trazado 113868" d="M971.006,948.061s-5.76-.438-9.04,4.079C961.966,952.14,966.327,953.535,971.006,948.061Z" transform="translate(-936.042 -902.916)" fill="#82b378"/>
            <path id="Trazado_113869" data-name="Trazado 113869" d="M985.535,948.126s-.387,5.614,4.036,8.779C989.571,956.905,990.9,952.647,985.535,948.126Z" transform="translate(-950.574 -902.963)" fill="#82b378"/>
            <path id="Trazado_113870" data-name="Trazado 113870" d="M975.377,920.423s-5.767.33-8.42,5.242C966.957,925.665,971.465,926.468,975.377,920.423Z" transform="translate(-939.12 -885.876)" fill="#82b378"/>
            <path id="Trazado_113871" data-name="Trazado 113871" d="M988.928,920.47s.36,5.615,5.164,8.167C994.092,928.636,994.844,924.24,988.928,920.47Z" transform="translate(-952.672 -885.905)" fill="#82b378"/>
            <path id="Trazado_113872" data-name="Trazado 113872" d="M975.231,894.217s-5.2,2.514-5.769,8.068C969.462,902.284,973.934,901.3,975.231,894.217Z" transform="translate(-940.665 -869.712)" fill="#82b378"/>
            <path id="Trazado_113873" data-name="Trazado 113873" d="M984.534,894.262s2.484,5.049,7.9,5.566C992.433,899.828,991.443,895.478,984.534,894.262Z" transform="translate(-949.962 -869.74)" fill="#82b378"/>
            <g id="Grupo_81666" data-name="Grupo 81666" transform="translate(25.737 15.368)">
              <path id="Trazado_113874" data-name="Trazado 113874" d="M966.153,870.44s-5.509,4.539-4.568,11.375C961.584,881.815,966.666,879.324,966.153,870.44Z" transform="translate(-961.476 -870.414)" fill="#82b378"/>
              <path id="Trazado_113875" data-name="Trazado 113875" d="M973.712,870.417s4.46,5.336,11.112,4.373C984.824,874.79,982.364,869.856,973.712,870.417Z" transform="translate(-969.023 -870.372)" fill="#82b378"/>
            </g>
            <g id="Grupo_81667" data-name="Grupo 81667" transform="translate(19.666 7.611)">
              <path id="Trazado_113876" data-name="Trazado 113876" d="M949.41,851.294s-5.41,5.928-3.277,13.386C946.132,864.68,951.393,861.1,949.41,851.294Z" transform="translate(-945.634 -850.848)" fill="#82b378"/>
              <path id="Trazado_113877" data-name="Trazado 113877" d="M955.53,850.6s5.811,5.231,13.062,3.1C968.592,853.7,965.07,848.6,955.53,850.6Z" transform="translate(-951.738 -850.131)" fill="#82b378"/>
            </g>
            <g id="Grupo_81668" data-name="Grupo 81668" transform="translate(13.231 2.357)">
              <path id="Trazado_113878" data-name="Trazado 113878" d="M929.629,844.529s-2.759,7.536,2.043,13.629C931.672,858.158,935.183,852.852,929.629,844.529Z" transform="translate(-928.841 -841.422)" fill="#82b378"/>
              <path id="Trazado_113879" data-name="Trazado 113879" d="M930.957,839.539s7.361,2.636,13.263-2.083C944.22,837.456,939.027,834.072,930.957,839.539Z" transform="translate(-930.146 -836.42)" fill="#82b378"/>
            </g>
            <g id="Grupo_81669" data-name="Grupo 81669">
              <path id="Trazado_113880" data-name="Trazado 113880" d="M895.635,840.788c-.338.028-.676.053-1.019.078-1.37-7.484,2.35-10.6,2.35-10.6A13.5,13.5,0,0,1,895.635,840.788Z" transform="translate(-894.314 -830.269)" fill="#82b378"/>
            </g>
          </g>
          <g id="Grupo_81676" data-name="Grupo 81676" transform="translate(421.192 743.131)">
            <g id="Grupo_81671" data-name="Grupo 81671" transform="translate(12.251 10.809)">
              <path id="Trazado_113881" data-name="Trazado 113881" d="M628.811,865.481q.02.279.039.545c.021.264.047.536.074.817v0c.346,3.66,1.072,8.716,1.9,14.5.255,1.793.523,3.655.791,5.583.056.385.108.765.164,1.153v.009c.73,5.263,1.486,10.963,2.135,16.87.061.549.121,1.1.177,1.646v0c.4,3.725.748,7.518,1.02,11.338.026.333.048.665.069,1v0c.38,5.539.592,11.1.544,16.536,0,.333,0,.666-.008,1-.056,4.04-.259,8-.653,11.8-.069.674-.143,1.349-.225,2.01a.016.016,0,0,1,0,.013c-.311,2.6-.722,5.129-1.24,7.549q-.279,1.335-.609,2.631l.665.168q.318-1.25.592-2.541s0,0,0,0c.484-2.247.873-4.584,1.184-6.987a.048.048,0,0,1,0-.021q.175-1.374.32-2.783v-.013c.363-3.535.566-7.2.64-10.932,0,0,0,0,0-.009.009-.613.017-1.227.021-1.845.047-5.561-.173-11.265-.566-16.935v0c-.008-.16-.021-.32-.034-.48-.315-4.49-.743-8.953-1.223-13.3v0c0-.065-.013-.13-.022-.195-.665-6.019-1.439-11.809-2.182-17.141-.034-.247-.069-.489-.1-.726q-.4-2.845-.782-5.492c-.89-6.227-1.655-11.6-1.962-15.284l-.013-.155c-.013-.177-.026-.363-.035-.553-.255-4.848.8-11.982,3.236-19.631v0c.065-.2.134-.407.2-.609a79.782,79.782,0,0,1,8.028-17.362c.186-.3.372-.592.562-.886a59.7,59.7,0,0,1,5.224-6.944,44.746,44.746,0,0,1,8.245-7.432c.216-.151.432-.294.648-.437.376-.246.752-.484,1.132-.713a32.441,32.441,0,0,1,8.284-3.6.006.006,0,0,0,.008,0,31.214,31.214,0,0,1,6.745-1.059q.6-.025,1.18-.039.544-.013,1.076-.013c.13,0,.259,0,.389,0h0c11.831.09,19.592,4.684,24.574,9.787.346.031.691.056,1.042.082-5.142-5.527-13.387-10.634-26.264-10.557,0,0,0,0,0,0-.661,0-1.339.018-2.026.048a31.438,31.438,0,0,0-8.927,1.716,33.583,33.583,0,0,0-7.1,3.448c-.19.112-.376.238-.562.359a.066.066,0,0,0-.017.013.491.491,0,0,0-.048.03s0,0,0,0c-1.016.67-2.018,1.409-3,2.2l-.013.013a48.141,48.141,0,0,0-5.877,5.682,59.922,59.922,0,0,0-5.254,6.983c-.013.017-.021.034-.034.052a0,0,0,0,1,0,0,79.97,79.97,0,0,0-8.69,18.516c-.117.367-.233.73-.346,1.093C629.533,853.632,628.526,860.693,628.811,865.481Z" transform="translate(-628.764 -805.852)" fill="#82b378"/>
            </g>
            <path id="Trazado_113882" data-name="Trazado 113882" d="M643.628,1063.541s11.679,1.145,16.659,11.335C660.287,1074.876,651.07,1076.136,643.628,1063.541Z" transform="translate(-625.681 -953.986)" fill="#82b378"/>
            <path id="Trazado_113883" data-name="Trazado 113883" d="M646.71,1098.674s11.271,3.268,14.3,14.2C661.007,1112.874,651.715,1112.421,646.71,1098.674Z" transform="translate(-627.582 -975.656)" fill="#82b378"/>
            <path id="Trazado_113884" data-name="Trazado 113884" d="M647.935,1143.759s8.483,5,8.674,14.51C656.609,1158.269,649.15,1155.972,647.935,1143.759Z" transform="translate(-628.337 -1003.464)" fill="#82b378"/>
            <path id="Trazado_113885" data-name="Trazado 113885" d="M646.433,1176.9s6.829,7.092,4.456,16.307C650.888,1193.2,644.321,1188.986,646.433,1176.9Z" transform="translate(-627.153 -1023.903)" fill="#82b378"/>
            <path id="Trazado_113886" data-name="Trazado 113886" d="M634.608,1200.991s2.484,9.527-4.1,16.4C630.513,1217.393,626.85,1210.5,634.608,1200.991Z" transform="translate(-617.059 -1038.765)" fill="#82b378"/>
            <path id="Trazado_113887" data-name="Trazado 113887" d="M627.99,1176.9s-2.616,9.491-11.753,12.151C616.237,1189.047,616.514,1181.248,627.99,1176.9Z" transform="translate(-608.786 -1023.903)" fill="#82b378"/>
            <path id="Trazado_113888" data-name="Trazado 113888" d="M629.018,1143.759s-2.616,9.491-11.753,12.151C617.265,1155.91,617.542,1148.111,629.018,1143.759Z" transform="translate(-609.42 -1003.464)" fill="#82b378"/>
            <path id="Trazado_113889" data-name="Trazado 113889" d="M630.51,1097.976s-1.029,9.791-9.608,13.909C620.9,1111.885,619.9,1104.146,630.51,1097.976Z" transform="translate(-611.648 -975.225)" fill="#82b378"/>
            <path id="Trazado_113890" data-name="Trazado 113890" d="M625.624,1063.637s-1.195,11.37-11.156,16.152C614.468,1079.789,613.3,1070.8,625.624,1063.637Z" transform="translate(-607.677 -954.045)" fill="#82b378"/>
            <path id="Trazado_113891" data-name="Trazado 113891" d="M636.589,1016.958s11.7-.889,18.367,8.288C654.956,1025.246,646.1,1028.078,636.589,1016.958Z" transform="translate(-621.339 -925.239)" fill="#82b378"/>
            <path id="Trazado_113892" data-name="Trazado 113892" d="M622.932,1017.09s.787,11.405-8.2,17.837C614.734,1034.927,612.035,1026.275,622.932,1017.09Z" transform="translate(-607.676 -925.335)" fill="#82b378"/>
            <path id="Trazado_113893" data-name="Trazado 113893" d="M629.738,960.808s11.716.67,17.106,10.65C646.844,971.458,637.685,973.09,629.738,960.808Z" transform="translate(-617.113 -890.62)" fill="#82b378"/>
            <path id="Trazado_113894" data-name="Trazado 113894" d="M612.754,960.9s-.732,11.409-10.491,16.592C602.263,977.495,600.735,968.562,612.754,960.9Z" transform="translate(-600.128 -890.678)" fill="#82b378"/>
            <path id="Trazado_113895" data-name="Trazado 113895" d="M638.7,907.567s10.565,5.107,11.722,16.39C650.423,923.957,641.337,921.957,638.7,907.567Z" transform="translate(-622.642 -857.781)" fill="#82b378"/>
            <path id="Trazado_113896" data-name="Trazado 113896" d="M612.84,907.657s-5.047,10.258-16.047,11.307C596.793,918.965,598.8,910.128,612.84,907.657Z" transform="translate(-596.793 -857.836)" fill="#82b378"/>
            <g id="Grupo_81672" data-name="Grupo 81672" transform="translate(1.896 31.222)">
              <path id="Trazado_113897" data-name="Trazado 113897" d="M660.6,859.26s11.193,9.222,9.281,23.109C669.881,882.369,659.557,877.31,660.6,859.26Z" transform="translate(-638 -859.207)" fill="#82b378"/>
              <path id="Trazado_113898" data-name="Trazado 113898" d="M624.317,859.212s-9.06,10.841-22.575,8.885C601.742,868.1,606.74,858.073,624.317,859.212Z" transform="translate(-601.742 -859.122)" fill="#82b378"/>
            </g>
            <g id="Grupo_81673" data-name="Grupo 81673" transform="translate(12.089 15.464)">
              <path id="Trazado_113899" data-name="Trazado 113899" d="M696.223,820.362s10.992,12.043,6.658,27.2C702.88,847.557,692.193,840.286,696.223,820.362Z" transform="translate(-669.65 -819.457)" fill="#82b378"/>
              <path id="Trazado_113900" data-name="Trazado 113900" d="M654.879,818.943s-11.807,10.627-26.538,6.3C628.341,825.244,635.5,814.882,654.879,818.943Z" transform="translate(-628.341 -817.999)" fill="#82b378"/>
            </g>
            <g id="Grupo_81674" data-name="Grupo 81674" transform="translate(30.812 4.789)">
              <path id="Trazado_113901" data-name="Trazado 113901" d="M737.376,806.618s5.605,15.311-4.15,27.688C733.226,834.307,726.094,823.526,737.376,806.618Z" transform="translate(-710.385 -800.305)" fill="#82b378"/>
              <path id="Trazado_113902" data-name="Trazado 113902" d="M704.145,796.478s-14.954,5.356-26.946-4.232C677.2,792.246,687.75,785.371,704.145,796.478Z" transform="translate(-677.199 -790.143)" fill="#82b378"/>
            </g>
            <g id="Grupo_81675" data-name="Grupo 81675" transform="translate(79.763 0)">
              <path id="Trazado_113903" data-name="Trazado 113903" d="M808.78,799.017c.687.056,1.374.108,2.07.16,2.783-15.206-4.775-21.532-4.775-21.532C803.146,786.758,806.572,795.024,808.78,799.017Z" transform="translate(-804.943 -777.645)" fill="#82b378"/>
            </g>
          </g>
          <g id="Grupo_81682" data-name="Grupo 81682" transform="translate(774.056 766.916)">
            <g id="Grupo_81677" data-name="Grupo 81677" transform="translate(1.345 5.321)">
              <path id="Trazado_113904" data-name="Trazado 113904" d="M1556.209,882.95c-.006.092-.013.181-.019.268-.011.13-.023.264-.036.4v0c-.17,1.8-.527,4.29-.934,7.138-.125.883-.257,1.8-.389,2.748-.028.189-.053.377-.081.568v0c-.36,2.591-.732,5.4-1.051,8.3-.029.27-.059.541-.087.81v0c-.2,1.834-.368,3.7-.5,5.581-.013.164-.023.327-.034.491v0c-.187,2.726-.291,5.466-.268,8.139,0,.164,0,.328,0,.491.028,1.989.128,3.937.321,5.811.034.332.07.664.111.989a.008.008,0,0,0,0,.006c.153,1.281.355,2.525.61,3.715q.137.658.3,1.3l-.328.083q-.156-.616-.291-1.25s0,0,0,0c-.238-1.106-.43-2.257-.583-3.44a.021.021,0,0,0,0-.01c-.057-.451-.11-.909-.157-1.37v-.006c-.179-1.74-.279-3.543-.315-5.381,0,0,0,0,0,0,0-.3-.009-.6-.011-.908-.023-2.737.085-5.545.279-8.335v0c0-.078.01-.157.017-.236.155-2.21.366-4.407.6-6.547v0c0-.032.007-.064.01-.1.328-2.963.708-5.813,1.074-8.437.017-.121.034-.24.049-.357q.2-1.4.385-2.7c.438-3.065.814-5.708.966-7.523,0-.026,0-.051.006-.077.007-.087.013-.179.017-.272a29.354,29.354,0,0,0-1.593-9.662v0c-.032-.1-.066-.2-.1-.3a39.275,39.275,0,0,0-3.951-8.545c-.092-.147-.183-.292-.277-.436a29.481,29.481,0,0,0-2.571-3.418,22.029,22.029,0,0,0-4.058-3.658c-.106-.075-.213-.145-.319-.215q-.277-.182-.557-.351a15.978,15.978,0,0,0-4.077-1.77s0,0,0,0a15.373,15.373,0,0,0-3.32-.521q-.293-.013-.581-.019-.268-.007-.53-.007c-.064,0-.127,0-.192,0h0a16.388,16.388,0,0,0-12.1,4.818c-.171.015-.341.028-.513.04,2.531-2.72,6.589-5.234,12.927-5.2,0,0,0,0,0,0,.326,0,.66.008,1,.023a15.461,15.461,0,0,1,4.394.845,16.505,16.505,0,0,1,3.492,1.7c.094.055.185.117.277.176l.009.006.023.015s0,0,0,0c.5.33.993.694,1.479,1.085l.006.006a23.754,23.754,0,0,1,2.892,2.8,29.518,29.518,0,0,1,2.586,3.437c.007.008.01.017.017.025a0,0,0,0,0,0,0,39.383,39.383,0,0,1,4.277,9.114c.057.181.115.359.17.538A29.081,29.081,0,0,1,1556.209,882.95Z" transform="translate(-1521.137 -853.601)" fill="#82b378"/>
            </g>
            <path id="Trazado_113905" data-name="Trazado 113905" d="M1592.207,980.437s-5.748.564-8.2,5.579C1584.007,986.016,1588.544,986.636,1592.207,980.437Z" transform="translate(-1558.57 -926.513)" fill="#82b378"/>
            <path id="Trazado_113906" data-name="Trazado 113906" d="M1592.561,997.73s-5.548,1.609-7.037,6.989C1585.524,1004.719,1590.1,1004.5,1592.561,997.73Z" transform="translate(-1559.506 -937.179)" fill="#82b378"/>
            <path id="Trazado_113907" data-name="Trazado 113907" d="M1596.414,1019.921s-4.175,2.459-4.269,7.142C1592.145,1027.063,1595.816,1025.932,1596.414,1019.921Z" transform="translate(-1563.59 -950.866)" fill="#82b378"/>
            <path id="Trazado_113908" data-name="Trazado 113908" d="M1599.766,1036.231s-3.361,3.491-2.193,8.027C1597.573,1044.258,1600.805,1042.182,1599.766,1036.231Z" transform="translate(-1566.786 -960.927)" fill="#82b378"/>
            <path id="Trazado_113909" data-name="Trazado 113909" d="M1605.552,1048.091s-1.222,4.689,2.016,8.073C1607.567,1056.164,1609.37,1052.772,1605.552,1048.091Z" transform="translate(-1571.719 -968.242)" fill="#82b378"/>
            <path id="Trazado_113910" data-name="Trazado 113910" d="M1603.791,1036.231s1.288,4.672,5.785,5.981C1609.576,1042.212,1609.439,1038.373,1603.791,1036.231Z" transform="translate(-1570.773 -960.927)" fill="#82b378"/>
            <path id="Trazado_113911" data-name="Trazado 113911" d="M1603.285,1019.921s1.288,4.671,5.785,5.981C1609.07,1025.9,1608.933,1022.063,1603.285,1019.921Z" transform="translate(-1570.461 -950.866)" fill="#82b378"/>
            <path id="Trazado_113912" data-name="Trazado 113912" d="M1604.23,997.386s.507,4.819,4.729,6.847C1608.959,1004.233,1609.452,1000.422,1604.23,997.386Z" transform="translate(-1571.044 -936.967)" fill="#82b378"/>
            <path id="Trazado_113913" data-name="Trazado 113913" d="M1605.405,980.484s.588,5.6,5.491,7.95C1610.9,988.434,1611.469,984.01,1605.405,980.484Z" transform="translate(-1571.768 -926.542)" fill="#82b378"/>
            <path id="Trazado_113914" data-name="Trazado 113914" d="M1594.318,957.508s-5.759-.438-9.04,4.079C1585.278,961.588,1589.64,962.982,1594.318,957.508Z" transform="translate(-1559.354 -912.363)" fill="#82b378"/>
            <path id="Trazado_113915" data-name="Trazado 113915" d="M1608.848,957.574s-.387,5.614,4.035,8.779C1612.884,966.353,1614.212,962.1,1608.848,957.574Z" transform="translate(-1573.887 -912.411)" fill="#82b378"/>
            <path id="Trazado_113916" data-name="Trazado 113916" d="M1598.69,929.871s-5.767.33-8.419,5.242C1590.271,935.113,1594.779,935.917,1598.69,929.871Z" transform="translate(-1562.434 -895.324)" fill="#82b378"/>
            <path id="Trazado_113917" data-name="Trazado 113917" d="M1612.24,929.917s.361,5.616,5.164,8.167C1617.4,938.084,1618.156,933.687,1612.24,929.917Z" transform="translate(-1575.984 -895.352)" fill="#82b378"/>
            <path id="Trazado_113918" data-name="Trazado 113918" d="M1598.543,903.665s-5.2,2.514-5.769,8.068C1592.774,911.733,1597.246,910.748,1598.543,903.665Z" transform="translate(-1563.978 -879.16)" fill="#82b378"/>
            <path id="Trazado_113919" data-name="Trazado 113919" d="M1607.847,903.709s2.484,5.049,7.9,5.566C1615.745,909.275,1614.756,904.925,1607.847,903.709Z" transform="translate(-1573.275 -879.187)" fill="#82b378"/>
            <g id="Grupo_81678" data-name="Grupo 81678" transform="translate(25.736 15.368)">
              <path id="Trazado_113920" data-name="Trazado 113920" d="M1589.465,879.888s-5.51,4.539-4.568,11.374C1584.9,891.262,1589.979,888.772,1589.465,879.888Z" transform="translate(-1584.789 -879.862)" fill="#82b378"/>
              <path id="Trazado_113921" data-name="Trazado 113921" d="M1597.025,879.865s4.459,5.336,11.112,4.373C1608.137,884.238,1605.677,879.3,1597.025,879.865Z" transform="translate(-1592.336 -879.82)" fill="#82b378"/>
            </g>
            <g id="Grupo_81679" data-name="Grupo 81679" transform="translate(19.666 7.612)">
              <path id="Trazado_113922" data-name="Trazado 113922" d="M1572.722,860.742s-5.41,5.928-3.277,13.386C1569.445,874.128,1574.706,870.549,1572.722,860.742Z" transform="translate(-1568.947 -860.296)" fill="#82b378"/>
              <path id="Trazado_113923" data-name="Trazado 113923" d="M1578.842,860.043s5.812,5.23,13.063,3.1C1591.9,863.145,1588.382,858.045,1578.842,860.043Z" transform="translate(-1575.05 -859.579)" fill="#82b378"/>
            </g>
            <g id="Grupo_81680" data-name="Grupo 81680" transform="translate(13.231 2.357)">
              <path id="Trazado_113924" data-name="Trazado 113924" d="M1552.942,853.977s-2.759,7.536,2.043,13.629C1554.985,867.606,1558.5,862.3,1552.942,853.977Z" transform="translate(-1552.153 -850.87)" fill="#82b378"/>
              <path id="Trazado_113925" data-name="Trazado 113925" d="M1554.27,848.986s7.361,2.637,13.263-2.083C1567.533,846.9,1562.34,843.52,1554.27,848.986Z" transform="translate(-1553.459 -845.868)" fill="#82b378"/>
            </g>
            <g id="Grupo_81681" data-name="Grupo 81681" transform="translate(0 0)">
              <path id="Trazado_113926" data-name="Trazado 113926" d="M1518.948,850.236c-.338.028-.676.053-1.018.079-1.37-7.484,2.35-10.6,2.35-10.6A13.5,13.5,0,0,1,1518.948,850.236Z" transform="translate(-1517.627 -839.716)" fill="#82b378"/>
            </g>
          </g>
          <path id="Trazado_113927" data-name="Trazado 113927" d="M1069.324,799.223s-20.037,3.333-21.166,0,6.491-7.566,16.086-9.259,17.5-12.418,31.044-10.724,18.062,9.313,25.117,6.491,21.448-8.749,34.713-4.516,22.012,8.906,16.086,10.379S1094.755,792.623,1069.324,799.223Z" transform="translate(-453.934 -35.386)" fill="#82b378"/>
          <path id="Trazado_113928" data-name="Trazado 113928" d="M1337.164,802.977s8.749-5.08,0-9.6-9.6-6.491-27.94-2.54-26.536-1.318-39.51,3.669-12.418,10.4-5.08,10.987,34.995-4.5,45.437-2.238S1334.1,805.744,1337.164,802.977Z" transform="translate(-584.335 -41.344)" fill="#a8d29f"/>
          <path id="Trazado_113929" data-name="Trazado 113929" d="M1522.353,848.636a23.854,23.854,0,0,1,12.314-1.386c6.48,1.152,17.2-2.869,11.842-6.044s-10.428,1.081-22.436-1.094-12.841,5.341-18.908,5.264-13.687-.924-16.51,1.334-20.114,3.419-21.345,4.885,2.861,2.55,11.327.808,7.056.9,15.522,0S1517.387,851.268,1522.353,848.636Z" transform="translate(-712.403 -72.8)" fill="#82b378"/>
          <g id="Grupo_81687" data-name="Grupo 81687" transform="translate(629.41 816.815)">
            <path id="Trazado_113930" data-name="Trazado 113930" d="M1665.956,985.1s4.082-16.486,27.027-9.68c10.167,3.016,20.149,11.815,25.836,19.9,0,0,1.62,2.816-1.669,4.457s-5.343-3.739-7.595-5.746c0,0,7.616,11.068,8.613,19.93s-2.195,8.788-3.626,7.646c0,0,12.855,13.9,6.59,19.958s-38.145,5.761-42.086.333-3.687-14.142-3.687-14.142-1.14,7.767-2.6,6.139-4.517-7.219-.029-18S1659.922,999.964,1665.956,985.1Z" transform="translate(-1463.673 -972.3)" fill="#180000"/>
            <path id="Trazado_113931" data-name="Trazado 113931" d="M1637.389,1089.558s-5.31.463-11.134,8.677c-7.73,10.9-22.717,20.8-21.385,24.436.848,2.313,2.246,4.427,5.391,4.209,6.624-.461,23.733-9.773,27.128-16.116C1642.4,1101.409,1637.389,1089.558,1637.389,1089.558Z" transform="translate(-1426.742 -1043.718)" fill="#ffb27d"/>
            <path id="Trazado_113932" data-name="Trazado 113932" d="M1526.536,1123.717s-3.091-2.2-5.325-2.462c-4.124-.488-6.723-.778-6.723-.778-1.246-1.912-5.277-8.895-3.315-9.8s3.113,3.792,5.048,3.614,6.437-2.306,7.3-1.017a54.224,54.224,0,0,0,5.245,5.093Z" transform="translate(-1368.674 -1056.67)" fill="#ffb27d"/>
            <path id="Trazado_113933" data-name="Trazado 113933" d="M1761.576,1372.1c4.717,8.939,6.46,26.3,6.505,41.849.041,14.945-.367,28.261-.367,28.261l-10.422,2.967s-2.328-12.827-5.885-30.215c-2.625-12.815-5.925-28.113-9.452-42.584-.861-3.523-1.682-7.059-2.461-10.568-5.439-24.4-8.9-47.166-8.945-50.52-.085-6.654,21.856-1.22,24.14,6.253C1754.689,1317.543,1759.653,1368.456,1761.576,1372.1Z" transform="translate(-1504.312 -1178.629)" fill="#ffb27d"/>
            <path id="Trazado_113934" data-name="Trazado 113934" d="M1780.7,1670.452l-27.816-.118s.006-3.21,4.478-3.915c4.168-.656,11.18-3.75,13.21-8.781,2.831.948,6.749-1.272,10.917-.283C1781.749,1662.822,1781.944,1669.844,1780.7,1670.452Z" transform="translate(-1518.09 -1393.774)" fill="#ffb27d"/>
            <path id="Trazado_113935" data-name="Trazado 113935" d="M1718.07,1102.585c-.089,5.545-.953,11.793-2.087,20.357a66.885,66.885,0,0,1-3.069,12.467c-1.685,3.988-3.573,4.631-3.573,4.631l-14.613,3.666-5.135,1.287-16.183-5.029s-7.332-21.276-4.344-33.24c.4-1.617.834-3.166,1.279-4.639a90.468,90.468,0,0,1,6.248-15.625,92.084,92.084,0,0,1,26.233-1.588h0c.893.085,1.8.186,2.7.305,4.826.643,9.372,1.4,11.523,7.252C1718.074,1095.206,1718.113,1100.07,1718.07,1102.585Z" transform="translate(-1465.948 -1040.621)" fill="#180000"/>
            <path id="Trazado_113936" data-name="Trazado 113936" d="M1699.26,1329.375c4.032,9.269,4.465,26.71,3.34,42.22-1.083,14.905-2.49,28.153-2.49,28.153l-10.616,2.175s-1.356-12.966-3.6-30.572c-1.654-12.977-3.794-28.479-6.224-43.174-.593-3.578-1.145-7.166-1.659-10.724-3.589-24.738-5.326-47.7-5.121-51.05.416-6.642,2.831-20.408,3.86-26.106.291-1.586.472-2.549.472-2.549l21.7.046s.554.6,1.4,1.73a42.291,42.291,0,0,1,7.156,15.721S1697.616,1325.6,1699.26,1329.375Z" transform="translate(-1468.74 -1135.122)" fill="#ffb27d"/>
            <path id="Trazado_113937" data-name="Trazado 113937" d="M1722.758,1067.23c-.968-2.73-1.317-6-1.289-11.045l-.734.143-12.333,2.415s.272,3.88.273,7.535v.091c.009,3.174,1.141,4.466,2.4,4.592C1714.787,1071.333,1723.563,1069.5,1722.758,1067.23Z" transform="translate(-1490.652 -1023.133)" fill="#ffb27d"/>
            <path id="Trazado_113938" data-name="Trazado 113938" d="M1708.4,1058.974s.272,3.88.273,7.535c6.9-.18,10.559-6.465,12.06-9.95Z" transform="translate(-1490.652 -1023.364)" fill="#e8945b"/>
            <path id="Trazado_113939" data-name="Trazado 113939" d="M1694.677,1024.355s16.159,2.317,17.447-7.768,4.241-16.578-6.021-18.484-12.762,1.686-14.011,4.948S1690.507,1023.492,1694.677,1024.355Z" transform="translate(-1480.078 -986.98)" fill="#ffb27d"/>
            <path id="Trazado_113940" data-name="Trazado 113940" d="M1695.776,1669.778l-28.413.234s.6-3.562,5.075-4.267c4.169-.656,11.3-3.786,13.327-8.817,2.951-.262,6.66.956,11.1-.815C1697.125,1661.581,1697.017,1669.171,1695.776,1669.778Z" transform="translate(-1465.339 -1393.168)" fill="#ffb27d"/>
            <path id="Trazado_113941" data-name="Trazado 113941" d="M1552.116,1134.02l22.516,15.3s9.07-11.1,3.873-12.6a221.106,221.106,0,0,1-25.734-9.462S1554.039,1127.128,1552.116,1134.02Z" transform="translate(-1394.254 -1066.973)" fill="#ffb27d"/>
            <path id="Trazado_113942" data-name="Trazado 113942" d="M1693.323,994.5s4.124-.212,5.766,3.034,2.348,7.2,3.759,6,.782-4.407.782-4.407a11.05,11.05,0,0,1,2.675,6.382c.071,3.528.325,5.433,2.314,4.657s2.695-17.921,2.695-17.921l-16.439-2.187L1683.3,995.49l1.552,5.957s-.277,1.766,1.7.586S1689.755,993.681,1693.323,994.5Z" transform="translate(-1475.172 -982.345)" fill="#180000"/>
            <path id="Trazado_113943" data-name="Trazado 113943" d="M1694.236,972.459s10.275-6.315,27.454,1.022c0,0,2.912,1.764.733,3.387s-3.59-1.058-8.388-.988S1694.236,972.459,1694.236,972.459Z" transform="translate(-1481.914 -969.932)" fill="#180000"/>
            <path id="Trazado_113944" data-name="Trazado 113944" d="M1669.265,1148.621s-1.565,62.426,0,79.076a19.214,19.214,0,0,0,16.156,9.031c11.091,0,9.749,5.08,17.475,10.442s11.4,6.135,11.4,6.135,8.4-3.03,11.394-13.472,8.643-11.889,9.208-18.644-16.72-63.712-16.685-89.56Z" transform="translate(-1466.083 -1069.667)" fill="#180000"/>
            <path id="Trazado_113945" data-name="Trazado 113945" d="M1653.328,1098.588a5.944,5.944,0,0,0-3.029,2.364c-3.915,5.887-18.97,27.4-32.822,32.02-16.086,5.362-28.83,10.16-28.83,10.16v5.009s26.855-.391,35.956-3.688,29.439-20.144,34.073-24.675C1667.781,1110.876,1664.661,1094.774,1653.328,1098.588Z" transform="translate(-1416.786 -1048.933)" fill="#ffb27d"/>
            <g id="Grupo_81683" data-name="Grupo 81683" transform="translate(207.773 55.277)">
              <path id="Trazado_113946" data-name="Trazado 113946" d="M1770.376,1329.043a1.737,1.737,0,0,1,.535-.845,2.276,2.276,0,0,1,1.617-.259,2.322,2.322,0,0,1,.8.171,2.163,2.163,0,0,1,.86.96,15.107,15.107,0,0,1,1.268,2.945,1.47,1.47,0,0,1,.028,1.108c-.312.588-1.277.475-1.675-.059-1.036-1.39-1.493.741-2.714-.429A3.741,3.741,0,0,1,1770.376,1329.043Z" transform="translate(-1736.542 -1246.009)" fill="#f77d48"/>
              <path id="Trazado_113947" data-name="Trazado 113947" d="M1765.665,1222.642a1.743,1.743,0,0,1,.535-.845,2.277,2.277,0,0,1,1.618-.259,2.331,2.331,0,0,1,.8.17,2.167,2.167,0,0,1,.86.96,15.106,15.106,0,0,1,1.268,2.946,1.468,1.468,0,0,1,.029,1.108c-.312.588-1.277.475-1.675-.059-1.036-1.39-1.494.741-2.714-.428A3.743,3.743,0,0,1,1765.665,1222.642Z" transform="translate(-1733.637 -1180.381)" fill="#f77d48"/>
              <path id="Trazado_113948" data-name="Trazado 113948" d="M1691.193,1280.659a1.738,1.738,0,0,1,.535-.845,2.278,2.278,0,0,1,1.618-.259,2.312,2.312,0,0,1,.8.171,2.166,2.166,0,0,1,.86.96,15.05,15.05,0,0,1,1.267,2.945,1.467,1.467,0,0,1,.029,1.108c-.312.588-1.277.475-1.675-.059-1.036-1.39-1.494.741-2.714-.429A3.743,3.743,0,0,1,1691.193,1280.659Z" transform="translate(-1687.703 -1216.166)" fill="#f77d48"/>
              <path id="Trazado_113949" data-name="Trazado 113949" d="M1798.3,1314.406a1.741,1.741,0,0,1,.535-.845,2.278,2.278,0,0,1,1.618-.259,2.316,2.316,0,0,1,.8.17,2.167,2.167,0,0,1,.859.96,15.1,15.1,0,0,1,1.268,2.946,1.468,1.468,0,0,1,.029,1.108c-.313.588-1.277.475-1.675-.059-1.036-1.39-1.494.741-2.714-.429A3.741,3.741,0,0,1,1798.3,1314.406Z" transform="translate(-1753.769 -1236.981)" fill="#f77d48"/>
              <path id="Trazado_113950" data-name="Trazado 113950" d="M1752.549,1383.219a1.73,1.73,0,0,1,.535-.845,2.273,2.273,0,0,1,1.617-.259,2.318,2.318,0,0,1,.8.17,2.169,2.169,0,0,1,.86.96,15.112,15.112,0,0,1,1.268,2.946,1.467,1.467,0,0,1,.028,1.108c-.312.588-1.276.475-1.675-.059-1.036-1.39-1.494.741-2.714-.429A3.741,3.741,0,0,1,1752.549,1383.219Z" transform="translate(-1725.547 -1279.425)" fill="#f77d48"/>
              <path id="Trazado_113951" data-name="Trazado 113951" d="M1781.122,1411.734a1.739,1.739,0,0,1,.535-.845,2.276,2.276,0,0,1,1.618-.259,2.316,2.316,0,0,1,.8.17,2.161,2.161,0,0,1,.859.96,15.075,15.075,0,0,1,1.268,2.945,1.464,1.464,0,0,1,.028,1.108c-.312.588-1.276.475-1.674-.059-1.036-1.39-1.493.741-2.714-.429A3.74,3.74,0,0,1,1781.122,1411.734Z" transform="translate(-1743.171 -1297.013)" fill="#f77d48"/>
              <path id="Trazado_113952" data-name="Trazado 113952" d="M1707.545,1371.835c.593.526.283,1.478.294,2.271,0,.313.067.624.06.936a2.291,2.291,0,0,1-.96,1.765,2.727,2.727,0,0,1-1.98.453c-.674-.1-1.3-.431-1.983-.483a14.586,14.586,0,0,0-2.284.3,1.72,1.72,0,0,1-1.886-.979,1.848,1.848,0,0,1,.1-1.043c.281-.854.91-1.753,1.809-1.753a6.911,6.911,0,0,1,1.444.4C1704.127,1374.139,1705.475,1370,1707.545,1371.835Z" transform="translate(-1692.481 -1272.812)" fill="#f77d48"/>
              <path id="Trazado_113953" data-name="Trazado 113953" d="M1741.942,1293.572c-.694-.384-.6-1.381-.783-2.152-.073-.3-.2-.594-.263-.9a2.291,2.291,0,0,1,.551-1.932,2.729,2.729,0,0,1,1.834-.874c.68-.048,1.365.136,2.04.039a14.535,14.535,0,0,0,2.162-.8,1.719,1.719,0,0,1,2.054.543,1.84,1.84,0,0,1,.129,1.04c-.088.895-.506,1.91-1.383,2.106a6.933,6.933,0,0,1-1.494-.071C1744.774,1290.577,1744.362,1294.911,1741.942,1293.572Z" transform="translate(-1718.442 -1220.68)" fill="#f77d48"/>
              <path id="Trazado_113954" data-name="Trazado 113954" d="M1769.247,1260.332c.172-.774,1.156-.965,1.843-1.359.271-.155.512-.361.79-.507a2.292,2.292,0,0,1,2.009-.016,2.729,2.729,0,0,1,1.356,1.512c.239.638.256,1.349.54,1.968a14.507,14.507,0,0,0,1.374,1.849,1.719,1.719,0,0,1,.06,2.124,1.846,1.846,0,0,1-.962.417,2.221,2.221,0,0,1-2.411-.731,6.927,6.927,0,0,1-.354-1.454C1772.921,1262.2,1768.647,1263.032,1769.247,1260.332Z" transform="translate(-1735.918 -1203.03)" fill="#f77d48"/>
              <path id="Trazado_113955" data-name="Trazado 113955" d="M1691.077,1233.761c.172-.773,1.155-.965,1.843-1.359.272-.155.512-.361.789-.506a2.292,2.292,0,0,1,2.009-.016,2.726,2.726,0,0,1,1.356,1.512c.239.638.256,1.348.54,1.968a14.488,14.488,0,0,0,1.374,1.849,1.719,1.719,0,0,1,.059,2.124,1.846,1.846,0,0,1-.962.417,2.219,2.219,0,0,1-2.411-.732,6.914,6.914,0,0,1-.354-1.454C1694.751,1235.631,1690.477,1236.461,1691.077,1233.761Z" transform="translate(-1687.703 -1186.641)" fill="#f77d48"/>
              <path id="Trazado_113956" data-name="Trazado 113956" d="M1736.979,1197.723a1.737,1.737,0,0,1-.243-.969,2.273,2.273,0,0,1,.928-1.35,2.328,2.328,0,0,1,.677-.464,2.162,2.162,0,0,1,1.288.04,15.068,15.068,0,0,1,3.008,1.113,1.467,1.467,0,0,1,.822.743c.21.632-.536,1.252-1.2,1.172-1.721-.209-.494,1.592-2.182,1.67A3.743,3.743,0,0,1,1736.979,1197.723Z" transform="translate(-1715.897 -1163.942)" fill="#f77d48"/>
              <path id="Trazado_113957" data-name="Trazado 113957" d="M1763.94,1169.413a1.734,1.734,0,0,1-.243-.969,2.271,2.271,0,0,1,.928-1.349,2.324,2.324,0,0,1,.677-.465,2.164,2.164,0,0,1,1.288.039,15.1,15.1,0,0,1,3.007,1.113,1.47,1.47,0,0,1,.823.744c.21.631-.537,1.252-1.2,1.172-1.721-.208-.494,1.593-2.182,1.67A3.741,3.741,0,0,1,1763.94,1169.413Z" transform="translate(-1732.526 -1146.481)" fill="#f77d48"/>
              <path id="Trazado_113958" data-name="Trazado 113958" d="M1683.448,1136.479c-.693-.383-.6-1.381-.782-2.152-.073-.3-.2-.593-.263-.9a2.29,2.29,0,0,1,.552-1.932,2.727,2.727,0,0,1,1.833-.874c.68-.048,1.366.136,2.04.038a14.469,14.469,0,0,0,2.162-.8,1.72,1.72,0,0,1,2.055.543,1.849,1.849,0,0,1,.128,1.04c-.088.895-.505,1.909-1.383,2.106a6.935,6.935,0,0,1-1.495-.071C1686.281,1133.483,1685.869,1137.818,1683.448,1136.479Z" transform="translate(-1682.364 -1123.785)" fill="#f77d48"/>
              <path id="Trazado_113959" data-name="Trazado 113959" d="M1709.059,1115.517c.109-.49.732-.61,1.167-.86.172-.1.324-.229.5-.32a1.452,1.452,0,0,1,1.271-.011,1.725,1.725,0,0,1,.858.957c.151.4.162.853.342,1.245a9.2,9.2,0,0,0,.869,1.17,1.087,1.087,0,0,1,.037,1.344,1.166,1.166,0,0,1-.608.264,1.405,1.405,0,0,1-1.526-.463,4.38,4.38,0,0,1-.224-.92C1711.385,1116.7,1708.679,1117.226,1709.059,1115.517Z" transform="translate(-1698.807 -1114.184)" fill="#f77d48"/>
              <path id="Trazado_113960" data-name="Trazado 113960" d="M1785.585,1357.053c-.149-.779.677-1.345,1.152-1.98.187-.251.326-.535.523-.779a2.293,2.293,0,0,1,1.837-.814,2.733,2.733,0,0,1,1.846.849c.472.491.771,1.135,1.277,1.591a14.519,14.519,0,0,0,2,1.151,1.719,1.719,0,0,1,.9,1.925,1.84,1.84,0,0,1-.717.765,2.218,2.218,0,0,1-2.5.287,6.894,6.894,0,0,1-.9-1.193C1789.7,1357.309,1786.108,1359.769,1785.585,1357.053Z" transform="translate(-1746.02 -1261.781)" fill="#f77d48"/>
              <path id="Trazado_113961" data-name="Trazado 113961" d="M1738.332,1340.93a2.247,2.247,0,0,0,1.019,1.327c-.273.679-.689,1.436-1.414,1.547a1.683,1.683,0,0,1-1.046-.247,3.375,3.375,0,0,1-1.464-1.626,1.187,1.187,0,0,0-.163-.313,2.337,2.337,0,0,0-.489-.328.9.9,0,0,1,.1-1.511c.259-.144.583-.136.855-.261a5.617,5.617,0,0,0,.6-.393,1.07,1.07,0,0,1,1.318.028C1738.409,1339.645,1738.227,1340.163,1738.332,1340.93Z" transform="translate(-1714.465 -1252.796)" fill="#f77d48"/>
              <path id="Trazado_113962" data-name="Trazado 113962" d="M1695.009,1336.248a2.952,2.952,0,0,0,1.338,1.742c-.358.892-.9,1.885-1.855,2.03a2.206,2.206,0,0,1-1.374-.324,4.431,4.431,0,0,1-1.921-2.135,1.556,1.556,0,0,0-.215-.41,3.082,3.082,0,0,0-.641-.43,1.18,1.18,0,0,1,.134-1.983c.34-.189.764-.179,1.122-.343a7.442,7.442,0,0,0,.794-.516,1.4,1.4,0,0,1,1.73.038C1695.111,1334.561,1694.872,1335.242,1695.009,1336.248Z" transform="translate(-1686.989 -1249.52)" fill="#f77d48"/>
              <path id="Trazado_113963" data-name="Trazado 113963" d="M1716.33,1308.392a2.772,2.772,0,0,1,.325,2.509,1.863,1.863,0,0,1-1.558,1.291,1.757,1.757,0,0,1-1.322-.633,3.788,3.788,0,0,1-.7-1.329,2.589,2.589,0,0,1-.107-1.737.862.862,0,0,1,.507-.539,1.191,1.191,0,0,1,.683.064l1.009.3a.826.826,0,0,0,.575.027c.178-.082.256-.371.087-.472Z" transform="translate(-1701.171 -1233.651)" fill="#f77d48"/>
              <path id="Trazado_113964" data-name="Trazado 113964" d="M1739.16,1251.126a2.772,2.772,0,0,1,.325,2.509,1.862,1.862,0,0,1-1.558,1.291,1.754,1.754,0,0,1-1.322-.632,3.786,3.786,0,0,1-.7-1.33,2.588,2.588,0,0,1-.107-1.737.863.863,0,0,1,.507-.539,1.2,1.2,0,0,1,.683.063l1.009.3a.828.828,0,0,0,.575.028c.179-.083.256-.372.087-.472Z" transform="translate(-1715.253 -1198.329)" fill="#f77d48"/>
            </g>
            <path id="Trazado_113965" data-name="Trazado 113965" d="M1706.037,1084.872c-.457.136-25.789,7.692-32.481,17.234v-.021a90.445,90.445,0,0,1,6.248-15.625A92.084,92.084,0,0,1,1706.037,1084.872Z" transform="translate(-1469.159 -1040.621)" fill="#ffb27d"/>
            <path id="Trazado_113966" data-name="Trazado 113966" d="M1309.583,1098.036c.026,2.2-.013,4.458-.1,6.714a250.862,250.862,0,0,1-2.688,26.7s-14.021-3.091-23.829-4.716-27.274-20.167-29.437-16.455-13.076,14.067-12.175,25.463-5.982,20.269-5.982,20.269c-84.931-20.417-94.49-89.224-95.209-112.985a35,35,0,0,1,2.623-2.645,13.946,13.946,0,0,1,11.262-3.466c79.521,10.992,106.25.556,115.226-7.44a4.322,4.322,0,0,1,6.97,1.769c3.83,10.787,10.6,21.528,16.946,30.628.076.106.152.216.224.322q.7,1,1.388,1.96c1.384,1.955,2.735,3.818,4.018,5.579l.364.5c1.884,2.583,3.6,4.932,5.033,6.989.876,1.257,1.643,2.4,2.281,3.429,1.88,3.027,2.743,8.28,3.006,14.291.03.724.051,1.464.068,2.21Q1309.576,1097.6,1309.583,1098.036Z" transform="translate(-1140.16 -1005.974)" fill="#632e1a"/>
            <g id="Grupo_81684" data-name="Grupo 81684" transform="translate(158.21 87.871)">
              <path id="Trazado_113967" data-name="Trazado 113967" d="M1582.467,1204.344s-2.779-4-3.28-5.1a1.469,1.469,0,0,0-.778,1.2,3.22,3.22,0,0,0,1.124,2.732A7.379,7.379,0,0,0,1582.467,1204.344Z" transform="translate(-1568.681 -1199.24)" fill="#ffb27d"/>
              <path id="Trazado_113968" data-name="Trazado 113968" d="M1568.366,1207.4s-7.535-6.227-10.067-5.008-5.566,3.673-5.252,4.6,4.8,1.491,5.65,2.03,1.609,2.075,2.953,2.494a54.943,54.943,0,0,0,5.89.91Z" transform="translate(-1553.025 -1201.084)" fill="#ffb27d"/>
            </g>
            <path id="Trazado_113969" data-name="Trazado 113969" d="M1541.9,1120.187s-3.507-4.74-4.076-5.269-3.97.62-5.08.843-.33.65.211,1.272,3.259-.142,4.13.7,3.637,5.1,4.275,4.216A2.757,2.757,0,0,0,1541.9,1120.187Z" transform="translate(-1381.957 -1059.275)" fill="#ffb27d"/>
            <g id="Grupo_81685" data-name="Grupo 81685" transform="translate(21.262 45.408)">
              <path id="Trazado_113970" data-name="Trazado 113970" d="M1272.523,1231.84a3,3,0,0,0,1.625-.571,3.92,3.92,0,0,0,1.06-2.615,3.993,3.993,0,0,0,.025-1.414,3.733,3.733,0,0,0-1.28-1.814,26.043,26.043,0,0,0-4.454-3.267,2.531,2.531,0,0,0-1.849-.476c-1.108.3-1.291,1.96-.549,2.834,1.933,2.276-1.821,2.221-.329,4.722A6.445,6.445,0,0,0,1272.523,1231.84Z" transform="translate(-1239.294 -1170.591)" fill="#edc5a2"/>
              <path id="Trazado_113971" data-name="Trazado 113971" d="M1200.951,1104.34a2.6,2.6,0,0,0,1.411-.5,3.407,3.407,0,0,0,.92-2.271,3.474,3.474,0,0,0,.021-1.228,3.24,3.24,0,0,0-1.111-1.575,22.588,22.588,0,0,0-3.868-2.836,2.194,2.194,0,0,0-1.605-.413c-.962.258-1.121,1.7-.476,2.461,1.679,1.976-1.581,1.928-.286,4.1A5.6,5.6,0,0,0,1200.951,1104.34Z" transform="translate(-1195.645 -1092.778)" fill="#edc5a2"/>
              <path id="Trazado_113972" data-name="Trazado 113972" d="M1235.626,1196.617a2.6,2.6,0,0,0,1.411-.5,3.406,3.406,0,0,0,.92-2.271,3.471,3.471,0,0,0,.021-1.228,3.239,3.239,0,0,0-1.111-1.575,22.6,22.6,0,0,0-3.868-2.837,2.193,2.193,0,0,0-1.605-.413c-.962.258-1.121,1.7-.476,2.461,1.679,1.976-1.581,1.928-.286,4.1A5.6,5.6,0,0,0,1235.626,1196.617Z" transform="translate(-1217.032 -1149.694)" fill="#edc5a2"/>
              <path id="Trazado_113973" data-name="Trazado 113973" d="M1324.517,1193.013a2.6,2.6,0,0,0-.187-1.484,3.407,3.407,0,0,0-2.026-1.378,3.469,3.469,0,0,0-1.2-.28,3.242,3.242,0,0,0-1.774.754,22.587,22.587,0,0,0-3.589,3.183,2.192,2.192,0,0,0-.743,1.482c.049.995,1.427,1.455,2.3.984,2.286-1.224,1.552,1.953,3.947,1.144A5.6,5.6,0,0,0,1324.517,1193.013Z" transform="translate(-1269.264 -1150.999)" fill="#edc5a2"/>
              <path id="Trazado_113974" data-name="Trazado 113974" d="M1266.558,1142.781c-.515,1.068.463,2.2.9,3.3.174.434.267.9.457,1.326a3.427,3.427,0,0,0,2.343,1.881,4.079,4.079,0,0,0,2.994-.518c.871-.528,1.55-1.346,2.457-1.81a21.726,21.726,0,0,1,3.327-.9c1.1-.354,2.191-1.3,2.039-2.438a2.764,2.764,0,0,0-.742-1.381c-.88-1.016-2.268-1.894-3.508-1.376a10.35,10.35,0,0,0-1.764,1.379C1272.6,1143.99,1268.355,1139.055,1266.558,1142.781Z" transform="translate(-1239.294 -1120.682)" fill="#edc5a2"/>
              <path id="Trazado_113975" data-name="Trazado 113975" d="M1308.922,1089.509c-.7.958.06,2.251.3,3.412.094.459.1.932.213,1.387a3.428,3.428,0,0,0,1.968,2.27,4.08,4.08,0,0,0,3.038.026c.952-.364,1.766-1.047,2.742-1.341a21.65,21.65,0,0,1,3.434-.287c1.142-.153,2.388-.884,2.442-2.035a2.756,2.756,0,0,0-.483-1.491c-.684-1.158-1.891-2.27-3.2-1.982a10.345,10.345,0,0,0-1.982,1.04C1314.654,1091.781,1311.358,1086.165,1308.922,1089.509Z" transform="translate(-1265.336 -1088.43)" fill="#edc5a2"/>
              <path id="Trazado_113976" data-name="Trazado 113976" d="M1347.685,1234.984c-1.137.335-1.323,1.823-1.841,2.889-.2.421-.487.8-.676,1.229a3.426,3.426,0,0,0,.179,3,4.076,4.076,0,0,0,2.393,1.871c.977.292,2.038.246,2.991.606a21.71,21.71,0,0,1,2.9,1.864c1,.574,2.432.753,3.176-.126a2.754,2.754,0,0,0,.525-1.477c.163-1.335-.118-2.952-1.335-3.524a10.369,10.369,0,0,0-2.206-.381C1350.848,1240.277,1351.654,1233.815,1347.685,1234.984Z" transform="translate(-1287.708 -1178.737)" fill="#edc5a2"/>
              <path id="Trazado_113977" data-name="Trazado 113977" d="M1376.3,1201.35a3.363,3.363,0,0,1-2.223,1.15c-.062,1.094.02,2.383.93,2.993a2.514,2.514,0,0,0,1.574.331,5.049,5.049,0,0,0,3.016-1.272,1.763,1.763,0,0,1,.42-.32,3.483,3.483,0,0,1,.87-.134,1.344,1.344,0,0,0,.823-2.11c-.259-.36-.7-.555-.992-.9a8.51,8.51,0,0,1-.57-.916,1.6,1.6,0,0,0-1.8-.8C1377.012,1199.56,1376.929,1200.378,1376.3,1201.35Z" transform="translate(-1305.692 -1156.842)" fill="#edc5a2"/>
              <path id="Trazado_113978" data-name="Trazado 113978" d="M1376.106,1146.906a4.145,4.145,0,0,0-2.034,3.191,2.783,2.783,0,0,0,1.289,2.738,2.622,2.622,0,0,0,2.192-.015,5.648,5.648,0,0,0,1.8-1.354,3.874,3.874,0,0,0,1.249-2.283,1.291,1.291,0,0,0-.344-1.052,1.79,1.79,0,0,0-.965-.348l-1.555-.236a1.238,1.238,0,0,1-.8-.328c-.189-.226-.11-.666.183-.694Z" transform="translate(-1305.691 -1124.262)" fill="#edc5a2"/>
              <path id="Trazado_113979" data-name="Trazado 113979" d="M1333.418,1290.776a4.142,4.142,0,0,0-2.034,3.19,2.782,2.782,0,0,0,1.289,2.737,2.621,2.621,0,0,0,2.192-.015,5.661,5.661,0,0,0,1.8-1.354,3.872,3.872,0,0,0,1.249-2.284,1.289,1.289,0,0,0-.344-1.051,1.792,1.792,0,0,0-.965-.348l-1.555-.237a1.236,1.236,0,0,1-.8-.328c-.189-.226-.11-.666.182-.694Z" transform="translate(-1279.361 -1213.001)" fill="#edc5a2"/>
            </g>
            <g id="Grupo_81686" data-name="Grupo 81686" transform="translate(96.173 40.754)">
              <path id="Trazado_113980" data-name="Trazado 113980" d="M1455.087,1193.05a3,3,0,0,0,1.625-.571,3.923,3.923,0,0,0,1.06-2.615,4,4,0,0,0,.025-1.414,3.733,3.733,0,0,0-1.279-1.814,26.023,26.023,0,0,0-4.455-3.267,2.526,2.526,0,0,0-1.849-.476c-1.108.3-1.291,1.96-.549,2.834,1.933,2.276-1.821,2.221-.329,4.721A6.446,6.446,0,0,0,1455.087,1193.05Z" transform="translate(-1426.811 -1142.011)" fill="#edc5a2"/>
              <path id="Trazado_113981" data-name="Trazado 113981" d="M1446.979,1085.144a2.6,2.6,0,0,0,1.411-.5,3.4,3.4,0,0,0,.92-2.271,3.462,3.462,0,0,0,.022-1.228,3.241,3.241,0,0,0-1.111-1.575,22.59,22.59,0,0,0-3.868-2.836,2.195,2.195,0,0,0-1.605-.413c-.962.258-1.122,1.7-.477,2.461,1.679,1.976-1.581,1.928-.286,4.1A5.6,5.6,0,0,0,1446.979,1085.144Z" transform="translate(-1422.306 -1076.284)" fill="#edc5a2"/>
              <path id="Trazado_113982" data-name="Trazado 113982" d="M1434.172,1137.713a2.6,2.6,0,0,0,1.411-.5,3.405,3.405,0,0,0,.92-2.271,3.461,3.461,0,0,0,.022-1.228,3.239,3.239,0,0,0-1.111-1.575,22.6,22.6,0,0,0-3.868-2.837,2.194,2.194,0,0,0-1.605-.413c-.962.258-1.121,1.7-.476,2.461,1.679,1.976-1.581,1.928-.286,4.1A5.6,5.6,0,0,0,1434.172,1137.713Z" transform="translate(-1414.407 -1108.708)" fill="#edc5a2"/>
              <path id="Trazado_113983" data-name="Trazado 113983" d="M1507.081,1154.223a2.6,2.6,0,0,0-.187-1.484,3.4,3.4,0,0,0-2.026-1.379,3.471,3.471,0,0,0-1.2-.28,3.241,3.241,0,0,0-1.774.754,22.577,22.577,0,0,0-3.588,3.182,2.195,2.195,0,0,0-.743,1.482c.049.995,1.427,1.455,2.3.984,2.286-1.224,1.552,1.953,3.948,1.144A5.6,5.6,0,0,0,1507.081,1154.223Z" transform="translate(-1456.781 -1122.419)" fill="#edc5a2"/>
              <path id="Trazado_113984" data-name="Trazado 113984" d="M1470.02,1109.13c-.515,1.068.463,2.2.9,3.3.175.434.267.9.458,1.326a3.425,3.425,0,0,0,2.343,1.882,4.079,4.079,0,0,0,2.993-.518c.871-.528,1.55-1.346,2.457-1.81a21.706,21.706,0,0,1,3.327-.9c1.1-.354,2.191-1.3,2.038-2.438a2.763,2.763,0,0,0-.742-1.381c-.88-1.016-2.267-1.895-3.508-1.376a10.27,10.27,0,0,0-1.763,1.378C1476.066,1110.339,1471.817,1105.4,1470.02,1109.13Z" transform="translate(-1439.7 -1095.271)" fill="#edc5a2"/>
              <path id="Trazado_113985" data-name="Trazado 113985" d="M1520.368,1188.211c-1.137.335-1.323,1.822-1.841,2.888-.2.42-.487.8-.676,1.229a3.428,3.428,0,0,0,.178,3,4.082,4.082,0,0,0,2.394,1.87c.977.292,2.038.245,2.991.606a21.732,21.732,0,0,1,2.9,1.864c1,.574,2.432.753,3.176-.126a2.764,2.764,0,0,0,.525-1.478c.163-1.334-.118-2.952-1.335-3.523a10.358,10.358,0,0,0-2.206-.381C1523.531,1193.5,1524.336,1187.042,1520.368,1188.211Z" transform="translate(-1469.129 -1145.234)" fill="#edc5a2"/>
              <path id="Trazado_113986" data-name="Trazado 113986" d="M1393.373,1096.876a3.364,3.364,0,0,1-2.224,1.15c-.062,1.094.021,2.383.931,2.993a2.512,2.512,0,0,0,1.573.331,5.046,5.046,0,0,0,3.016-1.272,1.773,1.773,0,0,1,.42-.32,3.511,3.511,0,0,1,.87-.133,1.344,1.344,0,0,0,.822-2.11c-.259-.36-.7-.555-.992-.9a8.568,8.568,0,0,1-.569-.916,1.6,1.6,0,0,0-1.8-.8C1394.085,1095.087,1394,1095.9,1393.373,1096.876Z" transform="translate(-1391.134 -1087.749)" fill="#edc5a2"/>
              <path id="Trazado_113987" data-name="Trazado 113987" d="M1491.076,1231.74a4.145,4.145,0,0,0-2.035,3.19,2.783,2.783,0,0,0,1.289,2.737,2.622,2.622,0,0,0,2.192-.015,5.653,5.653,0,0,0,1.8-1.354,3.872,3.872,0,0,0,1.249-2.284,1.29,1.29,0,0,0-.344-1.052,1.79,1.79,0,0,0-.965-.347l-1.555-.237a1.236,1.236,0,0,1-.8-.327c-.189-.226-.11-.666.182-.695Z" transform="translate(-1451.516 -1171.933)" fill="#edc5a2"/>
            </g>
          </g>
        </g>
      </g>
    </g>
  </g>
</svg>
