<svg xmlns="http://www.w3.org/2000/svg" xmlns:xlink="http://www.w3.org/1999/xlink" width="1241" height="500" viewBox="0 0 1241 500">
  <defs>
    <clipPath id="clip-path">
      <rect id="Rectángulo_34887" data-name="Rectángulo 34887" width="1241" height="500" transform="translate(499 318.828)" fill="#d952ab"/>
    </clipPath>
  </defs>
  <g id="_16" data-name="16" transform="translate(-499 -318.828)" clip-path="url(#clip-path)">
    <g id="Grupo_81625" data-name="Grupo 81625" transform="translate(234.568 319.019)">
      <g id="Grupo_81611" data-name="Grupo 81611" transform="translate(0 0)">
        <g id="Grupo_81610" data-name="Grupo 81610">
          <rect id="Rectángulo_34883" data-name="Rectángulo 34883" width="1568.911" height="522.97" transform="translate(0.001)" fill="#ffefac"/>
          <path id="Trazado_113390" data-name="Trazado 113390" d="M4150.612,1317.918V1252.03l-46.155-221.349-61.985,94.419-50.384-127.384-72.6,134.155L3862,983.825l-34.445,130.635L3778.87,945.117l-49.208,275.789-57.526-162.176L3630.3,1114.46l-56.833-174.732-45.677,131.658-38.721-82.112-27.755,146.293L3444.641,1023.6l-18.549,75.253L3376.1,967.223l-35.643,140.9-22.231-124.3-32.048,109.7-49.937-74.7-39.814,102.386-47.21-153.987-50.6,167.26-80.276-103.8-81.762,119.33L2904.756,1004.9l-54.065,143.326L2803.921,1004.9l-31.943,90.511-55.4-64.731-49.315,50.454-23.715-97.309-19.091,89.686-42.751-54.687v311.727Z" transform="translate(-2581.7 -879.177)" fill="#ffe46e"/>
          <path id="Trazado_113391" data-name="Trazado 113391" d="M2581.7,1280V1172.123l46.153-164,71.473,125.312,30.7-100.656,54.723,140.778,41.167-178.967,85.588,168.434,42.337-87.828,48.811,73.866,57.527-120.157,59.269,117.166L3170,1021.247l40.094,69.981,38.176-51.322,22.726,45.93,14.067-58.222,21.1,65.158,50.042-131.665,35.643,104.4,30.546-27.219,8.9,39.8,58.791-69.956,45.8,67.073,31.678-114.09,66.137,123.925,67.7-67.946,94.34,79.45,31.822-107.513,54.066,106.192,26.978-95.876,51.733,56.745,36.852-45.281,41.081,50.5,27.576-98.267,24.587,93.892,60.184-57.589V1230.3Z" transform="translate(-2581.7 -826.019)" fill="#e6c532"/>
          <path id="Trazado_113392" data-name="Trazado 113392" d="M2581.7,1235.792v-84.229s401.772-55.148,457.557-66.2,162.286,10.641,211.346,7.008,223.451-85.395,385.555-85.74,416.5,57.4,449.04,50.31,65.412-15.825,65.412-15.825v194.674Z" transform="translate(-2581.701 -712.822)" fill="#fdd835"/>
        </g>
      </g>
      <g id="Grupo_81624" data-name="Grupo 81624" transform="translate(694.888 11.437)">
        <path id="Trazado_113393" data-name="Trazado 113393" d="M2782.13,1041.233c2.507,3.25,24.011,1.426,30.485,1.816s37.776,4.02,43.045.931,9.657-8.3,4.554-8.3-31.261-1.147-41.249,0-26.331.8-30.612,0S2778.629,1036.69,2782.13,1041.233Z" transform="translate(-2781.01 -653.31)" fill="#e6c532"/>
        <path id="Trazado_113394" data-name="Trazado 113394" d="M3066.731,1051.235c-3.09,4.01-29.619,1.764-37.605,2.242s-46.6,4.958-53.1,1.151-11.911-10.243-5.617-10.243,38.564-1.416,50.889,0,32.477.983,37.759,0S3071.051,1045.631,3066.731,1051.235Z" transform="translate(-2317.032 -631.954)" fill="#e6c532"/>
        <path id="Trazado_113395" data-name="Trazado 113395" d="M3246.572,1063.026c-17.7-17.927-212.259-71.277-395.3-24.932,0,0-60.448,36.828-10.27,59.619,26.242,11.921,53.123,20.1,87.555,24.186-9.078,2.957-15.048,7.96-15.048,13.639,0,9.082,15.279,16.446,34.126,16.446s34.128-7.364,34.128-16.446c0-4.1-3.141-7.848-8.3-10.728,21.421.408,45.565-.3,73.438-2.2C3150.185,1115.584,3264.272,1080.954,3246.572,1063.026Z" transform="translate(-2681.36 -691.935)" fill="#e6c532"/>
        <g id="Grupo_81623" data-name="Grupo 81623" transform="translate(5.585)">
          <g id="Grupo_81612" data-name="Grupo 81612" transform="translate(159.194)">
            <path id="Trazado_113396" data-name="Trazado 113396" d="M2960.287,991.781s7.66,73.456,10.832,86.788,22.223,43.808,22.857,58.412-46.983,13.967-52.7,8.253-8.888-46.349-13.968-55.871-39.362-59.047-41.266-66.665S2960.287,991.781,2960.287,991.781Z" transform="translate(-2684.711 -761.185)" fill="#3b1a1a"/>
            <path id="Trazado_113397" data-name="Trazado 113397" d="M2854.248,1009.352c0,2.538,26.667,105.392,34.919,110.472s46.98,10.156,43.807-2.541,9.522-120.629,9.522-120.629Z" transform="translate(-2763.689 -749.068)" fill="#3b1a1a"/>
            <path id="Trazado_113398" data-name="Trazado 113398" d="M3090.014,983.722c-7.73-17-25.4-32.382-44.443-30.475s-34.919,24.126-60.315,30.475-51.426,2.538-69.2,15.87-21.589,15.24-36.824,16.508-36.19,19.047-42.538,69.2,20.315,82.536,79.362,81.266,145.389,3.173,163.167-26.03S3121.758,1053.559,3090.014,983.722Z" transform="translate(-2809.621 -857.399)" fill="#632e1a"/>
            <path id="Trazado_113399" data-name="Trazado 113399" d="M2972.5,1043.195s-41.27,77.458-46.346,90.791-9.526,36.824-8.891,44.442,12.063,28.888,4.445,29.68-41.9,3.651-47.618,0-5.714-50-5.08-56.979,17.778-65.9,13.972-72.63-13.972-29.589-6.35-46.1,19.681-60.947,38.728-61.581S2989.646,978.437,2972.5,1043.195Z" transform="translate(-2727.664 -813.386)" fill="#632e1a"/>
            <path id="Trazado_113400" data-name="Trazado 113400" d="M2964.9,957.145s-5.763-17.23-17.875-16.752-47.35,12.854-47.587,23.332a55.8,55.8,0,0,0,2.712,18.541s23.237-8.068,37.521-12.353A86.734,86.734,0,0,0,2964.9,957.145Z" transform="translate(-2651.348 -888.986)" fill="#3b1a1a"/>
            <path id="Trazado_113401" data-name="Trazado 113401" d="M2939.786,1017.776s-12.063,54.6-23.492,74.283-27.937,34.282-33.652,45.076-8.886,34.286-8.252,41.269-32.379,3.808-43.173,2.538,11.428-56.5,13.332-64.757,7.363-73.711,10.8-92.7S2946.769,934.606,2939.786,1017.776Z" transform="translate(-2828.273 -795.585)" fill="#632e1a"/>
            <path id="Trazado_113402" data-name="Trazado 113402" d="M2927.054,1071.58s17.9,32.445,74.4,32.445c53.333,0,92.7-48.315,101.583-86.408s-7.755-89.24-49.581-85.359c-29.82,2.765-21.526,11.711-15.176,11.711s25.293-3.19,35.554,8.252c14.765,16.47,16.505,46.339,10.792,63.485s-30.542,62.363-80.632,69.206-69.837-42.535-69.837-42.535Z" transform="translate(-2582.657 -909.706)" fill="#ffffe5"/>
            <path id="Trazado_113403" data-name="Trazado 113403" d="M2903.735,974.133s18.966-30.255,62.139-28.986,64.124,70.475,61.582,94.6,16.867,55.383,43.256,47.942c28.4-8.005,42.336-75.914,43.728-78.463,1.708-3.138,8.811-10.791,10.717-8.887s.122,17.607,3.934,18.949,8.834-5.125,1.035,7.513c-4.333,7.025-16.1,69.733-36.21,88.936-11.335,10.826-34.5,30.518-78.1,10.8-35.284-15.954-47.406-66.476-51.851-63.3s-2.623,34.028-14.644,33.205S2879.054,1032.957,2903.735,974.133Z" transform="translate(-2655.641 -877.236)" fill="#632e1a"/>
            <path id="Trazado_113404" data-name="Trazado 113404" d="M2930.5,960.565s-21.9-15.187-30.942-3.758-3.333,37.142,0,47.141,17.143,24.284,21.428,18.095,5.631-22.857,5.436-27.142S2930.5,960.565,2930.5,960.565Z" transform="translate(-2663.132 -858.738)" fill="#884a2c"/>
            <path id="Trazado_113405" data-name="Trazado 113405" d="M2927.115,958.612s-19.231-10.986-26.925-1.262-2.834,31.591,0,40.1,14.58,20.657,18.227,15.389,6.708-8.322,6.541-11.966S2927.115,958.612,2927.115,958.612Z" transform="translate(-2659.748 -856.785)" fill="#3b1a1a"/>
            <path id="Trazado_113406" data-name="Trazado 113406" d="M2905.51,955.565c0,1.8,2.583,3.256,5.767,3.256s5.77-1.458,5.77-3.256-2.584-3.253-5.77-3.253S2905.51,953.769,2905.51,955.565Z" transform="translate(-2636.227 -859.323)" fill="#632e1a"/>
            <path id="Trazado_113407" data-name="Trazado 113407" d="M3091.344,981.376l-1.965,33.418-4.885-10.581-3.023,42.49-2.12-33.683-3.772,47.05-4.034-25.427-1.572,29.38-4.511-14.263-2.818,43.511-1.8-32.633-5.768,32.633.318-23.073-10.857,47.221,2.978-39.035-6.437,20.56-3.887-14.933v23.816l-3.964-22.275-5.372,16.773-2.545-14.347-1.9,10.965-3.654-9.623-2.4,13.866-2.891-12.788s-4.85,26.156-4.85,27.02v-26.177l-6.039,13.238v-12.349l-5.606,13.214-3.884-12.108-3.444,26.769-3.548-26.134-5.5,21.951-4.319-45.513-9.055,34.6,2.856-33.083-10.188,36,5.355-39.5-15.163,35.618-.436-29.4-11.316,38.56-2.587-16.843-12.5,22.017-8.625-22.017v11.564l-3.88-11.564-5.607,14.256-2.587-14.256-12.935,11.564-4.763-11.6-3.859,25.932-5.626-26.462-2.138,24.737-3.88-24.172-6.9,22.449-3.074-16-5.979,12.984-1.615-11.749-7.007,22.529-.394-15.229,18.07-35.234s164.1,10.784,177.643-20.577C3068.679,991.508,3091.344,981.376,3091.344,981.376Z" transform="translate(-2785.789 -787.057)" fill="#3b1a1a"/>
            <path id="Trazado_113408" data-name="Trazado 113408" d="M3096.513,976.181l-1.966,33.417-4.882-10.581-3.026,42.49-2.116-33.683-3.776,47.05-4.034-25.427-1.569,29.381-4.516-14.263-2.816,43.511-1.8-32.634-5.77,32.634.317-23.073-10.854,47.217,2.978-39.031-6.436,20.556-3.891-14.929v23.812l-3.963-22.275-5.37,16.777-2.549-14.347-1.9,10.962-3.657-9.619-2.4,13.866-2.89-12.789s-4.851,26.156-4.851,27.017v-26.173l-6.034,13.238v-12.349l-5.607,13.21-3.884-12.1-3.448,26.766-3.546-26.134-5.5,21.954-6.477-22.122-6.9,11.213v-9.909l-7.329,12.82v-12.544l-14.177,34.209-2.209-33.226-5.175,16.843-2.586-16.843-12.506,22.017-8.622-22.017v11.561l-3.881-11.561-5.605,14.256-2.587-14.256-12.935,11.561-4.762-11.6-3.862,25.936-5.625-26.462-2.137,24.736-3.88-24.172-6.9,22.446-3.078-16-5.977,12.983-3.623-1.44-15.4,46.286,2.636-34.931,25.44-49.6s164.1,10.784,177.643-20.577C3073.85,986.313,3096.513,976.181,3096.513,976.181Z" transform="translate(-2797.809 -799.974)" fill="#632e1a"/>
            <path id="Trazado_113409" data-name="Trazado 113409" d="M2923.417,1101.785c17.777-1.437,32.378-71.354,55.237-114.489s24.76-45.038,32.378-45.038,12.7,10.794,16.509,7.618-8.257-26.03-21.588-24.123-28.568,13.887-49.522,61.543-34.91,88.019-36.04,89.529C2917.884,1080.18,2905.639,1103.222,2923.417,1101.785Z" transform="translate(-2615.244 -925.641)" fill="#ffffe5"/>
            <path id="Trazado_113410" data-name="Trazado 113410" d="M2953.5,1022.48l-6.294,13.484-10.1-23.224-4.667,13.282-6.7-35.722-1.51,15.092-2.157-18.11h-2.8l-1.942-7.848h15.524Z" transform="translate(-2606.843 -791.885)" fill="#632e1a"/>
            <path id="Trazado_113411" data-name="Trazado 113411" d="M2895.437,1015.1l2.588,15.456,2.6-4.594,2.705,16.667,2.93-4.216,3.1,25.344,2.133,1.865,11.535-16.526Z" transform="translate(-2661.272 -703.211)" fill="#3b1a1a"/>
            <path id="Trazado_113412" data-name="Trazado 113412" d="M2914.409,954.94l-12.479,1.941,10.18,4.239-5.329,7.4,5.713-2.587-6.683,17.787,5.526-9.036-4.879,22.295,4.266-10.685-2.553,21.681,12.007-32.986Z" transform="translate(-2645.127 -852.788)" fill="#632e1a"/>
            <path id="Trazado_113413" data-name="Trazado 113413" d="M2841.972,1086.947l-7.994,19.859,3.134-22.09-4.843,6.436,6.958-26.856-4.692,5.837,8-36.876-5.133,7.123,8-28.506,2.908-16.8-3.825,11.669s-.255-19.633,2.336-21.62a13.986,13.986,0,0,1,4.9-2.507Z" transform="translate(-2818.336 -783.968)" fill="#632e1a"/>
            <path id="Trazado_113414" data-name="Trazado 113414" d="M2942.085,953.245l-13.6.307,4.348,2.95h-4.348l-.529,2.653-17.367,4.637,7.922,1.544-14.174,5.139,3.33,2.182-11.306,4.285v2.047l-9.919,1.4-2.043,2.936s-20.134,2.238,3.243,5.474S2942.085,953.245,2942.085,953.245Z" transform="translate(-2708.763 -857.003)" fill="#632e1a"/>
            <path id="Trazado_113415" data-name="Trazado 113415" d="M2930.958,958.078l8.249-6.43-6.469,3.215,4.312-10.976-6.092,8.408V940.006l-3.072,10.349-2.262-10.349-1.259,6.761-3.592-6.761-2.13,3.881-4.015-3.881-1.547,1.319Z" transform="translate(-2617.4 -889.921)" fill="#3b1a1a"/>
            <path id="Trazado_113416" data-name="Trazado 113416" d="M2970.979,960.767c2.082-.439,2.082,18.882,3.591,19.531s4.958-2.37,5.82-.756-2.026,8.148-6.782,9.734-13.636-1.412-13.914-2.943c-.757-4.1,6.265-2.371,6.373-4.633S2965.447,961.935,2970.979,960.767Z" transform="translate(-2501.641 -838.318)" fill="#180000"/>
          </g>
          <g id="Grupo_81614" data-name="Grupo 81614" transform="translate(0 198.581)">
            <path id="Trazado_113417" data-name="Trazado 113417" d="M2793.406,1010.582c.862-2.189,7.548-4.271,11.2-4.379s10.777-.537,10.777-.537,6.342-1.286,8.329-1.1,3.86.575,4.644.328,6.962-3.616,9.557-3.9c2.7-.292,12.893-4.494,13.887-4.4s1.314,5.132,1.045,5.648-10.94,7.541-12.471,8.479-7.716,2.263-8.535,3.263-2.242.08-4.612,1.109-9.668,3.089-13.74,3.131-6.917-.2-7.21,1.032S2790.091,1018.984,2793.406,1010.582Z" transform="translate(-2756.903 -947.802)" fill="#b55624"/>
            <path id="Trazado_113418" data-name="Trazado 113418" d="M2805.257,998.869c-3.242-1.07-5.362-3.95-8.183-.99s-6.067,18.485-5.927,23.139,5.22,18.342,4.659,22.01-5.209,10.561-5.774,13.806-3.456,14.852,12.632,13.58,13.1-22.836,12.4-26.222.491-9.912.917-12.875,2.255-7.9,2.255-11.85S2817.25,1002.819,2805.257,998.869Z" transform="translate(-2765.56 -947.832)" fill="#ca773b"/>
            <path id="Trazado_113419" data-name="Trazado 113419" d="M2808.815,1015.753s8.814,16.993,10.362,22.9,3.759,9.445,1.66,11.736-7.23,4.3-12.273-.115-16.343-19.719-17.906-24.377S2803.2,1007.284,2808.815,1015.753Z" transform="translate(-2762.906 -906.806)" fill="#b55624"/>
            <path id="Trazado_113420" data-name="Trazado 113420" d="M2809.087,1024.347s1.419,8.308-1.1,10.892-8.569,3.155-10.1.379-2.977-11.976-1.8-12.711S2809.087,1024.347,2809.087,1024.347Z" transform="translate(-2750.184 -882.752)" fill="#b55624"/>
            <path id="Trazado_113421" data-name="Trazado 113421" d="M2809.564,1026.35s-.254,8.531-1.021,14.2-1.436,13.664-2.535,14.961-7.768,4.009-7.6,1.073c.522-9.019-3.159-12.663-2.995-16.536s2.074-13.545,3.831-14.221S2809.564,1026.35,2809.564,1026.35Z" transform="translate(-2750.787 -875.631)" fill="#b55624"/>
            <path id="Trazado_113422" data-name="Trazado 113422" d="M2805.915,1036.582s8.925,3.305,10.167,3.7a27.964,27.964,0,0,0,4.919.418s1.182,1.091.69,1.9-4.751,4.271-7.015,4.219-8.2-1.828-9.511-1.374-5.055,1.154-7.078-.021-4.159-2.347.181-9.483S2805.915,1036.582,2805.915,1036.582Z" transform="translate(-2749.979 -857.473)" fill="#b55624"/>
            <path id="Trazado_113423" data-name="Trazado 113423" d="M2811.209,1019.712s-3.3,18.858-5.645,24.492-2.74,9.79-5.8,10.341-8.354-.966-9.686-7.534-1.043-25.591.538-30.242S2811.877,1009.574,2811.209,1019.712Z" transform="translate(-2766.146 -907.767)" fill="#ca773b"/>
            <path id="Trazado_113424" data-name="Trazado 113424" d="M2803.835,1029.252s-2.524,8.043-5.947,9.193-9.066-1.1-9.164-4.267,2.814-12.018,4.2-12.136S2803.835,1029.252,2803.835,1029.252Z" transform="translate(-2767.419 -884.526)" fill="#ca773b"/>
            <path id="Trazado_113425" data-name="Trazado 113425" d="M2812,1031.088a125.572,125.572,0,0,1-9.33,10.135c-4.193,3.887-10.88,6.5-12.457,10.3-.649,1.569-6.4-1.269-6.042-4.19s5.613-11.784,8.2-14.668,10.215-9.135,12-8.538S2812,1031.088,2812,1031.088Z" transform="translate(-2778.764 -879.442)" fill="#ca773b"/>
            <path id="Trazado_113426" data-name="Trazado 113426" d="M2794.065,1037.065s1.189,9.442,1.416,10.721,2.468,1.471,3.025,2.224c.429.579.028,2.41-.913,2.343s-7.6.746-8.559-2.8c-.59-2.182-2.161-8.116-3.173-9.071s-3.353-3.951-3.245-6.29.16-4.773,8.5-4.215S2794.065,1037.065,2794.065,1037.065Z" transform="translate(-2782.612 -864.985)" fill="#ca773b"/>
            <path id="Trazado_113427" data-name="Trazado 113427" d="M2813.9,1036.853s-5.815,37.257-20.284,44.662c-3.055,1.562-5.644-.7-5.46-2.252s.7-2.318,1.356-5.885-1.615-6.554.631-9.183-.217-4.4-.484-7.6-.125-4.243,2.639-7.336,1.963-2.866,1.833-7.092,3.072-3.106,3.6-5.006-3.713-6.307-3.557-8.4-3.6-12.447-3.566-16.756c.025-3.294,6.541-12.883,6.541-12.883s1.524,13.576,1.807,20.085C2799.88,1040.2,2813.9,1036.853,2813.9,1036.853Z" transform="translate(-2768.844 -941.513)" fill="#180000"/>
            <path id="Trazado_113428" data-name="Trazado 113428" d="M2807.749,1003.746s-3.66,21.044-7.328,21.609-5.1-.084-5.418,1.269c-7.928,33.39,19.661,40.51,19.661,40.51l-7.427-34.823Z" transform="translate(-2755.363 -930.015)" fill="#180000"/>
            <path id="Trazado_113429" data-name="Trazado 113429" d="M2817.262,993.582c.125-.8-.9-2.322-3.449-2.7s-8-.509-10.525.76-5.659,5.275-6.333,7.049-1.057,7.642-2.534,8.654-6.212,6.855-5.815,11.7c.152,1.858,11.118-1.527,11.707-2.116s4.606-8.5,4.746-10.425c.425-5.742,1.795-2.235,3.716-4.2C2812.391,998.589,2817.262,993.582,2817.262,993.582Z" transform="translate(-2767.768 -962.658)" fill="#180000"/>
            <path id="Trazado_113430" data-name="Trazado 113430" d="M2807.789,1004.255a2.612,2.612,0,0,0-.663,2.322c.2,1.6.952,4.93.952,4.93s-15.456,1.952-16.471.474.527-6.035,1.235-8.106c.979-2.862,6.883-9.961,6.883-9.961Z" transform="translate(-2761.08 -954.462)" fill="#ca773b"/>
            <path id="Trazado_113431" data-name="Trazado 113431" d="M2806.345,1004.422a6.572,6.572,0,0,0-.784,1.938,9.449,9.449,0,0,0,.331,2.81c-3.8.979-8.605,1.635-12.314,9.35-2.419,5.031-2.719-12.46,2.42-21.334a26.215,26.215,0,0,1,2.678-3.493Z" transform="translate(-2759.529 -955.01)" fill="#b55624"/>
            <path id="Trazado_113432" data-name="Trazado 113432" d="M2797.16,1004.094s-.042,4.219,2.239,5.781,7.133,1.562,7.684,1.353,3.047-2.507,3.037-3.082a7.348,7.348,0,0,0-.209-1.1s.729-.286.719-.505c-.061-1.057-.8-2.957-.719-3.337s1.52-1.307,1.182-1.9-2.238-2.277-2.322-2.744.589-2.869.338-3.291-1.311-1.224-1.9-1.056-.548-1.646-1.562-2.49-5.192-.171-6.291,1.729-1.983,5.955-2.408,6.081-2.068-2.239-3.166-1.478S2793.063,1003.459,2797.16,1004.094Z" transform="translate(-2756.153 -960.8)" fill="#ca773b"/>
            <path id="Trazado_113433" data-name="Trazado 113433" d="M2810.323,999.255s-17.886,1.189-19.546,1.806-3.594.99-3.87,1.855-1.206,3.958,4.742,5.443,13.413,3.755,14.778,2.639S2806.659,1008.111,2810.323,999.255Z" transform="translate(-2772.484 -941.182)" fill="#b55624"/>
            <path id="Trazado_113434" data-name="Trazado 113434" d="M2812.764,995.649c-2.029.976-15.455,6.659-19.12,8.619s-7.234,8.228-7.083,9.6,1.586,3.054,6.474,2.291,20.838-14.817,21.874-14.817S2814.256,994.934,2812.764,995.649Z" transform="translate(-2772.81 -950.288)" fill="#ca773b"/>
            <path id="Trazado_113435" data-name="Trazado 113435" d="M2809.222,1000.747a17.69,17.69,0,0,1,1.873-2.953c.4-.209,7.345-2.127,8.207-1.594s1.8,1.325,1.862,1.88a2.33,2.33,0,0,1-.53,1.3,9.714,9.714,0,0,1,1.235,1.245c.152.3-1.012,1.45-1.012,1.45a2.819,2.819,0,0,1,.251,1.081c-.073.314-1.37,1.315-1.37,1.315s.3,1,0,1.227-2.9.251-2.922-.129-3.984-.53-5.334-.941C2809.508,1004.031,2809.222,1000.747,2809.222,1000.747Z" transform="translate(-2716.448 -949.009)" fill="#b55624"/>
            <path id="Trazado_113436" data-name="Trazado 113436" d="M2794.3,996.327s4.718-1.67,6.4-1.237c.869.223,3.03,2.224,3.03,2.751s-.962,4.4-1.611,4.365c-1.756-.1-7.387-3.873-7.387-3.873Z" transform="translate(-2753.546 -951.719)" fill="#b55624"/>
            <path id="Trazado_113437" data-name="Trazado 113437" d="M2806.479,982.625c-.191.279,2.78,2.183,3.967,3.3q.9.816,1.991,1.806,1.032,1.046,2.226,2.252a65.266,65.266,0,0,1,4.842,5.781,62.46,62.46,0,0,1,4.725,7.5,58.669,58.669,0,0,1,6.265,19.235,60.264,60.264,0,0,1-.767,21.487,66.191,66.191,0,0,1-3.127,10,65.4,65.4,0,0,1-4.5,8.737,62.585,62.585,0,0,1-5.244,7.14,65.763,65.763,0,0,1-5.247,5.421c-.847.746-1.643,1.443-2.377,2.089-.771.607-1.482,1.164-2.12,1.666-1.272,1.028-4.354,2.709-4.185,3s3.219-1.468,4.617-2.346c.715-.422,1.5-.889,2.364-1.395.84-.537,1.708-1.185,2.66-1.844a51.676,51.676,0,0,0,5.948-5.041c1.059-.97,2.007-2.131,3.078-3.256.987-1.193,2-2.444,2.957-3.79a55.975,55.975,0,0,0,5.244-8.985,59.24,59.24,0,0,0,3.657-10.536,56.749,56.749,0,0,0,.815-22.934,59.528,59.528,0,0,0-2.9-10.77,56.049,56.049,0,0,0-4.588-9.337c-.86-1.408-1.775-2.73-2.677-3.989-.987-1.2-1.848-2.426-2.839-3.469a51.724,51.724,0,0,0-5.571-5.453c-.9-.725-1.722-1.433-2.524-2.029l-2.263-1.569C2809.571,984.313,2806.671,982.346,2806.479,982.625Z" transform="translate(-2732.12 -982.598)" fill="#3b1a1a"/>
            <path id="Trazado_113438" data-name="Trazado 113438" d="M2826.41,1076.151l.417-.266-30.769-47.953,33.144-44.124-.394-.3-33.353,44.4.093.145Z" transform="translate(-2750.678 -980.334)"/>
            <path id="Trazado_113439" data-name="Trazado 113439" d="M2814.716,996.179s.262,1.7-.359,1.691a24.194,24.194,0,0,0-2.594.091.839.839,0,0,0-.516,1.161c.278.686,3.7,1.506,4.8.3C2818.011,997.267,2814.716,996.179,2814.716,996.179Z" transform="translate(-2711.615 -948.831)" fill="#b55624"/>
            <path id="Trazado_113440" data-name="Trazado 113440" d="M2816.2,997.037s-.735,1.035-1.419.882-2.566-.533-2.876-.523a.827.827,0,0,0-.809,1.018c.164.736,3.748,2.326,5.223,1.419C2818.567,998.449,2816.2,997.037,2816.2,997.037Z" transform="translate(-2711.856 -946.697)" fill="#b55624"/>
            <path id="Trazado_113441" data-name="Trazado 113441" d="M2815.912,997.625s-.711,1.042-1.359.9a26.87,26.87,0,0,0-2.737-.488.831.831,0,0,0-.78,1.021c.153.732,3.548,2.281,4.964,1.36C2818.154,999.013,2815.912,997.625,2815.912,997.625Z" transform="translate(-2711.998 -945.235)" fill="#b55624"/>
            <path id="Trazado_113442" data-name="Trazado 113442" d="M2815.247,998.219s-.617.906-1.182.777-2.117-.436-2.375-.426a.72.72,0,0,0-.676.886c.129.638,3.079,1.984,4.306,1.186C2817.193,999.426,2815.247,998.219,2815.247,998.219Z" transform="translate(-2712.041 -943.758)" fill="#b55624"/>
            <rect id="Rectángulo_34884" data-name="Rectángulo 34884" width="66.138" height="0.806" transform="translate(107.88 47.92) rotate(180)"/>
            <path id="Trazado_113443" data-name="Trazado 113443" d="M2818.377,1000.3c-.972.171-3.287-1.91-3.748-1.265s-3.012,2.346-3.922,1.712-1.614-2.678-.586-3.316a12.2,12.2,0,0,1,4.693-1.172C2815.515,996.364,2820.107,1000,2818.377,1000.3Z" transform="translate(-2715.474 -948.65)" fill="#b55624"/>
            <path id="Trazado_113444" data-name="Trazado 113444" d="M2794.072,996.873a11.451,11.451,0,0,1,6.461-1.743c.8.07,2.711,1.792,3.089,2.224a1.107,1.107,0,0,1-.212,1.116c-.144.143.194.478.16.7-.045.248-.32.5-.377.75-.051.233.042.464,0,.679-.073.373-.4.436-.5.683-.108.279.016,1.011-.431.987-.471-.025-6.049.293-6.049.293Z" transform="translate(-2754.118 -951.512)" fill="#ca773b"/>
            <path id="Trazado_113445" data-name="Trazado 113445" d="M2804.8,985.022h0a.472.472,0,0,0,.662-.091l.948-1.248a.478.478,0,0,0-.094-.666h0a.475.475,0,0,0-.664.094l-.944,1.248A.473.473,0,0,0,2804.8,985.022Z" transform="translate(-2727.914 -981.794)" fill="#3b1a1a"/>
            <path id="Trazado_113446" data-name="Trazado 113446" d="M2804.993,985.188h0a.477.477,0,0,0,.666-.094l.945-1.248a.476.476,0,0,0-.09-.663h0a.479.479,0,0,0-.666.091l-.945,1.248A.479.479,0,0,0,2804.993,985.188Z" transform="translate(-2727.427 -981.382)" fill="#3b1a1a"/>
            <path id="Trazado_113447" data-name="Trazado 113447" d="M2805.182,985.337h0a.479.479,0,0,0,.665-.091l.945-1.248a.481.481,0,0,0-.09-.666h0a.481.481,0,0,0-.666.091l-.945,1.252A.476.476,0,0,0,2805.182,985.337Z" transform="translate(-2726.957 -981.011)" fill="#3b1a1a"/>
            <path id="Trazado_113448" data-name="Trazado 113448" d="M2805.362,985.5h0a.474.474,0,0,0,.663-.094l.944-1.248a.47.47,0,0,0-.09-.662h0a.473.473,0,0,0-.663.091l-.949,1.248A.478.478,0,0,0,2805.362,985.5Z" transform="translate(-2726.516 -980.599)" fill="#3b1a1a"/>
            <path id="Trazado_113449" data-name="Trazado 113449" d="M2805.538,985.652h0a.479.479,0,0,0,.665-.091l.945-1.248a.481.481,0,0,0-.09-.666h0a.481.481,0,0,0-.667.091l-.944,1.252A.472.472,0,0,0,2805.538,985.652Z" transform="translate(-2726.077 -980.228)" fill="#3b1a1a"/>
            <path id="Trazado_113450" data-name="Trazado 113450" d="M2805.206,1012.335h0a.476.476,0,0,0,.1-.662l-.935-1.259a.476.476,0,0,0-.665-.1h0a.476.476,0,0,0-.1.662l.938,1.259A.475.475,0,0,0,2805.206,1012.335Z" transform="translate(-2730.642 -913.913)" fill="#3b1a1a"/>
            <path id="Trazado_113451" data-name="Trazado 113451" d="M2805.42,1012.193h0a.481.481,0,0,0,.1-.666l-.939-1.255a.472.472,0,0,0-.662-.1h0a.477.477,0,0,0-.1.662l.935,1.258A.48.48,0,0,0,2805.42,1012.193Z" transform="translate(-2730.109 -914.266)" fill="#3b1a1a"/>
            <path id="Trazado_113452" data-name="Trazado 113452" d="M2805.617,1012.053h0a.481.481,0,0,0,.1-.666l-.934-1.255a.477.477,0,0,0-.666-.1h0a.476.476,0,0,0-.1.662l.938,1.258A.476.476,0,0,0,2805.617,1012.053Z" transform="translate(-2729.621 -914.614)" fill="#3b1a1a"/>
            <path id="Trazado_113453" data-name="Trazado 113453" d="M2805.824,1011.929h0a.478.478,0,0,0,.1-.666l-.935-1.256a.474.474,0,0,0-.663-.1h0a.473.473,0,0,0-.1.663l.935,1.258A.476.476,0,0,0,2805.824,1011.929Z" transform="translate(-2729.104 -914.922)" fill="#3b1a1a"/>
            <path id="Trazado_113454" data-name="Trazado 113454" d="M2806.016,1011.8h0a.474.474,0,0,0,.1-.662l-.935-1.259a.477.477,0,0,0-.663-.1h0a.474.474,0,0,0-.1.662l.934,1.258A.476.476,0,0,0,2806.016,1011.8Z" transform="translate(-2728.623 -915.239)" fill="#3b1a1a"/>
            <g id="Grupo_81613" data-name="Grupo 81613" transform="translate(107.798 45.434)">
              <path id="Trazado_113455" data-name="Trazado 113455" d="M2817.336,999.429a10.882,10.882,0,0,0,1.174-.352,10.049,10.049,0,0,0,2.189-1.276.648.648,0,0,0,.06-.108,3.01,3.01,0,0,0,.056-.3l-.216-.293a20.477,20.477,0,0,0-2.487-1.28c-.271-.007-1.352-.007-1.659-.049-.694-.1-1.416-.136-1.416-.136s-1.37.708-1.492,1.677l0,.247a1.9,1.9,0,0,0,.68,1.625,5.183,5.183,0,0,0,1.708.39A11.451,11.451,0,0,0,2817.336,999.429Z" transform="translate(-2813.497 -995.615)" fill="#7e8580"/>
              <path id="Trazado_113456" data-name="Trazado 113456" d="M2816.479,996.282a1.873,1.873,0,0,0-.806.011c-.206.115-.46.268-.449.383s.111.614.111.614.522-.335.68-.478S2816.479,996.282,2816.479,996.282Z" transform="translate(-2809.322 -994.117)" fill="#545c56"/>
              <path id="Trazado_113457" data-name="Trazado 113457" d="M2815.823,996.643s-.314.028-.311-.119a2.2,2.2,0,0,1,.15-.474l.213.3Z" transform="translate(-2808.605 -994.586)" fill="#3f4541"/>
              <path id="Trazado_113458" data-name="Trazado 113458" d="M2816.25,996.489s.471.694.409.753-.547-.021-.578-.289a.709.709,0,0,0-.5-.694,1.5,1.5,0,0,0-.4-.08l.063-.37Z" transform="translate(-2809.441 -995.185)" fill="#3f4541"/>
              <path id="Trazado_113459" data-name="Trazado 113459" d="M2815.934,996.435s-.15-.091-.627.046a.536.536,0,0,0-.338.662l1.05-.269Z" transform="translate(-2810.003 -993.702)" fill="#545c56"/>
              <path id="Trazado_113460" data-name="Trazado 113460" d="M2815.828,996.768l-1.172.352s-.112-.411-.007-.47.349.056.52,0S2815.636,996.426,2815.828,996.768Z" transform="translate(-2810.864 -993.327)" fill="#3f4541"/>
              <path id="Trazado_113461" data-name="Trazado 113461" d="M2815.616,996.909l-.351.2-.543.063-.5-.119s.017-.373.185-.408.537.129.642.056S2815.616,996.909,2815.616,996.909Z" transform="translate(-2811.823 -993.115)" fill="#545c56"/>
              <path id="Trazado_113462" data-name="Trazado 113462" d="M2815.439,997.294l-.133-.645a6.03,6.03,0,0,0-1.2-.087,1.079,1.079,0,0,0-.376.342s.907.37,1.189.436A.887.887,0,0,0,2815.439,997.294Z" transform="translate(-2813.044 -993.354)" fill="#545c56"/>
              <path id="Trazado_113463" data-name="Trazado 113463" d="M2814.215,997.992s.127-1.042-.07-1.126a.732.732,0,0,1-.429-.579c0-.244-.184-.167-.184-.167a3.606,3.606,0,0,0,.188,1.29A2,2,0,0,0,2814.215,997.992Z" transform="translate(-2813.531 -994.442)" fill="#545c56"/>
              <path id="Trazado_113464" data-name="Trazado 113464" d="M2816.1,996.122l-.039.23s-.283.251-.531.167-.366-.478-.575-.537-.083-.3-.083-.3Z" transform="translate(-2810.298 -995.498)" fill="#3f4541"/>
              <path id="Trazado_113465" data-name="Trazado 113465" d="M2816.046,995.718l-1.664-.049a.212.212,0,0,0,.143.307c.258.084.674-.3.754.077s.5,0,.512-.035S2816.046,995.718,2816.046,995.718Z" transform="translate(-2811.476 -995.533)" fill="#3f4541"/>
              <path id="Trazado_113466" data-name="Trazado 113466" d="M2815.374,995.765l-1.414-.135.282.569.9.071Z" transform="translate(-2812.466 -995.63)" fill="#545c56"/>
              <path id="Trazado_113467" data-name="Trazado 113467" d="M2815.027,995.63s-1,.383-1.088.732a5.387,5.387,0,0,1-.408.945.824.824,0,0,0,.554-.08c.209-.15.188-.631.412-.753a2.211,2.211,0,0,0,.533-.569l.069-.125Z" transform="translate(-2813.531 -995.63)" fill="#545c56"/>
              <path id="Trazado_113468" data-name="Trazado 113468" d="M2813.941,997.212l.181-.321.094-.157c.035-.042.067-.129.111-.118l.715.181.011,0,0-.01-.078-.338,0,0,.2-.352-.212.349v0l.074.339.007-.011-.711-.184c-.076,0-.086.087-.125.129l-.091.16Z" transform="translate(-2812.513 -994.454)" fill="#545c56"/>
              <path id="Trazado_113469" data-name="Trazado 113469" d="M2814.288,996.56l-.422-.474Z" transform="translate(-2812.7 -994.496)" fill="#545c56"/>
              <path id="Trazado_113470" data-name="Trazado 113470" d="M2817.059,996.608l-.592-.21.016.013-.233-.353-.029-.046-.017.051-.138.418.02-.013-.366,0-.009,0-.5.373h.007l-.327-.293.318.3h.008l.514-.359-.008,0,.366.007h.014l.006-.014.148-.414-.047.006.223.36.006.009.012,0,.588.218Z" transform="translate(-2810.167 -994.682)" fill="#3f4541"/>
              <path id="Trazado_113471" data-name="Trazado 113471" d="M2814.46,995.963l.313.14v0l.021.667.008.005.666-.131-.668.12.007.005-.028-.666v0Z" transform="translate(-2811.222 -994.802)" fill="#545c56"/>
              <path id="Trazado_113472" data-name="Trazado 113472" d="M2814.435,996.668l.55-.314Z" transform="translate(-2811.286 -993.83)" fill="#545c56"/>
            </g>
            <path id="Trazado_113473" data-name="Trazado 113473" d="M2813.654,997.68h0a.181.181,0,0,1-.182-.184l.008-1.328a.187.187,0,0,1,.188-.181h0a.183.183,0,0,1,.182.185l-.011,1.328A.183.183,0,0,1,2813.654,997.68Z" transform="translate(-2705.88 -949.311)" fill="#632e1a"/>
            <path id="Trazado_113474" data-name="Trazado 113474" d="M2813.518,997.677h0a.186.186,0,0,1-.185-.185l.011-1.328a.183.183,0,0,1,.185-.181h0a.186.186,0,0,1,.185.185l-.011,1.325A.186.186,0,0,1,2813.518,997.677Z" transform="translate(-2706.226 -949.32)" fill="#632e1a"/>
            <path id="Trazado_113475" data-name="Trazado 113475" d="M2813.377,997.672h0a.183.183,0,0,1-.181-.185l.01-1.328a.183.183,0,0,1,.185-.181h0a.182.182,0,0,1,.181.185l-.01,1.325A.187.187,0,0,1,2813.377,997.672Z" transform="translate(-2706.569 -949.33)" fill="#632e1a"/>
          </g>
          <g id="Grupo_81618" data-name="Grupo 81618" transform="translate(639.899 217.947)">
            <g id="Grupo_81616" data-name="Grupo 81616" transform="translate(4.006)">
              <rect id="Rectángulo_34885" data-name="Rectángulo 34885" width="3.017" height="141.57" transform="translate(13.611 9.562) rotate(-66.613)" fill="#180000"/>
              <g id="Grupo_81615" data-name="Grupo 81615">
                <path id="Trazado_113476" data-name="Trazado 113476" d="M2973.153,996.921a26.142,26.142,0,0,1-2.245-1.914,24.306,24.306,0,0,1-3.587-4.944,1.5,1.5,0,0,1-.021-.3s.118-.593.17-.708l.757-.44a49.033,49.033,0,0,1,6.714-.4c.614.247,2.992,1.3,3.713,1.5,1.621.45,3.246,1.077,3.246,1.077s2.332,2.887,1.655,5.142l-.243.544a4.582,4.582,0,0,1-3.075,2.915,12.375,12.375,0,0,1-4.145-.8A27.026,27.026,0,0,1,2973.153,996.921Z" transform="translate(-2967.299 -987.989)" fill="#7e8580"/>
                <path id="Trazado_113477" data-name="Trazado 113477" d="M2967.342,988.748s1.429.352,1.767.806.75,1.035.613,1.28-.847,1.245-.847,1.245a18.423,18.423,0,0,1-1.024-1.708C2967.648,989.9,2967.342,988.748,2967.342,988.748Z" transform="translate(-2967.195 -986.674)" fill="#545c56"/>
                <path id="Trazado_113478" data-name="Trazado 113478" d="M2967.335,989.481s.663.366.788.042a5.248,5.248,0,0,0,.139-1.189l-.759.44Z" transform="translate(-2967.209 -987.703)" fill="#3f4541"/>
                <path id="Trazado_113479" data-name="Trazado 113479" d="M2968.962,988.669s-1.712,1.07-1.625,1.262,1.221.485,1.552-.077a1.72,1.72,0,0,1,1.771-1.046,3.828,3.828,0,0,1,.965.223l.227-.879Z" transform="translate(-2967.211 -988.153)" fill="#3f4541"/>
                <path id="Trazado_113480" data-name="Trazado 113480" d="M2968.4,989.45s.418-.056,1.335.711a1.288,1.288,0,0,1,.1,1.788l-2.054-1.614Z" transform="translate(-2966.101 -984.931)" fill="#545c56"/>
                <path id="Trazado_113481" data-name="Trazado 113481" d="M2968.371,990.328l2.241,1.914s.645-.8.467-1.029-.812-.22-1.136-.519S2969.129,989.76,2968.371,990.328Z" transform="translate(-2964.635 -983.31)" fill="#3f4541"/>
                <path id="Trazado_113482" data-name="Trazado 113482" d="M2969.014,990.754l.579.788,1.132.666,1.228.223s.317-.834-.01-1.077-1.311-.234-1.472-.5S2969.014,990.754,2969.014,990.754Z" transform="translate(-2963.037 -981.821)" fill="#545c56"/>
                <path id="Trazado_113483" data-name="Trazado 113483" d="M2969.856,992.119l.917-1.293a14.147,14.147,0,0,1,2.734.983,2.549,2.549,0,0,1,.494,1.112s-2.357-.066-3.04-.192A2.1,2.1,0,0,1,2969.856,992.119Z" transform="translate(-2960.941 -981.509)" fill="#545c56"/>
                <path id="Trazado_113484" data-name="Trazado 113484" d="M2971.045,993.971s.729-2.416,1.249-2.409a1.76,1.76,0,0,0,1.5-.861c.244-.533.572-.188.572-.188a8.719,8.719,0,0,1-1.667,2.66A4.744,4.744,0,0,1,2971.045,993.971Z" transform="translate(-2957.985 -982.56)" fill="#545c56"/>
                <path id="Trazado_113485" data-name="Trazado 113485" d="M2968.729,988.153l-.139.544s.376.83,1,.886,1.266-.7,1.785-.624.478-.575.478-.575Z" transform="translate(-2964.088 -988.153)" fill="#3f4541"/>
                <path id="Trazado_113486" data-name="Trazado 113486" d="M2969.527,988.219l3.71,1.5a.507.507,0,0,1-.614.537c-.648-.066-1.186-1.325-1.73-.558s-1.11-.481-1.1-.575A8.183,8.183,0,0,0,2969.527,988.219Z" transform="translate(-2961.759 -987.989)" fill="#3f4541"/>
                <path id="Trazado_113487" data-name="Trazado 113487" d="M2970.591,988.65l3.247,1.076-1.175.978-2.058-.721Z" transform="translate(-2959.113 -986.917)" fill="#545c56"/>
                <path id="Trazado_113488" data-name="Trazado 113488" d="M2971.747,988.959s1.841,1.82,1.684,2.667a12.587,12.587,0,0,0-.024,2.475,1.96,1.96,0,0,1-1.14-.715c-.31-.534.2-1.572-.174-2.053a5.151,5.151,0,0,1-.621-1.771c-.015-.136-.04-.345-.04-.345Z" transform="translate(-2957.022 -986.149)" fill="#545c56"/>
                <path id="Trazado_113489" data-name="Trazado 113489" d="M2972.266,993.318l-.094-.882-.057-.439-.038-.217c-.029-.066,0-.167-.094-.153l-1.747-.289-.031,0,.02-.028.5-.663v.006l-.109-.976.13.973,0,.01-.489.673-.01-.031,1.75.293c.1-.014.1.133.114.181l.032.22.048.442Z" transform="translate(-2960.073 -984.371)" fill="#545c56"/>
                <path id="Trazado_113490" data-name="Trazado 113490" d="M2970.888,990.686l.691-.331.7-.3-.691.331Z" transform="translate(-2958.375 -983.424)" fill="#545c56"/>
                <path id="Trazado_113491" data-name="Trazado 113491" d="M2967.584,989.026l1.509.113-.048.013.856-.552.111-.072-.012.13-.1,1.054-.029-.048.8.364.011.005.006.01.747,1.312-.017-.006,1-.328-1,.357-.011,0-.008-.011-.783-1.29.016.015-.814-.341-.031-.014V989.7l.073-1.056.1.058-.841.575-.021.015-.028,0-1.51-.091Z" transform="translate(-2966.622 -987.22)" fill="#3f4541"/>
                <path id="Trazado_113492" data-name="Trazado 113492" d="M2972.152,989.214l-.828,0,.006,0-.7,1.447-.007.015-.014-.009-1.341-.936,1.357.912-.021.005.71-1.44.006,0Z" transform="translate(-2962.397 -985.543)" fill="#545c56"/>
                <path id="Trazado_113493" data-name="Trazado 113493" d="M2970.335,991.169l-.467-.6-.443-.628.467.607Z" transform="translate(-2962.012 -983.715)" fill="#545c56"/>
              </g>
              <path id="Trazado_113494" data-name="Trazado 113494" d="M2971.854,993.934h0a.448.448,0,0,0,.585-.234l1.265-2.929a.442.442,0,0,0-.23-.582h0a.447.447,0,0,0-.586.23l-1.266,2.928A.447.447,0,0,0,2971.854,993.934Z" transform="translate(-2956.638 -983.181)" fill="#632e1a"/>
              <path id="Trazado_113495" data-name="Trazado 113495" d="M2972.162,994.059h0a.443.443,0,0,0,.583-.23l1.27-2.932a.445.445,0,0,0-.23-.582h0a.445.445,0,0,0-.585.23l-1.267,2.932A.444.444,0,0,0,2972.162,994.059Z" transform="translate(-2955.87 -982.871)" fill="#632e1a"/>
              <path id="Trazado_113496" data-name="Trazado 113496" d="M2972.472,994.186h0a.447.447,0,0,0,.582-.233l1.269-2.929a.45.45,0,0,0-.233-.586h0a.448.448,0,0,0-.583.233l-1.266,2.929A.447.447,0,0,0,2972.472,994.186Z" transform="translate(-2955.101 -982.558)" fill="#632e1a"/>
              <path id="Trazado_113497" data-name="Trazado 113497" d="M2972.782,994.309h0a.443.443,0,0,0,.582-.23l1.266-2.932a.446.446,0,0,0-.23-.582h0a.444.444,0,0,0-.583.23l-1.27,2.932A.448.448,0,0,0,2972.782,994.309Z" transform="translate(-2954.334 -982.247)" fill="#632e1a"/>
              <path id="Trazado_113498" data-name="Trazado 113498" d="M2973.091,994.433h0a.443.443,0,0,0,.582-.23l1.266-2.929a.446.446,0,0,0-.229-.586h0a.447.447,0,0,0-.582.234l-1.27,2.928A.444.444,0,0,0,2973.091,994.433Z" transform="translate(-2953.566 -981.934)" fill="#632e1a"/>
              <path id="Trazado_113499" data-name="Trazado 113499" d="M2973.4,994.561h0a.447.447,0,0,0,.586-.23l1.266-2.932a.445.445,0,0,0-.23-.582h0a.448.448,0,0,0-.587.23l-1.265,2.932A.444.444,0,0,0,2973.4,994.561Z" transform="translate(-2952.799 -981.622)" fill="#632e1a"/>
            </g>
            <g id="Grupo_81617" data-name="Grupo 81617" transform="translate(0 33.543)">
              <path id="Trazado_113500" data-name="Trazado 113500" d="M3029.268,1025.26c-.486-2.419-7.008-5.815-10.76-6.6a116.854,116.854,0,0,0-12.06-1.251s-3.912-2.723-7.043-3.354c-2.052-.415-4.894.073-5.658-.328s-5.631-5.09-8.686-6.628c-2.544-1.28-8.74-4.993-9.782-5.08s-6.06,3.016-5.878,3.6,9.73,9.406,11.254,10.515c2.44,1.774,6.667,3.2,7.241,4.271.642,1.2,3.123.9,5.384,2.4s9.623,5.833,13.823,6.631,7.183,1.077,7.26,2.406S3031.133,1034.558,3029.268,1025.26Z" transform="translate(-2958.081 -987.232)" fill="#b55624"/>
              <path id="Trazado_113501" data-name="Trazado 113501" d="M2984.591,1000c0-.854,1.322-2.255,4.024-2.224s8.371.816,10.783,2.552,4.98,6.415,5.384,8.368-.189,8.1,1.175,9.392,1.4,12.349-5.244,16.358c-1.678,1.011-1.956-6.708-2.468-7.419s-3.347-9.584-3.173-11.6c.523-6.021-1.485-2.614-3.144-4.979C2988.8,1006.006,2984.591,1000,2984.591,1000Z" transform="translate(-2920.297 -997.774)" fill="#180000"/>
              <path id="Trazado_113502" data-name="Trazado 113502" d="M3005.861,1005.8c3.578-.136,6.554-2.43,8.542,1.377s.761,20.41-.737,25.065-10.588,16.993-11.08,20.856-1.072,9.093-1.447,12.534.576,15.023-15.521,9.748c-11.425-3.744-5.731-16.9-4.846-24.862.4-3.609,4.42-11.976,4.852-15.086s.019-8.629,1.162-12.614S2992.613,1006.308,3005.861,1005.8Z" transform="translate(-2935.26 -979.821)" fill="#ca773b"/>
              <path id="Trazado_113503" data-name="Trazado 113503" d="M2989.139,1023.734s-10.61,18.5-12.234,24.7-3.944,9.916-1.744,12.321,7.59,4.511,12.882-.125,17.16-20.7,18.8-25.591S2995.031,1014.84,2989.139,1023.734Z" transform="translate(-2945.986 -939.999)" fill="#b55624"/>
              <path id="Trazado_113504" data-name="Trazado 113504" d="M2974.526,1033s-1.493,8.723,1.153,11.439,9,3.313,10.606.4,3.124-12.572,1.885-13.346S2974.526,1033,2974.526,1033Z" transform="translate(-2946.369 -914.335)" fill="#b55624"/>
              <path id="Trazado_113505" data-name="Trazado 113505" d="M2974.264,1035.1a140.122,140.122,0,0,0,.8,14.9c.806,5.947,1.778,14.343,2.933,15.7s8.116,4.215,7.977,1.13c-.523-11.519,3.315-13.294,3.14-17.359s-2.179-14.221-4.023-14.929S2974.264,1035.1,2974.264,1035.1Z" transform="translate(-2945.975 -906.858)" fill="#b55624"/>
              <path id="Trazado_113506" data-name="Trazado 113506" d="M2987.017,1045.85s-9.368,3.469-10.668,3.876a29.21,29.21,0,0,1-5.167.439s-1.241,1.147-.722,1.994,4.986,4.48,7.36,4.428,8.608-1.917,9.989-1.44,5.3,1.206,7.43-.024,4.365-2.465-.192-9.957S2987.017,1045.85,2987.017,1045.85Z" transform="translate(-2955.75 -887.797)" fill="#b55624"/>
              <path id="Trazado_113507" data-name="Trazado 113507" d="M2978.409,1032.722s3.458,19.8,5.927,25.716,2.873,10.275,6.084,10.85,11.268-.955,10.17-7.907c-2.218-14.03,7.649-28.882,2.213-36.663C2994.161,1012.34,2977.708,1022.078,2978.409,1032.722Z" transform="translate(-2935.724 -945.18)" fill="#ca773b"/>
              <path id="Trazado_113508" data-name="Trazado 113508" d="M2980.867,1036.717s2.652,9.88,6.244,11.087,9.518-1.154,9.619-4.484-2.956-12.614-4.406-12.736S2980.867,1036.717,2980.867,1036.717Z" transform="translate(-2929.559 -916.196)" fill="#ca773b"/>
              <path id="Trazado_113509" data-name="Trazado 113509" d="M2981.953,1040.079a108.721,108.721,0,0,0,9.892,11.327c4.4,4.079,12.12,8.563,12.98,10.125.952,1.729,6.722-1.332,6.346-4.4s-5.892-12.37-8.611-15.4-10.721-9.588-12.6-8.964S2981.953,1040.079,2981.953,1040.079Z" transform="translate(-2926.857 -910.859)" fill="#ca773b"/>
              <path id="Trazado_113510" data-name="Trazado 113510" d="M2991.966,1046.353s-1.245,9.912-1.486,11.254-2.59,1.545-3.175,2.336c-.45.607-.031,2.532.958,2.462s7.984.781,8.985-2.936c.617-2.294,2.269-8.521,3.329-9.525s3.521-4.149,3.41-6.6-.171-5.006-8.922-4.424S2991.966,1046.353,2991.966,1046.353Z" transform="translate(-2913.998 -895.682)" fill="#ca773b"/>
              <path id="Trazado_113511" data-name="Trazado 113511" d="M2981.163,1041.285s1.209,32.536,11.218,45.972c4.019,5.394,14.252,10.913,15.257,6.771.388-1.6-5.307-5.414-4.936-9.2s2.5-6.917.99-10.219-3.069-2.785-1.865-5.944,2.127-4.591.236-8.517-3.852-3.542-2.5-7.768-2.2-4.023-2.186-6.094,5.579-5.286,6.024-7.443,7.241-11.513,8.459-15.867c.93-3.333-2.859-14.895-2.859-14.895s-5.474,13.253-7.649,19.737C2994.337,1048.729,2981.163,1041.285,2981.163,1041.285Z" transform="translate(-2928.824 -972.158)" fill="#180000"/>
              <path id="Trazado_113512" data-name="Trazado 113512" d="M2996.146,1009.73s-3.148,25.807.392,27.442,5.052,1.391,5.093,2.852c1.154,38.058-26.65,36.964-26.65,36.964Z" transform="translate(-2944.198 -968.045)" fill="#180000"/>
              <path id="Trazado_113513" data-name="Trazado 113513" d="M2985.594,1010.836a2.731,2.731,0,0,1,.3,2.517c-.47,1.628-1.813,4.951-1.813,4.951s15.693,4.609,16.99,3.246.468-6.342.08-8.6c-.533-3.131-5.462-11.477-5.462-11.477Z" transform="translate(-2921.575 -988.589)" fill="#ca773b"/>
              <path id="Trazado_113514" data-name="Trazado 113514" d="M2984.732,1011.048a6.823,6.823,0,0,1,.489,2.141,9.887,9.887,0,0,1-.816,2.859c10.672,4.672,13.141-9.145,12.261-10.763s-2.186-4.068-2.186-4.068Z" transform="translate(-2920.762 -989.215)" fill="#b55624"/>
              <path id="Trazado_113515" data-name="Trazado 113515" d="M2996.768,1012.783s-.662,4.383-3.288,5.62-7.656.422-8.189.112-2.742-3.106-2.633-3.7a7.9,7.9,0,0,1,.4-1.1s-.707-.418-.658-.645c.236-1.085,1.328-2.929,1.3-3.337s-1.355-1.611-.907-2.165,2.7-1.991,2.866-2.458-.133-3.072.2-3.469,1.559-1.049,2.145-.774.842-1.615,2.035-2.319,5.41.694,6.229,2.845,1.057,6.5,1.476,6.7,2.517-1.973,3.527-1S3001.119,1012.814,2996.768,1012.783Z" transform="translate(-2925.752 -996.32)" fill="#ca773b"/>
              <path id="Trazado_113516" data-name="Trazado 113516" d="M2990.952,1006.669c1.9-.056,14.022,3.1,15.709,3.546s2.207,7.165.91,8.8-18.729.2-20.723-1.22S2986.15,1006.8,2990.952,1006.669Z" transform="translate(-2916.93 -975.659)" fill="#ca773b"/>
              <path id="Trazado_113517" data-name="Trazado 113517" d="M2994.911,1031.262s4.6-1.97,5.506-6.593,0-22.927,0-22.927h-4.777s-3.4,16.3-4.055,19.381S2989.925,1030.924,2994.911,1031.262Z" transform="translate(-2904.269 -987.908)" fill="#ca773b"/>
              <path id="Trazado_113518" data-name="Trazado 113518" d="M2994.1,1008.845s-3.186-7.011-2.276-8.957,7.852-.781,9.02,1.168-1.966,7.789-1.966,7.789Z" transform="translate(-2902.727 -995.01)" fill="#ca773b"/>
              <path id="Trazado_113519" data-name="Trazado 113519" d="M2983.349,1010.623a16.044,16.044,0,0,1-3.626-2.782c-1.122-1.367-3.025-4.916-4.064-5.178s-8.658-3.856-9.263-4.093-.083,1.757,1.471,2.883a33.165,33.165,0,0,1,4.33,4.327c.433.52-1.559-1-2.078-1.192s-.865.76.174,1.712,1.555,3.277,2.594,4.323,4.585,3.6,4.585,3.6S2983.681,1012.52,2983.349,1010.623Z" transform="translate(-2966.15 -995.84)" fill="#b55624"/>
            </g>
          </g>
          <g id="Grupo_81622" data-name="Grupo 81622" transform="translate(227.354 238.273)">
            <g id="Grupo_81620" data-name="Grupo 81620" transform="translate(75.676)">
              <rect id="Rectángulo_34886" data-name="Rectángulo 34886" width="2.133" height="100.1" transform="translate(3.315 11.131) rotate(-16.995)" fill="#180000"/>
              <g id="Grupo_81619" data-name="Grupo 81619">
                <path id="Trazado_113520" data-name="Trazado 113520" d="M2869.581,1000.646a17.956,17.956,0,0,1,0-2.085,17.125,17.125,0,0,1,1.018-4.2,1.411,1.411,0,0,1,.149-.146,5.053,5.053,0,0,1,.46-.234l.583.209a34.839,34.839,0,0,1,3.295,3.431c.146.442.666,2.207.889,2.688.5,1.081.907,2.242.907,2.242s-.486,2.58-2.013,3.249l-.4.115a3.228,3.228,0,0,1-2.98-.321,8.787,8.787,0,0,1-1.464-2.6A19.2,19.2,0,0,1,2869.581,1000.646Z" transform="translate(-2869.476 -993.983)" fill="#7e8580"/>
                <path id="Trazado_113521" data-name="Trazado 113521" d="M2870.643,994.111a3.165,3.165,0,0,1,.377,1.322c-.091.391-.213.879-.405.917s-1.06.115-1.06.115a12.746,12.746,0,0,1,.451-1.336C2870.166,994.808,2870.643,994.111,2870.643,994.111Z" transform="translate(-2869.462 -993.664)" fill="#545c56"/>
                <path id="Trazado_113522" data-name="Trazado 113522" d="M2869.912,994.236s.1.526.339.446a3.755,3.755,0,0,0,.7-.47l-.585-.209Z" transform="translate(-2868.577 -993.936)" fill="#3f4541"/>
                <path id="Trazado_113523" data-name="Trazado 113523" d="M2871.339,994.385s-1.36-.432-1.422-.3.3.879.75.8a1.221,1.221,0,0,1,1.377.474,2.776,2.776,0,0,1,.321.624l.578-.283Z" transform="translate(-2868.582 -993.788)" fill="#3f4541"/>
                <path id="Trazado_113524" data-name="Trazado 113524" d="M2870.315,994.765s.22.2.226,1.043-.917.875-.917.875l-.07-1.844Z" transform="translate(-2869.462 -992.039)" fill="#545c56"/>
                <path id="Trazado_113525" data-name="Trazado 113525" d="M2869.577,995.315l0,2.085s.725-.017.767-.22-.255-.54-.24-.847S2870.233,995.461,2869.577,995.315Z" transform="translate(-2869.415 -990.671)" fill="#3f4541"/>
                <path id="Trazado_113526" data-name="Trazado 113526" d="M2869.688,995.913l-.16.673.16.917.442.76s.6-.213.576-.5-.475-.812-.4-1.021S2869.688,995.913,2869.688,995.913Z" transform="translate(-2869.529 -989.184)" fill="#545c56"/>
                <path id="Trazado_113527" data-name="Trazado 113527" d="M2869.708,996.657l1.116-.1a10.1,10.1,0,0,1,.721,1.921,1.77,1.77,0,0,1-.369.778s-1.046-1.3-1.291-1.726A1.491,1.491,0,0,1,2869.708,996.657Z" transform="translate(-2869.105 -987.578)" fill="#545c56"/>
                <path id="Trazado_113528" data-name="Trazado 113528" d="M2870.122,997.687s1.635-.715,1.869-.429a1.254,1.254,0,0,0,1.155.415c.4-.115.358.219.358.219a6.159,6.159,0,0,1-2.193.321A3.35,3.35,0,0,1,2870.122,997.687Z" transform="translate(-2868.052 -986.007)" fill="#545c56"/>
                <path id="Trazado_113529" data-name="Trazado 113529" d="M2871.125,994.533l-.355.174s-.277.582-.021.945.956.363,1.154.68.53-.01.53-.01Z" transform="translate(-2866.764 -992.615)" fill="#3f4541"/>
                <path id="Trazado_113530" data-name="Trazado 113530" d="M2871.542,995.046l.888,2.688a.359.359,0,0,1-.57-.084c-.259-.38.17-1.245-.489-1.189s-.251-.819-.2-.858A6.063,6.063,0,0,0,2871.542,995.046Z" transform="translate(-2865.874 -991.34)" fill="#3f4541"/>
                <path id="Trazado_113531" data-name="Trazado 113531" d="M2871.917,995.817l.907,2.241-1.065-.184-.553-1.438Z" transform="translate(-2865.359 -989.423)" fill="#545c56"/>
                <path id="Trazado_113532" data-name="Trazado 113532" d="M2873.23,996.5s-.137,1.823-.667,2.126a9.191,9.191,0,0,0-1.345,1.123,1.4,1.4,0,0,1-.137-.941c.147-.411.938-.614,1.029-1.035a3.686,3.686,0,0,1,.669-1.144l.167-.178Z" transform="translate(-2865.766 -987.859)" fill="#545c56"/>
                <path id="Trazado_113533" data-name="Trazado 113533" d="M2870.388,998.7l.436-.453.21-.234.1-.119c.021-.045.087-.077.039-.119l-.646-1.077-.01-.017h.021l.589-.035-.008,0,.479-.5-.464.512-.006,0-.587.045.011-.021.646,1.078c.052.045-.025.115-.046.143l-.105.119-.211.23Z" transform="translate(-2867.39 -988.612)" fill="#545c56"/>
                <path id="Trazado_113534" data-name="Trazado 113534" d="M2870.691,996.7l.5.22.484.24-.495-.219Z" transform="translate(-2866.637 -987.217)" fill="#545c56"/>
                <path id="Trazado_113535" data-name="Trazado 113535" d="M2870.089,994.2l.63.865-.029-.02.69.208.089.027-.075.053-.615.427.013-.038.172.6,0,.009,0,.007-.365,1,0-.012.637.391-.648-.372-.008,0,0-.009.335-1.014v.016l-.189-.594-.006-.023.02-.015.6-.444.015.08-.7-.19-.017,0-.012-.016-.643-.855Z" transform="translate(-2868.386 -993.438)" fill="#3f4541"/>
                <path id="Trazado_113536" data-name="Trazado 113536" d="M2872.023,996.744l-.38-.445,0,0-1.1.287-.01,0v-.012l-.111-1.151.131,1.149-.012-.009,1.1-.278,0,0Z" transform="translate(-2867.298 -990.39)" fill="#545c56"/>
                <path id="Trazado_113537" data-name="Trazado 113537" d="M2870.11,996.832l.112-.53.135-.523-.112.53Z" transform="translate(-2868.081 -989.517)" fill="#545c56"/>
              </g>
              <path id="Trazado_113538" data-name="Trazado 113538" d="M2870.517,998.338h0a.312.312,0,0,0,.391.209l2.162-.659a.313.313,0,0,0,.206-.39h0a.311.311,0,0,0-.391-.209l-2.158.659A.316.316,0,0,0,2870.517,998.338Z" transform="translate(-2867.103 -985.8)" fill="#632e1a"/>
              <path id="Trazado_113539" data-name="Trazado 113539" d="M2870.591,998.562h0a.312.312,0,0,0,.391.209l2.158-.659a.314.314,0,0,0,.21-.394h0a.313.313,0,0,0-.392-.206l-2.158.659A.313.313,0,0,0,2870.591,998.562Z" transform="translate(-2866.92 -985.243)" fill="#632e1a"/>
              <path id="Trazado_113540" data-name="Trazado 113540" d="M2870.666,998.787h0a.315.315,0,0,0,.39.209l2.159-.663a.313.313,0,0,0,.208-.39h0a.316.316,0,0,0-.39-.209l-2.158.662A.311.311,0,0,0,2870.666,998.787Z" transform="translate(-2866.737 -984.688)" fill="#632e1a"/>
              <path id="Trazado_113541" data-name="Trazado 113541" d="M2870.74,999.011h0a.315.315,0,0,0,.39.209l2.158-.662a.313.313,0,0,0,.209-.391h0a.317.317,0,0,0-.39-.209l-2.158.662A.31.31,0,0,0,2870.74,999.011Z" transform="translate(-2866.553 -984.131)" fill="#632e1a"/>
              <path id="Trazado_113542" data-name="Trazado 113542" d="M2870.814,999.235h0a.31.31,0,0,0,.39.206l2.158-.659a.316.316,0,0,0,.21-.39h0a.317.317,0,0,0-.394-.209l-2.158.659A.315.315,0,0,0,2870.814,999.235Z" transform="translate(-2866.369 -983.574)" fill="#632e1a"/>
              <path id="Trazado_113543" data-name="Trazado 113543" d="M2870.887,999.457h0a.311.311,0,0,0,.391.209l2.158-.659a.317.317,0,0,0,.209-.39h0a.314.314,0,0,0-.394-.209l-2.159.659A.313.313,0,0,0,2870.887,999.457Z" transform="translate(-2866.185 -983.018)" fill="#632e1a"/>
            </g>
            <g id="Grupo_81621" data-name="Grupo 81621" transform="translate(0 32.302)">
              <path id="Trazado_113544" data-name="Trazado 113544" d="M2859.5,1010.463s11.331.492,13.186,1.932,4.145-.6,6.174-.966a36.9,36.9,0,0,1,10.333-.272,60.682,60.682,0,0,1,.374,8.239c-.206,3.089-8.448,5.561-15.034,5.352s-5.966,1.674-10.083.014S2853.313,1014.295,2859.5,1010.463Z" transform="translate(-2824.865 -985.308)" fill="#ca773b"/>
              <path id="Trazado_113545" data-name="Trazado 113545" d="M2878.533,1026.51c-1.363-1.053-5.352,2.43-9.42,2.563-8,.258-17.878-1.838-19.65-2.563-2.667-1.094,11.672,38.027,14.535,37.772s5.1-4.72,7.161-2.869.761,3.964,3.072,2.869,2.443-3.81,5.539-4.574,2.843-3.019,2.079-6.335.227-5.6.495-8.9S2882.584,1029.634,2878.533,1026.51Z" transform="translate(-2844.563 -945.899)" fill="#180000"/>
              <path id="Trazado_113546" data-name="Trazado 113546" d="M2848.982,1033.076s1.427,34.557,4.223,40.579,9.675,8.5,11.274,2.632,5-35.687,1.652-43.542S2853.085,1026.654,2848.982,1033.076Z" transform="translate(-2844.939 -942.877)" fill="#b55624"/>
              <path id="Trazado_113547" data-name="Trazado 113547" d="M2874.539,1011.925c5.417-1.238,8.655-2.35,11.96-.415s-.061,15.323-1.93,19.242-7.826,12.82-7.6,16.729,3.426,23.763,1.536,29.467-25.758,6.164-28.544,1.276,2.26-22.167,1.954-27.1-3.891-25.465-3.25-29.258,5.345-10.285,10.528-10.2S2870.9,1012.754,2874.539,1011.925Z" transform="translate(-2845.919 -985.308)" fill="#ca773b"/>
              <path id="Trazado_113548" data-name="Trazado 113548" d="M2867.874,1016.264a13.577,13.577,0,0,1,6.146-3.336c3.445-.655,8.542-3.682,9.9-4.7s6.711,1.2,4.641,3.758a77.906,77.906,0,0,1-13.545,12.527c-3.4,2.374-8.87,3.009-8.87,3.009C2865.726,1025.165,2866.074,1017.7,2867.874,1016.264Z" transform="translate(-2802.664 -991.503)" fill="#ca773b"/>
              <path id="Trazado_113549" data-name="Trazado 113549" d="M2875.432,1004.406c-4.634-2.911-14.085-.38-19.762,8.12-7.283,10.906-4.954,29.628.192,30.866s13.249-12.963,16.1-12.768a7.8,7.8,0,0,0,7.789-6.868C2880.578,1018.815,2884.284,1009.964,2875.432,1004.406Z" transform="translate(-2839.778 -1003.248)" fill="#180000"/>
              <path id="Trazado_113550" data-name="Trazado 113550" d="M2872.1,1015.385s-1.861-3.033,2.151-6.14,5.5-4.288,6.911-3.413.676,5.052-2.2,8.283-3.964,3.592-4.617,3.086S2872.1,1015.385,2872.1,1015.385Z" transform="translate(-2788.531 -997.52)" fill="#ca773b"/>
              <path id="Trazado_113551" data-name="Trazado 113551" d="M2873.533,1030.556s7.975,34.579,8.414,38.794-5.777,8.172-9.371,5.471-14.226-27.495-21.1-35.026C2847.368,1035.3,2863.7,1020.452,2873.533,1030.556Z" transform="translate(-2840.362 -943.931)" fill="#ca773b"/>
              <path id="Trazado_113552" data-name="Trazado 113552" d="M2852.139,1043.411s-2.879,8.842-2.165,21.773c.356,6.464,2.625,12.028,3.048,17.056.609,7.217,2.981,7.311,3.908,7.213,1.858-.191,6.585.579,5.923-28.411C2862.467,1044.095,2865.5,1035.556,2852.139,1043.411Z" transform="translate(-2842.756 -910.702)" fill="#b55624"/>
              <path id="Trazado_113553" data-name="Trazado 113553" d="M2870.021,1039.221s-1.677,20.288-2.909,28.934-2.3,16.568-2.3,16.568-7.82.844-7.663-.857c1.213-13.2-2.549-18.9-1.259-28.031C2856.671,1050.339,2856.538,1041.568,2870.021,1039.221Z" transform="translate(-2828.436 -913.802)" fill="#ca773b"/>
              <path id="Trazado_113554" data-name="Trazado 113554" d="M2851.435,1054.685s-1.088,4.152-.708,5.359,2.984,1.806,5.78,1.73,7.119-5.8,7.367-6.684c.317-1.144.2-1.586-1.97-2.221C2860.2,1052.367,2855,1052.565,2851.435,1054.685Z" transform="translate(-2840.802 -880.441)" fill="#b55624"/>
              <path id="Trazado_113555" data-name="Trazado 113555" d="M2857.3,1052.271s-1.726,2.66-1.681,4.661,1.6,3.427,1.681,4.669-.46,2.189,0,3.047,12.276,1.429,11.892,0-1.426-1.05-2.284-2.287-2.241-6.154-2.091-7.252S2858.81,1048.886,2857.3,1052.271Z" transform="translate(-2828.438 -884.188)" fill="#b55624"/>
              <path id="Trazado_113556" data-name="Trazado 113556" d="M2851.73,1026.51c1.358-1.053,5.352,2.43,9.42,2.563,8,.258,17.878-1.838,19.647-2.563,2.669-1.094-11.67,38.027-14.532,37.772s-5.1-4.72-7.161-2.869-.76,3.964-3.072,2.869-2.443-3.81-5.54-4.574-2.842-3.019-2.081-6.335-.223-5.6-.491-8.9S2847.678,1029.634,2851.73,1026.51Z" transform="translate(-2847.823 -945.899)" fill="#180000"/>
            </g>
          </g>
        </g>
      </g>
    </g>
  </g>
</svg>
