<svg xmlns="http://www.w3.org/2000/svg" width="56.957" height="127.4" viewBox="0 0 56.957 127.4">
  <g id="candle" transform="translate(-141.55)">
    <g id="Grupo_53792" data-name="Grupo 53792" transform="translate(143.416 1.866)">
      <path id="Trazado_101706" data-name="Trazado 101706" d="M231.182,8.07a1.594,1.594,0,0,0-2.443,0c-2.322,2.763-7.141,9.165-7.141,14.68a8.363,8.363,0,0,0,16.725,0C238.323,17.235,233.5,10.834,231.182,8.07Z" transform="translate(-203.546 -7.5)" fill="#fadc60"/>
      <path id="Trazado_101707" data-name="Trazado 101707" d="M226.575,22.749c0-4.639,3.409-9.9,5.874-13.105-.466-.6-.9-1.136-1.267-1.576a1.594,1.594,0,0,0-2.443,0c-2.322,2.763-7.141,9.165-7.141,14.68a8.369,8.369,0,0,0,10.851,7.986A8.365,8.365,0,0,1,226.575,22.749Z" transform="translate(-203.546 -7.498)" fill="#f2c42c"/>
      <rect id="Rectángulo_8737" data-name="Rectángulo 8737" width="25.075" height="61.909" transform="translate(14.075 35.736)" fill="#d2d2d2"/>
      <path id="Trazado_101708" data-name="Trazado 101708" d="M210.519,367.872v5.237c-5.944,0-8.93,18.286-8.93,18.286l-13.6,5.237-13.6-5.237s-2.987-18.286-8.93-18.286v-5.237Z" transform="translate(-161.377 -278.2)" fill="#f57c00"/>
      <path id="Trazado_101709" data-name="Trazado 101709" d="M184.345,391.4s-2.987-18.286-8.93-18.286v-5.237h-9.953v5.237c5.944,0,8.93,18.286,8.93,18.286l13.6,5.237,4.977-1.916Z" transform="translate(-161.377 -278.201)" fill="#ffa726"/>
      <path id="Trazado_101710" data-name="Trazado 101710" d="M198.191,346.826H153.134a4.084,4.084,0,0,0-4.084,4.084v2.307a4.084,4.084,0,0,0,4.084,4.084h45.058a4.084,4.084,0,0,0,4.084-4.084V350.91A4.084,4.084,0,0,0,198.191,346.826Z" transform="translate(-149.05 -262.391)" fill="#f57c00"/>
      <path id="Trazado_101711" data-name="Trazado 101711" d="M159,353.216V350.91a4.084,4.084,0,0,1,4.084-4.084h-9.953a4.084,4.084,0,0,0-4.084,4.084v2.307a4.084,4.084,0,0,0,4.084,4.084h9.953A4.084,4.084,0,0,1,159,353.216Z" transform="translate(-149.05 -262.391)" fill="#ffa726"/>
      <path id="Trazado_101712" data-name="Trazado 101712" d="M216.22,462.407h-27.2a4.084,4.084,0,0,0-4.084,4.084V468.8a4.084,4.084,0,0,0,4.084,4.084h27.2A4.084,4.084,0,0,0,220.3,468.8v-2.307A4.083,4.083,0,0,0,216.22,462.407Z" transform="translate(-176.01 -349.212)" fill="#f57c00"/>
      <path id="Trazado_101713" data-name="Trazado 101713" d="M194.893,468.8v-2.307a4.084,4.084,0,0,1,4.084-4.084h-9.953a4.084,4.084,0,0,0-4.084,4.084V468.8a4.084,4.084,0,0,0,4.084,4.084h9.953A4.084,4.084,0,0,1,194.893,468.8Z" transform="translate(-176.01 -349.212)" fill="#ffa726"/>
      <path id="Trazado_101714" data-name="Trazado 101714" d="M218.243,133.418H195.549a4.919,4.919,0,0,0-4.919,4.919v9.3a5.507,5.507,0,0,0,5.224,5.548,5.422,5.422,0,0,0,5.62-5.419v4.973a5.507,5.507,0,0,0,5.224,5.548,5.422,5.422,0,0,0,5.62-5.419V142.667a5.422,5.422,0,0,0,5.62,5.419,5.507,5.507,0,0,0,5.224-5.548v-4.2A4.919,4.919,0,0,0,218.243,133.418Z" transform="translate(-180.284 -102.085)" fill="#efedee"/>
    </g>
    <g id="Grupo_53793" data-name="Grupo 53793" transform="translate(141.55)">
      <path id="Trazado_101715" data-name="Trazado 101715" d="M157.491,66.087a1.866,1.866,0,0,0-1.866,1.866V84.434H147.5a5.956,5.956,0,0,0-5.95,5.95v2.307a5.957,5.957,0,0,0,5.95,5.95c2.375,0,5.32,7.561,6.77,14.961a5.958,5.958,0,0,0-3.79,5.542v2.307a5.956,5.956,0,0,0,5.95,5.95h27.2a5.957,5.957,0,0,0,5.95-5.95v-2.307a5.958,5.958,0,0,0-3.79-5.542c1.451-7.4,4.4-14.961,6.771-14.961a5.957,5.957,0,0,0,5.95-5.95V90.384a5.956,5.956,0,0,0-5.95-5.95h-8.125V48.774a7.5,7.5,0,0,0,3.729-6.457v-4.2a6.793,6.793,0,0,0-6.785-6.785H171.7v-4.16a10.244,10.244,0,0,0,8.363-10.055c0-5.968-4.748-12.512-7.578-15.881a3.461,3.461,0,0,0-5.3,0C164.35,4.6,159.6,11.148,159.6,17.116a10.244,10.244,0,0,0,8.363,10.055v4.16h-9.284a6.793,6.793,0,0,0-6.785,6.785v9.3a7.5,7.5,0,0,0,3.729,6.457v6.611a1.866,1.866,0,1,0,3.732,0V54.837l.059,0a6.882,6.882,0,0,0,1.575-.222l.01,0a7.179,7.179,0,0,0,1.859-.761c.008.046.019.09.028.135a7.52,7.52,0,0,0,1.322,2.972l.007.01a7.259,7.259,0,0,0,5.548,2.971h.008a7.386,7.386,0,0,0,7.541-7.18c0-.035,0-3.943,0-3.943a7.187,7.187,0,0,0,2.268.806,7.26,7.26,0,0,0,1.115.113v34.7H159.358V67.953A1.867,1.867,0,0,0,157.491,66.087Zm5.844-48.971c0-1.635.638-6.171,6.5-13.232,5.858,7.061,6.5,11.6,6.5,13.232a6.507,6.507,0,0,1-4.63,6.222V20.376a1.866,1.866,0,1,0-3.732,0v2.962A6.507,6.507,0,0,1,163.335,17.116Zm-7.706,21a3.056,3.056,0,0,1,3.052-3.052h22.695a3.056,3.056,0,0,1,3.052,3.052v4.2A3.7,3.7,0,0,1,181,46a3.619,3.619,0,0,1-3.687-3.554,1.866,1.866,0,0,0-3.732,0V52.654c0,.01,0,.02,0,.03a3.622,3.622,0,0,1-3.686,3.523,3.686,3.686,0,0,1-3.424-3.683V47.551a1.866,1.866,0,1,0-3.732,0,3.651,3.651,0,0,1-3.989,3.527,3.713,3.713,0,0,1-3.122-3.657v-9.3Zm30.216,83.334a2.22,2.22,0,0,1-2.217,2.217h-27.2a2.22,2.22,0,0,1-2.217-2.217v-2.307a2.22,2.22,0,0,1,2.217-2.217h27.2a2.22,2.22,0,0,1,2.217,2.217Zm6.713-33.284a2.22,2.22,0,0,1,2.217,2.217v2.307a2.22,2.22,0,0,1-2.217,2.217H181.252a1.866,1.866,0,0,0,0,3.732h5.82a29.042,29.042,0,0,0-2.983,6.7,70.465,70.465,0,0,0-2.016,7.855h-24.09a70.444,70.444,0,0,0-2.015-7.855,29.028,29.028,0,0,0-2.983-6.7h20.8a1.866,1.866,0,1,0,0-3.732H147.5a2.22,2.22,0,0,1-2.217-2.217V90.384a2.22,2.22,0,0,1,2.217-2.217Z" transform="translate(-141.55)"/>
    </g>
  </g>
</svg>
