<svg xmlns="http://www.w3.org/2000/svg" width="130" height="130" viewBox="0 0 130 130">
  <g id="_26" data-name="26" transform="translate(-1136.137 -1205.852)">
    <g id="cruz-bizantina" transform="translate(1136.137 1205.852)">
      <g id="Grupo_53849" data-name="Grupo 53849" transform="translate(2.097 2.097)">
        <g id="Grupo_53824" data-name="Grupo 53824" transform="translate(37.742 117.419)">
          <path id="Trazado_101804" data-name="Trazado 101804" d="M69.323,59.1V63.29a2.1,2.1,0,0,1-2.1,2.1H21.1a2.1,2.1,0,0,1-2.1-2.1V59.1A2.1,2.1,0,0,1,21.1,57H67.226A2.1,2.1,0,0,1,69.323,59.1Z" transform="translate(-19 -57)" fill="#d3a06c"/>
        </g>
        <g id="Grupo_53825" data-name="Grupo 53825" transform="translate(109.032 74.75)">
          <path id="Trazado_101805" data-name="Trazado 101805" d="M61.387,36.65v7.024a6.3,6.3,0,0,1-6.29,6.29,2.1,2.1,0,0,1-2.1-2.1V36.65a12.349,12.349,0,0,0,8.387,0Z" transform="translate(-53 -36.65)" fill="#d3a06c"/>
        </g>
        <g id="Grupo_53826" data-name="Grupo 53826" transform="translate(109.032 37.742)">
          <path id="Trazado_101806" data-name="Trazado 101806" d="M61.387,25.29v7.024a12.349,12.349,0,0,0-8.387,0V21.1A2.1,2.1,0,0,1,55.1,19,6.282,6.282,0,0,1,61.387,25.29Z" transform="translate(-53 -19)" fill="#d3a06c"/>
        </g>
        <g id="Grupo_53827" data-name="Grupo 53827" transform="translate(74.75 8.387)">
          <path id="Trazado_101807" data-name="Trazado 101807" d="M45.771,13.387H36.65A12.349,12.349,0,0,0,36.65,5h7.024a6.3,6.3,0,0,1,6.29,6.29,2.1,2.1,0,0,1-2.1,2.1Z" transform="translate(-36.65 -5)" fill="#d3a06c"/>
        </g>
        <g id="Grupo_53828" data-name="Grupo 53828" transform="translate(37.742 8.387)">
          <path id="Trazado_101808" data-name="Trazado 101808" d="M25.29,5h7.024a12.349,12.349,0,0,0,0,8.387H21.1a2.1,2.1,0,0,1-2.1-2.1A6.282,6.282,0,0,1,25.29,5Z" transform="translate(-19 -5)" fill="#d3a06c"/>
        </g>
        <g id="Grupo_53829" data-name="Grupo 53829" transform="translate(8.387 74.75)">
          <path id="Trazado_101809" data-name="Trazado 101809" d="M13.387,45.771v2.1a2.1,2.1,0,0,1-2.1,2.1A6.282,6.282,0,0,1,5,43.674V36.65a12.349,12.349,0,0,0,8.387,0Z" transform="translate(-5 -36.65)" fill="#d3a06c"/>
        </g>
        <g id="Grupo_53830" data-name="Grupo 53830" transform="translate(8.387 37.742)">
          <path id="Trazado_101810" data-name="Trazado 101810" d="M13.387,23.194v9.121a12.349,12.349,0,0,0-8.387,0V25.29A6.3,6.3,0,0,1,11.29,19a2.1,2.1,0,0,1,2.1,2.1Z" transform="translate(-5 -19)" fill="#d3a06c"/>
        </g>
        <g id="Grupo_53831" data-name="Grupo 53831" transform="translate(41.935 82.592)">
          <path id="Trazado_101811" data-name="Trazado 101811" d="M41.968,75.217H21L26.284,40.39a25,25,0,0,0,15.684,5.473,8.382,8.382,0,0,0-5.515,14.7,8.353,8.353,0,0,0,5.515,14.656Z" transform="translate(-21 -40.39)" fill="#cf9e76"/>
        </g>
        <g id="Grupo_53832" data-name="Grupo 53832" transform="translate(62.903 82.592)">
          <path id="Trazado_101812" data-name="Trazado 101812" d="M46.684,40.39l5.284,34.827H31a8.353,8.353,0,0,0,5.515-14.656A8.382,8.382,0,0,0,31,45.863,25,25,0,0,0,46.684,40.39Z" transform="translate(-31 -40.39)" fill="#cf9e76"/>
        </g>
        <g id="Grupo_53833" data-name="Grupo 53833" transform="translate(82.592 62.903)">
          <path id="Trazado_101813" data-name="Trazado 101813" d="M58.443,31A12.541,12.541,0,0,0,66.83,42.847v9.121L40.39,46.684A25.167,25.167,0,0,0,45.863,31a6.29,6.29,0,1,0,12.581,0Z" transform="translate(-40.39 -31)" fill="#cf9e76"/>
        </g>
        <g id="Grupo_53834" data-name="Grupo 53834" transform="translate(82.592 41.935)">
          <path id="Trazado_101814" data-name="Trazado 101814" d="M66.83,21v9.121a12.541,12.541,0,0,0-8.387,11.847,6.29,6.29,0,1,0-12.581,0A25,25,0,0,0,40.39,26.284Z" transform="translate(-40.39 -21)" fill="#cf9e76"/>
        </g>
        <g id="Grupo_53835" data-name="Grupo 53835" transform="translate(62.903 16.774)">
          <path id="Trazado_101815" data-name="Trazado 101815" d="M51.968,9,46.684,35.44A25,25,0,0,0,31,29.968a6.29,6.29,0,1,0,0-12.581A12.541,12.541,0,0,0,42.847,9Z" transform="translate(-31 -9)" fill="#cf9e76"/>
        </g>
        <g id="Grupo_53836" data-name="Grupo 53836" transform="translate(41.935 16.774)">
          <path id="Trazado_101816" data-name="Trazado 101816" d="M41.968,17.387a6.29,6.29,0,1,0,0,12.581A25,25,0,0,0,26.284,35.44L21,9h9.121a12.541,12.541,0,0,0,11.847,8.387Z" transform="translate(-21 -9)" fill="#cf9e76"/>
        </g>
        <g id="Grupo_53837" data-name="Grupo 53837" transform="translate(16.774 62.903)">
          <path id="Trazado_101817" data-name="Trazado 101817" d="M23.677,37.29A6.282,6.282,0,0,0,29.968,31,25.167,25.167,0,0,0,35.44,46.684L9,51.968V42.847A12.541,12.541,0,0,0,17.387,31,6.282,6.282,0,0,0,23.677,37.29Z" transform="translate(-9 -31)" fill="#cf9e76"/>
        </g>
        <g id="Grupo_53838" data-name="Grupo 53838" transform="translate(16.774 41.935)">
          <path id="Trazado_101818" data-name="Trazado 101818" d="M9,21l26.44,5.284a25,25,0,0,0-5.473,15.684,6.29,6.29,0,1,0-12.581,0A12.541,12.541,0,0,0,9,30.121Z" transform="translate(-9 -21)" fill="#cf9e76"/>
        </g>
        <g id="Grupo_53839" data-name="Grupo 53839" transform="translate(54.516 102.763)">
          <path id="Trazado_101819" data-name="Trazado 101819" d="M43.774,56.279a8.387,8.387,0,1,1-13.9-6.269,8.363,8.363,0,0,0,11.029,0A8.326,8.326,0,0,1,43.774,56.279Z" transform="translate(-27 -50.01)" fill="#fdd835"/>
        </g>
        <g id="Grupo_53840" data-name="Grupo 53840" transform="translate(54.516 88.064)">
          <path id="Trazado_101820" data-name="Trazado 101820" d="M40.9,57.7a8.382,8.382,0,1,1,2.873-6.311A8.355,8.355,0,0,1,40.9,57.7Z" transform="translate(-27 -43)" fill="#fdd835"/>
        </g>
        <g id="Grupo_53841" data-name="Grupo 53841" transform="translate(100.645 50.323)">
          <path id="Trazado_101821" data-name="Trazado 101821" d="M65.774,25.734a12.56,12.56,0,0,1,0,23.694,12.349,12.349,0,0,1-8.387,0,12.56,12.56,0,0,1,0-23.694,12.348,12.348,0,0,1,8.387,0Zm0,11.847a4.194,4.194,0,1,0-4.194,4.194A4.206,4.206,0,0,0,65.774,37.581Z" transform="translate(-49 -25)" fill="#fdd835"/>
        </g>
        <g id="Grupo_53842" data-name="Grupo 53842" transform="translate(87.994 56.68)">
          <circle id="Elipse_4081" data-name="Elipse 4081" cx="6.569" cy="6.569" r="6.569" transform="translate(0 0)" fill="#fdd835"/>
        </g>
        <g id="Grupo_53843" data-name="Grupo 53843" transform="translate(50.323)">
          <path id="Trazado_101822" data-name="Trazado 101822" d="M49.427,9.387a12.349,12.349,0,0,1,0,8.387,12.56,12.56,0,0,1-23.694,0,12.348,12.348,0,0,1,0-8.387,12.56,12.56,0,0,1,23.694,0Zm-7.653,4.194a4.194,4.194,0,1,0-4.194,4.194A4.206,4.206,0,0,0,41.774,13.581Z" transform="translate(-25 -1)" fill="#fdd835"/>
        </g>
        <g id="Grupo_53844" data-name="Grupo 53844" transform="translate(56.185 24.871)">
          <ellipse id="Elipse_4082" data-name="Elipse 4082" cx="6.223" cy="6.569" rx="6.223" ry="6.569" transform="translate(0 0)" fill="#fdd835"/>
        </g>
        <g id="Grupo_53845" data-name="Grupo 53845" transform="translate(0 50.323)">
          <path id="Trazado_101823" data-name="Trazado 101823" d="M26.161,37.581a12.541,12.541,0,0,1-8.387,11.847,12.349,12.349,0,0,1-8.387,0,12.56,12.56,0,0,1,0-23.694,12.348,12.348,0,0,1,8.387,0A12.541,12.541,0,0,1,26.161,37.581Zm-8.387,0a4.194,4.194,0,1,0-4.194,4.194A4.206,4.206,0,0,0,17.774,37.581Z" transform="translate(-1 -25)" fill="#fdd835"/>
        </g>
        <g id="Grupo_53846" data-name="Grupo 53846" transform="translate(25.069 56.68)">
          <circle id="Elipse_4083" data-name="Elipse 4083" cx="6.569" cy="6.569" r="6.569" transform="translate(0 0)" fill="#fdd835"/>
        </g>
        <g id="Grupo_53847" data-name="Grupo 53847" transform="translate(37.742 38.038)">
          <path id="Trazado_101824" data-name="Trazado 101824" d="M68.73,43.865a24.871,24.871,0,0,1-5.408,15.5H63.3A23.59,23.59,0,0,1,59.365,63.3v.021a24.914,24.914,0,0,1-31,0V63.3a23.591,23.591,0,0,1-3.937-3.937h-.021a24.914,24.914,0,0,1,0-31h.021a23.591,23.591,0,0,1,3.937-3.937v-.021a24.914,24.914,0,0,1,31,0v.021A23.591,23.591,0,0,1,63.3,28.366h.021A24.7,24.7,0,0,1,68.73,43.865Z" transform="translate(-19 -19)" fill="#f57c00"/>
        </g>
        <g id="Grupo_53848" data-name="Grupo 53848" transform="translate(46.505 45.616)">
          <ellipse id="Elipse_4084" data-name="Elipse 4084" cx="16.596" cy="16.941" rx="16.596" ry="16.941" transform="translate(0 0)" fill="#ffeaa7"/>
        </g>
      </g>
      <g id="Grupo_53850" data-name="Grupo 53850" transform="translate(0)">
        <path id="Trazado_101825" data-name="Trazado 101825" d="M40.871,22A18.871,18.871,0,1,0,59.742,40.871,18.891,18.891,0,0,0,40.871,22Zm0,33.548A14.677,14.677,0,1,1,55.548,40.871,14.7,14.7,0,0,1,40.871,55.548Z" transform="translate(24.129 24.129)"/>
        <path id="Trazado_101826" data-name="Trazado 101826" d="M36.387,26H32.194v4.194H28v4.194h4.194V46.968h4.194V34.387h4.194V30.194H36.387Z" transform="translate(30.71 28.516)"/>
        <path id="Trazado_101827" data-name="Trazado 101827" d="M34.29,16.581A6.29,6.29,0,1,0,28,10.29,6.3,6.3,0,0,0,34.29,16.581Zm0-8.387a2.1,2.1,0,1,1-2.1,2.1A2.1,2.1,0,0,1,34.29,8.194Z" transform="translate(30.71 4.387)"/>
        <path id="Trazado_101828" data-name="Trazado 101828" d="M16.581,34.29a6.29,6.29,0,1,0-6.29,6.29A6.3,6.3,0,0,0,16.581,34.29Zm-8.387,0a2.1,2.1,0,1,1,2.1,2.1A2.1,2.1,0,0,1,8.194,34.29Z" transform="translate(4.387 30.71)"/>
        <path id="Trazado_101829" data-name="Trazado 101829" d="M130,65a14.683,14.683,0,0,0-8.387-13.241v-5.63a8.4,8.4,0,0,0-8.387-8.387,4.2,4.2,0,0,0-4.194,4.194v.377L85.444,47.031a27.554,27.554,0,0,0-2.474-2.474l4.718-23.589h.377a4.2,4.2,0,0,0,4.194-4.194,8.4,8.4,0,0,0-8.387-8.387h-5.63a14.646,14.646,0,0,0-26.482,0h-5.63a8.4,8.4,0,0,0-8.387,8.387,4.2,4.2,0,0,0,4.194,4.194h.377l4.718,23.589a27.554,27.554,0,0,0-2.474,2.474L20.968,42.313v-.377a4.2,4.2,0,0,0-4.194-4.194,8.4,8.4,0,0,0-8.387,8.387v5.63a14.646,14.646,0,0,0,0,26.482v5.63a8.4,8.4,0,0,0,8.387,8.387,4.2,4.2,0,0,0,4.194-4.194v-.377l23.589-4.718a27.251,27.251,0,0,0,2.525,2.518l-4.85,31.932h-.3a4.2,4.2,0,0,0-4.194,4.194v4.194A4.2,4.2,0,0,0,41.935,130H88.064a4.2,4.2,0,0,0,4.194-4.194v-4.194a4.2,4.2,0,0,0-4.194-4.194h-.3l-4.85-31.932a27.781,27.781,0,0,0,2.525-2.518l23.589,4.718v.377a4.2,4.2,0,0,0,4.194,4.194,8.4,8.4,0,0,0,8.387-8.387v-5.63A14.683,14.683,0,0,0,130,65ZM117.419,46.129V50.49a13.188,13.188,0,0,0-4.194,0V41.935A4.2,4.2,0,0,1,117.419,46.129Zm-8.387.461v5.169a14.747,14.747,0,0,0-6.991,7.033A8.241,8.241,0,0,0,91.4,58.347a27.118,27.118,0,0,0-3.206-7.59ZM100.645,65a4.194,4.194,0,1,1-4.194-4.194A4.2,4.2,0,0,1,100.645,65ZM65,88.064A23.065,23.065,0,1,1,88.064,65,23.092,23.092,0,0,1,65,88.064Zm-6.29,23.065a6.1,6.1,0,0,1,1.126-3.514,10.117,10.117,0,0,0,10.329,0,6.1,6.1,0,0,1,1.126,3.514,6.29,6.29,0,0,1-12.581,0ZM71.29,98.548A6.29,6.29,0,1,1,65,92.258,6.3,6.3,0,0,1,71.29,98.548Zm-10.484-65A4.194,4.194,0,1,1,65,37.742,4.2,4.2,0,0,1,60.806,33.548ZM79.243,41.8a27.117,27.117,0,0,0-7.59-3.206,8.238,8.238,0,0,0-.447-10.639,14.747,14.747,0,0,0,7.033-6.991h5.169Zm4.628-29.223a4.2,4.2,0,0,1,4.194,4.194H79.51a14.731,14.731,0,0,0,.168-2.1,14.731,14.731,0,0,0-.168-2.1ZM65,4.194A10.484,10.484,0,1,1,54.516,14.677,10.5,10.5,0,0,1,65,4.194ZM46.129,12.581H50.49a14.731,14.731,0,0,0-.168,2.1,14.731,14.731,0,0,0,.168,2.1H41.935A4.2,4.2,0,0,1,46.129,12.581Zm.461,8.387h5.169a14.747,14.747,0,0,0,7.033,6.991A8.241,8.241,0,0,0,58.347,38.6a27.117,27.117,0,0,0-7.59,3.206ZM41.8,50.757a27.117,27.117,0,0,0-3.206,7.59,8.238,8.238,0,0,0-10.639.447,14.747,14.747,0,0,0-6.991-7.033V46.59ZM37.742,65a4.194,4.194,0,1,1-4.194-4.194A4.2,4.2,0,0,1,37.742,65ZM12.581,46.129a4.2,4.2,0,0,1,4.194-4.194V50.49a14.731,14.731,0,0,0-2.1-.168,14.731,14.731,0,0,0-2.1.168ZM4.194,65A10.484,10.484,0,1,1,14.677,75.484,10.5,10.5,0,0,1,4.194,65Zm8.387,18.871V79.51a14.731,14.731,0,0,0,2.1.168,14.731,14.731,0,0,0,2.1-.168v8.555A4.2,4.2,0,0,1,12.581,83.871Zm8.387-.461V78.241a14.747,14.747,0,0,0,6.991-7.033,8.241,8.241,0,0,0,10.639.445,27.117,27.117,0,0,0,3.206,7.59ZM50.895,88.28a27.091,27.091,0,0,0,6.647,2.915,10.374,10.374,0,0,0-.881,13.64,10.29,10.29,0,0,0,.006,12.585h-10.2Zm37.174,37.526H41.935v-4.194H88.064Zm-4.54-8.387h-10.2a10.293,10.293,0,0,0,.006-12.587,10.368,10.368,0,0,0-.883-13.637A27.136,27.136,0,0,0,79.1,88.28ZM88.2,79.243a27.118,27.118,0,0,0,3.206-7.59,8.238,8.238,0,0,0,10.639-.447,14.747,14.747,0,0,0,6.991,7.033v5.169Zm29.223,4.628a4.2,4.2,0,0,1-4.194,4.194V79.51a13.189,13.189,0,0,0,4.194,0Zm-2.1-8.387A10.484,10.484,0,1,1,125.806,65,10.5,10.5,0,0,1,115.323,75.484Z" transform="translate(0)"/>
        <path id="Trazado_101830" data-name="Trazado 101830" d="M58.29,28a6.29,6.29,0,1,0,6.29,6.29A6.3,6.3,0,0,0,58.29,28Zm0,8.387a2.1,2.1,0,1,1,2.1-2.1A2.1,2.1,0,0,1,58.29,36.387Z" transform="translate(57.032 30.71)"/>
      </g>
    </g>
  </g>
</svg>
