<svg xmlns="http://www.w3.org/2000/svg" width="130" height="126.949" viewBox="0 0 130 126.949">
  <g id="_27" data-name="27" transform="translate(0 -0.001)">
    <path id="Trazado_101831" data-name="Trazado 101831" d="M29.352,152H51.71v52.476H29.352Zm0,0" transform="translate(-21.899 -113.406)" fill="#fdd835"/>
    <path id="Trazado_101832" data-name="Trazado 101832" d="M394.59,152h22.359v52.476H394.59Zm0,0" transform="translate(-294.401 -113.406)" fill="#fdd835"/>
    <g id="Grupo_53854" data-name="Grupo 53854" transform="translate(7.453 59.725)">
      <path id="Trazado_101833" data-name="Trazado 101833" d="M29.352,358.676h38.5v33.34h-38.5Zm0,0" transform="translate(-29.352 -327.33)" fill="#ffa726"/>
      <path id="Trazado_101834" data-name="Trazado 101834" d="M354.135,391.984v.028h15.384v-33.34h-38.5v33.34Zm0,0" transform="translate(-254.424 -327.327)" fill="#ffa726"/>
      <path id="Trazado_101835" data-name="Trazado 101835" d="M219.074,258.586h-38.1v-4.365a19,19,0,0,1,19-19h.1a19,19,0,0,1,19,19Zm0,0" transform="translate(-142.478 -235.223)" fill="#ffa726"/>
      <path id="Trazado_101836" data-name="Trazado 101836" d="M219.076,327.242v41.32H208.451V352.754a8.052,8.052,0,0,0-8.05-8.049h-.043a8.049,8.049,0,0,0-8.049,8.049v15.809H180.98v-41.32Zm0,0" transform="translate(-142.481 -303.878)" fill="#ffa726"/>
    </g>
    <path id="Trazado_101837" data-name="Trazado 101837" d="M187.788,38.937V98.53H171.647V86.185a19,19,0,0,0-19-19h-.1a19,19,0,0,0-19,19V98.53H117.41V38.937L152.6,10Zm0,0" transform="translate(-87.599 -7.46)" fill="#e8e7e9"/>
    <path id="Trazado_101838" data-name="Trazado 101838" d="M243.424,91.222a6.487,6.487,0,1,1-6.488-6.488A6.487,6.487,0,0,1,243.424,91.222Zm0,0" transform="translate(-171.937 -63.219)" fill="#ffcb7c"/>
    <path id="Trazado_101839" data-name="Trazado 101839" d="M127.461,24.194h-2.374V22.142a2.539,2.539,0,1,0-5.078,0v2.052h-2.374a2.539,2.539,0,1,0,0,5.078h2.374v6.783h-17.28V31.477a2.54,2.54,0,0,0-.926-1.961L66.613.579a2.539,2.539,0,0,0-3.225,0L28.2,29.516a2.54,2.54,0,0,0-.926,1.961v4.578H9.992V29.272h2.374a2.539,2.539,0,1,0,0-5.078H9.992V22.142a2.539,2.539,0,1,0-5.078,0v2.052H2.539a2.539,2.539,0,1,0,0,5.078H4.913v95.138a2.539,2.539,0,0,0,2.539,2.539h76.6a2.54,2.54,0,0,0,2.539-2.539v-30.8h33.422v28.262s-12.807-.034-12.984-.025a2.539,2.539,0,0,0-2.4,2.576c0,.02,0,.04,0,.057a2.538,2.538,0,0,0,2.538,2.47h15.385a2.54,2.54,0,0,0,2.539-2.539V29.271h2.374a2.539,2.539,0,1,0,0-5.077Zm-7.453,16.939v47.4h-17.28v-47.4ZM56.033,64.9a16.358,16.358,0,0,1,8.916-2.635h.1a16.482,16.482,0,0,1,16.458,16.46V80.55H48.491V78.725A16.458,16.458,0,0,1,56.033,64.9ZM27.272,88.532H9.992v-47.4H27.272Zm16.14,33.34H9.992V93.61h33.42Zm27.47,0H59.821V108.6a5.513,5.513,0,0,1,5.509-5.509h.043a5.516,5.516,0,0,1,5.511,5.51Zm-5.51-23.858H65.33A10.6,10.6,0,0,0,54.742,108.6v13.269h-6.25V85.629H81.509v36.242H75.962V108.6A10.6,10.6,0,0,0,65.373,98.014ZM86.588,59.725a2.539,2.539,0,1,0-5.078,0v5.129a21.757,21.757,0,0,0-3.593-3.392,21.421,21.421,0,0,0-10.377-4.128v-6.34h2.374a2.539,2.539,0,0,0,0-5.078H67.539V44.478a2.539,2.539,0,1,0-5.078,0v1.438H60.087a2.539,2.539,0,1,0,0,5.078h2.374v6.34a21.421,21.421,0,0,0-10.377,4.128,21.757,21.757,0,0,0-3.593,3.392V59.725a2.539,2.539,0,1,0-5.078,0v28.8H32.35V32.676L65,5.827l32.65,26.85V88.531H86.587Zm0,0"/>
    <path id="Trazado_101840" data-name="Trazado 101840" d="M229.476,74.734a9.026,9.026,0,1,0,9.027,9.027A9.037,9.037,0,0,0,229.476,74.734Zm0,12.974a3.948,3.948,0,1,1,3.948-3.947A3.953,3.953,0,0,1,229.476,87.708Zm0,0" transform="translate(-164.476 -55.758)"/>
    <path id="Trazado_101841" data-name="Trazado 101841" d="M431.395,188.393a2.54,2.54,0,0,0,2.539-2.539v-4.233a2.539,2.539,0,0,0-5.078,0v4.233A2.54,2.54,0,0,0,431.395,188.393Zm0,0" transform="translate(-319.966 -133.611)"/>
    <path id="Trazado_101842" data-name="Trazado 101842" d="M431.395,242.577a2.539,2.539,0,0,0,2.539-2.539V235.8a2.539,2.539,0,0,0-5.078,0v4.233A2.54,2.54,0,0,0,431.395,242.577Zm0,0" transform="translate(-319.966 -174.037)"/>
    <path id="Trazado_101843" data-name="Trazado 101843" d="M431.395,298.9a2.539,2.539,0,0,0,2.539-2.539v-4.233a2.539,2.539,0,0,0-5.078,0v4.233A2.539,2.539,0,0,0,431.395,298.9Zm0,0" transform="translate(-319.966 -216.063)"/>
    <path id="Trazado_101844" data-name="Trazado 101844" d="M65.922,188.393a2.54,2.54,0,0,0,2.539-2.539v-4.233a2.539,2.539,0,0,0-5.078,0v4.233A2.54,2.54,0,0,0,65.922,188.393Zm0,0" transform="translate(-47.29 -133.611)"/>
    <path id="Trazado_101845" data-name="Trazado 101845" d="M65.922,242.577a2.54,2.54,0,0,0,2.539-2.539V235.8a2.539,2.539,0,0,0-5.078,0v4.233A2.539,2.539,0,0,0,65.922,242.577Zm0,0" transform="translate(-47.29 -174.037)"/>
    <path id="Trazado_101846" data-name="Trazado 101846" d="M65.922,298.9a2.539,2.539,0,0,0,2.539-2.539v-4.233a2.539,2.539,0,0,0-5.078,0v4.233A2.539,2.539,0,0,0,65.922,298.9Zm0,0" transform="translate(-47.29 -216.063)"/>
    <path id="Trazado_101847" data-name="Trazado 101847" d="M371.618,481.558a2.537,2.537,0,1,0-.934,3.082A2.555,2.555,0,0,0,371.618,481.558Zm0,0" transform="translate(-273.62 -358.117)"/>
    <path id="Trazado_101848" data-name="Trazado 101848" d="M173.516,152.219a2.539,2.539,0,0,0-2.539,2.539V159.8a2.539,2.539,0,0,0,5.078,0v-5.043A2.539,2.539,0,0,0,173.516,152.219Zm0,0" transform="translate(-127.565 -113.569)"/>
    <path id="Trazado_101849" data-name="Trazado 101849" d="M325.117,152.219a2.54,2.54,0,0,0-2.539,2.539V159.8a2.539,2.539,0,1,0,5.078,0v-5.043A2.539,2.539,0,0,0,325.117,152.219Zm0,0" transform="translate(-240.674 -113.569)"/>
  </g>
</svg>
