<svg id="_28" data-name="28" xmlns="http://www.w3.org/2000/svg" width="130" height="130" viewBox="0 0 130 130">
  <path id="Trazado_101850" data-name="Trazado 101850" d="M4,77v39.839H121.419V77h-8.387L62.71,12,12.387,77Z" transform="translate(2.29 11.065)" fill="#8892a0"/>
  <g id="Grupo_53855" data-name="Grupo 53855" transform="translate(6.29 12.581)">
    <path id="Trazado_101851" data-name="Trazado 101851" d="M22,27.968,26.194,7l4.194,20.968v94.355H22Z" transform="translate(15.742 -7)" fill="#c1c8d1"/>
    <path id="Trazado_101852" data-name="Trazado 101852" d="M14,27.968,18.194,7l4.194,20.968v94.355H14Z" transform="translate(6.968 -7)" fill="#c1c8d1"/>
    <path id="Trazado_101853" data-name="Trazado 101853" d="M4,47.968,8.194,27l4.194,20.968v52.419H4Z" transform="translate(-4 14.935)" fill="#c1c8d1"/>
    <path id="Trazado_101854" data-name="Trazado 101854" d="M46.387,27.968,42.194,7,38,27.968v94.355h8.387Z" transform="translate(33.29 -7)" fill="#c1c8d1"/>
    <path id="Trazado_101855" data-name="Trazado 101855" d="M54.387,27.968,50.194,7,46,27.968v94.355h8.387Z" transform="translate(42.065 -7)" fill="#c1c8d1"/>
    <path id="Trazado_101856" data-name="Trazado 101856" d="M64.387,47.968,60.194,27,56,47.968v52.419h8.387Z" transform="translate(53.032 14.935)" fill="#c1c8d1"/>
  </g>
  <path id="Trazado_101857" data-name="Trazado 101857" d="M4,54h8.387v8.387H4Z" transform="translate(2.29 57.129)" fill="#f57c00"/>
  <path id="Trazado_101858" data-name="Trazado 101858" d="M14,54h8.387v8.387H14Z" transform="translate(13.258 57.129)" fill="#f57c00"/>
  <path id="Trazado_101859" data-name="Trazado 101859" d="M22,54h8.387v8.387H22Z" transform="translate(22.032 57.129)" fill="#f57c00"/>
  <path id="Trazado_101860" data-name="Trazado 101860" d="M38,54h8.387v8.387H38Z" transform="translate(39.581 57.129)" fill="#f57c00"/>
  <path id="Trazado_101861" data-name="Trazado 101861" d="M46,54h8.387v8.387H46Z" transform="translate(48.355 57.129)" fill="#f57c00"/>
  <path id="Trazado_101862" data-name="Trazado 101862" d="M56,54h8.387v8.387H56Z" transform="translate(59.323 57.129)" fill="#f57c00"/>
  <path id="Trazado_101863" data-name="Trazado 101863" d="M38.387,37.581H30V29.194a4.194,4.194,0,0,1,8.387,0Z" transform="translate(30.806 25.323)" fill="#26ccda"/>
  <path id="Trazado_101864" data-name="Trazado 101864" d="M38.387,47.581H30V39.194a4.194,4.194,0,0,1,8.387,0Z" transform="translate(30.806 36.29)" fill="#26ccda"/>
  <path id="Trazado_101865" data-name="Trazado 101865" d="M38.387,77.355V52.194a4.194,4.194,0,1,0-8.387,0V77.355" transform="translate(30.806 50.548)" fill="#fdd835"/>
  <path id="Trazado_101866" data-name="Trazado 101866" d="M1,61H131v4.194H1Z" transform="translate(-1 64.806)"/>
  <path id="Trazado_101867" data-name="Trazado 101867" d="M31.484,125.516H23.1a2.1,2.1,0,0,1-2.1-2.1V29.065a2.086,2.086,0,0,1,.042-.411L25.235,7.686a2.1,2.1,0,0,1,4.11,0l4.194,20.968a2.086,2.086,0,0,1,.042.411v94.355A2.1,2.1,0,0,1,31.484,125.516Zm-6.29-4.194h4.194V29.272l-2.1-10.484-2.1,10.484Z" transform="translate(20.935 4.484)"/>
  <path id="Trazado_101868" data-name="Trazado 101868" d="M23,1h4.194V13.581H23Z" transform="translate(23.129 -1)"/>
  <path id="Trazado_101869" data-name="Trazado 101869" d="M23.484,125.516H15.1a2.1,2.1,0,0,1-2.1-2.1V29.065a2.086,2.086,0,0,1,.042-.411L17.235,7.686a2.1,2.1,0,0,1,4.11,0l4.194,20.968a2.086,2.086,0,0,1,.042.411v94.355A2.1,2.1,0,0,1,23.484,125.516Zm-6.29-4.194h4.194V29.272l-2.1-10.484-2.1,10.484Z" transform="translate(12.161 4.484)"/>
  <path id="Trazado_101870" data-name="Trazado 101870" d="M15,1h4.194V13.581H15Z" transform="translate(14.355 -1)"/>
  <path id="Trazado_101871" data-name="Trazado 101871" d="M13.484,103.581H5.1a2.1,2.1,0,0,1-2.1-2.1V49.065a2.086,2.086,0,0,1,.042-.411L7.235,27.686a2.1,2.1,0,0,1,4.11,0l4.194,20.968a2.087,2.087,0,0,1,.042.411v52.419A2.1,2.1,0,0,1,13.484,103.581Zm-6.29-4.194h4.194V49.272L9.29,38.788l-2.1,10.484Z" transform="translate(1.194 26.419)"/>
  <path id="Trazado_101872" data-name="Trazado 101872" d="M5,21H9.194V33.581H5Z" transform="translate(3.387 20.935)"/>
  <path id="Trazado_101873" data-name="Trazado 101873" d="M11,22H48.742v4.194H11Z" transform="translate(9.968 22.032)"/>
  <path id="Trazado_101874" data-name="Trazado 101874" d="M47.484,125.516H39.1a2.1,2.1,0,0,1-2.1-2.1V29.065a2.086,2.086,0,0,1,.042-.411L41.235,7.686a2.1,2.1,0,0,1,4.11,0l4.194,20.968a2.086,2.086,0,0,1,.042.411v94.355A2.1,2.1,0,0,1,47.484,125.516Zm-6.29-4.194h4.194V29.272l-2.1-10.484-2.1,10.484Z" transform="translate(38.484 4.484)"/>
  <path id="Trazado_101875" data-name="Trazado 101875" d="M39,1h4.194V13.581H39Z" transform="translate(40.677 -1)"/>
  <path id="Trazado_101876" data-name="Trazado 101876" d="M55.484,125.516H47.1a2.1,2.1,0,0,1-2.1-2.1V29.065a2.086,2.086,0,0,1,.042-.411L49.235,7.686a2.1,2.1,0,0,1,4.11,0l4.194,20.968a2.086,2.086,0,0,1,.042.411v94.355A2.1,2.1,0,0,1,55.484,125.516Zm-6.29-4.194h4.194V29.272l-2.1-10.484-2.1,10.484Z" transform="translate(47.258 4.484)"/>
  <path id="Trazado_101877" data-name="Trazado 101877" d="M47,1h4.194V13.581H47Z" transform="translate(49.452 -1)"/>
  <path id="Trazado_101878" data-name="Trazado 101878" d="M65.484,103.581H57.1a2.1,2.1,0,0,1-2.1-2.1V49.065a2.087,2.087,0,0,1,.042-.411l4.194-20.968a2.1,2.1,0,0,1,4.11,0l4.194,20.968a2.087,2.087,0,0,1,.042.411v52.419A2.1,2.1,0,0,1,65.484,103.581Zm-6.29-4.194h4.194V49.272l-2.1-10.484-2.1,10.484Z" transform="translate(58.226 26.419)"/>
  <path id="Trazado_101879" data-name="Trazado 101879" d="M57,21h4.194V33.581H57Z" transform="translate(60.419 20.935)"/>
  <path id="Trazado_101880" data-name="Trazado 101880" d="M35,22H72.742v4.194H35Z" transform="translate(36.29 22.032)"/>
  <path id="Trazado_101881" data-name="Trazado 101881" d="M56,42h8.387v4.194H56Z" transform="translate(59.323 43.968)"/>
  <path id="Trazado_101882" data-name="Trazado 101882" d="M0,0H20.55V4.2H0Z" transform="matrix(0.612, -0.791, 0.791, 0.612, 13.037, 86.771)"/>
  <path id="Trazado_101883" data-name="Trazado 101883" d="M0,0H13.7V4.2H0Z" transform="matrix(0.612, -0.791, 0.791, 0.612, 33.997, 59.683)"/>
  <path id="Trazado_101884" data-name="Trazado 101884" d="M50.37,30.608,39.448,16.5,28.526,30.608l-3.317-2.569L37.79,11.789a2.173,2.173,0,0,1,3.317,0l12.581,16.25Z" transform="translate(25.552 9.99)"/>
  <path id="Trazado_101885" data-name="Trazado 101885" d="M0,0H4.2V13.7H0Z" transform="matrix(0.791, -0.612, 0.612, 0.791, 84.325, 51.458)"/>
  <path id="Trazado_101886" data-name="Trazado 101886" d="M29,19H41.581v4.194H29Z" transform="translate(29.71 18.742)"/>
  <path id="Trazado_101887" data-name="Trazado 101887" d="M39.484,40.774H31.1a2.1,2.1,0,0,1-2.1-2.1V30.29a6.29,6.29,0,1,1,12.581,0v8.387A2.1,2.1,0,0,1,39.484,40.774Zm-6.29-4.194h4.194V30.29a2.1,2.1,0,1,0-4.194,0Z" transform="translate(29.71 24.226)"/>
  <path id="Trazado_101888" data-name="Trazado 101888" d="M39.484,50.774H31.1a2.1,2.1,0,0,1-2.1-2.1V40.29a6.29,6.29,0,1,1,12.581,0v8.387A2.1,2.1,0,0,1,39.484,50.774Zm-6.29-4.194h4.194V40.29a2.1,2.1,0,1,0-4.194,0Z" transform="translate(29.71 35.194)"/>
  <path id="Trazado_101889" data-name="Trazado 101889" d="M41.581,78.452H37.387V53.29a2.1,2.1,0,1,0-4.194,0V78.452H29V53.29a6.29,6.29,0,0,1,12.581,0Z" transform="translate(29.71 49.452)"/>
  <path id="Trazado_101890" data-name="Trazado 101890" d="M4,57h8.387v4.194H4Z" transform="translate(2.29 60.419)"/>
  <path id="Trazado_101891" data-name="Trazado 101891" d="M4,53h8.387v4.194H4Z" transform="translate(2.29 56.032)"/>
  <path id="Trazado_101892" data-name="Trazado 101892" d="M14,57h8.387v4.194H14Z" transform="translate(13.258 60.419)"/>
  <path id="Trazado_101893" data-name="Trazado 101893" d="M14,53h8.387v4.194H14Z" transform="translate(13.258 56.032)"/>
  <path id="Trazado_101894" data-name="Trazado 101894" d="M22,57h8.387v4.194H22Z" transform="translate(22.032 60.419)"/>
  <path id="Trazado_101895" data-name="Trazado 101895" d="M22,53h8.387v4.194H22Z" transform="translate(22.032 56.032)"/>
  <path id="Trazado_101896" data-name="Trazado 101896" d="M56,57h8.387v4.194H56Z" transform="translate(59.323 60.419)"/>
  <path id="Trazado_101897" data-name="Trazado 101897" d="M56,53h8.387v4.194H56Z" transform="translate(59.323 56.032)"/>
  <path id="Trazado_101898" data-name="Trazado 101898" d="M46,57h8.387v4.194H46Z" transform="translate(48.355 60.419)"/>
  <path id="Trazado_101899" data-name="Trazado 101899" d="M46,53h8.387v4.194H46Z" transform="translate(48.355 56.032)"/>
  <path id="Trazado_101900" data-name="Trazado 101900" d="M38,57h8.387v4.194H38Z" transform="translate(39.581 60.419)"/>
  <path id="Trazado_101901" data-name="Trazado 101901" d="M38,53h8.387v4.194H38Z" transform="translate(39.581 56.032)"/>
  <path id="Trazado_101902" data-name="Trazado 101902" d="M0,0H4.2V20.55H0Z" transform="matrix(0.791, -0.612, 0.612, 0.791, 101.1, 73.136)"/>
</svg>
