<svg id="_44" data-name="44" xmlns="http://www.w3.org/2000/svg" width="141.097" height="153.379" viewBox="0 0 141.097 153.379">
  <g id="Grupo_53899" data-name="Grupo 53899" transform="translate(21.393 20.968)">
    <path id="Trazado_101944" data-name="Trazado 101944" d="M182.006,142.192v15.489H71.414V76.84a6.846,6.846,0,0,1,6.846-6.846h96.9a6.846,6.846,0,0,1,6.846,6.846v35.2" transform="translate(-71.414 -69.994)" fill="#26ccda"/>
  </g>
  <g id="Grupo_53900" data-name="Grupo 53900" transform="translate(67.103 2.996)">
    <path id="Trazado_101945" data-name="Trazado 101945" d="M224,10h19.172V21.084H224Z" transform="translate(-224 -10)" fill="#f57c00"/>
    <path id="Trazado_101946" data-name="Trazado 101946" d="M224,362.7h19.172v41.728H224Z" transform="translate(-224 -257.046)" fill="#f57c00"/>
  </g>
  <path id="Trazado_101947" data-name="Trazado 101947" d="M117.6,362.7h-8.325L72.1,404.433H91.885L117.6,376.249Z" transform="translate(-50.498 -254.05)" fill="#f57c00"/>
  <path id="Trazado_101948" data-name="Trazado 101948" d="M288,362.7v13.544l25.716,28.185h19.789l-37.181-41.728Z" transform="translate(-201.724 -254.05)" fill="#f57c00"/>
  <g id="Grupo_53903" data-name="Grupo 53903">
    <g id="Grupo_53901" data-name="Grupo 53901">
      <path id="Trazado_101949" data-name="Trazado 101949" fill="#fff"/>
    </g>
    <g id="Grupo_53902" data-name="Grupo 53902" transform="translate(129.001 75.64)">
      <path id="Trazado_101950" data-name="Trazado 101950" d="M433.609,258.482a3,3,0,1,1,2.765-4.143,3,3,0,0,1-2.765,4.143Z" transform="translate(-430.623 -252.495)"/>
    </g>
  </g>
  <g id="Grupo_53904" data-name="Grupo 53904" transform="translate(58.297 14.08)">
    <path id="Trazado_101951" data-name="Trazado 101951" d="M194.6,47h36.784V60.777H194.6Z" transform="translate(-194.604 -47)" fill="#6eb4c7"/>
  </g>
  <path id="Trazado_101952" data-name="Trazado 101952" d="M166.819,105.659H163.7V93.166a3,3,0,1,0-5.991,0v12.493H53.107V27.814a3.855,3.855,0,0,1,3.85-3.85H84.02v3.893a3,3,0,0,0,3,3H123.8a3,3,0,0,0,3-3V23.964h27.062a3.855,3.855,0,0,1,3.85,3.85v35.2a3,3,0,1,0,5.991,0v-35.2a9.853,9.853,0,0,0-9.842-9.841H126.8V14.08a3,3,0,0,0-3-3h-5.81V3a3,3,0,0,0-3-3H95.821a3,3,0,0,0-3,3v8.088h-5.81a3,3,0,0,0-3,3v3.893H56.957a9.852,9.852,0,0,0-9.841,9.841v77.845H44a3,3,0,1,0,0,5.991H80.815l-32.736,36.74a3,3,0,0,0,2.237,4.989H70.1a3,3,0,0,0,2.213-.977l20.508-22.476v20.457a3,3,0,0,0,3,3h19.172a3,3,0,0,0,3-3V129.927L138.5,152.4a3,3,0,0,0,2.213.977H160.5a3,3,0,0,0,2.237-4.989L130,111.651h36.819a3,3,0,1,0,0-5.991Zm-68-99.668H112v5.093H98.817ZM90.011,17.075H120.8v7.785H90.011ZM68.783,147.388H57l31.842-35.737h3.986v9.387Zm43.215,0H98.817V111.651H112Zm41.82,0H142.032l-24.043-26.35v-9.387h3.986Z" transform="translate(-28.718 0)"/>
  <g id="Grupo_53920" data-name="Grupo 53920" transform="translate(28.113 31.746)">
    <g id="Grupo_53907" data-name="Grupo 53907" transform="translate(12.172 12.172)">
      <g id="Grupo_53905" data-name="Grupo 53905" transform="translate(0.661 0.632)">
        <circle id="Elipse_4085" data-name="Elipse 4085" cx="11.507" cy="11.507" r="11.507" transform="translate(0 5.293) rotate(-13.3)" fill="#fdd835"/>
      </g>
      <g id="Grupo_53906" data-name="Grupo 53906">
        <path id="Trazado_101953" data-name="Trazado 101953" d="M148.978,175.609a14.5,14.5,0,1,1,14.5-14.5A14.519,14.519,0,0,1,148.978,175.609Zm0-23.014a8.511,8.511,0,1,0,8.511,8.511A8.521,8.521,0,0,0,148.978,152.6Z" transform="translate(-134.475 -146.604)"/>
      </g>
    </g>
    <g id="Grupo_53910" data-name="Grupo 53910" transform="translate(23.679)">
      <g id="Grupo_53908" data-name="Grupo 53908">
        <path id="Trazado_101954" data-name="Trazado 101954" d="M175.883,115.434a3,3,0,0,1-3-3v-3.469a3,3,0,1,1,5.991,0v3.469A3,3,0,0,1,175.883,115.434Z" transform="translate(-172.887 -105.973)"/>
      </g>
      <g id="Grupo_53909" data-name="Grupo 53909" transform="translate(0 43.889)">
        <path id="Trazado_101955" data-name="Trazado 101955" d="M175.883,261.94a3,3,0,0,1-3-3v-3.469a3,3,0,1,1,5.991,0v3.469A3,3,0,0,1,175.883,261.94Z" transform="translate(-172.887 -252.479)"/>
      </g>
    </g>
    <g id="Grupo_53913" data-name="Grupo 53913" transform="translate(0 23.679)">
      <g id="Grupo_53911" data-name="Grupo 53911" transform="translate(43.889)">
        <path id="Trazado_101956" data-name="Trazado 101956" d="M246.815,191.008h-3.469a3,3,0,0,1,0-5.991h3.469a3,3,0,1,1,0,5.991Z" transform="translate(-240.35 -185.017)"/>
      </g>
      <g id="Grupo_53912" data-name="Grupo 53912">
        <path id="Trazado_101957" data-name="Trazado 101957" d="M100.309,191.008H96.84a3,3,0,1,1,0-5.991h3.469a3,3,0,1,1,0,5.991Z" transform="translate(-93.844 -185.017)"/>
      </g>
    </g>
    <g id="Grupo_53916" data-name="Grupo 53916" transform="translate(7.506 7.506)">
      <g id="Grupo_53914" data-name="Grupo 53914" transform="translate(29.975)">
        <path id="Trazado_101958" data-name="Trazado 101958" d="M221.959,139.391a3,3,0,0,1-2.118-5.114l2.369-2.369a3,3,0,0,1,4.237,4.236l-2.369,2.369A2.986,2.986,0,0,1,221.959,139.391Z" transform="translate(-218.963 -131.03)"/>
      </g>
      <g id="Grupo_53915" data-name="Grupo 53915" transform="translate(0 29.975)">
        <path id="Trazado_101959" data-name="Trazado 101959" d="M121.9,239.453a3,3,0,0,1-2.118-5.114l2.369-2.369a3,3,0,0,1,4.237,4.237l-2.369,2.369A2.987,2.987,0,0,1,121.9,239.453Z" transform="translate(-118.901 -231.092)"/>
      </g>
    </g>
    <g id="Grupo_53919" data-name="Grupo 53919" transform="translate(7.506 7.507)">
      <g id="Grupo_53917" data-name="Grupo 53917" transform="translate(29.975 29.975)">
        <path id="Trazado_101960" data-name="Trazado 101960" d="M224.328,239.453a2.986,2.986,0,0,1-2.118-.877l-2.369-2.369a3,3,0,0,1,4.237-4.237l2.369,2.369a3,3,0,0,1-2.119,5.114Z" transform="translate(-218.963 -231.092)"/>
      </g>
      <g id="Grupo_53918" data-name="Grupo 53918">
        <path id="Trazado_101961" data-name="Trazado 101961" d="M124.266,139.392a2.986,2.986,0,0,1-2.118-.877l-2.369-2.369a3,3,0,0,1,4.237-4.236l2.369,2.369a3,3,0,0,1-2.119,5.114Z" transform="translate(-118.901 -131.031)"/>
      </g>
    </g>
  </g>
  <g id="Grupo_53923" data-name="Grupo 53923" transform="translate(65.687 63.934)">
    <g id="Grupo_53921" data-name="Grupo 53921" transform="translate(2.995 2.996)">
      <path id="Trazado_101962" data-name="Trazado 101962" d="M273.969,240.739a12.549,12.549,0,1,0-23.747-7.945,7.82,7.82,0,0,0-13.006,5.887V240.7h-.949a7.021,7.021,0,0,0,0,14.043h37a7.023,7.023,0,0,0,.7-14.007Z" transform="translate(-229.271 -223.422)" fill="#f6f6f6"/>
    </g>
    <g id="Grupo_53922" data-name="Grupo 53922">
      <path id="Trazado_101963" data-name="Trazado 101963" d="M266.26,250.737h-37a10.02,10.02,0,0,1-2.02-19.828,10.818,10.818,0,0,1,14.491-9.432,15.548,15.548,0,0,1,28.923,10.237,10.028,10.028,0,0,1-4.4,19.023Zm-37-14.042a4.026,4.026,0,0,0,0,8.051h37a4.027,4.027,0,0,0,.406-8.031,3,3,0,0,1-2.471-4.121,9.553,9.553,0,1,0-18.077-6.05,3,3,0,0,1-4.887,1.485,4.824,4.824,0,0,0-8.022,3.646V233.7a3,3,0,0,1-3,3Z" transform="translate(-219.272 -213.421)"/>
    </g>
  </g>
</svg>
