<svg xmlns="http://www.w3.org/2000/svg" width="70" height="67.773" viewBox="0 0 70 67.773">
  <g id="_59" data-name="59" transform="translate(0 -8)">
    <g id="Grupo_54088" data-name="Grupo 54088" transform="translate(8.837 20.177)">
      <g id="Grupo_54087" data-name="Grupo 54087">
        <rect id="Rectángulo_9066" data-name="Rectángulo 9066" width="51.213" height="46.759" fill="#f5f4f7"/>
        <path id="Trazado_102211" data-name="Trazado 102211" d="M63.5,205.628l12.247-12.107,13.36,12.246L108.033,183.5l6.68,7.793v26.72H63.5Z" transform="translate(-63.5 -171.254)" fill="#bfe666"/>
        <g id="Grupo_54086" data-name="Grupo 54086" transform="translate(0 12.247)">
          <path id="Trazado_102212" data-name="Trazado 102212" d="M264.017,205.767l16.709-19.658L278.49,183.5l-16.976,19.972Z" transform="translate(-233.957 -183.501)" fill="#afe040"/>
          <path id="Trazado_102213" data-name="Trazado 102213" d="M78.07,257.631l-2.324-2.13L63.5,267.608V272.2Z" transform="translate(-63.5 -245.481)" fill="#afe040"/>
        </g>
        <circle id="Elipse_4086" data-name="Elipse 4086" cx="5.567" cy="5.567" r="5.567" transform="translate(20.04 5.567)" fill="#f0e513"/>
      </g>
    </g>
    <g id="Grupo_54089" data-name="Grupo 54089" transform="translate(0 8)">
      <path id="Trazado_102214" data-name="Trazado 102214" d="M108.256,88H57.044A1.044,1.044,0,0,0,56,89.045v7.84a1.044,1.044,0,0,0,2.087,0v-6.8h49.125v16.175l-4.844-5.651a1.054,1.054,0,0,0-1.588,0L82.557,122.056,70,110.542a1.044,1.044,0,0,0-1.439.027l-10.469,10.35V101.8a1.044,1.044,0,1,0-2.087,0v34a1.044,1.044,0,0,0,1.044,1.044h51.213A1.044,1.044,0,0,0,109.3,135.8v-9.417a1.044,1.044,0,0,0-2.087,0v8.373H58.087V123.854l11.23-11.1,12.627,11.575a1.054,1.054,0,0,0,1.5-.093L101.58,102.9l5.633,6.572v11.953a1.044,1.044,0,0,0,2.087,0V89.045A1.044,1.044,0,0,0,108.256,88Z" transform="translate(-48.207 -76.868)"/>
      <path id="Trazado_102215" data-name="Trazado 102215" d="M213.221,134.611a6.61,6.61,0,1,0-6.61,6.61A6.618,6.618,0,0,0,213.221,134.611Zm-11.133,0a4.523,4.523,0,1,1,4.523,4.523A4.528,4.528,0,0,1,202.087,134.611Z" transform="translate(-172.167 -111.301)"/>
      <path id="Trazado_102216" data-name="Trazado 102216" d="M457.044,90.088h3.34a1.044,1.044,0,0,0,0-2.087h-3.34a1.044,1.044,0,0,0,0,2.087Z" transform="translate(-392.541 -76.868)"/>
      <path id="Trazado_102217" data-name="Trazado 102217" d="M425.044,32A1.044,1.044,0,0,0,424,33.045v3.34a1.044,1.044,0,1,0,2.087,0v-3.34A1.044,1.044,0,0,0,425.044,32Z" transform="translate(-364.994 -28.661)"/>
      <path id="Trazado_102218" data-name="Trazado 102218" d="M4.384,88H1.044a1.044,1.044,0,0,0,0,2.087h3.34a1.044,1.044,0,0,0,0-2.087Z" transform="translate(0 -76.868)"/>
      <path id="Trazado_102219" data-name="Trazado 102219" d="M57.044,37.428a1.044,1.044,0,0,0,1.044-1.044v-3.34a1.044,1.044,0,0,0-2.087,0v3.34A1.044,1.044,0,0,0,57.044,37.428Z" transform="translate(-48.207 -28.661)"/>
      <path id="Trazado_102220" data-name="Trazado 102220" d="M460.384,424h-3.34a1.044,1.044,0,0,0,0,2.087h3.34a1.044,1.044,0,0,0,0-2.087Z" transform="translate(-392.541 -366.108)"/>
      <path id="Trazado_102221" data-name="Trazado 102221" d="M425.044,456A1.044,1.044,0,0,0,424,457.045v3.34a1.044,1.044,0,1,0,2.087,0v-3.34A1.044,1.044,0,0,0,425.044,456Z" transform="translate(-364.994 -393.655)"/>
      <path id="Trazado_102222" data-name="Trazado 102222" d="M4.384,424H1.044a1.044,1.044,0,0,0,0,2.087h3.34a1.044,1.044,0,0,0,0-2.087Z" transform="translate(0 -366.108)"/>
      <path id="Trazado_102223" data-name="Trazado 102223" d="M57.044,456A1.044,1.044,0,0,0,56,457.045v3.34a1.044,1.044,0,0,0,2.087,0v-3.34A1.044,1.044,0,0,0,57.044,456Z" transform="translate(-48.207 -393.655)"/>
      <path id="Trazado_102224" data-name="Trazado 102224" d="M224.464,16.592a1.053,1.053,0,0,0,1.447-.289l1.358-2.037,1.358,2.037a1.044,1.044,0,1,0,1.737-1.158l-1.841-2.761,1.841-2.761a1.044,1.044,0,0,0-1.737-1.158L227.27,10.5l-1.358-2.037a1.044,1.044,0,0,0-1.737,1.158l1.841,2.761-1.841,2.761A1.044,1.044,0,0,0,224.464,16.592Z" transform="translate(-192.827 -8)"/>
      <path id="Trazado_102225" data-name="Trazado 102225" d="M462.1,232.175a1.044,1.044,0,0,0-1.447.289l-1.358,2.037-1.358-2.037a1.044,1.044,0,1,0-1.737,1.158l2.051,3.077v3.024a1.044,1.044,0,0,0,2.087,0V236.7l2.051-3.077A1.044,1.044,0,0,0,462.1,232.175Z" transform="translate(-392.562 -200.826)"/>
    </g>
  </g>
</svg>
