<svg xmlns="http://www.w3.org/2000/svg" width="70" height="59.293" viewBox="0 0 70 59.293">
  <g id="_60" data-name="60" transform="translate(0 -39.156)">
    <path id="Trazado_102136" data-name="Trazado 102136" d="M26.164,161.08,7.5,150.3v21.551l18.664,10.776Z" transform="translate(-6.458 -96.242)" fill="#26ccda"/>
    <g id="Grupo_54037" data-name="Grupo 54037" transform="translate(1.042 53.003)" opacity="0.1">
      <path id="Trazado_102137" data-name="Trazado 102137" d="M26.164,161.08,7.5,150.3v21.551l18.664,10.776Z" transform="translate(-7.5 -150.305)"/>
    </g>
    <path id="Trazado_102138" data-name="Trazado 102138" d="M141.8,161.08,160.466,150.3v21.551L141.8,182.632Z" transform="translate(-122.528 -96.242)" fill="#26ccda"/>
    <g id="Grupo_54038" data-name="Grupo 54038" transform="translate(19.274 54.063)" opacity="0.2">
      <path id="Trazado_102139" data-name="Trazado 102139" d="M141.8,161.08,160.466,150.3v21.551L141.8,182.632Z" transform="translate(-141.802 -150.305)"/>
    </g>
    <path id="Trazado_102140" data-name="Trazado 102140" d="M44.827,83.541,26.164,94.317,7.5,83.541,26.164,72.766Z" transform="translate(-6.458 -28.939)" fill="#26ccda"/>
    <path id="Trazado_102145" data-name="Trazado 102145" d="M18.456,0A18.456,18.456,0,1,1,0,18.456,18.456,18.456,0,0,1,18.456,0Z" transform="translate(32.045 40.198)" fill="#f57c00"/>
    <path id="Trazado_102141" data-name="Trazado 102141" d="M282.922,84.691a18.457,18.457,0,0,1-29.341,21.615,18.457,18.457,0,1,0,29.341-21.615Z" transform="translate(-219.493 -39.207)" fill="#ee9336" opacity="0.533" style="mix-blend-mode: multiply;isolation: isolate"/>
    <path id="Trazado_102142" data-name="Trazado 102142" d="M223.255,181.055l-17.269-37.582a1.853,1.853,0,0,0-3.367,0l-17.269,37.582c0,3.435,8.485,6.219,18.952,6.219S223.255,184.49,223.255,181.055Z" transform="translate(-160.745 -89.867)" fill="#fdd835"/>
    <path id="Trazado_102143" data-name="Trazado 102143" d="M322.172,143.49a1.833,1.833,0,0,0-1.884-1.066,1.891,1.891,0,0,1,.729,1.089l10.741,42.559c4.66-1.133,7.682-2.951,7.682-5Z" transform="translate(-276.93 -89.884)" fill="#e8a45e" opacity="0.491" style="mix-blend-mode: multiply;isolation: isolate"/>
    <path id="Trazado_102144" data-name="Trazado 102144" d="M70,58.338a19.04,19.04,0,0,0-5.745-13.689,1.025,1.025,0,1,0-1.437,1.463A17.133,17.133,0,0,1,56.1,74.636L46.574,53.9a2.848,2.848,0,0,0-5.176,0L35.676,66.357A17.137,17.137,0,0,1,59.013,43.29,1.025,1.025,0,1,0,60,41.49a19.188,19.188,0,0,0-26.721,9.095L19.9,42.863a1.025,1.025,0,0,0-1.025,0L.513,53.464a1.011,1.011,0,0,0-.1.069l-.025.02q-.038.03-.072.063l-.021.021a1.015,1.015,0,0,0-.148.194l-.013.023q-.023.042-.042.086l-.013.03a1.047,1.047,0,0,0-.037.108l0,.006a1.049,1.049,0,0,0-.024.118c0,.011,0,.021,0,.032q-.006.049-.007.1c0,.006,0,.011,0,.017v21.2a1.025,1.025,0,0,0,.513.888l18.362,10.6A1.052,1.052,0,0,0,19,87.1a1.018,1.018,0,0,0,.523.069l.026-.005a1.031,1.031,0,0,0,.1-.021c.016,0,.031-.011.047-.016s.054-.016.08-.027l.037-.018c.029-.013.058-.026.085-.042h0l8.536-4.928-4.026,8.763a1.026,1.026,0,0,0-.094.428c0,2.144,2.132,3.977,6.167,5.3a45.046,45.046,0,0,0,13.5,1.843,45.048,45.048,0,0,0,13.5-1.843c4.034-1.324,6.167-3.157,6.167-5.3a1.024,1.024,0,0,0-.094-.428l-1.515-3.3a1.025,1.025,0,0,0-1.864.856l1.4,3.057c-.376,2.109-7,4.905-17.6,4.905s-17.227-2.8-17.6-4.905L43.262,54.76a.8.8,0,0,1,1.449,0l9.9,21.543v0l3.576,7.783a1.025,1.025,0,0,0,1.864-.856l-3.086-6.717A19.212,19.212,0,0,0,70,58.338ZM19.387,63.769,9.434,58.023A1.025,1.025,0,1,0,8.409,59.8l9.953,5.746V84.379L2.051,74.962V56.128l2.516,1.453a1.025,1.025,0,1,0,1.025-1.776L3.076,54.352l16.311-9.417,13.149,7.592a19.056,19.056,0,0,0-.826,4.128Zm10.53,15.123-9.5,5.487V65.545l11.236-6.487a19.062,19.062,0,0,0,2.983,9.573Z"/>
  </g>
</svg>
