<svg xmlns="http://www.w3.org/2000/svg" width="70" height="67.055" viewBox="0 0 70 67.055">
  <g id="_61" data-name="61" transform="translate(0 -10.849)">
    <path id="Trazado_102146" data-name="Trazado 102146" d="M374.692,167.927l-3.781-3.376-7.7,2.961-1.048,4.326-4.029,18.275,13.082,5.7,1.623-2.1a34.88,34.88,0,0,0,1.856-25.789Z" transform="translate(-311.197 -134.086)" fill="#fe7d43"/>
    <g id="Grupo_54040" data-name="Grupo 54040" transform="translate(1.253 12.537)">
      <g id="XMLID_855_">
        <g id="Grupo_54039" data-name="Grupo 54039">
          <path id="Trazado_102147" data-name="Trazado 102147" d="M283.663,324.014l-4.591,2.218-11.8,8.314,5.261,11.737,3.756.931v0a34.831,34.831,0,0,0,19.037-17.477Z" transform="translate(-234.889 -285.12)" fill="#ee6161"/>
          <path id="Trazado_102148" data-name="Trazado 102148" d="M154.351,374.755l-2.5-1.755-14.966-2.273-7.191,11.552,3.31,4.169h0a34.883,34.883,0,0,0,25.847.64h0Z" transform="translate(-114.607 -324.995)" fill="#c2a1d5"/>
          <path id="Trazado_102149" data-name="Trazado 102149" d="M50.381,292.513l-8.319-13.068-14.515,4.491v6.288A34.885,34.885,0,0,0,45.811,308.53h0l5.26-12.028Z" transform="translate(-24.768 -247.076)" fill="#8ac9fe"/>
          <path id="Trazado_102150" data-name="Trazado 102150" d="M14.7,146.671l-3.941,4.367h0a34.888,34.888,0,0,0,.577,25.849h0l12.108-5.071,1.583-3.636.951-17.887Z" transform="translate(-8.559 -130.912)" fill="#75cdd5"/>
          <path id="Trazado_102151" data-name="Trazado 102151" d="M48.036,46.014h-7a34.875,34.875,0,0,0-17.425,19.1h0L35.87,69.8l8.017-4.058,10.6-9.537Z" transform="translate(-21.405 -42.555)" fill="#6cf5c2"/>
          <path id="Trazado_102152" data-name="Trazado 102152" d="M331.164,197.674l-.642-2.856-7.914,2.006-.426,3.653a12.265,12.265,0,0,1-.543,9.082l.171,2.914,5.171,2.752,3.093-1.494a21.7,21.7,0,0,0,1.091-16.058Z" transform="translate(-281.3 -172.279)" fill="#fd6930"/>
          <path id="Trazado_102153" data-name="Trazado 102153" d="M276.208,295.514a12.271,12.271,0,0,1-6.662,6.2l-1.129,2.123,2.353,6.026,2,.693a21.7,21.7,0,0,0,11.874-10.867Z" transform="translate(-234.581 -259.391)" fill="#e94444"/>
          <path id="Trazado_102154" data-name="Trazado 102154" d="M191.565,337.17a12.258,12.258,0,0,1-9.1-.116l-2.469.268-2.937,5.987,1.634,2.368a21.709,21.709,0,0,0,16.092.335Z" transform="translate(-155.207 -295.084)" fill="#a274bf"/>
          <path id="Trazado_102155" data-name="Trazado 102155" d="M118.948,285.45l-1.932-1.4-6.3,2.185-.444,2.849a21.705,21.705,0,0,0,11.413,11.348l3.771-8.623A12.269,12.269,0,0,1,118.948,285.45Z" transform="translate(-96.991 -249.54)" fill="#26a6fe"/>
          <path id="Trazado_102156" data-name="Trazado 102156" d="M174.442,26.634a34.827,34.827,0,0,0-31.8-.791L148.276,37.7l5.6,2.512L171.5,43.2l5.128-10.881Z" transform="translate(-126.386 -22.384)" fill="#fee97d"/>
        </g>
      </g>
    </g>
    <path id="Trazado_102157" data-name="Trazado 102157" d="M354.637,40.447a.942.942,0,0,1-.611,1.206l-4.743,1.48-8.984,2.8A25.428,25.428,0,0,0,328.26,31.421l4.565-8.227,2.415-4.354a.941.941,0,0,1,1.3-.359A40.81,40.81,0,0,1,354.637,40.447Z" transform="translate(-285.699 -6.407)" fill="#fec165"/>
    <path id="Trazado_102158" data-name="Trazado 102158" d="M107.615,205.895a12.177,12.177,0,0,1,.725-4.156l-.108-5.1h-5.246l-3.437,1.74a21.717,21.717,0,0,0,.425,16.09l8.68-3.636a12.176,12.176,0,0,1-1.038-4.938Z" transform="translate(-85.045 -161.219)" fill="#2abcc8"/>
    <path id="Trazado_102159" data-name="Trazado 102159" d="M122.56,128.433l-4.392-1.419a21.691,21.691,0,0,0-10.8,11.933l8.791,3.36a12.271,12.271,0,0,1,6.05-6.794h0l2.014-2.268Z" transform="translate(-93.122 -100.729)" fill="#00f2a6"/>
    <path id="Trazado_102160" data-name="Trazado 102160" d="M200.948,114.637h0a21.674,21.674,0,0,0-19.8-.41l4.04,8.5a12.245,12.245,0,0,1,11.193.142l3.079.152L202.473,119Z" transform="translate(-157.319 -87.643)" fill="#fedf30"/>
    <path id="Trazado_102161" data-name="Trazado 102161" d="M303.255,122.129l-3.549,1.107-8.917,2.8a12.4,12.4,0,0,0-5.927-6.972l4.551-8.2,1.8-3.25A25.428,25.428,0,0,1,303.255,122.129Z" transform="translate(-247.173 -83.983)" fill="#fdb441"/>
    <path id="Trazado_102162" data-name="Trazado 102162" d="M69.9,32.02A38.81,38.81,0,0,0,52.659,11.1a1.892,1.892,0,0,0-2.6.72L48.3,14.99A33.256,33.256,0,1,0,33.254,77.9,32.924,32.924,0,0,0,53.707,70.87a1.018,1.018,0,1,0-1.253-1.6A31.2,31.2,0,0,1,45.1,73.551L41.618,64a21.22,21.22,0,0,0,10.16-9.29l9.1,4.5a31.313,31.313,0,0,1-5.289,7.244,1.018,1.018,0,0,0,1.457,1.423,33.279,33.279,0,0,0,8.188-32.365l3.437-1.073A1.892,1.892,0,0,0,69.9,32.02ZM47.312,16.771l-4.923,8.874a21.12,21.12,0,0,0-17.456-.375L20.575,16.1a31.333,31.333,0,0,1,26.737.666ZM52.3,44.65a18.946,18.946,0,0,1-1.466,7.325L44.824,49a12.366,12.366,0,0,0,.446-7.256l6.392-1.995A19.075,19.075,0,0,1,52.3,44.65ZM33.253,57.012a12.326,12.326,0,0,0,3.468-.5l2.294,6.292a19.061,19.061,0,0,1-12.251-.248l2.688-6.147A12.351,12.351,0,0,0,33.253,57.012Zm0-2.036a10.276,10.276,0,0,1-5.712-1.725,1.018,1.018,0,1,0-1.128,1.695,12.376,12.376,0,0,0,1.159.684l-2.682,6.132A19.176,19.176,0,0,1,16.2,53.128l6.185-2.591a12.365,12.365,0,0,0,.644,1.06,1.018,1.018,0,1,0,1.683-1.146,10.325,10.325,0,1,1,8.542,4.524ZM14.2,44.65a19.055,19.055,0,0,1,.849-5.641l6.27,2.4a12.391,12.391,0,0,0,.238,7.267L15.388,51.26A18.963,18.963,0,0,1,14.2,44.65ZM33.253,32.288a12.3,12.3,0,0,0-4.569.875l-2.877-6.052a19.091,19.091,0,0,1,15.592.317L38.144,33.3A12.291,12.291,0,0,0,33.253,32.288Zm11.375,7.523a12.44,12.44,0,0,0-4.688-5.554l4.924-8.877a22.4,22.4,0,0,1,9.468,11.4ZM11.179,22.576a31.315,31.315,0,0,1,7.564-5.581l4.36,9.171a21.141,21.141,0,0,0-4.312,3.143,1.018,1.018,0,1,0,1.4,1.481,19.1,19.1,0,0,1,3.792-2.781l2.883,6.064a12.443,12.443,0,0,0-4.842,5.42L15.76,37.1a19,19,0,0,1,1.727-3.143A1.018,1.018,0,0,0,15.8,32.812a21.043,21.043,0,0,0-1.946,3.56L4.377,32.747a31.164,31.164,0,0,1,6.8-10.171ZM3.664,34.655l9.486,3.627a21.114,21.114,0,0,0,.359,13.765L4.144,55.97a31.471,31.471,0,0,1-.479-21.315Zm1.28,23.187,9.373-3.926a21.223,21.223,0,0,0,9.756,9.713L20,72.934A31.474,31.474,0,0,1,4.944,57.843ZM43.191,74.261a31.49,31.49,0,0,1-21.315-.524l4.071-9.308a21.092,21.092,0,0,0,13.766.293ZM40.919,62.086l-2.3-6.3A12.446,12.446,0,0,0,43.95,50.84l6,2.968a19.171,19.171,0,0,1-9.032,8.277ZM64.471,44.65a31.128,31.128,0,0,1-2.7,12.732l-9.1-4.5a21.11,21.11,0,0,0,.943-13.737l9.68-3.021A31.231,31.231,0,0,1,64.471,44.65Zm-8.193-8.473A24.426,24.426,0,0,0,45.853,23.6L51.766,12.94a36.771,36.771,0,0,1,16.156,19.6Z" transform="translate(0)"/>
  </g>
</svg>
