<svg id="_62" data-name="62" xmlns="http://www.w3.org/2000/svg" width="70" height="70" viewBox="0 0 70 70">
  <g id="Grupo_54041" data-name="Grupo 54041" transform="translate(35 35)">
    <path id="Trazado_102163" data-name="Trazado 102163" d="M256.738,256h32.5a.737.737,0,0,1,.737.738v32.5a.737.737,0,0,1-.737.737h-32.5a.737.737,0,0,1-.738-.737v-32.5A.738.738,0,0,1,256.738,256Z" transform="translate(-256 -256)" fill="#ecf3fc"/>
  </g>
  <g id="Grupo_54042" data-name="Grupo 54042" transform="translate(35 1.025)">
    <path id="Trazado_102164" data-name="Trazado 102164" d="M256,7.5h33.237a.737.737,0,0,1,.737.737v32.5a.737.737,0,0,1-.737.737H256Z" transform="translate(-256 -7.5)" fill="#ecf3fc"/>
  </g>
  <g id="Grupo_54043" data-name="Grupo 54043" transform="translate(1.025 35)">
    <path id="Trazado_102165" data-name="Trazado 102165" d="M7.5,256H40.737a.738.738,0,0,1,.737.738v32.5a.737.737,0,0,1-.737.737H8.237a.737.737,0,0,1-.737-.737Z" transform="translate(-7.5 -256)" fill="#ecf3fc"/>
  </g>
  <g id="Grupo_54044" data-name="Grupo 54044" transform="translate(1.025 1.025)">
    <path id="Trazado_102166" data-name="Trazado 102166" d="M8.237,7.5H41.475V40.737a.737.737,0,0,1-.737.737H7.5V8.237A.737.737,0,0,1,8.237,7.5Z" transform="translate(-7.5 -7.5)" fill="#ecf3fc"/>
  </g>
  <g id="Grupo_54045" data-name="Grupo 54045" transform="translate(30.161 35)">
    <path id="Trazado_102167" data-name="Trazado 102167" d="M224.708,256h-4.1a.738.738,0,0,1,.737.738v32.5a.737.737,0,0,1-.737.737h4.1a.737.737,0,0,0,.737-.737v-32.5A.738.738,0,0,0,224.708,256Z" transform="translate(-220.606 -256)" fill="#bed6e3"/>
  </g>
  <g id="Grupo_54046" data-name="Grupo 54046" transform="translate(30.161 1.025)">
    <path id="Trazado_102168" data-name="Trazado 102168" d="M221.343,7.5V40.737a.737.737,0,0,1-.737.737h4.1a.737.737,0,0,0,.737-.737V7.5Z" transform="translate(-220.606 -7.5)" fill="#bed6e3"/>
  </g>
  <g id="Grupo_54047" data-name="Grupo 54047" transform="translate(28.42 62.092)">
    <path id="Trazado_102169" data-name="Trazado 102169" d="M214.449,454.161c-.068,0-.135-.005-.2-.005a6.377,6.377,0,0,0-6.377,6.377c0,.17.009.339.022.506h5.821a.737.737,0,0,0,.737-.737Z" transform="translate(-207.869 -454.156)" fill="#90a2bb"/>
  </g>
  <g id="Grupo_54048" data-name="Grupo 54048" transform="translate(1.025 62.092)">
    <path id="Trazado_102170" data-name="Trazado 102170" d="M14.08,460.533A6.377,6.377,0,0,0,7.7,454.156c-.068,0-.136,0-.2.005v6.14a.737.737,0,0,0,.737.737h5.821c.013-.167.022-.336.022-.506" transform="translate(-7.5 -454.156)" fill="#90a2bb"/>
  </g>
  <g id="Grupo_54049" data-name="Grupo 54049" transform="translate(28.42 35)">
    <path id="Trazado_102171" data-name="Trazado 102171" d="M207.869,256.506a6.377,6.377,0,0,0,6.377,6.377c.068,0,.136,0,.2-.005v-6.14a.738.738,0,0,0-.737-.738h-5.821C207.878,256.167,207.869,256.335,207.869,256.506Z" transform="translate(-207.869 -256)" fill="#90a2bb"/>
  </g>
  <g id="Grupo_54050" data-name="Grupo 54050" transform="translate(30.161 62.092)">
    <path id="Trazado_102172" data-name="Trazado 102172" d="M225.242,454.156a6.346,6.346,0,0,0-3.9,1.332V460.3a.737.737,0,0,1-.737.737h4.1a.737.737,0,0,0,.737-.737v-6.14C225.377,454.159,225.31,454.156,225.242,454.156Z" transform="translate(-220.606 -454.156)" fill="#7c8fa2"/>
  </g>
  <g id="Grupo_54051" data-name="Grupo 54051" transform="translate(30.161 35)">
    <path id="Trazado_102173" data-name="Trazado 102173" d="M224.708,256h-4.1a.738.738,0,0,1,.737.738v4.814a6.347,6.347,0,0,0,3.9,1.332c.068,0,.136,0,.2-.005v-6.14A.738.738,0,0,0,224.708,256Z" transform="translate(-220.606 -256)" fill="#7c8fa2"/>
  </g>
  <g id="Grupo_54052" data-name="Grupo 54052" transform="translate(1.025 35)">
    <path id="Trazado_102174" data-name="Trazado 102174" d="M7.5,262.878c.068,0,.135.005.2.005a6.377,6.377,0,0,0,6.377-6.377c0-.17-.009-.339-.022-.506H7.5Z" transform="translate(-7.5 -256)" fill="#90a2bb"/>
  </g>
  <g id="Grupo_54053" data-name="Grupo 54053" transform="translate(13.471 35)">
    <path id="Trazado_102175" data-name="Trazado 102175" d="M103.072,272.833l-1.8-1.8a9.354,9.354,0,0,1,0-13.229l1.8-1.8,1.8,1.8a9.354,9.354,0,0,1,0,13.229Z" transform="translate(-98.53 -256)" fill="#a4bbcf"/>
  </g>
  <g id="Grupo_54054" data-name="Grupo 54054" transform="translate(18.013 47.291)">
    <path id="Trazado_102176" data-name="Trazado 102176" d="M131.75,350.442l1.8-1.8a9.354,9.354,0,0,1,13.229,0l1.8,1.8-1.8,1.8a9.354,9.354,0,0,1-13.229,0Z" transform="translate(-131.75 -345.9)" fill="#a4bbcf"/>
  </g>
  <g id="Grupo_54055" data-name="Grupo 54055" transform="translate(13.471 51.833)">
    <path id="Trazado_102177" data-name="Trazado 102177" d="M103.072,379.12l1.8,1.8a9.354,9.354,0,0,1,0,13.229l-1.8,1.8-1.8-1.8a9.354,9.354,0,0,1,0-13.229Z" transform="translate(-98.53 -379.12)" fill="#a4bbcf"/>
  </g>
  <g id="Grupo_54056" data-name="Grupo 54056" transform="translate(1.18 47.291)">
    <path id="Trazado_102178" data-name="Trazado 102178" d="M25.463,350.442l-1.8,1.8a9.354,9.354,0,0,1-13.229,0l-1.8-1.8,1.8-1.8a9.354,9.354,0,0,1,13.229,0Z" transform="translate(-8.63 -345.9)" fill="#a4bbcf"/>
  </g>
  <g id="Grupo_54057" data-name="Grupo 54057" transform="translate(28.42 28.117)">
    <path id="Trazado_102179" data-name="Trazado 102179" d="M214.449,205.661c-.068,0-.135-.005-.2-.005a6.377,6.377,0,0,0-6.377,6.377c0,.171.009.339.022.506h5.821a.737.737,0,0,0,.737-.737Z" transform="translate(-207.869 -205.656)" fill="#90a2bb"/>
  </g>
  <g id="Grupo_54058" data-name="Grupo 54058" transform="translate(1.025 28.117)">
    <path id="Trazado_102180" data-name="Trazado 102180" d="M14.08,212.033A6.377,6.377,0,0,0,7.7,205.656c-.068,0-.136,0-.2.005v6.878h6.559C14.072,212.372,14.08,212.2,14.08,212.033Z" transform="translate(-7.5 -205.656)" fill="#90a2bb"/>
  </g>
  <g id="Grupo_54059" data-name="Grupo 54059" transform="translate(28.42 1.025)">
    <path id="Trazado_102181" data-name="Trazado 102181" d="M207.869,8.006a6.377,6.377,0,0,0,6.377,6.377c.068,0,.136,0,.2-.005V7.5h-6.559c-.013.167-.022.336-.022.506Z" transform="translate(-207.869 -7.5)" fill="#90a2bb"/>
  </g>
  <g id="Grupo_54060" data-name="Grupo 54060" transform="translate(30.161 28.117)">
    <path id="Trazado_102182" data-name="Trazado 102182" d="M225.242,205.656a6.347,6.347,0,0,0-3.9,1.332V211.8a.738.738,0,0,1-.737.737h4.1a.737.737,0,0,0,.737-.737v-6.14c-.068,0-.135-.005-.2-.005Z" transform="translate(-220.606 -205.656)" fill="#7c8fa2"/>
  </g>
  <g id="Grupo_54061" data-name="Grupo 54061" transform="translate(30.898 1.025)">
    <path id="Trazado_102183" data-name="Trazado 102183" d="M226,7.5v5.551a6.347,6.347,0,0,0,3.9,1.332c.068,0,.136,0,.2-.005V7.5Z" transform="translate(-226 -7.5)" fill="#7c8fa2"/>
  </g>
  <g id="Grupo_54062" data-name="Grupo 54062" transform="translate(1.025 1.025)">
    <path id="Trazado_102184" data-name="Trazado 102184" d="M7.5,14.378c.068,0,.135.005.2.005A6.377,6.377,0,0,0,14.08,8.006c0-.17-.009-.339-.022-.506H8.237a.737.737,0,0,0-.737.737Z" transform="translate(-7.5 -7.5)" fill="#90a2bb"/>
  </g>
  <g id="Grupo_54063" data-name="Grupo 54063" transform="translate(13.471 1.025)">
    <path id="Trazado_102185" data-name="Trazado 102185" d="M103.072,24.333l-1.8-1.8a9.354,9.354,0,0,1,0-13.229l1.8-1.8,1.8,1.8a9.354,9.354,0,0,1,0,13.229Z" transform="translate(-98.53 -7.5)" fill="#a4bbcf"/>
  </g>
  <g id="Grupo_54064" data-name="Grupo 54064" transform="translate(18.013 13.316)">
    <path id="Trazado_102186" data-name="Trazado 102186" d="M131.75,101.942l1.8-1.8a9.354,9.354,0,0,1,13.229,0l1.8,1.8-1.8,1.8a9.354,9.354,0,0,1-13.229,0Z" transform="translate(-131.75 -97.4)" fill="#a4bbcf"/>
  </g>
  <g id="Grupo_54065" data-name="Grupo 54065" transform="translate(13.471 17.858)">
    <path id="Trazado_102187" data-name="Trazado 102187" d="M103.072,130.62l1.8,1.8a9.354,9.354,0,0,1,0,13.229l-1.8,1.8-1.8-1.8a9.354,9.354,0,0,1,0-13.229Z" transform="translate(-98.53 -130.62)" fill="#a4bbcf"/>
  </g>
  <g id="Grupo_54066" data-name="Grupo 54066" transform="translate(1.18 13.316)">
    <path id="Trazado_102188" data-name="Trazado 102188" d="M25.463,101.942l-1.8,1.8a9.354,9.354,0,0,1-13.229,0l-1.8-1.8,1.8-1.8a9.354,9.354,0,0,1,13.229,0Z" transform="translate(-8.63 -97.4)" fill="#a4bbcf"/>
  </g>
  <g id="Grupo_54067" data-name="Grupo 54067" transform="translate(64.136 1.025)">
    <path id="Trazado_102189" data-name="Trazado 102189" d="M473.208,7.5h-4.1a.737.737,0,0,1,.737.737v32.5a.737.737,0,0,1-.737.737h4.1a.737.737,0,0,0,.738-.737V8.237a.738.738,0,0,0-.738-.737Z" transform="translate(-469.106 -7.5)" fill="#bed6e3"/>
  </g>
  <g id="Grupo_54068" data-name="Grupo 54068" transform="translate(64.136 35)">
    <path id="Trazado_102190" data-name="Trazado 102190" d="M473.208,256h-4.1a.737.737,0,0,1,.737.738v32.5a.737.737,0,0,1-.737.737h4.1a.737.737,0,0,0,.738-.737v-32.5A.738.738,0,0,0,473.208,256Z" transform="translate(-469.106 -256)" fill="#bed6e3"/>
  </g>
  <g id="Grupo_54069" data-name="Grupo 54069" transform="translate(62.394 62.092)">
    <path id="Trazado_102191" data-name="Trazado 102191" d="M462.949,454.161c-.068,0-.135-.005-.2-.005a6.377,6.377,0,0,0-6.377,6.377c0,.17.009.339.022.506h5.821a.737.737,0,0,0,.737-.737Z" transform="translate(-456.369 -454.156)" fill="#90a2bb"/>
  </g>
  <g id="Grupo_54070" data-name="Grupo 54070" transform="translate(64.136 62.092)">
    <path id="Trazado_102192" data-name="Trazado 102192" d="M473.742,454.156a6.347,6.347,0,0,0-3.9,1.332V460.3a.737.737,0,0,1-.737.737h4.1a.737.737,0,0,0,.738-.737v-6.14C473.877,454.159,473.81,454.156,473.742,454.156Z" transform="translate(-469.106 -454.156)" fill="#7c8fa2"/>
  </g>
  <g id="Grupo_54071" data-name="Grupo 54071" transform="translate(35 62.092)">
    <path id="Trazado_102193" data-name="Trazado 102193" d="M262.58,460.533a6.377,6.377,0,0,0-6.377-6.377c-.068,0-.136,0-.2.005v6.878h6.559C262.572,460.872,262.58,460.7,262.58,460.533Z" transform="translate(-256 -454.156)" fill="#90a2bb"/>
  </g>
  <g id="Grupo_54072" data-name="Grupo 54072" transform="translate(62.394 35)">
    <path id="Trazado_102194" data-name="Trazado 102194" d="M456.369,256.506a6.377,6.377,0,0,0,6.377,6.377c.068,0,.136,0,.2-.005v-6.14a.737.737,0,0,0-.737-.738h-5.821C456.378,256.167,456.369,256.335,456.369,256.506Z" transform="translate(-456.369 -256)" fill="#90a2bb"/>
  </g>
  <g id="Grupo_54073" data-name="Grupo 54073" transform="translate(64.136 35)">
    <path id="Trazado_102195" data-name="Trazado 102195" d="M473.208,256h-4.1a.737.737,0,0,1,.737.738v4.814a6.348,6.348,0,0,0,3.9,1.332c.068,0,.136,0,.2-.005v-6.14A.738.738,0,0,0,473.208,256Z" transform="translate(-469.106 -256)" fill="#7c8fa2"/>
  </g>
  <g id="Grupo_54074" data-name="Grupo 54074" transform="translate(35 35)">
    <path id="Trazado_102196" data-name="Trazado 102196" d="M256,262.878c.068,0,.135.005.2.005a6.377,6.377,0,0,0,6.377-6.377c0-.17-.009-.339-.022-.506h-5.821a.738.738,0,0,0-.738.738Z" transform="translate(-256 -256)" fill="#90a2bb"/>
  </g>
  <g id="Grupo_54075" data-name="Grupo 54075" transform="translate(47.445 35)">
    <path id="Trazado_102197" data-name="Trazado 102197" d="M351.572,272.833l-1.8-1.8a9.354,9.354,0,0,1,0-13.229l1.8-1.8,1.8,1.8a9.354,9.354,0,0,1,0,13.229Z" transform="translate(-347.03 -256)" fill="#a4bbcf"/>
  </g>
  <g id="Grupo_54076" data-name="Grupo 54076" transform="translate(52.142 47.136)">
    <path id="Trazado_102198" data-name="Trazado 102198" d="M381.38,349.312l1.8-1.8a9.354,9.354,0,0,1,13.229,0l1.8,1.8-1.8,1.8a9.354,9.354,0,0,1-13.229,0Z" transform="translate(-381.38 -344.77)" fill="#a4bbcf"/>
  </g>
  <g id="Grupo_54077" data-name="Grupo 54077" transform="translate(47.445 51.833)">
    <path id="Trazado_102199" data-name="Trazado 102199" d="M351.572,379.12l1.8,1.8a9.354,9.354,0,0,1,0,13.229l-1.8,1.8-1.8-1.8a9.354,9.354,0,0,1,0-13.229Z" transform="translate(-347.03 -379.12)" fill="#a4bbcf"/>
  </g>
  <g id="Grupo_54078" data-name="Grupo 54078" transform="translate(35.154 47.291)">
    <path id="Trazado_102200" data-name="Trazado 102200" d="M273.963,350.442l-1.8,1.8a9.354,9.354,0,0,1-13.229,0l-1.8-1.8,1.8-1.8a9.354,9.354,0,0,1,13.229,0Z" transform="translate(-257.13 -345.9)" fill="#a4bbcf"/>
  </g>
  <g id="Grupo_54079" data-name="Grupo 54079" transform="translate(40.272 5.662)">
    <path id="Trazado_102201" data-name="Trazado 102201" d="M296.72,66.115a2.161,2.161,0,0,1-2.161-2.161V43.575a2.161,2.161,0,1,1,4.321,0v20.38A2.161,2.161,0,0,1,296.72,66.115Z" transform="translate(-294.559 -41.414)" fill="#a4bbcf"/>
  </g>
  <g id="Grupo_54080" data-name="Grupo 54080" transform="translate(49.827 5.662)">
    <path id="Trazado_102202" data-name="Trazado 102202" d="M366.607,66.115a2.161,2.161,0,0,1-2.161-2.161V43.575a2.161,2.161,0,0,1,4.321,0v20.38A2.161,2.161,0,0,1,366.607,66.115Z" transform="translate(-364.446 -41.414)" fill="#a4bbcf"/>
  </g>
  <g id="Grupo_54081" data-name="Grupo 54081" transform="translate(59.381 5.662)">
    <path id="Trazado_102203" data-name="Trazado 102203" d="M436.494,66.115a2.161,2.161,0,0,1-2.161-2.161V43.575a2.161,2.161,0,1,1,4.321,0v20.38A2.161,2.161,0,0,1,436.494,66.115Z" transform="translate(-434.333 -41.414)" fill="#a4bbcf"/>
  </g>
  <g id="Grupo_54082" data-name="Grupo 54082" transform="translate(30.898 48.428)">
    <path id="Trazado_102204" data-name="Trazado 102204" d="M228.145,355.817a9.35,9.35,0,0,0-2.145-1.6v6.81a9.352,9.352,0,0,0,2.145-1.6l1.8-1.8Z" transform="translate(-226 -354.214)" fill="#90a2bb"/>
  </g>
  <g id="Grupo_54083" data-name="Grupo 54083" transform="translate(30.898 14.453)">
    <path id="Trazado_102205" data-name="Trazado 102205" d="M228.145,107.317a9.353,9.353,0,0,0-2.145-1.6v6.81a9.353,9.353,0,0,0,2.145-1.6l1.8-1.8Z" transform="translate(-226 -105.714)" fill="#90a2bb"/>
  </g>
  <g id="Grupo_54084" data-name="Grupo 54084" transform="translate(64.873 48.189)">
    <path id="Trazado_102206" data-name="Trazado 102206" d="M474.5,352.47v6.978a9.345,9.345,0,0,0,2.3-1.687l1.8-1.8-1.8-1.8A9.343,9.343,0,0,0,474.5,352.47Z" transform="translate(-474.5 -352.47)" fill="#90a2bb"/>
  </g>
  <g id="Grupo_54085" data-name="Grupo 54085" transform="translate(0 0)">
    <path id="Trazado_102207" data-name="Trazado 102207" d="M68.237,0h-17.9a1.025,1.025,0,0,0,0,2.051H67.949V33.975H36.025V2.051H46.235a1.025,1.025,0,1,0,0-2.051H1.763A1.765,1.765,0,0,0,0,1.763V68.237A1.765,1.765,0,0,0,1.763,70H68.237A1.765,1.765,0,0,0,70,68.237V1.763A1.765,1.765,0,0,0,68.237,0Zm-.288,49.512-.206-.206A10.392,10.392,0,0,0,56.974,46.85a10.4,10.4,0,0,0-2.46-10.772l-.052-.052h6.926a7.4,7.4,0,0,0,6.56,6.837v6.649ZM55.5,60.249a8.274,8.274,0,0,1-2.44,5.889l-1.077,1.077L50.91,66.138a8.328,8.328,0,0,1,0-11.778l1.077-1.077,1.077,1.077A8.273,8.273,0,0,1,55.5,60.249ZM48.471,43.416a8.274,8.274,0,0,1,2.44-5.889l1.077-1.077,1.077,1.077a8.328,8.328,0,0,1,0,11.778l-1.077,1.077L50.91,49.306A8.274,8.274,0,0,1,48.471,43.416Zm2.066,8.416L49.46,52.91a8.328,8.328,0,0,1-11.778,0L36.6,51.833l1.077-1.077a8.338,8.338,0,0,1,11.778,0Zm2.9,0,1.077-1.077a8.338,8.338,0,0,1,11.778,0l1.077,1.077L66.293,52.91a8.328,8.328,0,0,1-11.778,0ZM49.46,36.077A10.4,10.4,0,0,0,47,46.849a10.393,10.393,0,0,0-10.769,2.456l-.206.206v-6.65a7.413,7.413,0,0,0,6.56-6.836h6.926ZM21.529,60.249a8.274,8.274,0,0,1-2.44,5.889l-1.077,1.077-1.077-1.077a8.328,8.328,0,0,1,0-11.778l1.077-1.077L19.09,54.36A8.273,8.273,0,0,1,21.529,60.249ZM14.5,9.442a8.274,8.274,0,0,1,2.44-5.889l1.077-1.077L19.09,3.553a8.328,8.328,0,0,1,0,11.778l-1.077,1.077-1.077-1.077A8.274,8.274,0,0,1,14.5,9.442ZM33.975,33.975h-4.5a5.363,5.363,0,0,1,4.5-4.769Zm0,2.051v4.769a5.363,5.363,0,0,1-4.5-4.769Zm0-8.887a7.413,7.413,0,0,0-6.56,6.836H20.179l.361-.361A10.4,10.4,0,0,0,23,22.847a10.4,10.4,0,0,0,10.767-2.462l.206-.206v6.959ZM16.936,20.385l1.077-1.077,1.077,1.077a8.328,8.328,0,0,1,0,11.779l-1.077,1.077-1.077-1.077a8.328,8.328,0,0,1,0-11.779Zm15.382-1.45a8.328,8.328,0,0,1-11.778,0l-1.077-1.077,1.077-1.077a8.338,8.338,0,0,1,11.778,0L33.4,17.858ZM16.563,17.858l-1.077,1.077a8.329,8.329,0,0,1-11.779,0L2.63,17.858l1.077-1.077a8.338,8.338,0,0,1,11.778,0ZM9.6,23.425a10.389,10.389,0,0,0,3.427-.578,10.4,10.4,0,0,0,2.462,10.767l.361.361H8.611a7.413,7.413,0,0,0-6.56-6.836V20.179l.206.206A10.312,10.312,0,0,0,9.6,23.425Zm-7.546,5.78a5.362,5.362,0,0,1,4.5,4.769h-4.5Zm4.5,6.82a5.362,5.362,0,0,1-4.5,4.769V36.025Zm-4.5,6.836a7.413,7.413,0,0,0,6.56-6.836h6.926l-.052.052a10.382,10.382,0,0,0-1.8,2.411,1.025,1.025,0,0,0,1.8.974,8.329,8.329,0,0,1,1.444-1.935l1.077-1.077,1.077,1.077a8.328,8.328,0,0,1,0,11.778l-1.077,1.077-1.077-1.077h0a8.335,8.335,0,0,1-2.422-6.413,1.025,1.025,0,1,0-2.047-.128,10.383,10.383,0,0,0,.569,4.089A10.392,10.392,0,0,0,2.257,49.306l-.206.206Zm1.656,7.894a8.338,8.338,0,0,1,11.778,0l1.077,1.077L15.485,52.91a8.329,8.329,0,0,1-11.778,0L2.63,51.833Zm15.756,1.077.1-.1.981-.981a8.338,8.338,0,0,1,11.778,0L33.4,51.833,32.318,52.91a8.328,8.328,0,0,1-11.778,0ZM23,46.85a10.4,10.4,0,0,0-2.46-10.772l-.052-.052h6.926a7.413,7.413,0,0,0,6.56,6.836v6.65l-.206-.206A10.392,10.392,0,0,0,23,46.85ZM33.975,15.537l-.206-.206A10.392,10.392,0,0,0,23,12.875,10.4,10.4,0,0,0,20.54,2.1l-.052-.052h6.926a7.413,7.413,0,0,0,6.56,6.836v6.65ZM15.486,2.1a10.4,10.4,0,0,0-2.46,10.772A10.393,10.393,0,0,0,2.257,15.331l-.206.206V8.887a7.413,7.413,0,0,0,6.56-6.836h6.926ZM2.051,54.154l.206.206a10.4,10.4,0,0,0,10.767,2.462,10.4,10.4,0,0,0,2.462,10.767l.361.361H8.611a7.413,7.413,0,0,0-6.56-6.836ZM20.54,67.589A10.4,10.4,0,0,0,23,56.822,10.4,10.4,0,0,0,33.768,54.36l.206-.206v6.959a7.413,7.413,0,0,0-6.56,6.836H20.179ZM33.975,63.18v4.769h-4.5A5.362,5.362,0,0,1,33.975,63.18Zm2.051-9.026.206.206A10.4,10.4,0,0,0,47,56.822,10.4,10.4,0,0,0,49.46,67.589l.361.361H42.586a7.413,7.413,0,0,0-6.56-6.836ZM54.514,67.589a10.4,10.4,0,0,0,2.462-10.767A10.4,10.4,0,0,0,67.743,54.36l.206-.206v6.959a7.413,7.413,0,0,0-6.56,6.836H54.154Zm13.435-26.8a5.388,5.388,0,0,1-4.5-4.767h4.5Zm-27.42-4.767a5.362,5.362,0,0,1-4.5,4.769V36.025ZM33.975,6.82a5.362,5.362,0,0,1-4.5-4.769h4.5ZM6.555,2.051a5.362,5.362,0,0,1-4.5,4.769V2.051ZM2.051,63.18a5.362,5.362,0,0,1,4.5,4.769h-4.5Zm33.975,0a5.362,5.362,0,0,1,4.5,4.769h-4.5Zm27.42,4.769a5.362,5.362,0,0,1,4.5-4.769v4.769Z" transform="translate(0 0)"/>
    <path id="Trazado_102208" data-name="Trazado 102208" d="M287.06,37.1V57.48a3.186,3.186,0,0,0,6.372,0V37.1a3.186,3.186,0,1,0-6.372,0Zm4.321,0V57.48a1.135,1.135,0,1,1-2.271,0V37.1a1.135,1.135,0,1,1,2.271,0Z" transform="translate(-247.814 -29.277)"/>
    <path id="Trazado_102209" data-name="Trazado 102209" d="M360.132,60.666a3.19,3.19,0,0,0,3.186-3.186V37.1a3.186,3.186,0,0,0-6.372,0V57.48A3.19,3.19,0,0,0,360.132,60.666ZM359,37.1a1.135,1.135,0,1,1,2.271,0V57.48a1.135,1.135,0,1,1-2.271,0Z" transform="translate(-308.145 -29.277)"/>
    <path id="Trazado_102210" data-name="Trazado 102210" d="M433.2,57.48V37.1a3.186,3.186,0,0,0-6.372,0V57.48a3.186,3.186,0,0,0,6.372,0Zm-4.321,0V37.1a1.135,1.135,0,0,1,2.271,0V57.48a1.135,1.135,0,0,1-2.271,0Z" transform="translate(-368.476 -29.277)"/>
  </g>
</svg>
