<svg id="_63" data-name="63" xmlns="http://www.w3.org/2000/svg" width="70" height="70" viewBox="0 0 70 70">
  <path id="Trazado_102239" data-name="Trazado 102239" d="M75.742,41.871A33.871,33.871,0,1,1,41.871,8,33.871,33.871,0,0,1,75.742,41.871Zm0,0" transform="translate(-6.871 -6.871)" fill="#85d3c1"/>
  <path id="Trazado_102240" data-name="Trazado 102240" d="M328.337,160.068a2.252,2.252,0,0,1,1.727,2.19,2.274,2.274,0,0,1-2.258,2.258H314.258A2.265,2.265,0,0,1,312,162.258a2.211,2.211,0,0,1,.666-1.592,2.236,2.236,0,0,1,1.028-.587,1.9,1.9,0,0,1,.565-.079h13.548A2.073,2.073,0,0,1,328.337,160.068Zm0,0" transform="translate(-267.968 -137.419)" fill="#f5f7fa"/>
  <path id="Trazado_102241" data-name="Trazado 102241" d="M341.548,192A6.774,6.774,0,0,1,328,192Zm0,0" transform="translate(-281.71 -164.903)" fill="#f5f7fa"/>
  <path id="Trazado_102242" data-name="Trazado 102242" d="M307.29,29.469h-6.774a1.9,1.9,0,0,0-.565.079,12,12,0,0,0-.452-1.208,14.047,14.047,0,0,0-1.434-2.529,11.229,11.229,0,0,1-2.066-6.5,11,11,0,0,1,.113-1.6,11.29,11.29,0,1,1,21.621,5.882,10.935,10.935,0,0,1-1.287,2.3,13.214,13.214,0,0,0-1.851,3.647,2.073,2.073,0,0,0-.531-.068Zm0,0" transform="translate(-254.226 -6.889)" fill="#f9d48a"/>
  <path id="Trazado_102243" data-name="Trazado 102243" d="M358.774,67.387A3.387,3.387,0,1,1,355.387,64,3.387,3.387,0,0,1,358.774,67.387Zm0,0" transform="translate(-302.323 -54.968)" fill="#f5f7fa"/>
  <path id="Trazado_102244" data-name="Trazado 102244" d="M40,93.668V88H76.129A11.229,11.229,0,0,0,78.2,94.5a14.046,14.046,0,0,1,1.434,2.529H40Zm0,0" transform="translate(-34.355 -75.581)" fill="#f5f7fa"/>
  <path id="Trazado_102245" data-name="Trazado 102245" d="M94.194,157.645v25.968H82.9v-6.774a2.274,2.274,0,0,0-2.258-2.258,2.265,2.265,0,0,0-2.258,2.258v-2.258a2.274,2.274,0,0,0-2.258-2.258,2.265,2.265,0,0,0-2.258,2.258v-2.258a2.274,2.274,0,0,0-2.258-2.258,2.265,2.265,0,0,0-2.258,2.258v-6.774h4.516v-9.032H60.323v9.032h4.516V187a2.711,2.711,0,0,1-2.664-2.224l-1.852-10.195H58.889a3.083,3.083,0,0,0-3.082,3.082v-7.6H44.516V179.1H56.032l.9,4.516H40.723A12.767,12.767,0,0,1,40,182.428V152H79.629a12,12,0,0,1,.451,1.208,2.236,2.236,0,0,0-1.028.587,2.211,2.211,0,0,0-.666,1.592,2.265,2.265,0,0,0,2.258,2.258,6.774,6.774,0,1,0,13.548,0Zm-38.387,7.9v-9.032H44.516v9.032Zm0,0" transform="translate(-34.355 -130.548)" fill="#ff958a"/>
  <path id="Trazado_102246" data-name="Trazado 102246" d="M83.29,287.6a3.738,3.738,0,0,0,.056.61l.17.824H72V280H83.29Zm0,0" transform="translate(-61.839 -240.484)" fill="#f5f7fa"/>
  <path id="Trazado_102247" data-name="Trazado 102247" d="M197.548,184v9.032h-4.516v-2.258a2.274,2.274,0,0,0-2.258-2.258,2.265,2.265,0,0,0-2.258,2.258v2.258H184V184Zm0,0" transform="translate(-158.032 -158.032)" fill="#f5f7fa"/>
  <path id="Trazado_102248" data-name="Trazado 102248" d="M72,184H83.29v9.032H72Zm0,0" transform="translate(-61.839 -158.032)" fill="#f5f7fa"/>
  <path id="Trazado_102249" data-name="Trazado 102249" d="M174.581,231.806a2.265,2.265,0,0,1,2.258-2.258,2.274,2.274,0,0,1,2.258,2.258V243.48a4.521,4.521,0,0,1-1.321,3.2L175.9,248.55a4.521,4.521,0,0,0-1.321,3.2v1.411a33.612,33.612,0,0,1-9.032,1.23,34.277,34.277,0,0,1-6.774-.678v-2.258a4.506,4.506,0,0,0-.993-2.823l-2.834-3.545a4.471,4.471,0,0,1-.9-1.931l-.915-4.572-.9-4.516-.17-.824a3.74,3.74,0,0,1-.056-.61,3.083,3.083,0,0,1,3.082-3.082h1.434l1.852,10.195a2.711,2.711,0,0,0,2.664,2.224v-23.71A2.265,2.265,0,0,1,163.29,216a2.274,2.274,0,0,1,2.258,2.258v9.032a2.265,2.265,0,0,1,2.258-2.258,2.274,2.274,0,0,1,2.258,2.258v2.258a2.265,2.265,0,0,1,2.258-2.258,2.274,2.274,0,0,1,2.258,2.258Zm0,0" transform="translate(-130.548 -185.516)" fill="#f9d48a"/>
  <g id="Grupo_54098" data-name="Grupo 54098">
    <path id="Trazado_102250" data-name="Trazado 102250" d="M64.755,16.591a12.386,12.386,0,0,0-3.42-13.438A12.5,12.5,0,0,0,51.62.083a12.155,12.155,0,0,0-5.159,1.846A34.982,34.982,0,0,0,9.268,11.29H4.516v6.519a35,35,0,1,0,60.238-1.218ZM51.873,2.326a10.153,10.153,0,0,1,9.438,16.016A14.235,14.235,0,0,0,59.6,21.452H54.194V16.775a4.516,4.516,0,1,0-2.258,0v4.677H46.492a14.985,14.985,0,0,0-1.726-3.181A10.15,10.15,0,0,1,51.873,2.326ZM46.29,42.9a3.367,3.367,0,0,0-1.26.249,3.358,3.358,0,0,0-4.516-2.258,3.38,3.38,0,0,0-3.256-2.507,3.34,3.34,0,0,0-1.129.208V36.129h4.516V24.839H24.839v11.29h4.516V54.847a1.57,1.57,0,0,1-.422-.819L26.909,42.9H24.533a4.153,4.153,0,0,0-1.952.5V38.387H9.032v11.29H20.751l.452,2.258H6.988c-.073-.122-.141-.249-.213-.372V22.581H43.784a3.355,3.355,0,0,0,1.439,5.457A7.892,7.892,0,0,0,58.71,32.618V51.935H49.677V46.29A3.392,3.392,0,0,0,46.29,42.9ZM29.355,32.742v1.129H27.1V27.1h11.29v6.774H36.129V32.742a3.387,3.387,0,0,0-6.774,0Zm-9,14.677H11.29V40.645h9.032v6.468C20.323,47.217,20.345,47.317,20.353,47.419ZM47.533,28.226H58.6a5.645,5.645,0,0,1-11.062,0Zm12.305-2.258H46.29a1.129,1.129,0,1,1,0-2.258H59.839a1.129,1.129,0,1,1,0,2.258Zm-6.774-11.29a2.258,2.258,0,1,1,2.258-2.258A2.26,2.26,0,0,1,53.065,14.677ZM35,2.258a32.705,32.705,0,0,1,9.321,1.373,12.324,12.324,0,0,0-3.554,7.027c-.029.211-.039.421-.057.632H12.438A32.774,32.774,0,0,1,35,2.258Zm5.712,11.29a12.32,12.32,0,0,0,2.213,6.028c.174.245.335.495.49.746H6.774V13.548Zm-36.2,9.527v23.85a32.617,32.617,0,0,1,0-23.85ZM8.5,54.194H21.655l.732,3.661a5.642,5.642,0,0,0,1.128,2.418l2.84,3.551a3.4,3.4,0,0,1,.742,2.116v.832A32.825,32.825,0,0,1,8.5,54.194ZM29.355,67.245V65.94a5.668,5.668,0,0,0-1.238-3.527l-2.84-3.551a3.4,3.4,0,0,1-.676-1.45l-1.982-9.917a1.953,1.953,0,0,1,1.915-2.334h.492l1.686,9.27a3.834,3.834,0,0,0,3.773,3.149h1.129V32.742a1.129,1.129,0,0,1,2.258,0V55.323h2.258V41.774a1.129,1.129,0,0,1,2.258,0V55.323h2.258V44.032a1.129,1.129,0,1,1,2.258,0v11.29h2.258V46.29a1.129,1.129,0,0,1,2.258,0V57.968a3.411,3.411,0,0,1-.991,2.395l-1.871,1.871A5.607,5.607,0,0,0,42.9,66.226v.546a32.539,32.539,0,0,1-13.548.473Zm15.817-1.129a3.408,3.408,0,0,1,.981-2.285l1.871-1.871a5.611,5.611,0,0,0,1.653-3.992V54.194h11.29V28.018a3.369,3.369,0,0,0,.818-5.943,12.146,12.146,0,0,1,1.357-2.411c.153-.21.292-.428.429-.644a32.727,32.727,0,0,1-18.4,47.1Zm0,0" fill="#232323"/>
    <path id="Trazado_102251" data-name="Trazado 102251" d="M64,112h2.258v2.258H64Zm0,0" transform="translate(-54.968 -96.194)" fill="#232323"/>
    <path id="Trazado_102252" data-name="Trazado 102252" d="M96,112h2.258v2.258H96Zm0,0" transform="translate(-82.452 -96.194)" fill="#232323"/>
    <path id="Trazado_102253" data-name="Trazado 102253" d="M128,112h2.258v2.258H128Zm0,0" transform="translate(-109.935 -96.194)" fill="#232323"/>
    <path id="Trazado_102254" data-name="Trazado 102254" d="M64,187.29H77.548V176H64Zm2.258-9.032H75.29v6.774H66.258Zm0,0" transform="translate(-54.968 -151.161)" fill="#232323"/>
    <path id="Trazado_102255" data-name="Trazado 102255" d="M320,272h11.29v2.258H320Zm0,0" transform="translate(-274.839 -233.613)" fill="#232323"/>
    <path id="Trazado_102256" data-name="Trazado 102256" d="M368,304h4.516v2.258H368Zm0,0" transform="translate(-316.065 -261.097)" fill="#232323"/>
    <path id="Trazado_102257" data-name="Trazado 102257" d="M368,336h4.516v2.258H368Zm0,0" transform="translate(-316.065 -288.581)" fill="#232323"/>
  </g>
</svg>
