<svg xmlns="http://www.w3.org/2000/svg" width="70" height="57.713" viewBox="0 0 70 57.713">
  <g id="_64" data-name="64" transform="translate(0 -44.93)">
    <g id="Grupo_54096" data-name="Grupo 54096" transform="translate(1.026 45.956)">
      <path id="Trazado_102226" data-name="Trazado 102226" d="M63.632,253.741a6.781,6.781,0,0,1-6.781,6.781H50.388l-1.629,3.513a.7.7,0,0,1-1.25.034l-1.881-3.547H14.281A6.781,6.781,0,0,1,7.5,253.741V240.325a6.781,6.781,0,0,1,6.781-6.781H56.1a7.53,7.53,0,0,1,7.53,7.53Z" transform="translate(-7.5 -208.779)" fill="#dff6fd"/>
      <g id="Grupo_54094" data-name="Grupo 54094" transform="translate(0 24.765)">
        <path id="Trazado_102227" data-name="Trazado 102227" d="M18.343,253.741V240.325a6.781,6.781,0,0,1,6.781-6.781H14.281A6.781,6.781,0,0,0,7.5,240.325v13.417a6.781,6.781,0,0,0,6.781,6.781H25.124A6.781,6.781,0,0,1,18.343,253.741Z" transform="translate(-7.5 -233.544)" fill="#c8effe"/>
      </g>
      <path id="Trazado_102228" data-name="Trazado 102228" d="M250.307,241.075a7.53,7.53,0,0,0-7.53-7.53H223.744v8.465a4.54,4.54,0,0,0,4.54,4.54h6.338a4.961,4.961,0,0,0,2.515-.681,3.585,3.585,0,0,1,2.426-.465,6.923,6.923,0,0,0,1.188.1h9.556Z" transform="translate(-194.175 -208.78)" fill="#c8effe"/>
      <path id="Trazado_102229" data-name="Trazado 102229" d="M287.03,84.845l1.687,1a4.213,4.213,0,0,0,2.142.585h16.3a2.766,2.766,0,0,0,2.786-2.777,2.726,2.726,0,0,0-1.412-2.34.191.191,0,0,1-.1-.166v-.005a.186.186,0,0,1,.145-.182,2.728,2.728,0,0,0,1.25-4.68,2.934,2.934,0,0,0,.651-5.125,3.16,3.16,0,0,0-1.411-5.987h-6.516a.634.634,0,0,1-.576-.9l.773-1.693a7.533,7.533,0,0,0,.681-3.13V55.922a3.89,3.89,0,0,0-.292-1.48,3.242,3.242,0,0,0-3-2.009h-.007a2.231,2.231,0,0,0-2.053,1.356l-1.36,3.192L291.6,59.963l-.84.357a5.13,5.13,0,0,0-2.627,2.52l-1.1,2.322-5.242,8.947V84.743Z" transform="translate(-244.282 -52.433)" fill="#ffe5c2"/>
      <g id="Grupo_54095" data-name="Grupo 54095" transform="translate(37.507 28.347)">
        <path id="Trazado_102230" data-name="Trazado 102230" d="M309.083,260.659a2.811,2.811,0,0,1-1.919.76h-16.3a4.213,4.213,0,0,1-2.142-.585l-1.687-1-5.242-.1V263.7l5.242.1,1.687,1a4.213,4.213,0,0,0,2.142.585h16.3a2.766,2.766,0,0,0,2.786-2.777A2.719,2.719,0,0,0,309.083,260.659Z" transform="translate(-281.79 -259.736)" fill="#fed2a4"/>
      </g>
      <path id="Trazado_102231" data-name="Trazado 102231" d="M245.551,149.061h6.338a2.261,2.261,0,0,0,2.261-2.261V126.043a2.261,2.261,0,0,0-2.261-2.261h-6.338a1.806,1.806,0,0,0-1.806,1.806v21.668A1.806,1.806,0,0,0,245.551,149.061Z" transform="translate(-211.441 -114.026)" fill="#f37c7c"/>
      <path id="Trazado_102232" data-name="Trazado 102232" d="M251.889,255.708h-6.338a1.806,1.806,0,0,1-1.806-1.806v5.152a1.806,1.806,0,0,0,1.806,1.806h6.338a2.246,2.246,0,0,0,2.221-2.418v-5.152a2.246,2.246,0,0,1-2.221,2.419Z" transform="translate(-211.441 -225.824)" fill="#ee6161"/>
    </g>
    <g id="Grupo_54097" data-name="Grupo 54097" transform="translate(0 44.93)">
      <path id="Trazado_102233" data-name="Trazado 102233" d="M242.238,323.523a1.025,1.025,0,0,0-1.026,1.026v6.868a5.762,5.762,0,0,1-5.755,5.755h-6.464a1.025,1.025,0,0,0-.931.594l-1.351,2.915-1.572-2.964a1.026,1.026,0,0,0-.906-.545h-8.811a1.026,1.026,0,0,0,0,2.051h8.194l1.592,3a1.714,1.714,0,0,0,1.522.916h.047a1.714,1.714,0,0,0,1.518-1l1.353-2.919h5.809a7.815,7.815,0,0,0,7.806-7.806v-6.868A1.026,1.026,0,0,0,242.238,323.523Z" transform="translate(-185.08 -285.428)"/>
      <path id="Trazado_102234" data-name="Trazado 102234" d="M25.972,253.022H7.806a5.761,5.761,0,0,1-5.755-5.755V233.85A5.762,5.762,0,0,1,7.806,228.1H29.228a1.026,1.026,0,1,0,0-2.051H7.806A7.815,7.815,0,0,0,0,233.85v13.417a7.815,7.815,0,0,0,7.806,7.806H25.972a1.026,1.026,0,0,0,0-2.051Z" transform="translate(0 -201.278)"/>
      <path id="Trazado_102235" data-name="Trazado 102235" d="M273.42,67.059a3.964,3.964,0,0,0-.7-2.252,4.187,4.187,0,0,0-2.96-7.147h-5.906l.52-1.138a8.5,8.5,0,0,0,.774-3.556V49.444a4.892,4.892,0,0,0-.369-1.87,4.255,4.255,0,0,0-3.953-2.645,3.253,3.253,0,0,0-3,1.98L256.6,49.788l-4.773,2.779-.781.332a6.148,6.148,0,0,0-3.119,2.957,3.28,3.28,0,0,0-2.511-1.169h-6.338a2.834,2.834,0,0,0-2.831,2.831V79.186a2.834,2.834,0,0,0,2.831,2.831h6.338a3.291,3.291,0,0,0,3.034-2.025l.431.254a5.241,5.241,0,0,0,2.663.727h3.15a1.026,1.026,0,1,0,0-2.051h-3.15a3.19,3.19,0,0,1-1.621-.442l-1.222-.721V65.137a1.026,1.026,0,0,0-2.051,0V78.731a1.237,1.237,0,0,1-1.235,1.235h-6.338a.781.781,0,0,1-.78-.78V57.518a.781.781,0,0,1,.78-.78h6.338a1.237,1.237,0,0,1,1.235,1.235v2.794a1.026,1.026,0,1,0,2.051,0V59l1.043-2.2a4.1,4.1,0,0,1,2.1-2.016l.84-.357a1.015,1.015,0,0,0,.115-.058l5.122-2.982a1.026,1.026,0,0,0,.427-.484l1.36-3.191a1.207,1.207,0,0,1,1.116-.733,2.208,2.208,0,0,1,2.05,1.373,2.85,2.85,0,0,1,.215,1.09v3.521a6.462,6.462,0,0,1-.588,2.7l-.773,1.693a1.659,1.659,0,0,0,1.509,2.348h6.516a2.134,2.134,0,0,1,.952,4.044,1.025,1.025,0,0,0-.138,1.751,1.909,1.909,0,0,1-.423,3.335,1.026,1.026,0,0,0-.322,1.714,1.684,1.684,0,0,1,.556,1.258,1.711,1.711,0,0,1-1.334,1.662,1.217,1.217,0,0,0-.32,2.254,1.706,1.706,0,0,1,.882,1.46,1.659,1.659,0,0,1-.485,1.2,1.8,1.8,0,0,1-1.276.535h-8.783a1.026,1.026,0,1,0,0,2.051h8.783a3.863,3.863,0,0,0,2.739-1.148,3.7,3.7,0,0,0,1.073-2.673,3.756,3.756,0,0,0-.822-2.274,3.745,3.745,0,0,0,1.172-4.793,3.982,3.982,0,0,0,1.412-3.026Z" transform="translate(-203.941 -44.93)"/>
      <path id="Trazado_102236" data-name="Trazado 102236" d="M121.655,295.574a1.026,1.026,0,0,0,0-2.051H111.013a1.026,1.026,0,1,0,0,2.051Z" transform="translate(-94.947 -259.53)"/>
      <path id="Trazado_102237" data-name="Trazado 102237" d="M55.033,295.574H58.3a1.026,1.026,0,1,0,0-2.051H55.033a1.026,1.026,0,0,0,0,2.051Z" transform="translate(-46.622 -259.53)"/>
      <path id="Trazado_102238" data-name="Trazado 102238" d="M55.033,351.466H97.227a1.026,1.026,0,0,0,0-2.051H55.033a1.026,1.026,0,0,0,0,2.051Z" transform="translate(-46.622 -307.779)"/>
    </g>
  </g>
</svg>
