<svg xmlns="http://www.w3.org/2000/svg" xmlns:xlink="http://www.w3.org/1999/xlink" width="456" height="327" viewBox="0 0 456 327">
  <defs>
    <filter id="_7795-_Convertido_" x="0" y="0" width="456" height="327" filterUnits="userSpaceOnUse">
      <feOffset dy="3" input="SourceAlpha"/>
      <feGaussianBlur stdDeviation="3" result="blur"/>
      <feFlood flood-opacity="0.161"/>
      <feComposite operator="in" in2="blur"/>
      <feComposite in="SourceGraphic"/>
    </filter>
  </defs>
  <g id="_75" data-name="75" transform="translate(6251 -7489)">
    <g transform="matrix(1, 0, 0, 1, -6251, 7489)" filter="url(#_7795-_Convertido_)">
      <rect id="_7795-_Convertido_2" data-name="7795-[Convertido]" width="438" height="309" rx="10" transform="translate(9 6)" fill="#fff" opacity="0.38"/>
    </g>
    <g id="Grupo_81904" data-name="Grupo 81904" transform="translate(-6652.855 296.722)">
      <g id="Grupo_54621" data-name="Grupo 54621" transform="translate(724.665 7237.085)">
        <path id="Trazado_102270" data-name="Trazado 102270" d="M0,0H36.006S20.825,23.129,16.594,29.134c3.91-1.85,17.035-6.248,24.137-9.289,1.419,4.217,2.287,6.552,4.835,12.906V45.565H0Z" transform="translate(0 0)" fill="#ffa726"/>
        <rect id="Rectángulo_9120" data-name="Rectángulo 9120" width="45.565" height="45.565" transform="translate(51.769 0)" fill="#ffa726" opacity="0.84"/>
      </g>
      <g id="Grupo_54620" data-name="Grupo 54620" transform="translate(582.544 7237.085)">
        <rect id="Rectángulo_9117" data-name="Rectángulo 9117" width="45.565" height="45.565" transform="translate(0 0)" fill="#ffa726"/>
        <g id="Rectángulo_9118" data-name="Rectángulo 9118" transform="translate(51.532 0)" fill="none" stroke="#fc9c25" stroke-width="6">
          <rect width="45.565" height="45.565" stroke="none"/>
          <rect x="3" y="3" width="39.565" height="39.565" fill="none"/>
        </g>
      </g>
      <g id="Grupo_54619" data-name="Grupo 54619" transform="translate(437.711 7236)">
        <rect id="Rectángulo_9116" data-name="Rectángulo 9116" width="46.65" height="46.65" transform="translate(0 1.085)" fill="#ffa726"/>
        <circle id="Elipse_4097" data-name="Elipse 4097" cx="24.41" cy="24.41" r="24.41" transform="translate(52.075)" fill="#ffa726"/>
      </g>
    </g>
    <path id="Trazado_115744" data-name="Trazado 115744" d="M7.871-2.933A3.4,3.4,0,0,1,6.789-.67a3.547,3.547,0,0,1-2.422.8A3.257,3.257,0,0,1,1.742-1.047,4.724,4.724,0,0,1,.755-4.189v-.889a5.266,5.266,0,0,1,.46-2.266,3.438,3.438,0,0,1,1.3-1.5,3.632,3.632,0,0,1,1.955-.524,3.34,3.34,0,0,1,2.361.822A3.441,3.441,0,0,1,7.871-6.271H6.646a2.655,2.655,0,0,0-.689-1.6,2.084,2.084,0,0,0-1.482-.5,2.181,2.181,0,0,0-1.831.864A3.966,3.966,0,0,0,1.98-5.05v.9a4.077,4.077,0,0,0,.628,2.4A2.031,2.031,0,0,0,4.367-.87a2.345,2.345,0,0,0,1.558-.46,2.554,2.554,0,0,0,.72-1.6ZM9.039-3.5a4.057,4.057,0,0,1,.4-1.815,2.96,2.96,0,0,1,1.1-1.244A3.007,3.007,0,0,1,12.156-7a2.9,2.9,0,0,1,2.269.971,3.736,3.736,0,0,1,.866,2.583v.083a4.092,4.092,0,0,1-.384,1.8,2.916,2.916,0,0,1-1.1,1.241,3.041,3.041,0,0,1-1.641.444A2.889,2.889,0,0,1,9.906-.844a3.718,3.718,0,0,1-.866-2.571Zm1.181.14a2.938,2.938,0,0,0,.53,1.834,1.7,1.7,0,0,0,1.419.692,1.686,1.686,0,0,0,1.422-.7A3.213,3.213,0,0,0,14.117-3.5a2.933,2.933,0,0,0-.536-1.831,1.705,1.705,0,0,0-1.425-.7,1.686,1.686,0,0,0-1.4.692A3.189,3.189,0,0,0,10.22-3.358Zm7.655-3.51L17.913-6A2.5,2.5,0,0,1,19.97-7q2.177,0,2.2,2.457V0H20.992V-4.545a1.581,1.581,0,0,0-.34-1.1A1.361,1.361,0,0,0,19.614-6a1.7,1.7,0,0,0-1,.3,2.069,2.069,0,0,0-.673.8V0H16.764V-6.868ZM25.53-8.531v1.663h1.282v.908H25.53V-1.7a.953.953,0,0,0,.171.62.721.721,0,0,0,.584.207,2.843,2.843,0,0,0,.559-.076V0a3.424,3.424,0,0,1-.9.126,1.462,1.462,0,0,1-1.187-.476,2.045,2.045,0,0,1-.4-1.352V-5.96h-1.25v-.908h1.25V-8.531ZM31.5-5.814a3.519,3.519,0,0,0-.578-.044,1.547,1.547,0,0,0-1.568.984V0H28.184V-6.868h1.143l.019.793A1.829,1.829,0,0,1,30.983-7a1.2,1.2,0,0,1,.521.089ZM36.569,0A2.467,2.467,0,0,1,36.4-.724a2.62,2.62,0,0,1-1.955.851,2.424,2.424,0,0,1-1.666-.574A1.859,1.859,0,0,1,32.132-1.9a1.942,1.942,0,0,1,.816-1.666,3.846,3.846,0,0,1,2.295-.594h1.143V-4.7a1.319,1.319,0,0,0-.368-.981,1.48,1.48,0,0,0-1.085-.365,1.712,1.712,0,0,0-1.054.317.935.935,0,0,0-.425.768H32.271a1.621,1.621,0,0,1,.365-.993,2.491,2.491,0,0,1,.99-.759A3.331,3.331,0,0,1,35-7a2.715,2.715,0,0,1,1.86.594,2.141,2.141,0,0,1,.7,1.635v3.161A3.865,3.865,0,0,0,37.8-.1V0ZM34.62-.9a2.064,2.064,0,0,0,1.047-.286,1.728,1.728,0,0,0,.717-.743V-3.333h-.92q-2.158,0-2.158,1.263a1.069,1.069,0,0,0,.368.863A1.415,1.415,0,0,0,34.62-.9ZM43.4-1.822a.865.865,0,0,0-.359-.74,3.452,3.452,0,0,0-1.25-.454,5.912,5.912,0,0,1-1.416-.457,2.014,2.014,0,0,1-.774-.635,1.518,1.518,0,0,1-.251-.876,1.782,1.782,0,0,1,.714-1.428A2.789,2.789,0,0,1,41.888-7a2.87,2.87,0,0,1,1.895.6A1.915,1.915,0,0,1,44.51-4.85H43.329a1.06,1.06,0,0,0-.409-.832,1.534,1.534,0,0,0-1.031-.349,1.605,1.605,0,0,0-1,.279.879.879,0,0,0-.362.73.712.712,0,0,0,.336.641,4.139,4.139,0,0,0,1.216.413A6.334,6.334,0,0,1,43.5-3.5a2.079,2.079,0,0,1,.809.657,1.615,1.615,0,0,1,.263.936,1.758,1.758,0,0,1-.736,1.476,3.089,3.089,0,0,1-1.911.555,3.459,3.459,0,0,1-1.46-.292,2.375,2.375,0,0,1-.993-.816,1.966,1.966,0,0,1-.359-1.133h1.174a1.216,1.216,0,0,0,.473.936,1.835,1.835,0,0,0,1.165.346A1.894,1.894,0,0,0,43-1.1.829.829,0,0,0,43.4-1.822Zm4.3-6.709v1.663h1.282v.908H47.7V-1.7a.953.953,0,0,0,.171.62.721.721,0,0,0,.584.207,2.843,2.843,0,0,0,.559-.076V0a3.424,3.424,0,0,1-.9.126,1.462,1.462,0,0,1-1.187-.476,2.045,2.045,0,0,1-.4-1.352V-5.96h-1.25v-.908h1.25V-8.531ZM53.2.127A3,3,0,0,1,50.927-.79a3.4,3.4,0,0,1-.876-2.453v-.216a4.121,4.121,0,0,1,.39-1.825,3.045,3.045,0,0,1,1.092-1.257A2.745,2.745,0,0,1,53.054-7a2.572,2.572,0,0,1,2.082.882,3.82,3.82,0,0,1,.743,2.526V-3.1H51.226a2.441,2.441,0,0,0,.594,1.641,1.866,1.866,0,0,0,1.444.625,2.045,2.045,0,0,0,1.054-.254,2.648,2.648,0,0,0,.755-.673l.717.559A2.884,2.884,0,0,1,53.2.127ZM53.054-6.03a1.566,1.566,0,0,0-1.193.517,2.515,2.515,0,0,0-.6,1.45H54.7v-.089a2.237,2.237,0,0,0-.482-1.387A1.475,1.475,0,0,0,53.054-6.03Zm7.116,2.539a4.023,4.023,0,0,1,.749-2.542A2.369,2.369,0,0,1,62.88-7a2.382,2.382,0,0,1,1.911.825V-9.75h1.174V0H64.886l-.057-.736a2.391,2.391,0,0,1-1.961.863,2.346,2.346,0,0,1-1.946-.978A4.069,4.069,0,0,1,60.169-3.4Zm1.174.133a3.046,3.046,0,0,0,.482,1.828,1.56,1.56,0,0,0,1.333.66,1.713,1.713,0,0,0,1.631-1V-5.027A1.726,1.726,0,0,0,63.172-6a1.567,1.567,0,0,0-1.346.667A3.354,3.354,0,0,0,61.344-3.358ZM70.637.127A3,3,0,0,1,68.364-.79a3.4,3.4,0,0,1-.876-2.453v-.216a4.121,4.121,0,0,1,.39-1.825A3.045,3.045,0,0,1,68.97-6.541,2.745,2.745,0,0,1,70.491-7a2.572,2.572,0,0,1,2.082.882,3.82,3.82,0,0,1,.743,2.526V-3.1H68.663a2.441,2.441,0,0,0,.594,1.641A1.866,1.866,0,0,0,70.7-.832a2.045,2.045,0,0,0,1.054-.254,2.648,2.648,0,0,0,.755-.673l.717.559A2.884,2.884,0,0,1,70.637.127ZM70.491-6.03a1.566,1.566,0,0,0-1.193.517,2.515,2.515,0,0,0-.6,1.45h3.44v-.089a2.237,2.237,0,0,0-.482-1.387A1.475,1.475,0,0,0,70.491-6.03ZM78.286,0V-5.96H77.2v-.908h1.085v-.584a2.386,2.386,0,0,1,.657-1.79A2.548,2.548,0,0,1,80.8-9.883a5.591,5.591,0,0,1,1.8.387l-.2.99a4.069,4.069,0,0,0-1.511-.317,1.478,1.478,0,0,0-1.089.34,1.4,1.4,0,0,0-.333,1.019v.6h1.4v.908h-1.4V0ZM83.18,0H82V-6.868H83.18Zm1.631-3.491a4.037,4.037,0,0,1,.743-2.555A2.375,2.375,0,0,1,87.521-7a2.363,2.363,0,0,1,1.961.889l.057-.762h1.073v6.7a2.794,2.794,0,0,1-.79,2.1A2.916,2.916,0,0,1,87.7,2.7a3.532,3.532,0,0,1-1.454-.317,2.5,2.5,0,0,1-1.085-.87l.609-.7a2.3,2.3,0,0,0,1.847.933,1.8,1.8,0,0,0,1.336-.482A1.844,1.844,0,0,0,89.432-.1v-.59a2.414,2.414,0,0,1-1.923.813,2.346,2.346,0,0,1-1.952-.971A4.244,4.244,0,0,1,84.811-3.491Zm1.181.133a3.08,3.08,0,0,0,.476,1.825A1.547,1.547,0,0,0,87.8-.87a1.72,1.72,0,0,0,1.631-1.009V-5.015A1.74,1.74,0,0,0,87.813-6a1.561,1.561,0,0,0-1.339.667A3.354,3.354,0,0,0,85.992-3.358ZM96.624-.679a2.494,2.494,0,0,1-2.012.806,2.135,2.135,0,0,1-1.673-.638A2.761,2.761,0,0,1,92.358-2.4V-6.868h1.174v4.437q0,1.562,1.27,1.562a1.758,1.758,0,0,0,1.79-1v-5h1.174V0H96.649Zm6.246-5.135a3.519,3.519,0,0,0-.578-.044,1.547,1.547,0,0,0-1.568.984V0H99.55V-6.868h1.143l.019.793A1.829,1.829,0,0,1,102.35-7a1.2,1.2,0,0,1,.521.089ZM107.936,0a2.467,2.467,0,0,1-.165-.724,2.62,2.62,0,0,1-1.955.851,2.424,2.424,0,0,1-1.666-.574A1.859,1.859,0,0,1,103.5-1.9a1.942,1.942,0,0,1,.816-1.666,3.846,3.846,0,0,1,2.295-.594h1.143V-4.7a1.319,1.319,0,0,0-.368-.981,1.48,1.48,0,0,0-1.085-.365,1.712,1.712,0,0,0-1.054.317.935.935,0,0,0-.425.768h-1.181A1.621,1.621,0,0,1,104-5.957a2.491,2.491,0,0,1,.99-.759A3.331,3.331,0,0,1,106.368-7a2.715,2.715,0,0,1,1.86.594,2.141,2.141,0,0,1,.7,1.635v3.161a3.865,3.865,0,0,0,.241,1.5V0Zm-1.949-.9a2.064,2.064,0,0,0,1.047-.286,1.728,1.728,0,0,0,.717-.743V-3.333h-.92q-2.158,0-2.158,1.263a1.069,1.069,0,0,0,.368.863A1.415,1.415,0,0,0,105.987-.9Zm4.805.279a.735.735,0,0,1,.181-.508.689.689,0,0,1,.543-.2.71.71,0,0,1,.549.2.721.721,0,0,1,.187.508.681.681,0,0,1-.187.489.723.723,0,0,1-.549.2.7.7,0,0,1-.543-.2A.7.7,0,0,1,110.792-.616Z" transform="translate(-6214.855 7525)" fill="#12263f"/>
    <path id="Trazado_115745" data-name="Trazado 115745" d="M7.871-2.933A3.4,3.4,0,0,1,6.789-.67a3.547,3.547,0,0,1-2.422.8A3.257,3.257,0,0,1,1.742-1.047,4.724,4.724,0,0,1,.755-4.189v-.889a5.266,5.266,0,0,1,.46-2.266,3.438,3.438,0,0,1,1.3-1.5,3.632,3.632,0,0,1,1.955-.524,3.34,3.34,0,0,1,2.361.822A3.441,3.441,0,0,1,7.871-6.271H6.646a2.655,2.655,0,0,0-.689-1.6,2.084,2.084,0,0,0-1.482-.5,2.181,2.181,0,0,0-1.831.864A3.966,3.966,0,0,0,1.98-5.05v.9a4.077,4.077,0,0,0,.628,2.4A2.031,2.031,0,0,0,4.367-.87a2.345,2.345,0,0,0,1.558-.46,2.554,2.554,0,0,0,.72-1.6ZM9.039-3.5a4.057,4.057,0,0,1,.4-1.815,2.96,2.96,0,0,1,1.1-1.244A3.007,3.007,0,0,1,12.156-7a2.9,2.9,0,0,1,2.269.971,3.736,3.736,0,0,1,.866,2.583v.083a4.092,4.092,0,0,1-.384,1.8,2.916,2.916,0,0,1-1.1,1.241,3.041,3.041,0,0,1-1.641.444A2.889,2.889,0,0,1,9.906-.844a3.718,3.718,0,0,1-.866-2.571Zm1.181.14a2.938,2.938,0,0,0,.53,1.834,1.7,1.7,0,0,0,1.419.692,1.686,1.686,0,0,0,1.422-.7A3.213,3.213,0,0,0,14.117-3.5a2.933,2.933,0,0,0-.536-1.831,1.705,1.705,0,0,0-1.425-.7,1.686,1.686,0,0,0-1.4.692A3.189,3.189,0,0,0,10.22-3.358Zm7.655-3.51L17.913-6A2.5,2.5,0,0,1,19.97-7q2.177,0,2.2,2.457V0H20.992V-4.545a1.581,1.581,0,0,0-.34-1.1A1.361,1.361,0,0,0,19.614-6a1.7,1.7,0,0,0-1,.3,2.069,2.069,0,0,0-.673.8V0H16.764V-6.868ZM25.53-8.531v1.663h1.282v.908H25.53V-1.7a.953.953,0,0,0,.171.62.721.721,0,0,0,.584.207,2.843,2.843,0,0,0,.559-.076V0a3.424,3.424,0,0,1-.9.126,1.462,1.462,0,0,1-1.187-.476,2.045,2.045,0,0,1-.4-1.352V-5.96h-1.25v-.908h1.25V-8.531ZM31.5-5.814a3.519,3.519,0,0,0-.578-.044,1.547,1.547,0,0,0-1.568.984V0H28.184V-6.868h1.143l.019.793A1.829,1.829,0,0,1,30.983-7a1.2,1.2,0,0,1,.521.089ZM36.569,0A2.467,2.467,0,0,1,36.4-.724a2.62,2.62,0,0,1-1.955.851,2.424,2.424,0,0,1-1.666-.574A1.859,1.859,0,0,1,32.132-1.9a1.942,1.942,0,0,1,.816-1.666,3.846,3.846,0,0,1,2.295-.594h1.143V-4.7a1.319,1.319,0,0,0-.368-.981,1.48,1.48,0,0,0-1.085-.365,1.712,1.712,0,0,0-1.054.317.935.935,0,0,0-.425.768H32.271a1.621,1.621,0,0,1,.365-.993,2.491,2.491,0,0,1,.99-.759A3.331,3.331,0,0,1,35-7a2.715,2.715,0,0,1,1.86.594,2.141,2.141,0,0,1,.7,1.635v3.161A3.865,3.865,0,0,0,37.8-.1V0ZM34.62-.9a2.064,2.064,0,0,0,1.047-.286,1.728,1.728,0,0,0,.717-.743V-3.333h-.92q-2.158,0-2.158,1.263a1.069,1.069,0,0,0,.368.863A1.415,1.415,0,0,0,34.62-.9ZM43.4-1.822a.865.865,0,0,0-.359-.74,3.452,3.452,0,0,0-1.25-.454,5.912,5.912,0,0,1-1.416-.457,2.014,2.014,0,0,1-.774-.635,1.518,1.518,0,0,1-.251-.876,1.782,1.782,0,0,1,.714-1.428A2.789,2.789,0,0,1,41.888-7a2.87,2.87,0,0,1,1.895.6A1.915,1.915,0,0,1,44.51-4.85H43.329a1.06,1.06,0,0,0-.409-.832,1.534,1.534,0,0,0-1.031-.349,1.605,1.605,0,0,0-1,.279.879.879,0,0,0-.362.73.712.712,0,0,0,.336.641,4.139,4.139,0,0,0,1.216.413A6.334,6.334,0,0,1,43.5-3.5a2.079,2.079,0,0,1,.809.657,1.615,1.615,0,0,1,.263.936,1.758,1.758,0,0,1-.736,1.476,3.089,3.089,0,0,1-1.911.555,3.459,3.459,0,0,1-1.46-.292,2.375,2.375,0,0,1-.993-.816,1.966,1.966,0,0,1-.359-1.133h1.174a1.216,1.216,0,0,0,.473.936,1.835,1.835,0,0,0,1.165.346A1.894,1.894,0,0,0,43-1.1.829.829,0,0,0,43.4-1.822Zm4.3-6.709v1.663h1.282v.908H47.7V-1.7a.953.953,0,0,0,.171.62.721.721,0,0,0,.584.207,2.843,2.843,0,0,0,.559-.076V0a3.424,3.424,0,0,1-.9.126,1.462,1.462,0,0,1-1.187-.476,2.045,2.045,0,0,1-.4-1.352V-5.96h-1.25v-.908h1.25V-8.531ZM53.2.127A3,3,0,0,1,50.927-.79a3.4,3.4,0,0,1-.876-2.453v-.216a4.121,4.121,0,0,1,.39-1.825,3.045,3.045,0,0,1,1.092-1.257A2.745,2.745,0,0,1,53.054-7a2.572,2.572,0,0,1,2.082.882,3.82,3.82,0,0,1,.743,2.526V-3.1H51.226a2.441,2.441,0,0,0,.594,1.641,1.866,1.866,0,0,0,1.444.625,2.045,2.045,0,0,0,1.054-.254,2.648,2.648,0,0,0,.755-.673l.717.559A2.884,2.884,0,0,1,53.2.127ZM53.054-6.03a1.566,1.566,0,0,0-1.193.517,2.515,2.515,0,0,0-.6,1.45H54.7v-.089a2.237,2.237,0,0,0-.482-1.387A1.475,1.475,0,0,0,53.054-6.03Zm7.116,2.539a4.023,4.023,0,0,1,.749-2.542A2.369,2.369,0,0,1,62.88-7a2.382,2.382,0,0,1,1.911.825V-9.75h1.174V0H64.886l-.057-.736a2.391,2.391,0,0,1-1.961.863,2.346,2.346,0,0,1-1.946-.978A4.069,4.069,0,0,1,60.169-3.4Zm1.174.133a3.046,3.046,0,0,0,.482,1.828,1.56,1.56,0,0,0,1.333.66,1.713,1.713,0,0,0,1.631-1V-5.027A1.726,1.726,0,0,0,63.172-6a1.567,1.567,0,0,0-1.346.667A3.354,3.354,0,0,0,61.344-3.358ZM70.637.127A3,3,0,0,1,68.364-.79a3.4,3.4,0,0,1-.876-2.453v-.216a4.121,4.121,0,0,1,.39-1.825A3.045,3.045,0,0,1,68.97-6.541,2.745,2.745,0,0,1,70.491-7a2.572,2.572,0,0,1,2.082.882,3.82,3.82,0,0,1,.743,2.526V-3.1H68.663a2.441,2.441,0,0,0,.594,1.641A1.866,1.866,0,0,0,70.7-.832a2.045,2.045,0,0,0,1.054-.254,2.648,2.648,0,0,0,.755-.673l.717.559A2.884,2.884,0,0,1,70.637.127ZM70.491-6.03a1.566,1.566,0,0,0-1.193.517,2.515,2.515,0,0,0-.6,1.45h3.44v-.089a2.237,2.237,0,0,0-.482-1.387A1.475,1.475,0,0,0,70.491-6.03Zm8.995-2.5v1.663h1.282v.908H79.485V-1.7a.953.953,0,0,0,.171.62.721.721,0,0,0,.584.207A2.843,2.843,0,0,0,80.8-.946V0a3.424,3.424,0,0,1-.9.126,1.462,1.462,0,0,1-1.187-.476,2.045,2.045,0,0,1-.4-1.352V-5.96h-1.25v-.908h1.25V-8.531ZM86.379,0a2.467,2.467,0,0,1-.165-.724,2.62,2.62,0,0,1-1.955.851,2.424,2.424,0,0,1-1.666-.574A1.859,1.859,0,0,1,81.942-1.9a1.942,1.942,0,0,1,.816-1.666,3.846,3.846,0,0,1,2.295-.594h1.143V-4.7a1.319,1.319,0,0,0-.368-.981,1.48,1.48,0,0,0-1.085-.365,1.712,1.712,0,0,0-1.054.317.935.935,0,0,0-.425.768H82.082a1.621,1.621,0,0,1,.365-.993,2.491,2.491,0,0,1,.99-.759A3.331,3.331,0,0,1,84.811-7a2.715,2.715,0,0,1,1.86.594,2.141,2.141,0,0,1,.7,1.635v3.161A3.865,3.865,0,0,0,87.61-.1V0ZM84.43-.9a2.064,2.064,0,0,0,1.047-.286,1.728,1.728,0,0,0,.717-.743V-3.333h-.92q-2.158,0-2.158,1.263a1.069,1.069,0,0,0,.368.863A1.415,1.415,0,0,0,84.43-.9Zm5.884-5.973.032.762A2.536,2.536,0,0,1,92.384-7a1.964,1.964,0,0,1,1.961,1.1,2.6,2.6,0,0,1,.892-.8,2.634,2.634,0,0,1,1.3-.3q2.26,0,2.3,2.393V0H97.659V-4.532a1.577,1.577,0,0,0-.336-1.1A1.482,1.482,0,0,0,96.192-6a1.557,1.557,0,0,0-1.085.39,1.584,1.584,0,0,0-.5,1.051V0H93.425V-4.5A1.31,1.31,0,0,0,91.958-6a1.571,1.571,0,0,0-1.581.984V0H89.2V-6.868ZM104.844,0a2.467,2.467,0,0,1-.165-.724,2.62,2.62,0,0,1-1.955.851,2.424,2.424,0,0,1-1.666-.574,1.859,1.859,0,0,1-.651-1.457,1.942,1.942,0,0,1,.816-1.666,3.846,3.846,0,0,1,2.295-.594h1.143V-4.7a1.319,1.319,0,0,0-.368-.981,1.48,1.48,0,0,0-1.085-.365,1.712,1.712,0,0,0-1.054.317.935.935,0,0,0-.425.768h-1.181a1.621,1.621,0,0,1,.365-.993,2.491,2.491,0,0,1,.99-.759A3.331,3.331,0,0,1,103.276-7a2.715,2.715,0,0,1,1.86.594,2.141,2.141,0,0,1,.7,1.635v3.161a3.865,3.865,0,0,0,.241,1.5V0ZM102.9-.9a2.064,2.064,0,0,0,1.047-.286,1.728,1.728,0,0,0,.717-.743V-3.333h-.92q-2.158,0-2.158,1.263a1.069,1.069,0,0,0,.368.863A1.415,1.415,0,0,0,102.9-.9Zm5.891-5.973.038.863A2.5,2.5,0,0,1,110.881-7q2.177,0,2.2,2.457V0H111.9V-4.545a1.581,1.581,0,0,0-.34-1.1A1.361,1.361,0,0,0,110.525-6a1.7,1.7,0,0,0-1,.3,2.069,2.069,0,0,0-.673.8V0h-1.174V-6.868Zm3.885-2.679a1.578,1.578,0,0,1-.39,1.111,1.268,1.268,0,0,1-.974.425,1.43,1.43,0,0,1-.451-.063,2.431,2.431,0,0,1-.5-.26,2.158,2.158,0,0,0-.444-.238,1.087,1.087,0,0,0-.314-.041.582.582,0,0,0-.444.2.725.725,0,0,0-.184.511l-.787-.044a1.657,1.657,0,0,1,.384-1.124,1.232,1.232,0,0,1,.974-.444,1.184,1.184,0,0,1,.4.063,2.914,2.914,0,0,1,.482.248,2.839,2.839,0,0,0,.467.241,1.072,1.072,0,0,0,.359.057.568.568,0,0,0,.454-.216.757.757,0,0,0,.181-.5ZM114.537-3.5a4.057,4.057,0,0,1,.4-1.815,2.96,2.96,0,0,1,1.1-1.244A3.007,3.007,0,0,1,117.654-7a2.9,2.9,0,0,1,2.269.971,3.736,3.736,0,0,1,.866,2.583v.083a4.092,4.092,0,0,1-.384,1.8,2.916,2.916,0,0,1-1.1,1.241,3.041,3.041,0,0,1-1.641.444A2.889,2.889,0,0,1,115.4-.844a3.718,3.718,0,0,1-.866-2.571Zm1.181.14a2.938,2.938,0,0,0,.53,1.834,1.7,1.7,0,0,0,1.419.692,1.686,1.686,0,0,0,1.422-.7,3.213,3.213,0,0,0,.527-1.965,2.933,2.933,0,0,0-.536-1.831,1.705,1.705,0,0,0-1.425-.7,1.686,1.686,0,0,0-1.4.692A3.189,3.189,0,0,0,115.718-3.358Zm6.57,2.742a.735.735,0,0,1,.181-.508.689.689,0,0,1,.543-.2.71.71,0,0,1,.549.2.721.721,0,0,1,.187.508.681.681,0,0,1-.187.489.723.723,0,0,1-.549.2.7.7,0,0,1-.543-.2A.7.7,0,0,1,122.288-.616Z" transform="translate(-6216 7619.892)" fill="#12263f"/>
    <path id="Trazado_115746" data-name="Trazado 115746" d="M7.871-2.933A3.4,3.4,0,0,1,6.789-.67a3.547,3.547,0,0,1-2.422.8A3.257,3.257,0,0,1,1.742-1.047,4.724,4.724,0,0,1,.755-4.189v-.889a5.266,5.266,0,0,1,.46-2.266,3.438,3.438,0,0,1,1.3-1.5,3.632,3.632,0,0,1,1.955-.524,3.34,3.34,0,0,1,2.361.822A3.441,3.441,0,0,1,7.871-6.271H6.646a2.655,2.655,0,0,0-.689-1.6,2.084,2.084,0,0,0-1.482-.5,2.181,2.181,0,0,0-1.831.864A3.966,3.966,0,0,0,1.98-5.05v.9a4.077,4.077,0,0,0,.628,2.4A2.031,2.031,0,0,0,4.367-.87a2.345,2.345,0,0,0,1.558-.46,2.554,2.554,0,0,0,.72-1.6ZM9.039-3.5a4.057,4.057,0,0,1,.4-1.815,2.96,2.96,0,0,1,1.1-1.244A3.007,3.007,0,0,1,12.156-7a2.9,2.9,0,0,1,2.269.971,3.736,3.736,0,0,1,.866,2.583v.083a4.092,4.092,0,0,1-.384,1.8,2.916,2.916,0,0,1-1.1,1.241,3.041,3.041,0,0,1-1.641.444A2.889,2.889,0,0,1,9.906-.844a3.718,3.718,0,0,1-.866-2.571Zm1.181.14a2.938,2.938,0,0,0,.53,1.834,1.7,1.7,0,0,0,1.419.692,1.686,1.686,0,0,0,1.422-.7A3.213,3.213,0,0,0,14.117-3.5a2.933,2.933,0,0,0-.536-1.831,1.705,1.705,0,0,0-1.425-.7,1.686,1.686,0,0,0-1.4.692A3.189,3.189,0,0,0,10.22-3.358Zm7.655-3.51L17.913-6A2.5,2.5,0,0,1,19.97-7q2.177,0,2.2,2.457V0H20.992V-4.545a1.581,1.581,0,0,0-.34-1.1A1.361,1.361,0,0,0,19.614-6a1.7,1.7,0,0,0-1,.3,2.069,2.069,0,0,0-.673.8V0H16.764V-6.868ZM25.53-8.531v1.663h1.282v.908H25.53V-1.7a.953.953,0,0,0,.171.62.721.721,0,0,0,.584.207,2.843,2.843,0,0,0,.559-.076V0a3.424,3.424,0,0,1-.9.126,1.462,1.462,0,0,1-1.187-.476,2.045,2.045,0,0,1-.4-1.352V-5.96h-1.25v-.908h1.25V-8.531ZM31.5-5.814a3.519,3.519,0,0,0-.578-.044,1.547,1.547,0,0,0-1.568.984V0H28.184V-6.868h1.143l.019.793A1.829,1.829,0,0,1,30.983-7a1.2,1.2,0,0,1,.521.089ZM36.569,0A2.467,2.467,0,0,1,36.4-.724a2.62,2.62,0,0,1-1.955.851,2.424,2.424,0,0,1-1.666-.574A1.859,1.859,0,0,1,32.132-1.9a1.942,1.942,0,0,1,.816-1.666,3.846,3.846,0,0,1,2.295-.594h1.143V-4.7a1.319,1.319,0,0,0-.368-.981,1.48,1.48,0,0,0-1.085-.365,1.712,1.712,0,0,0-1.054.317.935.935,0,0,0-.425.768H32.271a1.621,1.621,0,0,1,.365-.993,2.491,2.491,0,0,1,.99-.759A3.331,3.331,0,0,1,35-7a2.715,2.715,0,0,1,1.86.594,2.141,2.141,0,0,1,.7,1.635v3.161A3.865,3.865,0,0,0,37.8-.1V0ZM34.62-.9a2.064,2.064,0,0,0,1.047-.286,1.728,1.728,0,0,0,.717-.743V-3.333h-.92q-2.158,0-2.158,1.263a1.069,1.069,0,0,0,.368.863A1.415,1.415,0,0,0,34.62-.9ZM43.4-1.822a.865.865,0,0,0-.359-.74,3.452,3.452,0,0,0-1.25-.454,5.912,5.912,0,0,1-1.416-.457,2.014,2.014,0,0,1-.774-.635,1.518,1.518,0,0,1-.251-.876,1.782,1.782,0,0,1,.714-1.428A2.789,2.789,0,0,1,41.888-7a2.87,2.87,0,0,1,1.895.6A1.915,1.915,0,0,1,44.51-4.85H43.329a1.06,1.06,0,0,0-.409-.832,1.534,1.534,0,0,0-1.031-.349,1.605,1.605,0,0,0-1,.279.879.879,0,0,0-.362.73.712.712,0,0,0,.336.641,4.139,4.139,0,0,0,1.216.413A6.334,6.334,0,0,1,43.5-3.5a2.079,2.079,0,0,1,.809.657,1.615,1.615,0,0,1,.263.936,1.758,1.758,0,0,1-.736,1.476,3.089,3.089,0,0,1-1.911.555,3.459,3.459,0,0,1-1.46-.292,2.375,2.375,0,0,1-.993-.816,1.966,1.966,0,0,1-.359-1.133h1.174a1.216,1.216,0,0,0,.473.936,1.835,1.835,0,0,0,1.165.346A1.894,1.894,0,0,0,43-1.1.829.829,0,0,0,43.4-1.822Zm4.3-6.709v1.663h1.282v.908H47.7V-1.7a.953.953,0,0,0,.171.62.721.721,0,0,0,.584.207,2.843,2.843,0,0,0,.559-.076V0a3.424,3.424,0,0,1-.9.126,1.462,1.462,0,0,1-1.187-.476,2.045,2.045,0,0,1-.4-1.352V-5.96h-1.25v-.908h1.25V-8.531ZM53.2.127A3,3,0,0,1,50.927-.79a3.4,3.4,0,0,1-.876-2.453v-.216a4.121,4.121,0,0,1,.39-1.825,3.045,3.045,0,0,1,1.092-1.257A2.745,2.745,0,0,1,53.054-7a2.572,2.572,0,0,1,2.082.882,3.82,3.82,0,0,1,.743,2.526V-3.1H51.226a2.441,2.441,0,0,0,.594,1.641,1.866,1.866,0,0,0,1.444.625,2.045,2.045,0,0,0,1.054-.254,2.648,2.648,0,0,0,.755-.673l.717.559A2.884,2.884,0,0,1,53.2.127ZM53.054-6.03a1.566,1.566,0,0,0-1.193.517,2.515,2.515,0,0,0-.6,1.45H54.7v-.089a2.237,2.237,0,0,0-.482-1.387A1.475,1.475,0,0,0,53.054-6.03Zm7.116,2.539a4.023,4.023,0,0,1,.749-2.542A2.369,2.369,0,0,1,62.88-7a2.382,2.382,0,0,1,1.911.825V-9.75h1.174V0H64.886l-.057-.736a2.391,2.391,0,0,1-1.961.863,2.346,2.346,0,0,1-1.946-.978A4.069,4.069,0,0,1,60.169-3.4Zm1.174.133a3.046,3.046,0,0,0,.482,1.828,1.56,1.56,0,0,0,1.333.66,1.713,1.713,0,0,0,1.631-1V-5.027A1.726,1.726,0,0,0,63.172-6a1.567,1.567,0,0,0-1.346.667A3.354,3.354,0,0,0,61.344-3.358ZM70.637.127A3,3,0,0,1,68.364-.79a3.4,3.4,0,0,1-.876-2.453v-.216a4.121,4.121,0,0,1,.39-1.825A3.045,3.045,0,0,1,68.97-6.541,2.745,2.745,0,0,1,70.491-7a2.572,2.572,0,0,1,2.082.882,3.82,3.82,0,0,1,.743,2.526V-3.1H68.663a2.441,2.441,0,0,0,.594,1.641A1.866,1.866,0,0,0,70.7-.832a2.045,2.045,0,0,0,1.054-.254,2.648,2.648,0,0,0,.755-.673l.717.559A2.884,2.884,0,0,1,70.637.127ZM70.491-6.03a1.566,1.566,0,0,0-1.193.517,2.515,2.515,0,0,0-.6,1.45h3.44v-.089a2.237,2.237,0,0,0-.482-1.387A1.475,1.475,0,0,0,70.491-6.03Zm10.156,5.2a1.691,1.691,0,0,0,1.1-.381,1.34,1.34,0,0,0,.521-.952h1.111a2.13,2.13,0,0,1-.406,1.124,2.676,2.676,0,0,1-1,.851,2.885,2.885,0,0,1-1.323.317,2.829,2.829,0,0,1-2.231-.936,3.729,3.729,0,0,1-.828-2.561v-.2a4.135,4.135,0,0,1,.368-1.784,2.8,2.8,0,0,1,1.057-1.212A3,3,0,0,1,80.641-7a2.755,2.755,0,0,1,1.92.692,2.473,2.473,0,0,1,.816,1.8H82.266a1.618,1.618,0,0,0-.5-1.095,1.57,1.57,0,0,0-1.12-.428,1.644,1.644,0,0,0-1.387.644,3.026,3.026,0,0,0-.492,1.863V-3.3a2.966,2.966,0,0,0,.489,1.828A1.651,1.651,0,0,0,80.647-.832ZM84.386-3.5a4.057,4.057,0,0,1,.4-1.815,2.96,2.96,0,0,1,1.1-1.244A3.007,3.007,0,0,1,87.5-7a2.9,2.9,0,0,1,2.269.971,3.736,3.736,0,0,1,.866,2.583v.083a4.092,4.092,0,0,1-.384,1.8,2.916,2.916,0,0,1-1.1,1.241,3.041,3.041,0,0,1-1.641.444,2.889,2.889,0,0,1-2.263-.971,3.718,3.718,0,0,1-.866-2.571Zm1.181.14a2.938,2.938,0,0,0,.53,1.834,1.7,1.7,0,0,0,1.419.692,1.686,1.686,0,0,0,1.422-.7A3.213,3.213,0,0,0,89.464-3.5a2.933,2.933,0,0,0-.536-1.831,1.705,1.705,0,0,0-1.425-.7,1.686,1.686,0,0,0-1.4.692A3.189,3.189,0,0,0,85.566-3.358ZM93.387,0H92.212V-9.75h1.174Zm1.568-3.5a4.057,4.057,0,0,1,.4-1.815,2.96,2.96,0,0,1,1.1-1.244A3.007,3.007,0,0,1,98.071-7a2.9,2.9,0,0,1,2.269.971,3.736,3.736,0,0,1,.866,2.583v.083a4.092,4.092,0,0,1-.384,1.8,2.916,2.916,0,0,1-1.1,1.241,3.041,3.041,0,0,1-1.641.444,2.889,2.889,0,0,1-2.263-.971,3.718,3.718,0,0,1-.866-2.571Zm1.181.14a2.938,2.938,0,0,0,.53,1.834,1.7,1.7,0,0,0,1.419.692,1.686,1.686,0,0,0,1.422-.7,3.213,3.213,0,0,0,.527-1.965A2.933,2.933,0,0,0,99.5-5.329a1.705,1.705,0,0,0-1.425-.7,1.686,1.686,0,0,0-1.4.692A3.189,3.189,0,0,0,96.135-3.358ZM106-5.814a3.519,3.519,0,0,0-.578-.044,1.547,1.547,0,0,0-1.568.984V0H102.68V-6.868h1.143l.019.793A1.829,1.829,0,0,1,105.479-7a1.2,1.2,0,0,1,.521.089Zm.324,5.2a.735.735,0,0,1,.181-.508.689.689,0,0,1,.543-.2.71.71,0,0,1,.549.2.721.721,0,0,1,.187.508.681.681,0,0,1-.187.489.723.723,0,0,1-.549.2.7.7,0,0,1-.543-.2A.7.7,0,0,1,106.323-.616Z" transform="translate(-6216 7723.458)" fill="#12263f"/>
    <g id="Grupo_81905" data-name="Grupo 81905" transform="translate(-6720 -132.608)">
      <rect id="Rectángulo_9122" data-name="Rectángulo 9122" width="54.717" height="54.717" transform="translate(503.711 7763)" fill="#ffa726"/>
      <rect id="Rectángulo_9123" data-name="Rectángulo 9123" width="19.087" height="19.087" transform="translate(585.786 7780.815)" fill="#ffa726"/>
      <rect id="Rectángulo_9124" data-name="Rectángulo 9124" width="53.444" height="19.087" transform="translate(636.049 7780.815)" fill="#ffa726"/>
      <rect id="Rectángulo_9125" data-name="Rectángulo 9125" width="185.782" height="19.087" transform="translate(702.218 7780.815)" fill="#ffa726"/>
    </g>
    <g id="Grupo_81906" data-name="Grupo 81906" transform="translate(-6707.996 4968.132)">
      <rect id="Rectángulo_9122-2" data-name="Rectángulo 9122" width="176.106" height="54.675" transform="translate(491.996 2763)" fill="#ffa726"/>
      <rect id="Rectángulo_9127" data-name="Rectángulo 9127" width="176.106" height="54.675" transform="translate(699.89 2763)" fill="#26ccda"/>
    </g>
  </g>
</svg>
