<svg xmlns="http://www.w3.org/2000/svg" xmlns:xlink="http://www.w3.org/1999/xlink" width="456" height="327" viewBox="0 0 456 327">
  <defs>
    <filter id="_7795-_Convertido_" x="0" y="0" width="456" height="327" filterUnits="userSpaceOnUse">
      <feOffset dy="3" input="SourceAlpha"/>
      <feGaussianBlur stdDeviation="3" result="blur"/>
      <feFlood flood-opacity="0.161"/>
      <feComposite operator="in" in2="blur"/>
      <feComposite in="SourceGraphic"/>
    </filter>
    <clipPath id="clip-path">
      <rect id="Rectángulo_9106" data-name="Rectángulo 9106" width="62.311" height="71.831" transform="translate(0 0)" fill="#fff" stroke="#707070" stroke-width="1"/>
    </clipPath>
    <clipPath id="clip-path-2">
      <rect id="Rectángulo_9107" data-name="Rectángulo 9107" width="30.29" height="71.831" transform="translate(0 0)" fill="#fff" stroke="#707070" stroke-width="1"/>
    </clipPath>
    <clipPath id="clip-path-3">
      <rect id="Rectángulo_9108" data-name="Rectángulo 9108" width="30.29" height="62.311" fill="#fff" stroke="#707070" stroke-width="1"/>
    </clipPath>
  </defs>
  <g id="_76" data-name="76" transform="translate(6251 -7905)">
    <g transform="matrix(1, 0, 0, 1, -6251, 7905)" filter="url(#_7795-_Convertido_)">
      <rect id="_7795-_Convertido_2" data-name="7795-[Convertido]" width="438" height="309" rx="10" transform="translate(9 6)" fill="#fff" opacity="0.38"/>
    </g>
    <path id="Trazado_115747" data-name="Trazado 115747" d="M7.871-2.933A3.4,3.4,0,0,1,6.789-.67a3.547,3.547,0,0,1-2.422.8A3.257,3.257,0,0,1,1.742-1.047,4.724,4.724,0,0,1,.755-4.189v-.889a5.266,5.266,0,0,1,.46-2.266,3.438,3.438,0,0,1,1.3-1.5,3.632,3.632,0,0,1,1.955-.524,3.34,3.34,0,0,1,2.361.822A3.441,3.441,0,0,1,7.871-6.271H6.646a2.655,2.655,0,0,0-.689-1.6,2.084,2.084,0,0,0-1.482-.5,2.181,2.181,0,0,0-1.831.864A3.966,3.966,0,0,0,1.98-5.05v.9a4.077,4.077,0,0,0,.628,2.4A2.031,2.031,0,0,0,4.367-.87a2.345,2.345,0,0,0,1.558-.46,2.554,2.554,0,0,0,.72-1.6ZM9.039-3.5a4.057,4.057,0,0,1,.4-1.815,2.96,2.96,0,0,1,1.1-1.244A3.007,3.007,0,0,1,12.156-7a2.9,2.9,0,0,1,2.269.971,3.736,3.736,0,0,1,.866,2.583v.083a4.092,4.092,0,0,1-.384,1.8,2.916,2.916,0,0,1-1.1,1.241,3.041,3.041,0,0,1-1.641.444A2.889,2.889,0,0,1,9.906-.844a3.718,3.718,0,0,1-.866-2.571Zm1.181.14a2.938,2.938,0,0,0,.53,1.834,1.7,1.7,0,0,0,1.419.692,1.686,1.686,0,0,0,1.422-.7A3.213,3.213,0,0,0,14.117-3.5a2.933,2.933,0,0,0-.536-1.831,1.705,1.705,0,0,0-1.425-.7,1.686,1.686,0,0,0-1.4.692A3.189,3.189,0,0,0,10.22-3.358Zm7.655-3.51L17.913-6A2.5,2.5,0,0,1,19.97-7q2.177,0,2.2,2.457V0H20.992V-4.545a1.581,1.581,0,0,0-.34-1.1A1.361,1.361,0,0,0,19.614-6a1.7,1.7,0,0,0-1,.3,2.069,2.069,0,0,0-.673.8V0H16.764V-6.868ZM25.53-8.531v1.663h1.282v.908H25.53V-1.7a.953.953,0,0,0,.171.62.721.721,0,0,0,.584.207,2.843,2.843,0,0,0,.559-.076V0a3.424,3.424,0,0,1-.9.126,1.462,1.462,0,0,1-1.187-.476,2.045,2.045,0,0,1-.4-1.352V-5.96h-1.25v-.908h1.25V-8.531ZM31.5-5.814a3.519,3.519,0,0,0-.578-.044,1.547,1.547,0,0,0-1.568.984V0H28.184V-6.868h1.143l.019.793A1.829,1.829,0,0,1,30.983-7a1.2,1.2,0,0,1,.521.089ZM36.569,0A2.467,2.467,0,0,1,36.4-.724a2.62,2.62,0,0,1-1.955.851,2.424,2.424,0,0,1-1.666-.574A1.859,1.859,0,0,1,32.132-1.9a1.942,1.942,0,0,1,.816-1.666,3.846,3.846,0,0,1,2.295-.594h1.143V-4.7a1.319,1.319,0,0,0-.368-.981,1.48,1.48,0,0,0-1.085-.365,1.712,1.712,0,0,0-1.054.317.935.935,0,0,0-.425.768H32.271a1.621,1.621,0,0,1,.365-.993,2.491,2.491,0,0,1,.99-.759A3.331,3.331,0,0,1,35-7a2.715,2.715,0,0,1,1.86.594,2.141,2.141,0,0,1,.7,1.635v3.161A3.865,3.865,0,0,0,37.8-.1V0ZM34.62-.9a2.064,2.064,0,0,0,1.047-.286,1.728,1.728,0,0,0,.717-.743V-3.333h-.92q-2.158,0-2.158,1.263a1.069,1.069,0,0,0,.368.863A1.415,1.415,0,0,0,34.62-.9ZM43.4-1.822a.865.865,0,0,0-.359-.74,3.452,3.452,0,0,0-1.25-.454,5.912,5.912,0,0,1-1.416-.457,2.014,2.014,0,0,1-.774-.635,1.518,1.518,0,0,1-.251-.876,1.782,1.782,0,0,1,.714-1.428A2.789,2.789,0,0,1,41.888-7a2.87,2.87,0,0,1,1.895.6A1.915,1.915,0,0,1,44.51-4.85H43.329a1.06,1.06,0,0,0-.409-.832,1.534,1.534,0,0,0-1.031-.349,1.605,1.605,0,0,0-1,.279.879.879,0,0,0-.362.73.712.712,0,0,0,.336.641,4.139,4.139,0,0,0,1.216.413A6.334,6.334,0,0,1,43.5-3.5a2.079,2.079,0,0,1,.809.657,1.615,1.615,0,0,1,.263.936,1.758,1.758,0,0,1-.736,1.476,3.089,3.089,0,0,1-1.911.555,3.459,3.459,0,0,1-1.46-.292,2.375,2.375,0,0,1-.993-.816,1.966,1.966,0,0,1-.359-1.133h1.174a1.216,1.216,0,0,0,.473.936,1.835,1.835,0,0,0,1.165.346A1.894,1.894,0,0,0,43-1.1.829.829,0,0,0,43.4-1.822Zm4.3-6.709v1.663h1.282v.908H47.7V-1.7a.953.953,0,0,0,.171.62.721.721,0,0,0,.584.207,2.843,2.843,0,0,0,.559-.076V0a3.424,3.424,0,0,1-.9.126,1.462,1.462,0,0,1-1.187-.476,2.045,2.045,0,0,1-.4-1.352V-5.96h-1.25v-.908h1.25V-8.531ZM53.2.127A3,3,0,0,1,50.927-.79a3.4,3.4,0,0,1-.876-2.453v-.216a4.121,4.121,0,0,1,.39-1.825,3.045,3.045,0,0,1,1.092-1.257A2.745,2.745,0,0,1,53.054-7a2.572,2.572,0,0,1,2.082.882,3.82,3.82,0,0,1,.743,2.526V-3.1H51.226a2.441,2.441,0,0,0,.594,1.641,1.866,1.866,0,0,0,1.444.625,2.045,2.045,0,0,0,1.054-.254,2.648,2.648,0,0,0,.755-.673l.717.559A2.884,2.884,0,0,1,53.2.127ZM53.054-6.03a1.566,1.566,0,0,0-1.193.517,2.515,2.515,0,0,0-.6,1.45H54.7v-.089a2.237,2.237,0,0,0-.482-1.387A1.475,1.475,0,0,0,53.054-6.03Zm7.116,2.539a4.023,4.023,0,0,1,.749-2.542A2.369,2.369,0,0,1,62.88-7a2.382,2.382,0,0,1,1.911.825V-9.75h1.174V0H64.886l-.057-.736a2.391,2.391,0,0,1-1.961.863,2.346,2.346,0,0,1-1.946-.978A4.069,4.069,0,0,1,60.169-3.4Zm1.174.133a3.046,3.046,0,0,0,.482,1.828,1.56,1.56,0,0,0,1.333.66,1.713,1.713,0,0,0,1.631-1V-5.027A1.726,1.726,0,0,0,63.172-6a1.567,1.567,0,0,0-1.346.667A3.354,3.354,0,0,0,61.344-3.358ZM70.637.127A3,3,0,0,1,68.364-.79a3.4,3.4,0,0,1-.876-2.453v-.216a4.121,4.121,0,0,1,.39-1.825A3.045,3.045,0,0,1,68.97-6.541,2.745,2.745,0,0,1,70.491-7a2.572,2.572,0,0,1,2.082.882,3.82,3.82,0,0,1,.743,2.526V-3.1H68.663a2.441,2.441,0,0,0,.594,1.641A1.866,1.866,0,0,0,70.7-.832a2.045,2.045,0,0,0,1.054-.254,2.648,2.648,0,0,0,.755-.673l.717.559A2.884,2.884,0,0,1,70.637.127ZM70.491-6.03a1.566,1.566,0,0,0-1.193.517,2.515,2.515,0,0,0-.6,1.45h3.44v-.089a2.237,2.237,0,0,0-.482-1.387A1.475,1.475,0,0,0,70.491-6.03Zm8.995-2.5v1.663h1.282v.908H79.485V-1.7a.953.953,0,0,0,.171.62.721.721,0,0,0,.584.207A2.843,2.843,0,0,0,80.8-.946V0a3.424,3.424,0,0,1-.9.126,1.462,1.462,0,0,1-1.187-.476,2.045,2.045,0,0,1-.4-1.352V-5.96h-1.25v-.908h1.25V-8.531Zm5.5,8.658A3,3,0,0,1,82.716-.79a3.4,3.4,0,0,1-.876-2.453v-.216a4.121,4.121,0,0,1,.39-1.825,3.045,3.045,0,0,1,1.092-1.257A2.745,2.745,0,0,1,84.843-7a2.572,2.572,0,0,1,2.082.882,3.82,3.82,0,0,1,.743,2.526V-3.1H83.015a2.441,2.441,0,0,0,.594,1.641,1.866,1.866,0,0,0,1.444.625,2.045,2.045,0,0,0,1.054-.254,2.648,2.648,0,0,0,.755-.673l.717.559A2.884,2.884,0,0,1,84.989.127ZM84.843-6.03a1.566,1.566,0,0,0-1.193.517,2.515,2.515,0,0,0-.6,1.45h3.44v-.089a2.237,2.237,0,0,0-.482-1.387A1.475,1.475,0,0,0,84.843-6.03ZM91.33-4.361l1.523-2.507h1.371l-2.247,3.4L94.294,0H92.936L91.349-2.571,89.762,0H88.4l2.317-3.472-2.247-3.4h1.358Zm5.732-4.17v1.663h1.282v.908H97.062V-1.7a.953.953,0,0,0,.171.62.721.721,0,0,0,.584.207,2.843,2.843,0,0,0,.559-.076V0a3.424,3.424,0,0,1-.9.126,1.462,1.462,0,0,1-1.187-.476,2.045,2.045,0,0,1-.4-1.352V-5.96h-1.25v-.908h1.25V-8.531Zm6.894,7.852a2.494,2.494,0,0,1-2.012.806,2.135,2.135,0,0,1-1.673-.638A2.761,2.761,0,0,1,99.69-2.4V-6.868h1.174v4.437q0,1.562,1.27,1.562a1.758,1.758,0,0,0,1.79-1v-5H105.1V0h-1.117ZM110.2-5.814a3.519,3.519,0,0,0-.578-.044,1.547,1.547,0,0,0-1.568.984V0h-1.174V-6.868h1.143l.019.793A1.829,1.829,0,0,1,109.681-7a1.2,1.2,0,0,1,.521.089ZM115.267,0a2.467,2.467,0,0,1-.165-.724,2.62,2.62,0,0,1-1.955.851,2.424,2.424,0,0,1-1.666-.574A1.859,1.859,0,0,1,110.83-1.9a1.942,1.942,0,0,1,.816-1.666,3.846,3.846,0,0,1,2.295-.594h1.143V-4.7a1.319,1.319,0,0,0-.368-.981,1.48,1.48,0,0,0-1.085-.365,1.712,1.712,0,0,0-1.054.317.935.935,0,0,0-.425.768H110.97a1.621,1.621,0,0,1,.365-.993,2.491,2.491,0,0,1,.99-.759A3.331,3.331,0,0,1,113.7-7a2.715,2.715,0,0,1,1.86.594,2.141,2.141,0,0,1,.7,1.635v3.161A3.865,3.865,0,0,0,116.5-.1V0Zm-1.949-.9a2.064,2.064,0,0,0,1.047-.286,1.728,1.728,0,0,0,.717-.743V-3.333h-.92Q112-3.333,112-2.069a1.069,1.069,0,0,0,.368.863A1.415,1.415,0,0,0,113.318-.9Zm4.805.279a.735.735,0,0,1,.181-.508.689.689,0,0,1,.543-.2.71.71,0,0,1,.549.2.721.721,0,0,1,.187.508.681.681,0,0,1-.187.489.723.723,0,0,1-.549.2.7.7,0,0,1-.543-.2A.7.7,0,0,1,118.124-.616Z" transform="translate(-6216 7942.279)" fill="#12263f"/>
    <path id="Trazado_115748" data-name="Trazado 115748" d="M7.871-2.933A3.4,3.4,0,0,1,6.789-.67a3.547,3.547,0,0,1-2.422.8A3.257,3.257,0,0,1,1.742-1.047,4.724,4.724,0,0,1,.755-4.189v-.889a5.266,5.266,0,0,1,.46-2.266,3.438,3.438,0,0,1,1.3-1.5,3.632,3.632,0,0,1,1.955-.524,3.34,3.34,0,0,1,2.361.822A3.441,3.441,0,0,1,7.871-6.271H6.646a2.655,2.655,0,0,0-.689-1.6,2.084,2.084,0,0,0-1.482-.5,2.181,2.181,0,0,0-1.831.864A3.966,3.966,0,0,0,1.98-5.05v.9a4.077,4.077,0,0,0,.628,2.4A2.031,2.031,0,0,0,4.367-.87a2.345,2.345,0,0,0,1.558-.46,2.554,2.554,0,0,0,.72-1.6ZM9.039-3.5a4.057,4.057,0,0,1,.4-1.815,2.96,2.96,0,0,1,1.1-1.244A3.007,3.007,0,0,1,12.156-7a2.9,2.9,0,0,1,2.269.971,3.736,3.736,0,0,1,.866,2.583v.083a4.092,4.092,0,0,1-.384,1.8,2.916,2.916,0,0,1-1.1,1.241,3.041,3.041,0,0,1-1.641.444A2.889,2.889,0,0,1,9.906-.844a3.718,3.718,0,0,1-.866-2.571Zm1.181.14a2.938,2.938,0,0,0,.53,1.834,1.7,1.7,0,0,0,1.419.692,1.686,1.686,0,0,0,1.422-.7A3.213,3.213,0,0,0,14.117-3.5a2.933,2.933,0,0,0-.536-1.831,1.705,1.705,0,0,0-1.425-.7,1.686,1.686,0,0,0-1.4.692A3.189,3.189,0,0,0,10.22-3.358Zm7.655-3.51L17.913-6A2.5,2.5,0,0,1,19.97-7q2.177,0,2.2,2.457V0H20.992V-4.545a1.581,1.581,0,0,0-.34-1.1A1.361,1.361,0,0,0,19.614-6a1.7,1.7,0,0,0-1,.3,2.069,2.069,0,0,0-.673.8V0H16.764V-6.868ZM25.53-8.531v1.663h1.282v.908H25.53V-1.7a.953.953,0,0,0,.171.62.721.721,0,0,0,.584.207,2.843,2.843,0,0,0,.559-.076V0a3.424,3.424,0,0,1-.9.126,1.462,1.462,0,0,1-1.187-.476,2.045,2.045,0,0,1-.4-1.352V-5.96h-1.25v-.908h1.25V-8.531ZM31.5-5.814a3.519,3.519,0,0,0-.578-.044,1.547,1.547,0,0,0-1.568.984V0H28.184V-6.868h1.143l.019.793A1.829,1.829,0,0,1,30.983-7a1.2,1.2,0,0,1,.521.089ZM36.569,0A2.467,2.467,0,0,1,36.4-.724a2.62,2.62,0,0,1-1.955.851,2.424,2.424,0,0,1-1.666-.574A1.859,1.859,0,0,1,32.132-1.9a1.942,1.942,0,0,1,.816-1.666,3.846,3.846,0,0,1,2.295-.594h1.143V-4.7a1.319,1.319,0,0,0-.368-.981,1.48,1.48,0,0,0-1.085-.365,1.712,1.712,0,0,0-1.054.317.935.935,0,0,0-.425.768H32.271a1.621,1.621,0,0,1,.365-.993,2.491,2.491,0,0,1,.99-.759A3.331,3.331,0,0,1,35-7a2.715,2.715,0,0,1,1.86.594,2.141,2.141,0,0,1,.7,1.635v3.161A3.865,3.865,0,0,0,37.8-.1V0ZM34.62-.9a2.064,2.064,0,0,0,1.047-.286,1.728,1.728,0,0,0,.717-.743V-3.333h-.92q-2.158,0-2.158,1.263a1.069,1.069,0,0,0,.368.863A1.415,1.415,0,0,0,34.62-.9ZM43.4-1.822a.865.865,0,0,0-.359-.74,3.452,3.452,0,0,0-1.25-.454,5.912,5.912,0,0,1-1.416-.457,2.014,2.014,0,0,1-.774-.635,1.518,1.518,0,0,1-.251-.876,1.782,1.782,0,0,1,.714-1.428A2.789,2.789,0,0,1,41.888-7a2.87,2.87,0,0,1,1.895.6A1.915,1.915,0,0,1,44.51-4.85H43.329a1.06,1.06,0,0,0-.409-.832,1.534,1.534,0,0,0-1.031-.349,1.605,1.605,0,0,0-1,.279.879.879,0,0,0-.362.73.712.712,0,0,0,.336.641,4.139,4.139,0,0,0,1.216.413A6.334,6.334,0,0,1,43.5-3.5a2.079,2.079,0,0,1,.809.657,1.615,1.615,0,0,1,.263.936,1.758,1.758,0,0,1-.736,1.476,3.089,3.089,0,0,1-1.911.555,3.459,3.459,0,0,1-1.46-.292,2.375,2.375,0,0,1-.993-.816,1.966,1.966,0,0,1-.359-1.133h1.174a1.216,1.216,0,0,0,.473.936,1.835,1.835,0,0,0,1.165.346A1.894,1.894,0,0,0,43-1.1.829.829,0,0,0,43.4-1.822Zm4.3-6.709v1.663h1.282v.908H47.7V-1.7a.953.953,0,0,0,.171.62.721.721,0,0,0,.584.207,2.843,2.843,0,0,0,.559-.076V0a3.424,3.424,0,0,1-.9.126,1.462,1.462,0,0,1-1.187-.476,2.045,2.045,0,0,1-.4-1.352V-5.96h-1.25v-.908h1.25V-8.531ZM53.2.127A3,3,0,0,1,50.927-.79a3.4,3.4,0,0,1-.876-2.453v-.216a4.121,4.121,0,0,1,.39-1.825,3.045,3.045,0,0,1,1.092-1.257A2.745,2.745,0,0,1,53.054-7a2.572,2.572,0,0,1,2.082.882,3.82,3.82,0,0,1,.743,2.526V-3.1H51.226a2.441,2.441,0,0,0,.594,1.641,1.866,1.866,0,0,0,1.444.625,2.045,2.045,0,0,0,1.054-.254,2.648,2.648,0,0,0,.755-.673l.717.559A2.884,2.884,0,0,1,53.2.127ZM53.054-6.03a1.566,1.566,0,0,0-1.193.517,2.515,2.515,0,0,0-.6,1.45H54.7v-.089a2.237,2.237,0,0,0-.482-1.387A1.475,1.475,0,0,0,53.054-6.03Zm7.116,2.539a4.023,4.023,0,0,1,.749-2.542A2.369,2.369,0,0,1,62.88-7a2.382,2.382,0,0,1,1.911.825V-9.75h1.174V0H64.886l-.057-.736a2.391,2.391,0,0,1-1.961.863,2.346,2.346,0,0,1-1.946-.978A4.069,4.069,0,0,1,60.169-3.4Zm1.174.133a3.046,3.046,0,0,0,.482,1.828,1.56,1.56,0,0,0,1.333.66,1.713,1.713,0,0,0,1.631-1V-5.027A1.726,1.726,0,0,0,63.172-6a1.567,1.567,0,0,0-1.346.667A3.354,3.354,0,0,0,61.344-3.358ZM70.637.127A3,3,0,0,1,68.364-.79a3.4,3.4,0,0,1-.876-2.453v-.216a4.121,4.121,0,0,1,.39-1.825A3.045,3.045,0,0,1,68.97-6.541,2.745,2.745,0,0,1,70.491-7a2.572,2.572,0,0,1,2.082.882,3.82,3.82,0,0,1,.743,2.526V-3.1H68.663a2.441,2.441,0,0,0,.594,1.641A1.866,1.866,0,0,0,70.7-.832a2.045,2.045,0,0,0,1.054-.254,2.648,2.648,0,0,0,.755-.673l.717.559A2.884,2.884,0,0,1,70.637.127ZM70.491-6.03a1.566,1.566,0,0,0-1.193.517,2.515,2.515,0,0,0-.6,1.45h3.44v-.089a2.237,2.237,0,0,0-.482-1.387A1.475,1.475,0,0,0,70.491-6.03Zm7.116,2.539a4.023,4.023,0,0,1,.749-2.542A2.369,2.369,0,0,1,80.317-7a2.382,2.382,0,0,1,1.911.825V-9.75H83.4V0H82.323l-.057-.736A2.391,2.391,0,0,1,80.3.127a2.346,2.346,0,0,1-1.946-.978A4.069,4.069,0,0,1,77.606-3.4Zm1.174.133a3.046,3.046,0,0,0,.482,1.828A1.56,1.56,0,0,0,80.6-.87a1.713,1.713,0,0,0,1.631-1V-5.027A1.726,1.726,0,0,0,80.609-6a1.567,1.567,0,0,0-1.346.667A3.354,3.354,0,0,0,78.781-3.358ZM86.5,0H85.325V-6.868H86.5ZM85.23-8.69a.7.7,0,0,1,.175-.482.655.655,0,0,1,.517-.2.666.666,0,0,1,.521.2.694.694,0,0,1,.178.482.671.671,0,0,1-.178.476.678.678,0,0,1-.521.19.667.667,0,0,1-.517-.19A.678.678,0,0,1,85.23-8.69ZM91.7-5.814a3.519,3.519,0,0,0-.578-.044,1.547,1.547,0,0,0-1.568.984V0H88.378V-6.868h1.143l.019.793A1.829,1.829,0,0,1,91.178-7a1.2,1.2,0,0,1,.521.089ZM95.507.127A3,3,0,0,1,93.234-.79a3.4,3.4,0,0,1-.876-2.453v-.216a4.121,4.121,0,0,1,.39-1.825,3.045,3.045,0,0,1,1.092-1.257A2.745,2.745,0,0,1,95.361-7a2.572,2.572,0,0,1,2.082.882,3.82,3.82,0,0,1,.743,2.526V-3.1H93.533a2.441,2.441,0,0,0,.594,1.641,1.866,1.866,0,0,0,1.444.625,2.045,2.045,0,0,0,1.054-.254,2.648,2.648,0,0,0,.755-.673L98.1-1.2A2.884,2.884,0,0,1,95.507.127ZM95.361-6.03a1.566,1.566,0,0,0-1.193.517,2.515,2.515,0,0,0-.6,1.45h3.44v-.089a2.237,2.237,0,0,0-.482-1.387A1.475,1.475,0,0,0,95.361-6.03Zm6.938,5.2a1.691,1.691,0,0,0,1.1-.381,1.34,1.34,0,0,0,.521-.952h1.111a2.13,2.13,0,0,1-.406,1.124,2.676,2.676,0,0,1-1,.851A2.885,2.885,0,0,1,102.3.127a2.829,2.829,0,0,1-2.231-.936,3.729,3.729,0,0,1-.828-2.561v-.2a4.135,4.135,0,0,1,.368-1.784,2.8,2.8,0,0,1,1.057-1.212A3,3,0,0,1,102.292-7a2.755,2.755,0,0,1,1.92.692,2.473,2.473,0,0,1,.816,1.8h-1.111a1.618,1.618,0,0,0-.5-1.095,1.57,1.57,0,0,0-1.12-.428,1.644,1.644,0,0,0-1.387.644,3.026,3.026,0,0,0-.492,1.863V-3.3a2.966,2.966,0,0,0,.489,1.828A1.651,1.651,0,0,0,102.3-.832Zm6.8,0a1.691,1.691,0,0,0,1.1-.381,1.34,1.34,0,0,0,.521-.952h1.111a2.13,2.13,0,0,1-.406,1.124,2.676,2.676,0,0,1-1,.851A2.885,2.885,0,0,1,109.1.127a2.829,2.829,0,0,1-2.231-.936,3.729,3.729,0,0,1-.828-2.561v-.2a4.135,4.135,0,0,1,.368-1.784,2.8,2.8,0,0,1,1.057-1.212A3,3,0,0,1,109.1-7a2.755,2.755,0,0,1,1.92.692,2.473,2.473,0,0,1,.816,1.8h-1.111a1.618,1.618,0,0,0-.5-1.095,1.57,1.57,0,0,0-1.12-.428,1.644,1.644,0,0,0-1.387.644,3.026,3.026,0,0,0-.492,1.863V-3.3a2.966,2.966,0,0,0,.489,1.828A1.651,1.651,0,0,0,109.1-.832ZM114.429,0h-1.174V-6.868h1.174Zm-1.27-8.69a.7.7,0,0,1,.175-.482.655.655,0,0,1,.517-.2.666.666,0,0,1,.521.2.694.694,0,0,1,.178.482.671.671,0,0,1-.178.476.678.678,0,0,1-.521.19.667.667,0,0,1-.517-.19A.678.678,0,0,1,113.16-8.69ZM116-3.5a4.057,4.057,0,0,1,.4-1.815,2.96,2.96,0,0,1,1.1-1.244A3.007,3.007,0,0,1,119.114-7a2.9,2.9,0,0,1,2.269.971,3.736,3.736,0,0,1,.866,2.583v.083a4.092,4.092,0,0,1-.384,1.8,2.916,2.916,0,0,1-1.1,1.241,3.041,3.041,0,0,1-1.641.444,2.889,2.889,0,0,1-2.263-.971A3.718,3.718,0,0,1,116-3.415Zm1.181.14a2.938,2.938,0,0,0,.53,1.834,1.7,1.7,0,0,0,1.419.692,1.686,1.686,0,0,0,1.422-.7,3.213,3.213,0,0,0,.527-1.965,2.933,2.933,0,0,0-.536-1.831,1.705,1.705,0,0,0-1.425-.7,1.686,1.686,0,0,0-1.4.692A3.189,3.189,0,0,0,117.178-3.358Zm2.469-6.379h1.422l-1.7,1.866-.946,0Zm5.186,2.869.038.863A2.5,2.5,0,0,1,126.928-7q2.177,0,2.2,2.457V0H127.95V-4.545a1.581,1.581,0,0,0-.34-1.1A1.361,1.361,0,0,0,126.572-6a1.7,1.7,0,0,0-1,.3,2.069,2.069,0,0,0-.673.8V0h-1.174V-6.868ZM130.92-.616a.735.735,0,0,1,.181-.508.689.689,0,0,1,.543-.2.71.71,0,0,1,.549.2.721.721,0,0,1,.187.508.682.682,0,0,1-.187.489.723.723,0,0,1-.549.2.7.7,0,0,1-.543-.2A.7.7,0,0,1,130.92-.616Z" transform="translate(-6216 8030.279)" fill="#12263f"/>
    <path id="Trazado_115749" data-name="Trazado 115749" d="M7.871-2.933A3.4,3.4,0,0,1,6.789-.67a3.547,3.547,0,0,1-2.422.8A3.257,3.257,0,0,1,1.742-1.047,4.724,4.724,0,0,1,.755-4.189v-.889a5.266,5.266,0,0,1,.46-2.266,3.438,3.438,0,0,1,1.3-1.5,3.632,3.632,0,0,1,1.955-.524,3.34,3.34,0,0,1,2.361.822A3.441,3.441,0,0,1,7.871-6.271H6.646a2.655,2.655,0,0,0-.689-1.6,2.084,2.084,0,0,0-1.482-.5,2.181,2.181,0,0,0-1.831.864A3.966,3.966,0,0,0,1.98-5.05v.9a4.077,4.077,0,0,0,.628,2.4A2.031,2.031,0,0,0,4.367-.87a2.345,2.345,0,0,0,1.558-.46,2.554,2.554,0,0,0,.72-1.6ZM9.039-3.5a4.057,4.057,0,0,1,.4-1.815,2.96,2.96,0,0,1,1.1-1.244A3.007,3.007,0,0,1,12.156-7a2.9,2.9,0,0,1,2.269.971,3.736,3.736,0,0,1,.866,2.583v.083a4.092,4.092,0,0,1-.384,1.8,2.916,2.916,0,0,1-1.1,1.241,3.041,3.041,0,0,1-1.641.444A2.889,2.889,0,0,1,9.906-.844a3.718,3.718,0,0,1-.866-2.571Zm1.181.14a2.938,2.938,0,0,0,.53,1.834,1.7,1.7,0,0,0,1.419.692,1.686,1.686,0,0,0,1.422-.7A3.213,3.213,0,0,0,14.117-3.5a2.933,2.933,0,0,0-.536-1.831,1.705,1.705,0,0,0-1.425-.7,1.686,1.686,0,0,0-1.4.692A3.189,3.189,0,0,0,10.22-3.358Zm7.655-3.51L17.913-6A2.5,2.5,0,0,1,19.97-7q2.177,0,2.2,2.457V0H20.992V-4.545a1.581,1.581,0,0,0-.34-1.1A1.361,1.361,0,0,0,19.614-6a1.7,1.7,0,0,0-1,.3,2.069,2.069,0,0,0-.673.8V0H16.764V-6.868ZM25.53-8.531v1.663h1.282v.908H25.53V-1.7a.953.953,0,0,0,.171.62.721.721,0,0,0,.584.207,2.843,2.843,0,0,0,.559-.076V0a3.424,3.424,0,0,1-.9.126,1.462,1.462,0,0,1-1.187-.476,2.045,2.045,0,0,1-.4-1.352V-5.96h-1.25v-.908h1.25V-8.531ZM31.5-5.814a3.519,3.519,0,0,0-.578-.044,1.547,1.547,0,0,0-1.568.984V0H28.184V-6.868h1.143l.019.793A1.829,1.829,0,0,1,30.983-7a1.2,1.2,0,0,1,.521.089ZM36.569,0A2.467,2.467,0,0,1,36.4-.724a2.62,2.62,0,0,1-1.955.851,2.424,2.424,0,0,1-1.666-.574A1.859,1.859,0,0,1,32.132-1.9a1.942,1.942,0,0,1,.816-1.666,3.846,3.846,0,0,1,2.295-.594h1.143V-4.7a1.319,1.319,0,0,0-.368-.981,1.48,1.48,0,0,0-1.085-.365,1.712,1.712,0,0,0-1.054.317.935.935,0,0,0-.425.768H32.271a1.621,1.621,0,0,1,.365-.993,2.491,2.491,0,0,1,.99-.759A3.331,3.331,0,0,1,35-7a2.715,2.715,0,0,1,1.86.594,2.141,2.141,0,0,1,.7,1.635v3.161A3.865,3.865,0,0,0,37.8-.1V0ZM34.62-.9a2.064,2.064,0,0,0,1.047-.286,1.728,1.728,0,0,0,.717-.743V-3.333h-.92q-2.158,0-2.158,1.263a1.069,1.069,0,0,0,.368.863A1.415,1.415,0,0,0,34.62-.9ZM43.4-1.822a.865.865,0,0,0-.359-.74,3.452,3.452,0,0,0-1.25-.454,5.912,5.912,0,0,1-1.416-.457,2.014,2.014,0,0,1-.774-.635,1.518,1.518,0,0,1-.251-.876,1.782,1.782,0,0,1,.714-1.428A2.789,2.789,0,0,1,41.888-7a2.87,2.87,0,0,1,1.895.6A1.915,1.915,0,0,1,44.51-4.85H43.329a1.06,1.06,0,0,0-.409-.832,1.534,1.534,0,0,0-1.031-.349,1.605,1.605,0,0,0-1,.279.879.879,0,0,0-.362.73.712.712,0,0,0,.336.641,4.139,4.139,0,0,0,1.216.413A6.334,6.334,0,0,1,43.5-3.5a2.079,2.079,0,0,1,.809.657,1.615,1.615,0,0,1,.263.936,1.758,1.758,0,0,1-.736,1.476,3.089,3.089,0,0,1-1.911.555,3.459,3.459,0,0,1-1.46-.292,2.375,2.375,0,0,1-.993-.816,1.966,1.966,0,0,1-.359-1.133h1.174a1.216,1.216,0,0,0,.473.936,1.835,1.835,0,0,0,1.165.346A1.894,1.894,0,0,0,43-1.1.829.829,0,0,0,43.4-1.822Zm4.3-6.709v1.663h1.282v.908H47.7V-1.7a.953.953,0,0,0,.171.62.721.721,0,0,0,.584.207,2.843,2.843,0,0,0,.559-.076V0a3.424,3.424,0,0,1-.9.126,1.462,1.462,0,0,1-1.187-.476,2.045,2.045,0,0,1-.4-1.352V-5.96h-1.25v-.908h1.25V-8.531ZM53.2.127A3,3,0,0,1,50.927-.79a3.4,3.4,0,0,1-.876-2.453v-.216a4.121,4.121,0,0,1,.39-1.825,3.045,3.045,0,0,1,1.092-1.257A2.745,2.745,0,0,1,53.054-7a2.572,2.572,0,0,1,2.082.882,3.82,3.82,0,0,1,.743,2.526V-3.1H51.226a2.441,2.441,0,0,0,.594,1.641,1.866,1.866,0,0,0,1.444.625,2.045,2.045,0,0,0,1.054-.254,2.648,2.648,0,0,0,.755-.673l.717.559A2.884,2.884,0,0,1,53.2.127ZM53.054-6.03a1.566,1.566,0,0,0-1.193.517,2.515,2.515,0,0,0-.6,1.45H54.7v-.089a2.237,2.237,0,0,0-.482-1.387A1.475,1.475,0,0,0,53.054-6.03Zm7.116,2.539a4.023,4.023,0,0,1,.749-2.542A2.369,2.369,0,0,1,62.88-7a2.382,2.382,0,0,1,1.911.825V-9.75h1.174V0H64.886l-.057-.736a2.391,2.391,0,0,1-1.961.863,2.346,2.346,0,0,1-1.946-.978A4.069,4.069,0,0,1,60.169-3.4Zm1.174.133a3.046,3.046,0,0,0,.482,1.828,1.56,1.56,0,0,0,1.333.66,1.713,1.713,0,0,0,1.631-1V-5.027A1.726,1.726,0,0,0,63.172-6a1.567,1.567,0,0,0-1.346.667A3.354,3.354,0,0,0,61.344-3.358ZM70.637.127A3,3,0,0,1,68.364-.79a3.4,3.4,0,0,1-.876-2.453v-.216a4.121,4.121,0,0,1,.39-1.825A3.045,3.045,0,0,1,68.97-6.541,2.745,2.745,0,0,1,70.491-7a2.572,2.572,0,0,1,2.082.882,3.82,3.82,0,0,1,.743,2.526V-3.1H68.663a2.441,2.441,0,0,0,.594,1.641A1.866,1.866,0,0,0,70.7-.832a2.045,2.045,0,0,0,1.054-.254,2.648,2.648,0,0,0,.755-.673l.717.559A2.884,2.884,0,0,1,70.637.127ZM70.491-6.03a1.566,1.566,0,0,0-1.193.517,2.515,2.515,0,0,0-.6,1.45h3.44v-.089a2.237,2.237,0,0,0-.482-1.387A1.475,1.475,0,0,0,70.491-6.03Zm13.2,2.672a4.113,4.113,0,0,1-.717,2.526,2.3,2.3,0,0,1-1.942.958,2.519,2.519,0,0,1-1.968-.793V2.641H77.892V-6.868h1.073l.057.762A2.419,2.419,0,0,1,81.015-7a2.342,2.342,0,0,1,1.958.933,4.157,4.157,0,0,1,.72,2.6ZM82.52-3.491a3.035,3.035,0,0,0-.5-1.834A1.6,1.6,0,0,0,80.666-6a1.726,1.726,0,0,0-1.6.946v3.282a1.73,1.73,0,0,0,1.612.939,1.587,1.587,0,0,0,1.343-.67A3.313,3.313,0,0,0,82.52-3.491ZM84.875-3.5a4.057,4.057,0,0,1,.4-1.815,2.96,2.96,0,0,1,1.1-1.244A3.007,3.007,0,0,1,87.991-7a2.9,2.9,0,0,1,2.269.971,3.736,3.736,0,0,1,.866,2.583v.083a4.092,4.092,0,0,1-.384,1.8,2.916,2.916,0,0,1-1.1,1.241A3.041,3.041,0,0,1,88,.127a2.889,2.889,0,0,1-2.263-.971,3.718,3.718,0,0,1-.866-2.571Zm1.181.14a2.938,2.938,0,0,0,.53,1.834A1.7,1.7,0,0,0,88-.832a1.686,1.686,0,0,0,1.422-.7A3.213,3.213,0,0,0,89.953-3.5a2.933,2.933,0,0,0-.536-1.831,1.705,1.705,0,0,0-1.425-.7,1.686,1.686,0,0,0-1.4.692A3.189,3.189,0,0,0,86.055-3.358ZM96.6-1.822a.864.864,0,0,0-.359-.74,3.452,3.452,0,0,0-1.25-.454,5.912,5.912,0,0,1-1.416-.457,2.014,2.014,0,0,1-.774-.635,1.518,1.518,0,0,1-.251-.876,1.782,1.782,0,0,1,.714-1.428A2.789,2.789,0,0,1,95.088-7a2.87,2.87,0,0,1,1.895.6,1.915,1.915,0,0,1,.727,1.542H96.529a1.06,1.06,0,0,0-.409-.832,1.534,1.534,0,0,0-1.031-.349,1.606,1.606,0,0,0-1,.279.879.879,0,0,0-.362.73.712.712,0,0,0,.336.641,4.139,4.139,0,0,0,1.216.413A6.334,6.334,0,0,1,96.7-3.5a2.079,2.079,0,0,1,.809.657,1.615,1.615,0,0,1,.263.936,1.758,1.758,0,0,1-.736,1.476,3.089,3.089,0,0,1-1.911.555,3.459,3.459,0,0,1-1.46-.292,2.375,2.375,0,0,1-.993-.816,1.966,1.966,0,0,1-.359-1.133h1.174a1.216,1.216,0,0,0,.473.936,1.835,1.835,0,0,0,1.165.346A1.894,1.894,0,0,0,96.2-1.1.829.829,0,0,0,96.6-1.822ZM100.579,0H99.4V-6.868h1.174Zm-1.27-8.69a.7.7,0,0,1,.175-.482.655.655,0,0,1,.517-.2.666.666,0,0,1,.521.2.694.694,0,0,1,.178.482.671.671,0,0,1-.178.476.678.678,0,0,1-.521.19.667.667,0,0,1-.517-.19A.678.678,0,0,1,99.309-8.69Zm5.9,7.858a1.691,1.691,0,0,0,1.1-.381,1.34,1.34,0,0,0,.521-.952h1.111a2.13,2.13,0,0,1-.406,1.124,2.676,2.676,0,0,1-1,.851,2.885,2.885,0,0,1-1.323.317,2.829,2.829,0,0,1-2.231-.936,3.729,3.729,0,0,1-.828-2.561v-.2a4.135,4.135,0,0,1,.368-1.784,2.8,2.8,0,0,1,1.057-1.212A3,3,0,0,1,105.206-7a2.755,2.755,0,0,1,1.92.692,2.473,2.473,0,0,1,.816,1.8h-1.111a1.618,1.618,0,0,0-.5-1.095,1.57,1.57,0,0,0-1.12-.428,1.644,1.644,0,0,0-1.387.644,3.026,3.026,0,0,0-.492,1.863V-3.3a2.966,2.966,0,0,0,.489,1.828A1.651,1.651,0,0,0,105.212-.832ZM110.538,0h-1.174V-6.868h1.174Zm-1.27-8.69a.7.7,0,0,1,.175-.482.655.655,0,0,1,.517-.2.666.666,0,0,1,.521.2.694.694,0,0,1,.178.482.671.671,0,0,1-.178.476.678.678,0,0,1-.521.19.667.667,0,0,1-.517-.19A.678.678,0,0,1,109.269-8.69ZM112.106-3.5a4.057,4.057,0,0,1,.4-1.815,2.96,2.96,0,0,1,1.1-1.244A3.007,3.007,0,0,1,115.223-7a2.9,2.9,0,0,1,2.269.971,3.736,3.736,0,0,1,.866,2.583v.083a4.092,4.092,0,0,1-.384,1.8,2.916,2.916,0,0,1-1.1,1.241,3.041,3.041,0,0,1-1.641.444,2.889,2.889,0,0,1-2.263-.971,3.718,3.718,0,0,1-.866-2.571Zm1.181.14a2.938,2.938,0,0,0,.53,1.834,1.7,1.7,0,0,0,1.419.692,1.686,1.686,0,0,0,1.422-.7,3.213,3.213,0,0,0,.527-1.965,2.933,2.933,0,0,0-.536-1.831,1.705,1.705,0,0,0-1.425-.7,1.686,1.686,0,0,0-1.4.692A3.189,3.189,0,0,0,113.287-3.358Zm2.469-6.379h1.422l-1.7,1.866-.946,0Zm5.186,2.869L120.98-6A2.5,2.5,0,0,1,123.037-7q2.177,0,2.2,2.457V0h-1.174V-4.545a1.581,1.581,0,0,0-.34-1.1A1.361,1.361,0,0,0,122.681-6a1.7,1.7,0,0,0-1,.3,2.069,2.069,0,0,0-.673.8V0h-1.174V-6.868Zm6.087,6.252a.735.735,0,0,1,.181-.508.689.689,0,0,1,.543-.2.71.71,0,0,1,.549.2.721.721,0,0,1,.187.508.682.682,0,0,1-.187.489.723.723,0,0,1-.549.2.7.7,0,0,1-.543-.2A.7.7,0,0,1,127.029-.616Z" transform="translate(-6216 8140.279)" fill="#12263f"/>
    <g id="Grupo_81907" data-name="Grupo 81907" transform="translate(-6708.285 4656.019)">
      <rect id="Rectángulo_9129" data-name="Rectángulo 9129" width="176.763" height="47.593" transform="translate(491.996 3299)" fill="#ffa726"/>
      <g id="Grupo_56624" data-name="Grupo 56624" transform="translate(700.666 3299)">
        <rect id="Rectángulo_9130" data-name="Rectángulo 9130" width="176.763" height="47.593" fill="#fda726"/>
        <g id="Grupo_54646" data-name="Grupo 54646" transform="translate(6.381 7.194)">
          <circle id="Elipse_4098" data-name="Elipse 4098" cx="4.786" cy="4.786" r="4.786" fill="#f57c00"/>
          <circle id="Elipse_4109" data-name="Elipse 4109" cx="4.786" cy="4.786" r="4.786" transform="translate(84.234)" fill="#f57c00"/>
          <circle id="Elipse_4103" data-name="Elipse 4103" cx="4.786" cy="4.786" r="4.786" transform="translate(42.117)" fill="#f57c00"/>
          <circle id="Elipse_4106" data-name="Elipse 4106" cx="4.786" cy="4.786" r="4.786" transform="translate(126.351)" fill="#f57c00"/>
          <circle id="Elipse_4099" data-name="Elipse 4099" cx="4.786" cy="4.786" r="4.786" transform="translate(14.039)" fill="#f57c00"/>
          <circle id="Elipse_4108" data-name="Elipse 4108" cx="4.786" cy="4.786" r="4.786" transform="translate(98.273)" fill="#f57c00"/>
          <circle id="Elipse_4102" data-name="Elipse 4102" cx="4.786" cy="4.786" r="4.786" transform="translate(56.156)" fill="#f57c00"/>
          <circle id="Elipse_4105" data-name="Elipse 4105" cx="4.786" cy="4.786" r="4.786" transform="translate(140.39)" fill="#f57c00"/>
          <circle id="Elipse_4100" data-name="Elipse 4100" cx="4.786" cy="4.786" r="4.786" transform="translate(28.078)" fill="#f57c00"/>
          <circle id="Elipse_4107" data-name="Elipse 4107" cx="4.786" cy="4.786" r="4.786" transform="translate(112.312)" fill="#f57c00"/>
          <circle id="Elipse_4101" data-name="Elipse 4101" cx="4.786" cy="4.786" r="4.786" transform="translate(70.195)" fill="#f57c00"/>
          <circle id="Elipse_4104" data-name="Elipse 4104" cx="4.786" cy="4.786" r="4.786" transform="translate(154.429)" fill="#f57c00"/>
        </g>
        <g id="Grupo_54647" data-name="Grupo 54647" transform="translate(6.381 19.923)">
          <circle id="Elipse_4098-2" data-name="Elipse 4098" cx="4.786" cy="4.786" r="4.786" transform="translate(0 0)" fill="#f57c00"/>
          <circle id="Elipse_4109-2" data-name="Elipse 4109" cx="4.786" cy="4.786" r="4.786" transform="translate(84.234 0)" fill="#f57c00"/>
          <circle id="Elipse_4103-2" data-name="Elipse 4103" cx="4.786" cy="4.786" r="4.786" transform="translate(42.117 0)" fill="#f57c00"/>
          <circle id="Elipse_4106-2" data-name="Elipse 4106" cx="4.786" cy="4.786" r="4.786" transform="translate(126.351 0)" fill="#f57c00"/>
          <circle id="Elipse_4099-2" data-name="Elipse 4099" cx="4.786" cy="4.786" r="4.786" transform="translate(14.039 0)" fill="#f57c00"/>
          <circle id="Elipse_4108-2" data-name="Elipse 4108" cx="4.786" cy="4.786" r="4.786" transform="translate(98.273 0)" fill="#f57c00"/>
          <circle id="Elipse_4102-2" data-name="Elipse 4102" cx="4.786" cy="4.786" r="4.786" transform="translate(56.156 0)" fill="#f57c00"/>
          <circle id="Elipse_4105-2" data-name="Elipse 4105" cx="4.786" cy="4.786" r="4.786" transform="translate(140.39 0)" fill="#f57c00"/>
          <circle id="Elipse_4100-2" data-name="Elipse 4100" cx="4.786" cy="4.786" r="4.786" transform="translate(28.078 0)" fill="#f57c00"/>
          <circle id="Elipse_4107-2" data-name="Elipse 4107" cx="4.786" cy="4.786" r="4.786" transform="translate(112.312 0)" fill="#f57c00"/>
          <circle id="Elipse_4101-2" data-name="Elipse 4101" cx="4.786" cy="4.786" r="4.786" transform="translate(70.195 0)" fill="#f57c00"/>
          <circle id="Elipse_4104-2" data-name="Elipse 4104" cx="4.786" cy="4.786" r="4.786" transform="translate(154.429 0)" fill="#f57c00"/>
        </g>
        <g id="Grupo_54648" data-name="Grupo 54648" transform="translate(6.381 32.651)">
          <circle id="Elipse_4098-3" data-name="Elipse 4098" cx="4.786" cy="4.786" r="4.786" transform="translate(0 0)" fill="#f57c00"/>
          <circle id="Elipse_4109-3" data-name="Elipse 4109" cx="4.786" cy="4.786" r="4.786" transform="translate(84.234 0)" fill="#f57c00"/>
          <circle id="Elipse_4103-3" data-name="Elipse 4103" cx="4.786" cy="4.786" r="4.786" transform="translate(42.117 0)" fill="#f57c00"/>
          <circle id="Elipse_4106-3" data-name="Elipse 4106" cx="4.786" cy="4.786" r="4.786" transform="translate(126.351 0)" fill="#f57c00"/>
          <circle id="Elipse_4099-3" data-name="Elipse 4099" cx="4.786" cy="4.786" r="4.786" transform="translate(14.039 0)" fill="#f57c00"/>
          <circle id="Elipse_4108-3" data-name="Elipse 4108" cx="4.786" cy="4.786" r="4.786" transform="translate(98.273 0)" fill="#f57c00"/>
          <circle id="Elipse_4102-3" data-name="Elipse 4102" cx="4.786" cy="4.786" r="4.786" transform="translate(56.156 0)" fill="#f57c00"/>
          <circle id="Elipse_4105-3" data-name="Elipse 4105" cx="4.786" cy="4.786" r="4.786" transform="translate(140.39 0)" fill="#f57c00"/>
          <circle id="Elipse_4100-3" data-name="Elipse 4100" cx="4.786" cy="4.786" r="4.786" transform="translate(28.078 0)" fill="#f57c00"/>
          <circle id="Elipse_4107-3" data-name="Elipse 4107" cx="4.786" cy="4.786" r="4.786" transform="translate(112.312 0)" fill="#f57c00"/>
          <circle id="Elipse_4101-3" data-name="Elipse 4101" cx="4.786" cy="4.786" r="4.786" transform="translate(70.195 0)" fill="#f57c00"/>
          <circle id="Elipse_4104-3" data-name="Elipse 4104" cx="4.786" cy="4.786" r="4.786" transform="translate(154.429 0)" fill="#f57c00"/>
        </g>
      </g>
    </g>
    <g id="Grupo_81913" data-name="Grupo 81913" transform="translate(-6738.449 741.631)">
      <g id="Grupo_54560" data-name="Grupo 54560" transform="translate(522.16 7301.13)">
        <rect id="Rectángulo_9104" data-name="Rectángulo 9104" width="46.081" height="46.081" transform="translate(0 9.544)" fill="#ffa726"/>
        <rect id="Rectángulo_9105" data-name="Rectángulo 9105" width="46.081" height="46.081" transform="translate(52.146 32.584) rotate(-45)" fill="#ffa726"/>
      </g>
      <g id="Enmascarar_grupo_82" data-name="Enmascarar grupo 82" transform="translate(693.049 7299.657)" clip-path="url(#clip-path)">
        <circle id="Elipse_4087" data-name="Elipse 4087" cx="27.694" cy="27.694" r="27.694" transform="translate(-27.694 6.923)" fill="#ffa726"/>
        <circle id="Elipse_4088" data-name="Elipse 4088" cx="27.694" cy="27.694" r="27.694" transform="translate(34.617 6.923)" fill="#ffa726"/>
      </g>
      <g id="Grupo_54559" data-name="Grupo 54559" transform="translate(808.934 7299.657)">
        <g id="Enmascarar_grupo_83" data-name="Enmascarar grupo 83" transform="translate(0 0)" clip-path="url(#clip-path-2)">
          <circle id="Elipse_4089" data-name="Elipse 4089" cx="27.694" cy="27.694" r="27.694" transform="translate(-27.694 6.923)" fill="#ffa726"/>
        </g>
        <g id="Enmascarar_grupo_84" data-name="Enmascarar grupo 84" transform="translate(36.348 51.061) rotate(-90)" clip-path="url(#clip-path-3)">
          <circle id="Elipse_4090" data-name="Elipse 4090" cx="27.694" cy="27.694" r="27.694" transform="translate(-27.694 6.923)" fill="#ffa726"/>
        </g>
      </g>
    </g>
    <g id="Grupo_81914" data-name="Grupo 81914" transform="translate(-6737.771 3278.91)">
      <g id="Grupo_54564" data-name="Grupo 54564" transform="translate(521.771 4874.109)">
        <g id="Rectángulo_9104-2" data-name="Rectángulo 9104" transform="translate(0)" fill="none" stroke="#fc9c25" stroke-width="3">
          <rect width="46.701" height="46.701" stroke="none"/>
          <rect x="1.5" y="1.5" width="43.701" height="43.701" fill="none"/>
        </g>
        <g id="Rectángulo_9111" data-name="Rectángulo 9111" transform="translate(50.862)" fill="none" stroke="#fc9c25" stroke-width="3">
          <rect width="46.701" height="46.701" stroke="none"/>
          <rect x="1.5" y="1.5" width="43.701" height="43.701" fill="none"/>
        </g>
      </g>
      <g id="Grupo_54575" data-name="Grupo 54575" transform="translate(666.75 4874.109)">
        <g id="Rectángulo_9104-3" data-name="Rectángulo 9104" transform="translate(0)" fill="none" stroke="#fc9c25" stroke-width="3">
          <rect width="46.701" height="46.701" stroke="none"/>
          <rect x="1.5" y="1.5" width="43.701" height="43.701" fill="none"/>
        </g>
        <g id="Rectángulo_9111-2" data-name="Rectángulo 9111" transform="translate(50.862)" fill="none" stroke="#fc9c25" stroke-width="3">
          <rect width="46.701" height="46.701" stroke="none"/>
          <rect x="1.5" y="1.5" width="43.701" height="43.701" fill="none"/>
        </g>
      </g>
      <g id="Grupo_54566" data-name="Grupo 54566" transform="translate(809.352 4874.109)">
        <g id="Rectángulo_9104-4" data-name="Rectángulo 9104" transform="translate(0)" fill="none" stroke="#fc9c25" stroke-width="3">
          <rect width="46.701" height="46.701" stroke="none"/>
          <rect x="1.5" y="1.5" width="43.701" height="43.701" fill="none"/>
        </g>
        <g id="Rectángulo_9111-3" data-name="Rectángulo 9111" transform="translate(50.862)" fill="none" stroke="#fc9c25" stroke-width="3">
          <rect width="46.701" height="46.701" stroke="none"/>
          <rect x="1.5" y="1.5" width="43.701" height="43.701" fill="none"/>
        </g>
      </g>
      <circle id="Elipse_4091" data-name="Elipse 4091" cx="7.887" cy="7.887" r="7.887" transform="translate(538.056 4878.945)" fill="#ffa726"/>
      <circle id="Elipse_4093" data-name="Elipse 4093" cx="7.887" cy="7.887" r="7.887" transform="translate(671.86 4889.824)" fill="#ffa726"/>
      <circle id="Elipse_4094" data-name="Elipse 4094" cx="7.887" cy="7.887" r="7.887" transform="translate(743.658 4889.824)" fill="#ffa726"/>
      <circle id="Elipse_4095" data-name="Elipse 4095" cx="7.887" cy="7.887" r="7.887" transform="translate(825.246 4889.824)" fill="#ffa726"/>
      <circle id="Elipse_4096" data-name="Elipse 4096" cx="7.887" cy="7.887" r="7.887" transform="translate(886.165 4878.401)" fill="#ffa726"/>
      <circle id="Elipse_4092" data-name="Elipse 4092" cx="7.887" cy="7.887" r="7.887" transform="translate(588.096 4900.702)" fill="#ffa726"/>
    </g>
  </g>
</svg>
