<svg xmlns="http://www.w3.org/2000/svg" width="821" height="200" viewBox="0 0 821 200">
  <g id="Grupo_82213" data-name="Grupo 82213" transform="translate(9614 -6843)">
    <rect id="Rectángulo_35149" data-name="Rectángulo 35149" width="821" height="200" transform="translate(-9614 6843)" fill="#fff"/>
    <g id="Grupo_39563" data-name="Grupo 39563" transform="translate(-9447.281 6921.771)">
      <g id="Grupo_39555" data-name="Grupo 39555" transform="translate(27.281 -12.562)">
        <path id="Trazado_63689" data-name="Trazado 63689" d="M80.861,11.705H27.281v-53.58h53.58ZM33.756,5.23h40.63V-35.4H33.756Z" transform="translate(-27.281 41.875)" fill="#12263f"/>
      </g>
      <g id="Grupo_39556" data-name="Grupo 39556" transform="translate(34.84 -5.002)">
        <circle id="Elipse_797" data-name="Elipse 797" cx="19.231" cy="19.231" r="19.231" fill="#12263f"/>
      </g>
      <g id="Grupo_39557" data-name="Grupo 39557" transform="translate(93.957 -27.153)">
        <path id="Trazado_63690" data-name="Trazado 63690" d="M130.642,36.384H47.876V-46.382h82.766ZM54.351,29.909h69.816V-39.907H54.351Z" transform="translate(-47.876 46.382)" fill="#12263f"/>
      </g>
      <g id="Grupo_39558" data-name="Grupo 39558" transform="translate(116.327 -5.002)">
        <circle id="Elipse_798" data-name="Elipse 798" cx="19.231" cy="19.231" r="19.231" fill="#12263f"/>
      </g>
      <g id="Grupo_39559" data-name="Grupo 39559" transform="translate(194.14 -40.621)">
        <path id="Trazado_63691" data-name="Trazado 63691" d="M188.516,59.156H78.821v-109.7h109.7ZM85.3,52.681h96.745V-44.067H85.3Z" transform="translate(-78.821 50.542)" fill="#12263f"/>
      </g>
      <g id="Grupo_39560" data-name="Grupo 39560" transform="translate(229.757 -5.002)">
        <circle id="Elipse_799" data-name="Elipse 799" cx="19.231" cy="19.231" r="19.231" fill="#12263f"/>
      </g>
      <g id="Grupo_39561" data-name="Grupo 39561" transform="translate(321.253 -54.976)">
        <path id="Trazado_63692" data-name="Trazado 63692" d="M256.492,83.432H118.084V-54.976H256.492ZM124.559,76.957H250.017V-48.5H124.559Z" transform="translate(-118.084 54.976)" fill="#12263f"/>
      </g>
      <g id="Grupo_39562" data-name="Grupo 39562" transform="translate(371.227 -5.002)">
        <circle id="Elipse_800" data-name="Elipse 800" cx="19.231" cy="19.231" r="19.231" fill="#12263f"/>
      </g>
    </g>
  </g>
</svg>
