<svg xmlns="http://www.w3.org/2000/svg" width="173.688" height="107.739" viewBox="0 0 173.688 107.739">
  <g id="_81" data-name="81" transform="translate(9587.5 -8010.181)">
    <path id="Trazado_115753" data-name="Trazado 115753" d="M4.685,0A2.037,2.037,0,0,1,4.5-.616,2.22,2.22,0,0,1,2.768.127,2.439,2.439,0,0,1,1.095-.457,1.878,1.878,0,0,1,.432-1.93a1.941,1.941,0,0,1,.809-1.676A3.994,3.994,0,0,1,3.58-4.2h.844v-.394a1.132,1.132,0,0,0-.244-.762.961.961,0,0,0-.771-.286,1.093,1.093,0,0,0-.727.222.755.755,0,0,0-.263.609H.584a1.843,1.843,0,0,1,.368-1.1,2.434,2.434,0,0,1,1.041-.8A3.794,3.794,0,0,1,3.5-7a3,3,0,0,1,2.015.638,2.232,2.232,0,0,1,.746,1.793v2.977A3.284,3.284,0,0,0,6.538-.108V0ZM3.167-1.276a1.58,1.58,0,0,0,.749-.181,1.188,1.188,0,0,0,.508-.486V-3.123H3.739q-1.377,0-1.466.952l-.006.108a.734.734,0,0,0,.241.565A.937.937,0,0,0,3.167-1.276ZM7.77-.9a.924.924,0,0,1,.3-.711,1.047,1.047,0,0,1,.74-.273,1.056,1.056,0,0,1,.746.273.924.924,0,0,1,.3.711.911.911,0,0,1-.292.7A1.06,1.06,0,0,1,8.8.07,1.052,1.052,0,0,1,8.062-.2.911.911,0,0,1,7.77-.9Zm17.589-.267a3.305,3.305,0,0,1-1.454.955,6.087,6.087,0,0,1-2.082.34,4.124,4.124,0,0,1-2.1-.524,3.493,3.493,0,0,1-1.4-1.52,5.351,5.351,0,0,1-.5-2.342v-.628a5.682,5.682,0,0,1,.467-2.4A3.451,3.451,0,0,1,19.63-8.833a3.876,3.876,0,0,1,2.06-.536,3.86,3.86,0,0,1,2.571.784,3.35,3.35,0,0,1,1.1,2.282H23.505a1.843,1.843,0,0,0-.562-1.162,1.794,1.794,0,0,0-1.2-.368,1.689,1.689,0,0,0-1.479.73,3.838,3.838,0,0,0-.514,2.171v.59a3.654,3.654,0,0,0,.552,2.2,1.891,1.891,0,0,0,1.619.743,2.112,2.112,0,0,0,1.53-.457V-3.453H21.722v-1.4h3.637ZM29.942.127A3.372,3.372,0,0,1,27.482-.8a3.294,3.294,0,0,1-.949-2.469v-.178a4.149,4.149,0,0,1,.4-1.85,2.935,2.935,0,0,1,1.133-1.257A3.18,3.18,0,0,1,29.739-7a2.85,2.85,0,0,1,2.219.889,3.611,3.611,0,0,1,.809,2.52v.749H28.393a1.7,1.7,0,0,0,.536,1.079,1.621,1.621,0,0,0,1.133.406,1.98,1.98,0,0,0,1.657-.768l.9,1.009A2.754,2.754,0,0,1,31.5-.2,3.665,3.665,0,0,1,29.942.127Zm-.209-5.643a1.146,1.146,0,0,0-.885.37,1.915,1.915,0,0,0-.435,1.058h2.552v-.147a1.366,1.366,0,0,0-.33-.947A1.183,1.183,0,0,0,29.732-5.516ZM33.522-3.5a4.073,4.073,0,0,1,.394-1.822,2.881,2.881,0,0,1,1.133-1.238A3.306,3.306,0,0,1,36.766-7a3.128,3.128,0,0,1,2.269.851,3.414,3.414,0,0,1,.981,2.311l.013.47a3.59,3.59,0,0,1-.882,2.536,3.067,3.067,0,0,1-2.368.955,3.082,3.082,0,0,1-2.371-.952,3.653,3.653,0,0,1-.885-2.59Zm1.834.13a2.567,2.567,0,0,0,.368,1.5,1.215,1.215,0,0,0,1.054.518,1.217,1.217,0,0,0,1.041-.512A2.809,2.809,0,0,0,38.194-3.5a2.542,2.542,0,0,0-.375-1.488,1.217,1.217,0,0,0-1.054-.528,1.2,1.2,0,0,0-1.041.524A2.857,2.857,0,0,0,35.356-3.367Zm7.522-3.5.057.768A2.414,2.414,0,0,1,44.91-7a1.832,1.832,0,0,1,1.822,1.047A2.358,2.358,0,0,1,48.794-7a2.049,2.049,0,0,1,1.663.651A2.991,2.991,0,0,1,51-4.386V0H49.163V-4.39a1.313,1.313,0,0,0-.229-.856,1.011,1.011,0,0,0-.806-.27,1.145,1.145,0,0,0-1.143.789L46.992,0H45.157V-4.384a1.3,1.3,0,0,0-.235-.865,1.021,1.021,0,0,0-.8-.267,1.188,1.188,0,0,0-1.13.649V0H41.158V-6.868Zm12.7,7A3.372,3.372,0,0,1,53.114-.8a3.294,3.294,0,0,1-.949-2.469v-.178a4.149,4.149,0,0,1,.4-1.85A2.935,2.935,0,0,1,53.7-6.554,3.18,3.18,0,0,1,55.371-7a2.85,2.85,0,0,1,2.219.889,3.611,3.611,0,0,1,.809,2.52v.749H54.025a1.7,1.7,0,0,0,.536,1.079,1.621,1.621,0,0,0,1.133.406,1.98,1.98,0,0,0,1.657-.768l.9,1.009A2.754,2.754,0,0,1,57.135-.2,3.665,3.665,0,0,1,55.574.127Zm-.209-5.643a1.146,1.146,0,0,0-.885.37,1.915,1.915,0,0,0-.435,1.058H56.6v-.147a1.366,1.366,0,0,0-.33-.947A1.183,1.183,0,0,0,55.364-5.516Zm.165-4.234h2L55.771-7.782H54.279Zm6.106,1.193v1.688H62.81v1.346H61.636v3.428a.818.818,0,0,0,.146.546.733.733,0,0,0,.559.165,2.925,2.925,0,0,0,.54-.044v1.39a3.777,3.777,0,0,1-1.111.165A1.752,1.752,0,0,1,59.8-1.822v-3.7h-1V-6.868h1V-8.557Zm6.056,3.409a4.984,4.984,0,0,0-.66-.051,1.344,1.344,0,0,0-1.365.7V0H63.832V-6.868h1.733l.051.819A1.7,1.7,0,0,1,67.146-7a1.922,1.922,0,0,1,.571.083ZM70.51,0H68.669V-6.868H70.51ZM68.561-8.646a.9.9,0,0,1,.276-.679,1.037,1.037,0,0,1,.752-.267,1.04,1.04,0,0,1,.749.267.9.9,0,0,1,.279.679.9.9,0,0,1-.282.686,1.042,1.042,0,0,1-.746.267,1.042,1.042,0,0,1-.746-.267A.9.9,0,0,1,68.561-8.646Zm6.316,7.293a1.2,1.2,0,0,0,.825-.279.979.979,0,0,0,.33-.743h1.72a2.353,2.353,0,0,1-.381,1.279,2.513,2.513,0,0,1-1.025.9,3.208,3.208,0,0,1-1.438.321,2.982,2.982,0,0,1-2.323-.936A3.705,3.705,0,0,1,71.735-3.4v-.121a3.663,3.663,0,0,1,.844-2.533A2.947,2.947,0,0,1,74.9-7a2.889,2.889,0,0,1,2.066.733,2.6,2.6,0,0,1,.79,1.952h-1.72a1.261,1.261,0,0,0-.33-.871,1.1,1.1,0,0,0-.838-.335,1.1,1.1,0,0,0-.968.467,2.708,2.708,0,0,0-.327,1.516v.191a2.742,2.742,0,0,0,.324,1.526A1.119,1.119,0,0,0,74.877-1.352ZM82.78,0A2.037,2.037,0,0,1,82.6-.616a2.22,2.22,0,0,1-1.733.743A2.439,2.439,0,0,1,79.19-.457a1.878,1.878,0,0,1-.663-1.473,1.941,1.941,0,0,1,.809-1.676,3.994,3.994,0,0,1,2.339-.59h.844v-.394a1.132,1.132,0,0,0-.244-.762.961.961,0,0,0-.771-.286,1.093,1.093,0,0,0-.727.222.755.755,0,0,0-.263.609H78.679a1.843,1.843,0,0,1,.368-1.1,2.434,2.434,0,0,1,1.041-.8A3.794,3.794,0,0,1,81.6-7a3,3,0,0,1,2.015.638,2.232,2.232,0,0,1,.746,1.793v2.977a3.284,3.284,0,0,0,.273,1.479V0ZM81.263-1.276a1.58,1.58,0,0,0,.749-.181,1.188,1.188,0,0,0,.508-.486V-3.123h-.686q-1.377,0-1.466.952l-.006.108A.734.734,0,0,0,80.6-1.5.937.937,0,0,0,81.263-1.276ZM89.489-1.9a.591.591,0,0,0-.333-.53,3.785,3.785,0,0,0-1.07-.346q-2.45-.514-2.45-2.082a1.887,1.887,0,0,1,.759-1.527A3.06,3.06,0,0,1,88.378-7a3.293,3.293,0,0,1,2.092.616,1.94,1.94,0,0,1,.784,1.6H89.419a.888.888,0,0,0-.254-.651,1.075,1.075,0,0,0-.793-.257,1.1,1.1,0,0,0-.717.209.661.661,0,0,0-.254.533.565.565,0,0,0,.289.492,2.971,2.971,0,0,0,.974.324,7.958,7.958,0,0,1,1.155.308,1.9,1.9,0,0,1,1.454,1.847,1.792,1.792,0,0,1-.806,1.52,3.478,3.478,0,0,1-2.082.581,3.632,3.632,0,0,1-1.533-.308A2.572,2.572,0,0,1,85.8-1.025a1.962,1.962,0,0,1-.381-1.158H87.16a.958.958,0,0,0,.362.749,1.435,1.435,0,0,0,.9.26,1.328,1.328,0,0,0,.8-.2A.622.622,0,0,0,89.489-1.9Z" transform="translate(-9587.5 8019.931)" fill="#12263f"/>
    <g id="Grupo_39583" data-name="Grupo 39583" transform="translate(-9587.5 8066)">
      <g id="Grupo_39580" data-name="Grupo 39580">
        <path id="Trazado_63697" data-name="Trazado 63697" d="M228.522-90.851H176.6v-51.92h51.92ZM179.3-93.55h46.523v-46.523H179.3Z" transform="translate(-176.602 142.771)" fill="#ffa726"/>
      </g>
      <g id="Grupo_39581" data-name="Grupo 39581" transform="translate(58.441)">
        <path id="Trazado_63698" data-name="Trazado 63698" d="M264.878-90.851H234.9l-14.988-25.96,14.988-25.96h29.975l14.989,25.96Zm-28.417-2.7h26.86l13.431-23.261-13.431-23.261h-26.86l-13.429,23.261Z" transform="translate(-219.915 142.771)" fill="#ffa726"/>
      </g>
      <g id="Grupo_39582" data-name="Grupo 39582" transform="translate(122.183)">
        <path id="Trazado_63699" data-name="Trazado 63699" d="M292.91-91.265a25.783,25.783,0,0,1-25.753-25.753,25.783,25.783,0,0,1,25.753-25.752,25.781,25.781,0,0,1,25.752,25.752A25.781,25.781,0,0,1,292.91-91.265Zm0-48.807a23.08,23.08,0,0,0-23.055,23.054A23.081,23.081,0,0,0,292.91-93.964a23.08,23.08,0,0,0,23.054-23.055A23.08,23.08,0,0,0,292.91-140.072Z" transform="translate(-267.157 142.771)" fill="#ffa726"/>
      </g>
    </g>
  </g>
</svg>
