<svg xmlns="http://www.w3.org/2000/svg" width="173.688" height="115.6" viewBox="0 0 173.688 115.6">
  <g id="_82" data-name="82" transform="translate(9395.931 -8010.181)">
    <path id="Trazado_115752" data-name="Trazado 115752" d="M6.894-3.371A4.159,4.159,0,0,1,6.189-.8,2.334,2.334,0,0,1,4.221.127,2.144,2.144,0,0,1,2.438-.73L2.355,0H.7V-9.75H2.539v3.5A2.089,2.089,0,0,1,4.208-7a2.353,2.353,0,0,1,1.971.924,4.165,4.165,0,0,1,.714,2.6ZM5.059-3.51a2.747,2.747,0,0,0-.33-1.525,1.115,1.115,0,0,0-.984-.481A1.21,1.21,0,0,0,2.539-4.8v2.719a1.226,1.226,0,0,0,1.219.726,1.133,1.133,0,0,0,1.168-.879A4.546,4.546,0,0,0,5.059-3.51ZM8.119-.9a.924.924,0,0,1,.3-.711,1.047,1.047,0,0,1,.74-.273,1.056,1.056,0,0,1,.746.273.924.924,0,0,1,.3.711A.911.911,0,0,1,9.9-.2a1.06,1.06,0,0,1-.749.27A1.052,1.052,0,0,1,8.411-.2.911.911,0,0,1,8.119-.9ZM22.75-4.412a5.579,5.579,0,0,1-.482,2.393A3.633,3.633,0,0,1,20.887-.432a3.819,3.819,0,0,1-2.06.559,3.845,3.845,0,0,1-2.05-.552A3.669,3.669,0,0,1,15.38-2a5.42,5.42,0,0,1-.5-2.358v-.457a5.55,5.55,0,0,1,.492-2.4,3.663,3.663,0,0,1,1.39-1.593,3.824,3.824,0,0,1,2.053-.555,3.824,3.824,0,0,1,2.053.555,3.663,3.663,0,0,1,1.39,1.593,5.534,5.534,0,0,1,.492,2.4Zm-1.93-.419A3.889,3.889,0,0,0,20.3-7.04a1.7,1.7,0,0,0-1.485-.755,1.7,1.7,0,0,0-1.479.746,3.845,3.845,0,0,0-.527,2.187v.451a3.938,3.938,0,0,0,.521,2.2,1.692,1.692,0,0,0,1.5.781A1.677,1.677,0,0,0,20.3-2.187,3.915,3.915,0,0,0,20.82-4.38Zm7.052-.317a4.984,4.984,0,0,0-.66-.051,1.344,1.344,0,0,0-1.365.7V0H24.013V-6.868h1.733l.051.819A1.7,1.7,0,0,1,27.327-7a1.922,1.922,0,0,1,.571.083Zm.5,1.663A4.025,4.025,0,0,1,29.12-6.03,2.437,2.437,0,0,1,31.148-7a2.138,2.138,0,0,1,1.758.774l.076-.647h1.663v6.64a2.935,2.935,0,0,1-.409,1.568,2.629,2.629,0,0,1-1.152,1.016,4.05,4.05,0,0,1-1.739.349,3.766,3.766,0,0,1-1.473-.3,2.614,2.614,0,0,1-1.085-.778L29.6.508a2.149,2.149,0,0,0,1.663.768A1.573,1.573,0,0,0,32.4.885,1.464,1.464,0,0,0,32.8-.222V-.59a2.122,2.122,0,0,1-1.669.717,2.431,2.431,0,0,1-2-.968,4.024,4.024,0,0,1-.765-2.568Zm1.834.131a2.52,2.52,0,0,0,.375,1.47,1.19,1.19,0,0,0,1.028.532,1.273,1.273,0,0,0,1.2-.631v-2.9a1.27,1.27,0,0,0-1.187-.631,1.2,1.2,0,0,0-1.038.542A2.841,2.841,0,0,0,30.2-3.354ZM40.035,0a2.037,2.037,0,0,1-.184-.616,2.22,2.22,0,0,1-1.733.743,2.439,2.439,0,0,1-1.673-.584,1.878,1.878,0,0,1-.663-1.473,1.941,1.941,0,0,1,.809-1.676A3.994,3.994,0,0,1,38.93-4.2h.844v-.394a1.132,1.132,0,0,0-.244-.762.961.961,0,0,0-.771-.286,1.093,1.093,0,0,0-.727.222.755.755,0,0,0-.263.609H35.934a1.843,1.843,0,0,1,.368-1.1,2.434,2.434,0,0,1,1.041-.8A3.794,3.794,0,0,1,38.854-7a3,3,0,0,1,2.015.638,2.232,2.232,0,0,1,.746,1.793v2.977a3.284,3.284,0,0,0,.273,1.479V0ZM38.518-1.276a1.58,1.58,0,0,0,.749-.181,1.188,1.188,0,0,0,.508-.486V-3.123h-.686q-1.377,0-1.466.952l-.006.108a.734.734,0,0,0,.241.565A.937.937,0,0,0,38.518-1.276Zm.7-8.474h2L39.457-7.782H37.965Zm5.5,2.882.057.793A2.4,2.4,0,0,1,46.744-7a1.993,1.993,0,0,1,1.625.641,2.991,2.991,0,0,1,.546,1.917V0H47.081V-4.4a1.2,1.2,0,0,0-.254-.849,1.135,1.135,0,0,0-.844-.264,1.261,1.261,0,0,0-1.162.662V0H42.986V-6.868ZM52.241,0H50.4V-6.868h1.841ZM50.292-8.646a.9.9,0,0,1,.276-.679,1.037,1.037,0,0,1,.752-.267,1.04,1.04,0,0,1,.749.267.9.9,0,0,1,.279.679.9.9,0,0,1-.282.686,1.042,1.042,0,0,1-.746.267,1.042,1.042,0,0,1-.746-.267A.9.9,0,0,1,50.292-8.646Zm6.316,7.293a1.2,1.2,0,0,0,.825-.279.979.979,0,0,0,.33-.743h1.72A2.353,2.353,0,0,1,59.1-1.095a2.513,2.513,0,0,1-1.025.9A3.208,3.208,0,0,1,56.64.127a2.982,2.982,0,0,1-2.323-.936A3.705,3.705,0,0,1,53.466-3.4v-.121a3.663,3.663,0,0,1,.844-2.533A2.947,2.947,0,0,1,56.627-7a2.889,2.889,0,0,1,2.066.733,2.6,2.6,0,0,1,.79,1.952h-1.72a1.261,1.261,0,0,0-.33-.871,1.1,1.1,0,0,0-.838-.335,1.1,1.1,0,0,0-.968.467A2.708,2.708,0,0,0,55.3-3.533v.191a2.742,2.742,0,0,0,.324,1.526A1.119,1.119,0,0,0,56.608-1.352ZM64.511,0a2.037,2.037,0,0,1-.184-.616,2.22,2.22,0,0,1-1.733.743,2.439,2.439,0,0,1-1.673-.584,1.878,1.878,0,0,1-.663-1.473,1.941,1.941,0,0,1,.809-1.676,3.994,3.994,0,0,1,2.339-.59h.844v-.394a1.132,1.132,0,0,0-.244-.762.961.961,0,0,0-.771-.286,1.093,1.093,0,0,0-.727.222.755.755,0,0,0-.263.609H60.411a1.843,1.843,0,0,1,.368-1.1,2.434,2.434,0,0,1,1.041-.8A3.794,3.794,0,0,1,63.331-7a3,3,0,0,1,2.015.638,2.232,2.232,0,0,1,.746,1.793v2.977a3.284,3.284,0,0,0,.273,1.479V0ZM62.994-1.276a1.58,1.58,0,0,0,.749-.181,1.188,1.188,0,0,0,.508-.486V-3.123h-.686q-1.377,0-1.466.952l-.006.108a.734.734,0,0,0,.241.565A.937.937,0,0,0,62.994-1.276ZM71.221-1.9a.591.591,0,0,0-.333-.53,3.785,3.785,0,0,0-1.07-.346q-2.45-.514-2.45-2.082a1.887,1.887,0,0,1,.759-1.527A3.06,3.06,0,0,1,70.11-7a3.293,3.293,0,0,1,2.092.616,1.94,1.94,0,0,1,.784,1.6H71.151A.888.888,0,0,0,70.9-5.43a1.075,1.075,0,0,0-.793-.257,1.1,1.1,0,0,0-.717.209.661.661,0,0,0-.254.533.565.565,0,0,0,.289.492,2.971,2.971,0,0,0,.974.324,7.958,7.958,0,0,1,1.155.308A1.9,1.9,0,0,1,73-1.974,1.792,1.792,0,0,1,72.2-.454a3.478,3.478,0,0,1-2.082.581,3.632,3.632,0,0,1-1.533-.308,2.572,2.572,0,0,1-1.051-.844,1.962,1.962,0,0,1-.381-1.158h1.739a.958.958,0,0,0,.362.749,1.435,1.435,0,0,0,.9.26,1.328,1.328,0,0,0,.8-.2A.622.622,0,0,0,71.221-1.9Z" transform="translate(-9395.931 8019.931)" fill="#12263f"/>
    <g id="Grupo_39587" data-name="Grupo 39587" transform="translate(-9395.931 8060)">
      <g id="Grupo_39584" data-name="Grupo 39584" transform="translate(0 10.864)">
        <path id="Trazado_63700" data-name="Trazado 63700" d="M-132.172-184.484c-13.818,0-23.016-8.879-29.974-15.593-2.871-2.771-5.35-5.163-7.436-6.177-.727-.352-1.534-.729-2.391-1.13a78.012,78.012,0,0,1-10.422-5.548h0a11.171,11.171,0,0,1-4.8-7.584,10.93,10.93,0,0,1,2.366-8.577c3.748-4.619,10.635-9.57,22.165-6.939a38.066,38.066,0,0,1,14.357,6.337c4.655,3.131,7.464,5.02,20.52.98a11.393,11.393,0,0,1,11.885,2.991c5.755,5.763,7.878,17.24,4.938,26.7-2.381,7.658-7.663,12.61-14.874,13.947A34.8,34.8,0,0,1-132.172-184.484Zm-36.579-49.5a17.343,17.343,0,0,0-13.923,6.636,8.184,8.184,0,0,0-1.775,6.422,8.28,8.28,0,0,0,3.608,5.694h0A76.027,76.027,0,0,0-170.8-209.9c.871.408,1.69.789,2.428,1.148,2.484,1.205,5.11,3.74,8.153,6.676,7.534,7.272,17.849,17.238,33.876,14.263,6.149-1.14,10.671-5.417,12.731-12.043,2.613-8.4.745-18.907-4.253-23.912a8.515,8.515,0,0,0-9.1-2.3c-14.324,4.431-17.916,2.015-22.887-1.33a35.2,35.2,0,0,0-13.427-5.933A24.538,24.538,0,0,0-168.75-233.98Z" transform="translate(187.315 236.765)" fill="#ffa726"/>
      </g>
      <g id="Grupo_39585" data-name="Grupo 39585" transform="translate(78.789 1.259)">
        <path id="Trazado_63701" data-name="Trazado 63701" d="M-108.632-191.147a2.146,2.146,0,0,1-1.226-.485c-3.313-2.412-23.048-24.013-20.4-38.911,1.046-5.879,5.315-9.924,12.692-12.022,11.073-3.148,19.574.377,23.321,9.677,5.119,12.706-.2,34.382-13.714,41.568h0A1.418,1.418,0,0,1-108.632-191.147Zm-1.452-49.774a24.725,24.725,0,0,0-6.722,1.023c-6.637,1.889-10.176,5.321-10.818,10.494-1.606,12.944,15.612,32.306,19.046,35.253,11.611-6.823,16.277-26.5,11.763-37.7C-99.22-237.823-103.828-240.921-110.084-240.921Z" transform="translate(130.5 243.692)" fill="#ffa726"/>
      </g>
      <g id="Grupo_39586" data-name="Grupo 39586" transform="translate(117.117)">
        <path id="Trazado_63702" data-name="Trazado 63702" d="M-89.667-178.819a11.035,11.035,0,0,1-7.353-2.513c-4.156-3.424-6.354-9.336-5.74-15.429.549-5.431,3.262-9.939,7.257-12.061l.947-.5c7.892-4.171,14.707-7.774,15.476-18.14.539-7.3,6.83-13.077,12.825-15.558,5.894-2.441,11.574-2.033,15.195,1.09a13.085,13.085,0,0,1,4.712,9.606c.214,5.816-3.058,11.226-5.924,14.092-.7.7-1.348,1.313-1.943,1.875-3.384,3.2-4.188,3.962-2.087,8.139a11.661,11.661,0,0,0,3.981,4.146c2.826,2.087,6.03,4.453,6.03,11.885l-.021.238a14.343,14.343,0,0,1-5.657,8.676c-3.228,2.2-7.364,2.8-12.285,1.782-6.311-1.3-11.9.058-16.842,1.255A37.707,37.707,0,0,1-89.667-178.819Zm30.8-63.012a16.719,16.719,0,0,0-6.325,1.371c-5.209,2.158-10.667,7.075-11.12,13.2-.882,11.9-9.047,16.213-16.945,20.388l-.943.5c-3.176,1.685-5.343,5.382-5.8,9.889-.523,5.184,1.294,10.168,4.743,13.011,3.578,2.95,7.961,1.886,13.509.539,5.218-1.265,11.134-2.7,18.054-1.276,4.158.856,7.58.4,10.168-1.359a11.541,11.541,0,0,0,4.463-6.755c-.033-5.923-2.292-7.59-4.9-9.519a14.245,14.245,0,0,1-4.812-5.132c-3.029-6.019-.766-8.16,2.66-11.4.577-.545,1.211-1.143,1.887-1.821,2.667-2.668,5.284-7.422,5.113-12.03a10.236,10.236,0,0,0-3.753-7.606A9,9,0,0,0-58.868-241.831Z" transform="translate(102.861 244.6)" fill="#ffa726"/>
      </g>
    </g>
  </g>
</svg>
