<svg xmlns="http://www.w3.org/2000/svg" width="173.688" height="118.12" viewBox="0 0 173.688 118.12">
  <g id="_83" data-name="83" transform="translate(9190.931 -8010.181)">
    <path id="Trazado_115751" data-name="Trazado 115751" d="M3.561-1.352a1.2,1.2,0,0,0,.825-.279.979.979,0,0,0,.33-.743h1.72a2.353,2.353,0,0,1-.381,1.279,2.513,2.513,0,0,1-1.025.9A3.208,3.208,0,0,1,3.593.127,2.982,2.982,0,0,1,1.27-.809,3.705,3.705,0,0,1,.419-3.4v-.121a3.663,3.663,0,0,1,.844-2.533A2.947,2.947,0,0,1,3.58-7a2.889,2.889,0,0,1,2.066.733,2.6,2.6,0,0,1,.79,1.952H4.716a1.261,1.261,0,0,0-.33-.871,1.1,1.1,0,0,0-.838-.335,1.1,1.1,0,0,0-.968.467,2.708,2.708,0,0,0-.327,1.516v.191a2.742,2.742,0,0,0,.324,1.526A1.119,1.119,0,0,0,3.561-1.352ZM7.579-.9a.924.924,0,0,1,.3-.711,1.047,1.047,0,0,1,.74-.273,1.056,1.056,0,0,1,.746.273.924.924,0,0,1,.3.711.911.911,0,0,1-.292.7,1.06,1.06,0,0,1-.749.27A1.052,1.052,0,0,1,7.871-.2.911.911,0,0,1,7.579-.9Zm13.7-2.482H19.76V0h-1.9V-9.242H21.29a3.882,3.882,0,0,1,2.526.73,2.519,2.519,0,0,1,.889,2.063A2.843,2.843,0,0,1,24.3-4.872a2.792,2.792,0,0,1-1.241,1.006l2,3.777V0H23.01ZM19.76-4.926H21.3a1.573,1.573,0,0,0,1.111-.365A1.3,1.3,0,0,0,22.8-6.3a1.4,1.4,0,0,0-.371-1.028A1.543,1.543,0,0,0,21.29-7.7H19.76ZM29.193.127A3.372,3.372,0,0,1,26.733-.8a3.294,3.294,0,0,1-.949-2.469v-.178a4.149,4.149,0,0,1,.4-1.85,2.935,2.935,0,0,1,1.133-1.257A3.18,3.18,0,0,1,28.99-7a2.85,2.85,0,0,1,2.219.889,3.611,3.611,0,0,1,.809,2.52v.749H27.644a1.7,1.7,0,0,0,.536,1.079,1.621,1.621,0,0,0,1.133.406A1.98,1.98,0,0,0,30.97-2.12l.9,1.009A2.754,2.754,0,0,1,30.754-.2,3.665,3.665,0,0,1,29.193.127Zm-.209-5.643a1.146,1.146,0,0,0-.885.37,1.915,1.915,0,0,0-.435,1.058h2.552v-.147a1.366,1.366,0,0,0-.33-.947A1.183,1.183,0,0,0,28.983-5.516Zm6.932,4.164a1.2,1.2,0,0,0,.825-.279.979.979,0,0,0,.33-.743h1.72a2.353,2.353,0,0,1-.381,1.279,2.513,2.513,0,0,1-1.025.9,3.208,3.208,0,0,1-1.438.321,2.982,2.982,0,0,1-2.323-.936A3.705,3.705,0,0,1,32.773-3.4v-.121a3.663,3.663,0,0,1,.844-2.533A2.947,2.947,0,0,1,35.934-7,2.889,2.889,0,0,1,38-6.262a2.6,2.6,0,0,1,.79,1.952H37.07a1.261,1.261,0,0,0-.33-.871,1.1,1.1,0,0,0-.838-.335,1.1,1.1,0,0,0-.968.467,2.708,2.708,0,0,0-.327,1.516v.191a2.742,2.742,0,0,0,.324,1.526A1.119,1.119,0,0,0,35.915-1.352Zm6.119-7.2v1.688h1.174v1.346H42.034v3.428a.818.818,0,0,0,.146.546.733.733,0,0,0,.559.165,2.925,2.925,0,0,0,.54-.044v1.39a3.777,3.777,0,0,1-1.111.165A1.752,1.752,0,0,1,40.2-1.822v-3.7h-1V-6.868h1V-8.557ZM46.167,0H44.326V-6.868h1.841ZM44.218-8.646a.9.9,0,0,1,.276-.679,1.037,1.037,0,0,1,.752-.267A1.04,1.04,0,0,1,46-9.325a.9.9,0,0,1,.279.679.9.9,0,0,1-.282.686,1.042,1.042,0,0,1-.746.267A1.042,1.042,0,0,1,44.5-7.96.9.9,0,0,1,44.218-8.646ZM49.613,0H47.772V-9.75h1.841ZM53.1,0H51.27V-6.868H53.1Zm-.54-9.655h2L52.806-7.687H51.314Zm3.809,2.787.057.793A2.4,2.4,0,0,1,58.4-7a1.993,1.993,0,0,1,1.625.641,2.991,2.991,0,0,1,.546,1.917V0H58.741V-4.4a1.2,1.2,0,0,0-.254-.849,1.135,1.135,0,0,0-.844-.264,1.261,1.261,0,0,0-1.162.662V0H54.647V-6.868Zm8.753,7A3.372,3.372,0,0,1,62.667-.8a3.294,3.294,0,0,1-.949-2.469v-.178a4.149,4.149,0,0,1,.4-1.85,2.935,2.935,0,0,1,1.133-1.257A3.18,3.18,0,0,1,64.924-7a2.85,2.85,0,0,1,2.219.889,3.611,3.611,0,0,1,.809,2.52v.749H63.578a1.7,1.7,0,0,0,.536,1.079,1.621,1.621,0,0,0,1.133.406A1.98,1.98,0,0,0,66.9-2.12l.9,1.009A2.754,2.754,0,0,1,66.688-.2,3.665,3.665,0,0,1,65.127.127Zm-.209-5.643a1.146,1.146,0,0,0-.885.37A1.915,1.915,0,0,0,63.6-4.088h2.552v-.147a1.366,1.366,0,0,0-.33-.947A1.183,1.183,0,0,0,64.917-5.516ZM72.973,0a2.037,2.037,0,0,1-.184-.616,2.22,2.22,0,0,1-1.733.743,2.439,2.439,0,0,1-1.673-.584A1.878,1.878,0,0,1,68.72-1.93a1.941,1.941,0,0,1,.809-1.676,3.994,3.994,0,0,1,2.339-.59h.844v-.394a1.132,1.132,0,0,0-.244-.762.961.961,0,0,0-.771-.286,1.093,1.093,0,0,0-.727.222.755.755,0,0,0-.263.609H68.872a1.843,1.843,0,0,1,.368-1.1,2.434,2.434,0,0,1,1.041-.8A3.794,3.794,0,0,1,71.792-7a3,3,0,0,1,2.015.638,2.232,2.232,0,0,1,.746,1.793v2.977a3.284,3.284,0,0,0,.273,1.479V0ZM71.456-1.276a1.58,1.58,0,0,0,.749-.181,1.188,1.188,0,0,0,.508-.486V-3.123h-.686q-1.377,0-1.466.952l-.006.108A.734.734,0,0,0,70.8-1.5.937.937,0,0,0,71.456-1.276ZM79.682-1.9a.591.591,0,0,0-.333-.53,3.785,3.785,0,0,0-1.07-.346q-2.45-.514-2.45-2.082a1.887,1.887,0,0,1,.759-1.527A3.06,3.06,0,0,1,78.571-7a3.293,3.293,0,0,1,2.092.616,1.94,1.94,0,0,1,.784,1.6H79.612a.888.888,0,0,0-.254-.651,1.075,1.075,0,0,0-.793-.257,1.1,1.1,0,0,0-.717.209.661.661,0,0,0-.254.533.565.565,0,0,0,.289.492,2.971,2.971,0,0,0,.974.324,7.958,7.958,0,0,1,1.155.308,1.9,1.9,0,0,1,1.454,1.847,1.792,1.792,0,0,1-.806,1.52,3.478,3.478,0,0,1-2.082.581,3.632,3.632,0,0,1-1.533-.308,2.572,2.572,0,0,1-1.051-.844,1.962,1.962,0,0,1-.381-1.158h1.739a.958.958,0,0,0,.362.749,1.435,1.435,0,0,0,.9.26,1.328,1.328,0,0,0,.8-.2A.622.622,0,0,0,79.682-1.9Z" transform="translate(-9190.931 8019.931)" fill="#12263f"/>
    <g id="Grupo_39593" data-name="Grupo 39593" transform="translate(-9190.931 8056)">
      <g id="Grupo_39590" data-name="Grupo 39590" transform="translate(0 3.168)">
        <path id="Trazado_63703" data-name="Trazado 63703" d="M-15.448-227.7l-19.581-20.465-37.451-4.789,15.889-30.014,25.175,17.615L3.847-277.166Zm-53.008-27.339,34.66,4.431,17.415,18.2L-.56-272.968l-31.27,10.476L-55.677-279.18Z" transform="translate(72.48 282.967)" fill="#ffa726"/>
      </g>
      <g id="Grupo_39591" data-name="Grupo 39591" transform="translate(69.136 6.082)">
        <path id="Trazado_63704" data-name="Trazado 63704" d="M20.234-214.49l-39.121-5.594v-31.1l16.849-2.095-4.119-27.432H34.2Zm-36.541-7.832,34.516,4.934,12.806-60.741H-3.162L.906-251.041-16.307-248.9Z" transform="translate(18.887 280.708)" fill="#ffa726"/>
      </g>
      <g id="Grupo_39592" data-name="Grupo 39592" transform="translate(115.454)">
        <path id="Trazado_63705" data-name="Trazado 63705" d="M75.252-232.705H17.018l19.775-10.514L31.314-251l39.223-34.427Zm-47.886-2.58H72.432L68.42-280.131,34.758-250.586l5.827,8.272Z" transform="translate(-17.018 285.423)" fill="#ffa726"/>
      </g>
    </g>
  </g>
</svg>
