<svg xmlns="http://www.w3.org/2000/svg" width="173.688" height="112.322" viewBox="0 0 173.688 112.322">
  <g id="_84" data-name="84" transform="translate(8985.931 -8010.182)">
    <path id="Trazado_115750" data-name="Trazado 115750" d="M.419-3.485a4.139,4.139,0,0,1,.72-2.558A2.338,2.338,0,0,1,3.11-7a2.1,2.1,0,0,1,1.657.749v-3.5H6.608V0H4.951L4.862-.73A2.159,2.159,0,0,1,3.1.127,2.331,2.331,0,0,1,1.152-.828,4.272,4.272,0,0,1,.419-3.485Zm1.834.131A2.726,2.726,0,0,0,2.59-1.869a1.1,1.1,0,0,0,.978.517,1.227,1.227,0,0,0,1.2-.721V-4.8A1.21,1.21,0,0,0,3.58-5.516Q2.253-5.516,2.253-3.354ZM8.125-.9a.924.924,0,0,1,.3-.711,1.047,1.047,0,0,1,.74-.273,1.056,1.056,0,0,1,.746.273.924.924,0,0,1,.3.711.911.911,0,0,1-.292.7A1.06,1.06,0,0,1,9.16.07,1.052,1.052,0,0,1,8.417-.2.911.911,0,0,1,8.125-.9Zm12.3.9h-1.9V-9.242h1.9Zm5.5-5.148a4.984,4.984,0,0,0-.66-.051,1.344,1.344,0,0,0-1.365.7V0H22.071V-6.868H23.8l.051.819A1.7,1.7,0,0,1,25.384-7a1.922,1.922,0,0,1,.571.083Zm4.742,0a4.984,4.984,0,0,0-.66-.051,1.344,1.344,0,0,0-1.365.7V0H26.813V-6.868h1.733l.051.819A1.7,1.7,0,0,1,30.126-7a1.922,1.922,0,0,1,.571.083ZM34.595.127A3.372,3.372,0,0,1,32.135-.8a3.294,3.294,0,0,1-.949-2.469v-.178a4.149,4.149,0,0,1,.4-1.85,2.935,2.935,0,0,1,1.133-1.257A3.18,3.18,0,0,1,34.392-7a2.85,2.85,0,0,1,2.219.889,3.611,3.611,0,0,1,.809,2.52v.749H33.046a1.7,1.7,0,0,0,.536,1.079,1.621,1.621,0,0,0,1.133.406,1.98,1.98,0,0,0,1.657-.768l.9,1.009A2.754,2.754,0,0,1,36.156-.2,3.665,3.665,0,0,1,34.595.127Zm-.209-5.643a1.146,1.146,0,0,0-.885.37,1.915,1.915,0,0,0-.435,1.058h2.552v-.147a1.366,1.366,0,0,0-.33-.947A1.183,1.183,0,0,0,34.385-5.516Zm3.809,2.031a4.025,4.025,0,0,1,.752-2.545A2.437,2.437,0,0,1,40.974-7a2.138,2.138,0,0,1,1.758.774l.076-.647h1.663v6.64a2.935,2.935,0,0,1-.409,1.568A2.629,2.629,0,0,1,42.91,2.355a4.05,4.05,0,0,1-1.739.349A3.766,3.766,0,0,1,39.7,2.4a2.614,2.614,0,0,1-1.085-.778L39.425.508a2.149,2.149,0,0,0,1.663.768,1.573,1.573,0,0,0,1.136-.39,1.464,1.464,0,0,0,.406-1.108V-.59a2.122,2.122,0,0,1-1.669.717,2.431,2.431,0,0,1-2-.968,4.024,4.024,0,0,1-.765-2.568Zm1.834.131a2.52,2.52,0,0,0,.375,1.47,1.19,1.19,0,0,0,1.028.532,1.273,1.273,0,0,0,1.2-.631v-2.9a1.27,1.27,0,0,0-1.187-.631,1.2,1.2,0,0,0-1.038.542A2.841,2.841,0,0,0,40.028-3.354ZM49.994-.7a2.3,2.3,0,0,1-1.879.825A2.17,2.17,0,0,1,46.43-.508a2.71,2.71,0,0,1-.594-1.86v-4.5h1.834v4.442q0,1.074.978,1.074A1.325,1.325,0,0,0,49.931-2V-6.868h1.841V0H50.045Zm5.1.7H53.25V-9.75h1.841Zm5.491,0A2.037,2.037,0,0,1,60.4-.616a2.22,2.22,0,0,1-1.733.743,2.439,2.439,0,0,1-1.673-.584,1.878,1.878,0,0,1-.663-1.473,1.941,1.941,0,0,1,.809-1.676,3.994,3.994,0,0,1,2.339-.59h.844v-.394a1.132,1.132,0,0,0-.244-.762.961.961,0,0,0-.771-.286,1.093,1.093,0,0,0-.727.222.755.755,0,0,0-.263.609H56.481a1.843,1.843,0,0,1,.368-1.1,2.434,2.434,0,0,1,1.041-.8A3.794,3.794,0,0,1,59.4-7a3,3,0,0,1,2.015.638,2.232,2.232,0,0,1,.746,1.793v2.977a3.284,3.284,0,0,0,.273,1.479V0ZM59.065-1.276a1.58,1.58,0,0,0,.749-.181,1.188,1.188,0,0,0,.508-.486V-3.123h-.686q-1.377,0-1.466.952l-.006.108A.734.734,0,0,0,58.4-1.5.937.937,0,0,0,59.065-1.276Zm8.366-3.872a4.984,4.984,0,0,0-.66-.051,1.344,1.344,0,0,0-1.365.7V0H63.572V-6.868H65.3l.051.819A1.7,1.7,0,0,1,66.885-7a1.922,1.922,0,0,1,.571.083ZM71.354.127A3.372,3.372,0,0,1,68.894-.8a3.294,3.294,0,0,1-.949-2.469v-.178a4.149,4.149,0,0,1,.4-1.85,2.935,2.935,0,0,1,1.133-1.257A3.18,3.18,0,0,1,71.151-7a2.85,2.85,0,0,1,2.219.889,3.611,3.611,0,0,1,.809,2.52v.749H69.805a1.7,1.7,0,0,0,.536,1.079,1.621,1.621,0,0,0,1.133.406,1.98,1.98,0,0,0,1.657-.768l.9,1.009A2.754,2.754,0,0,1,72.916-.2,3.665,3.665,0,0,1,71.354.127Zm-.209-5.643a1.146,1.146,0,0,0-.885.37,1.915,1.915,0,0,0-.435,1.058h2.552v-.147a1.366,1.366,0,0,0-.33-.947A1.183,1.183,0,0,0,71.145-5.516ZM78.939-1.9a.591.591,0,0,0-.333-.53,3.785,3.785,0,0,0-1.07-.346q-2.45-.514-2.45-2.082a1.887,1.887,0,0,1,.759-1.527A3.06,3.06,0,0,1,77.829-7a3.293,3.293,0,0,1,2.092.616,1.94,1.94,0,0,1,.784,1.6H78.87a.888.888,0,0,0-.254-.651,1.075,1.075,0,0,0-.793-.257,1.1,1.1,0,0,0-.717.209.661.661,0,0,0-.254.533.565.565,0,0,0,.289.492,2.971,2.971,0,0,0,.974.324,7.958,7.958,0,0,1,1.155.308,1.9,1.9,0,0,1,1.454,1.847,1.792,1.792,0,0,1-.806,1.52,3.478,3.478,0,0,1-2.082.581A3.632,3.632,0,0,1,76.3-.181a2.572,2.572,0,0,1-1.051-.844,1.962,1.962,0,0,1-.381-1.158H76.61a.958.958,0,0,0,.362.749,1.435,1.435,0,0,0,.9.26,1.328,1.328,0,0,0,.8-.2A.622.622,0,0,0,78.939-1.9Z" transform="translate(-8979.966 8019.932)" fill="#12263f"/>
    <g id="Grupo_39596" data-name="Grupo 39596" transform="translate(-8985.931 8062)">
      <g id="Grupo_39594" data-name="Grupo 39594">
        <path id="Trazado_63706" data-name="Trazado 63706" d="M-61.646-408.132H-86.663L-121.53-428.9l52.813-39.734,35.083,5.431-16.142,50.495-1.458-3.428c-.039-.093-4.042-9.31-9.883-6.892a3.433,3.433,0,0,0-2.1,2.175c-1.061,3.247,1.63,8.768,2.756,10.62l1.278,2.1ZM-85.9-410.9h21.95c-1.281-2.655-3.05-7.289-1.9-10.811a6.139,6.139,0,0,1,3.676-3.876c5.23-2.168,9.462,1.65,11.891,5.384l13.031-40.763-30.731-4.757-48.587,36.553Z" transform="translate(121.53 468.635)" fill="#ffa726"/>
      </g>
      <g id="Grupo_39595" data-name="Grupo 39595" transform="translate(97.758 2.815)">
        <path id="Trazado_63707" data-name="Trazado 63707" d="M-50.862-408.912-24.8-453.036l.483-.166c.5-.17,12.2-4.125,18.169.187,1.773,1.281,4.656,1.363,7.915.224,4.543-1.589,8.375-5.055,9.318-8.429l1.5-5.38,12.478,57.688Zm27.923-41.831-23.076,39.064H21.64l-9.751-45.075a20.029,20.029,0,0,1-9.208,6.574c-4.122,1.442-7.931,1.226-10.448-.593C-11.563-453.515-19.583-451.8-22.939-450.743Z" transform="translate(50.862 466.6)" fill="#ffa726"/>
      </g>
    </g>
  </g>
</svg>
