<svg xmlns="http://www.w3.org/2000/svg" xmlns:xlink="http://www.w3.org/1999/xlink" width="1284" height="1016" viewBox="0 0 1284 1016">
  <defs>
    <filter id="Elipse_4113" x="317.663" y="610.584" width="264.47" height="265.471" filterUnits="userSpaceOnUse">
      <feOffset dx="-3" dy="7" input="SourceAlpha"/>
      <feGaussianBlur stdDeviation="2" result="blur"/>
      <feFlood flood-color="#7c7b7b" flood-opacity="0.502"/>
      <feComposite operator="in" in2="blur"/>
      <feComposite in="SourceGraphic"/>
    </filter>
    <filter id="Elipse_4115" x="655.374" y="615.498" width="254.645" height="255.645" filterUnits="userSpaceOnUse">
      <feOffset dx="-3" dy="7" input="SourceAlpha"/>
      <feGaussianBlur stdDeviation="2" result="blur-2"/>
      <feFlood flood-color="#7c7b7b" flood-opacity="0.502"/>
      <feComposite operator="in" in2="blur-2"/>
      <feComposite in="SourceGraphic"/>
    </filter>
    <filter id="Trazado_102292" x="758.6" y="298.451" width="254.668" height="255.699" filterUnits="userSpaceOnUse">
      <feOffset dx="-3" dy="7" input="SourceAlpha"/>
      <feGaussianBlur stdDeviation="2" result="blur-3"/>
      <feFlood flood-color="#7c7b7b" flood-opacity="0.502"/>
      <feComposite operator="in" in2="blur-3"/>
      <feComposite in="SourceGraphic"/>
    </filter>
    <filter id="Trazado_102294" x="489.437" y="102.953" width="254.627" height="255.66" filterUnits="userSpaceOnUse">
      <feOffset dx="-3" dy="7" input="SourceAlpha"/>
      <feGaussianBlur stdDeviation="2" result="blur-4"/>
      <feFlood flood-color="#7c7b7b" flood-opacity="0.502"/>
      <feComposite operator="in" in2="blur-4"/>
      <feComposite in="SourceGraphic"/>
    </filter>
    <filter id="Trazado_102296" x="220.711" y="298.564" width="254.63" height="255.66" filterUnits="userSpaceOnUse">
      <feOffset dx="-3" dy="7" input="SourceAlpha"/>
      <feGaussianBlur stdDeviation="2" result="blur-5"/>
      <feFlood flood-color="#7c7b7b" flood-opacity="0.502"/>
      <feComposite operator="in" in2="blur-5"/>
      <feComposite in="SourceGraphic"/>
    </filter>
  </defs>
  <g id="Grupo_82215" data-name="Grupo 82215" transform="translate(-180 -20682)">
    <g id="Grupo_54730" data-name="Grupo 54730" transform="translate(6 8365.616)">
      <circle id="Elipse_4017" data-name="Elipse 4017" cx="254.209" cy="254.209" r="254.209" transform="translate(539.4 12564.387)" fill="#ffa726"/>
      <g id="Grupo_54720" data-name="Grupo 54720" transform="translate(347.433 12363.699)">
        <g transform="matrix(1, 0, 0, 1, -173.43, -47.32)" filter="url(#Elipse_4113)">
          <circle id="Elipse_4113-2" data-name="Elipse 4113" cx="121.322" cy="121.322" r="121.322" transform="translate(326.66 620.62) rotate(-2.37)" fill="#26ccda"/>
        </g>
        <path id="Trazado_102298" data-name="Trazado 102298" d="M108.933,0A108.933,108.933,0,1,1,0,108.933,108.933,108.933,0,0,1,108.933,0Z" transform="matrix(1, -0.015, 0.015, 1, 168.865, 582.264)" fill="#f6f6f6"/>
        <g transform="matrix(1, 0, 0, 1, -173.43, -47.32)" filter="url(#Elipse_4115)">
          <circle id="Elipse_4115-2" data-name="Elipse 4115" cx="121.322" cy="121.322" r="121.322" transform="translate(664.37 615.5)" fill="#26ccda"/>
        </g>
        <path id="Trazado_102291" data-name="Trazado 102291" d="M387.112,534.064A108.933,108.933,0,1,1,496.046,425.13,109.056,109.056,0,0,1,387.112,534.064Z" transform="translate(225.15 264.374)" fill="#f6f6f6"/>
        <g transform="matrix(1, 0, 0, 1, -173.43, -47.32)" filter="url(#Trazado_102292)">
          <path id="Trazado_102292-2" data-name="Trazado 102292" d="M444.582,152.676a121.338,121.338,0,1,1-115.364,83.859A121.181,121.181,0,0,1,444.582,152.676Z" transform="translate(444.33 145.78)" fill="#26ccda"/>
        </g>
        <path id="Trazado_102293" data-name="Trazado 102293" d="M438.394,376.747a108.951,108.951,0,1,1,103.585-75.3A108.815,108.815,0,0,1,438.394,376.747Z" transform="translate(277.126 104.7)" fill="#f6f6f6"/>
        <g transform="matrix(1, 0, 0, 1, -173.43, -47.32)" filter="url(#Trazado_102294)">
          <path id="Trazado_102294-2" data-name="Trazado 102294" d="M311.024,55.636a121.328,121.328,0,0,1,98.07,192.641A121.767,121.767,0,0,1,310.861,298.3a121.332,121.332,0,0,1-98.068-192.641A121.763,121.763,0,0,1,311.024,55.636Z" transform="translate(308.77 47.32)" fill="#26ccda"/>
        </g>
        <path id="Trazado_102295" data-name="Trazado 102295" d="M304.624,279.667A108.941,108.941,0,0,1,216.578,106.7a109.34,109.34,0,0,1,88.211-44.912,108.938,108.938,0,0,1,88.046,172.969A109.34,109.34,0,0,1,304.624,279.667Z" transform="translate(141.577 6.24)" fill="#f6f6f6"/>
        <g transform="matrix(1, 0, 0, 1, -173.43, -47.32)" filter="url(#Trazado_102296)">
          <path id="Trazado_102296-2" data-name="Trazado 102296" d="M177.547,152.733a121.328,121.328,0,0,1,71.395,219.48,120.462,120.462,0,0,1-71.229,23.178,121.771,121.771,0,0,1-98.236-50.017,121.333,121.333,0,0,1,98.07-192.641Z" transform="translate(173.43 145.83)" fill="#26ccda"/>
        </g>
        <path id="Trazado_102297" data-name="Trazado 102297" d="M171.472,376.765a109.337,109.337,0,0,1-88.211-44.912,108.944,108.944,0,0,1,88.046-172.97,108.941,108.941,0,0,1,64.112,197.072A108.14,108.14,0,0,1,171.472,376.765Z" transform="translate(6.24 104.757)" fill="#f6f6f6"/>
      </g>
      <circle id="Elipse_4018" data-name="Elipse 4018" cx="194.278" cy="194.278" r="194.278" transform="translate(599.4 12624.387)" fill="#fdd835"/>
      <circle id="Elipse_4019" data-name="Elipse 4019" cx="188.446" cy="188.446" r="188.446" transform="translate(605.711 12630.219)" fill="#fff"/>
      <path id="Trazado_115755" data-name="Trazado 115755" d="M24.363,17.223a6.231,6.231,0,0,1-.961,3.146,5.8,5.8,0,0,1-2.467,2.115,8.4,8.4,0,0,1-3.627.75,6.7,6.7,0,0,1-5.3-2.191,9.048,9.048,0,0,1-1.934-6.187v-.844a10.328,10.328,0,0,1,.873-4.389,6.615,6.615,0,0,1,2.514-2.906,7.013,7.013,0,0,1,3.8-1.025,7.354,7.354,0,0,1,4.992,1.635A6.459,6.459,0,0,1,24.4,11.832H20.3a3.056,3.056,0,0,0-.785-2.238,3.229,3.229,0,0,0-2.25-.68,2.457,2.457,0,0,0-2.25,1.148,7.381,7.381,0,0,0-.75,3.668v1.207a8.167,8.167,0,0,0,.686,3.9,2.509,2.509,0,0,0,2.361,1.172,3.159,3.159,0,0,0,2.168-.668,2.835,2.835,0,0,0,.8-2.121ZM33.8,13.895,32.5,13.8a2.336,2.336,0,0,0-2.391,1.172V23H26.156V10.32h3.7l.129,1.629a3.058,3.058,0,0,1,2.777-1.863,3.851,3.851,0,0,1,1.1.141Zm7.336,9.34a6.518,6.518,0,0,1-4.723-1.74,6.009,6.009,0,0,1-1.8-4.529v-.328a7.787,7.787,0,0,1,.721-3.434,5.274,5.274,0,0,1,2.1-2.3,6.35,6.35,0,0,1,3.281-.814,5.489,5.489,0,0,1,4.219,1.658,6.516,6.516,0,0,1,1.547,4.623V17.9H38.625a2.846,2.846,0,0,0,.926,1.676,2.755,2.755,0,0,0,1.852.609,3.549,3.549,0,0,0,2.93-1.312l1.8,2.133a5.045,5.045,0,0,1-2.092,1.623A7.069,7.069,0,0,1,41.133,23.234Zm-.445-10.1q-1.734,0-2.062,2.3h3.984v-.3a1.956,1.956,0,0,0-.48-1.471A1.912,1.912,0,0,0,40.688,13.133ZM52.23,23H48.27V10.32H52.23Zm-4.2-15.961a1.778,1.778,0,0,1,.609-1.391,2.579,2.579,0,0,1,3.164,0,1.778,1.778,0,0,1,.609,1.391,1.778,1.778,0,0,1-.609,1.391,2.579,2.579,0,0,1-3.164,0A1.778,1.778,0,0,1,48.035,7.039Zm18.4,9.727a7.728,7.728,0,0,1-1.289,4.793,4.318,4.318,0,0,1-3.633,1.676A3.747,3.747,0,0,1,58.395,21.7L58.23,23H54.691V5h3.949v6.34a3.615,3.615,0,0,1,2.848-1.254,4.319,4.319,0,0,1,3.656,1.7,7.768,7.768,0,0,1,1.289,4.781Zm-3.961-.252a5.155,5.155,0,0,0-.486-2.6,1.639,1.639,0,0,0-1.494-.778,1.891,1.891,0,0,0-1.852,1.018v5.031a1.9,1.9,0,0,0,1.875,1.006,1.677,1.677,0,0,0,1.77-1.357A9.745,9.745,0,0,0,62.473,16.514ZM72.34,23H68.379V5H72.34Zm8.566.234a6.518,6.518,0,0,1-4.723-1.74,6.009,6.009,0,0,1-1.8-4.529v-.328A7.787,7.787,0,0,1,75.1,13.2a5.274,5.274,0,0,1,2.1-2.3,6.35,6.35,0,0,1,3.281-.814A5.489,5.489,0,0,1,84.7,11.744a6.516,6.516,0,0,1,1.547,4.623V17.9H78.4a2.846,2.846,0,0,0,.926,1.676,2.755,2.755,0,0,0,1.852.609,3.549,3.549,0,0,0,2.93-1.312l1.8,2.133a5.045,5.045,0,0,1-2.092,1.623A7.069,7.069,0,0,1,80.906,23.234Zm-.445-10.1q-1.734,0-2.062,2.3h3.984v-.3a1.956,1.956,0,0,0-.48-1.471A1.912,1.912,0,0,0,80.461,13.133Z" transform="translate(474.711 12771.387)" fill="#12263f"/>
      <path id="Trazado_115754" data-name="Trazado 115754" d="M-13.523-5.777a6.231,6.231,0,0,1-.961,3.146A5.8,5.8,0,0,1-16.951-.516a8.4,8.4,0,0,1-3.627.75,6.7,6.7,0,0,1-5.3-2.191,9.048,9.048,0,0,1-1.934-6.187v-.844a10.328,10.328,0,0,1,.873-4.389,6.615,6.615,0,0,1,2.514-2.906,7.013,7.013,0,0,1,3.8-1.025,7.354,7.354,0,0,1,4.992,1.635,6.459,6.459,0,0,1,2.145,4.506h-4.1a3.056,3.056,0,0,0-.785-2.238,3.229,3.229,0,0,0-2.25-.68,2.457,2.457,0,0,0-2.25,1.148,7.381,7.381,0,0,0-.75,3.668v1.207a8.167,8.167,0,0,0,.686,3.9,2.509,2.509,0,0,0,2.361,1.172,3.159,3.159,0,0,0,2.168-.668,2.835,2.835,0,0,0,.8-2.121ZM-7.594,0h-3.961V-18h3.961ZM1.98,0a4.459,4.459,0,0,1-.375-1.137A3.672,3.672,0,0,1-1.441.234,4.5,4.5,0,0,1-4.488-.85,3.45,3.45,0,0,1-5.742-3.574,3.546,3.546,0,0,1-4.219-6.691,7.761,7.761,0,0,1,.211-7.746H1.43v-.671q0-1.755-1.512-1.755a1.236,1.236,0,0,0-1.406,1.39H-5.437a3.54,3.54,0,0,1,1.564-2.985,6.575,6.575,0,0,1,3.99-1.147A5.764,5.764,0,0,1,3.949-11.73,4.115,4.115,0,0,1,5.391-8.484v5.613A5.748,5.748,0,0,0,5.93-.2V0ZM-.492-2.578A2.2,2.2,0,0,0,.732-2.895a1.983,1.983,0,0,0,.7-.715V-5.637H.281q-2.062,0-2.062,1.852a1.131,1.131,0,0,0,.363.873A1.315,1.315,0,0,0-.492-2.578ZM15.246-9.105l-1.3-.094a2.336,2.336,0,0,0-2.391,1.172V0H7.605V-12.68h3.7l.129,1.629a3.058,3.058,0,0,1,2.777-1.863,3.851,3.851,0,0,1,1.1.141Zm.5,2.648a7.484,7.484,0,0,1,.738-3.381,5.28,5.28,0,0,1,2.121-2.279,6.388,6.388,0,0,1,3.246-.8,5.83,5.83,0,0,1,4.488,1.764,6.768,6.768,0,0,1,1.641,4.8v.141a6.566,6.566,0,0,1-1.646,4.705A5.846,5.846,0,0,1,21.879.234a5.912,5.912,0,0,1-4.348-1.623,6.348,6.348,0,0,1-1.77-4.4Zm3.949.246a4.718,4.718,0,0,0,.551,2.578,1.835,1.835,0,0,0,1.629.82q2.109,0,2.156-3.246v-.4q0-3.41-2.18-3.41-1.98,0-2.145,2.941Z" transform="translate(793.275 12600.172)" fill="#12263f"/>
      <path id="Trazado_115759" data-name="Trazado 115759" d="M-37.652,0V-17.062h5.5a8.085,8.085,0,0,1,4.066,1.025,7.208,7.208,0,0,1,2.818,2.895,8.739,8.739,0,0,1,1.025,4.189v.785a8.79,8.79,0,0,1-.99,4.2,7.239,7.239,0,0,1-2.789,2.906A7.907,7.907,0,0,1-32.039,0Zm4.113-13.887V-3.164h1.43a3.2,3.2,0,0,0,2.719-1.26,6.173,6.173,0,0,0,.949-3.744v-.738a6.123,6.123,0,0,0-.949-3.727,3.256,3.256,0,0,0-2.766-1.254ZM-18.152,0h-3.961V-12.68h3.961Zm-4.2-15.961a1.778,1.778,0,0,1,.609-1.391,2.29,2.29,0,0,1,1.582-.542,2.29,2.29,0,0,1,1.582.542,1.778,1.778,0,0,1,.609,1.391,1.778,1.778,0,0,1-.609,1.391,2.29,2.29,0,0,1-1.582.542,2.29,2.29,0,0,1-1.582-.542A1.778,1.778,0,0,1-22.348-15.961Zm14.3,6.855-1.3-.094a2.336,2.336,0,0,0-2.391,1.172V0h-3.949V-12.68h3.7l.129,1.629a3.058,3.058,0,0,1,2.777-1.863,3.851,3.851,0,0,1,1.1.141ZM-.715.234a6.518,6.518,0,0,1-4.723-1.74,6.009,6.009,0,0,1-1.8-4.529v-.328A7.787,7.787,0,0,1-6.521-9.8a5.274,5.274,0,0,1,2.1-2.3,6.35,6.35,0,0,1,3.281-.814,5.489,5.489,0,0,1,4.219,1.658A6.516,6.516,0,0,1,4.629-6.633V-5.1H-3.223A2.846,2.846,0,0,0-2.3-3.422a2.755,2.755,0,0,0,1.852.609,3.549,3.549,0,0,0,2.93-1.312l1.8,2.133A5.045,5.045,0,0,1,2.2-.369,7.069,7.069,0,0,1-.715.234Zm-.445-10.1q-1.734,0-2.062,2.3H.762v-.3a1.956,1.956,0,0,0-.48-1.471A1.912,1.912,0,0,0-1.16-9.867ZM11.578-2.812a1.756,1.756,0,0,0,1.289-.451,1.654,1.654,0,0,0,.445-1.26h3.7A4.384,4.384,0,0,1,15.521-1.1,5.558,5.558,0,0,1,11.672.234,5.627,5.627,0,0,1,7.313-1.5,6.834,6.834,0,0,1,5.719-6.3v-.164a7.723,7.723,0,0,1,.709-3.393,5.162,5.162,0,0,1,2.045-2.262,6.1,6.1,0,0,1,3.164-.791,5.488,5.488,0,0,1,3.926,1.371,4.863,4.863,0,0,1,1.453,3.715h-3.7a2.168,2.168,0,0,0-.48-1.512,1.658,1.658,0,0,0-1.289-.527q-1.535,0-1.793,1.957A13.809,13.809,0,0,0,9.668-6.2a5.424,5.424,0,0,0,.457,2.648A1.582,1.582,0,0,0,11.578-2.812Zm11.707-13.02v3.152h2.086v2.742H23.285v5.8a1.481,1.481,0,0,0,.258,1,1.383,1.383,0,0,0,1.02.281,5.793,5.793,0,0,0,.984-.07V-.105a7.288,7.288,0,0,1-2.227.34,4.137,4.137,0,0,1-3.012-.961,3.939,3.939,0,0,1-.973-2.918V-9.937H17.719V-12.68h1.617v-3.152Zm2.789,9.375a7.484,7.484,0,0,1,.738-3.381,5.28,5.28,0,0,1,2.121-2.279,6.388,6.388,0,0,1,3.246-.8,5.83,5.83,0,0,1,4.488,1.764,6.768,6.768,0,0,1,1.641,4.8v.141a6.566,6.566,0,0,1-1.646,4.705A5.846,5.846,0,0,1,32.2.234a5.912,5.912,0,0,1-4.348-1.623,6.348,6.348,0,0,1-1.77-4.4Zm3.949.246a4.718,4.718,0,0,0,.551,2.578,1.835,1.835,0,0,0,1.629.82q2.109,0,2.156-3.246v-.4q0-3.41-2.18-3.41-1.98,0-2.145,2.941Z" transform="translate(621.711 13122.672)" fill="#12263f"/>
      <path id="Trazado_115758" data-name="Trazado 115758" d="M-46.377-6.8H-53.01V0h-4.113V-17.062h11.414v3.176h-7.3v3.926h6.633Zm1.453.34a7.484,7.484,0,0,1,.738-3.381,5.28,5.28,0,0,1,2.121-2.279,6.388,6.388,0,0,1,3.246-.8A5.83,5.83,0,0,1-34.33-11.15a6.768,6.768,0,0,1,1.641,4.8v.141a6.566,6.566,0,0,1-1.646,4.705A5.846,5.846,0,0,1-38.795.234a5.912,5.912,0,0,1-4.348-1.623,6.348,6.348,0,0,1-1.77-4.4Zm3.949.246a4.718,4.718,0,0,0,.551,2.578,1.835,1.835,0,0,0,1.629.82q2.109,0,2.156-3.246v-.4q0-3.41-2.18-3.41-1.98,0-2.145,2.941Zm15.387,3.4A1.756,1.756,0,0,0-24.3-3.264a1.654,1.654,0,0,0,.445-1.26h3.7A4.384,4.384,0,0,1-21.645-1.1,5.558,5.558,0,0,1-25.494.234,5.627,5.627,0,0,1-29.854-1.5a6.834,6.834,0,0,1-1.594-4.8v-.164a7.723,7.723,0,0,1,.709-3.393,5.162,5.162,0,0,1,2.045-2.262,6.1,6.1,0,0,1,3.164-.791A5.488,5.488,0,0,1-21.6-11.543,4.863,4.863,0,0,1-20.15-7.828h-3.7a2.168,2.168,0,0,0-.48-1.512,1.658,1.658,0,0,0-1.289-.527q-1.535,0-1.793,1.957A13.809,13.809,0,0,0-27.5-6.2a5.424,5.424,0,0,0,.457,2.648A1.582,1.582,0,0,0-25.588-2.812ZM-11.338,0a4.459,4.459,0,0,1-.375-1.137A3.672,3.672,0,0,1-14.76.234,4.5,4.5,0,0,1-17.807-.85a3.45,3.45,0,0,1-1.254-2.725,3.546,3.546,0,0,1,1.523-3.117,7.761,7.761,0,0,1,4.43-1.055h1.219v-.671q0-1.755-1.512-1.755a1.236,1.236,0,0,0-1.406,1.39h-3.949a3.54,3.54,0,0,1,1.564-2.985,6.575,6.575,0,0,1,3.99-1.147A5.764,5.764,0,0,1-9.369-11.73,4.115,4.115,0,0,1-7.928-8.484v5.613A5.748,5.748,0,0,0-7.389-.2V0Zm-2.473-2.578a2.2,2.2,0,0,0,1.225-.316,1.983,1.983,0,0,0,.7-.715V-5.637h-1.148q-2.062,0-2.062,1.852a1.131,1.131,0,0,0,.363.873A1.315,1.315,0,0,0-13.811-2.578ZM-1.576,0H-5.537V-18h3.961Zm6.6,0H1.061V-12.68H5.021ZM.826-15.961a1.778,1.778,0,0,1,.609-1.391,2.29,2.29,0,0,1,1.582-.542,2.29,2.29,0,0,1,1.582.542,1.778,1.778,0,0,1,.609,1.391A1.778,1.778,0,0,1,4.6-14.57a2.29,2.29,0,0,1-1.582.542,2.29,2.29,0,0,1-1.582-.542A1.778,1.778,0,0,1,.826-15.961ZM12.111-3.047h5.777V0H7.119V-2.2l5.625-7.43H7.365V-12.68H17.76v2.133ZM26.947,0a4.459,4.459,0,0,1-.375-1.137A3.672,3.672,0,0,1,23.525.234,4.5,4.5,0,0,1,20.479-.85a3.45,3.45,0,0,1-1.254-2.725,3.546,3.546,0,0,1,1.523-3.117,7.761,7.761,0,0,1,4.43-1.055H26.4v-.671q0-1.755-1.512-1.755a1.236,1.236,0,0,0-1.406,1.39H19.529a3.54,3.54,0,0,1,1.564-2.985,6.575,6.575,0,0,1,3.99-1.147,5.764,5.764,0,0,1,3.832,1.184,4.115,4.115,0,0,1,1.441,3.246v5.613A5.748,5.748,0,0,0,30.9-.2V0ZM24.475-2.578A2.2,2.2,0,0,0,25.7-2.895a1.983,1.983,0,0,0,.7-.715V-5.637H25.248q-2.062,0-2.062,1.852a1.131,1.131,0,0,0,.363.873A1.315,1.315,0,0,0,24.475-2.578Zm7.57-3.855a7.746,7.746,0,0,1,1.3-4.746,4.282,4.282,0,0,1,3.633-1.734,3.641,3.641,0,0,1,2.859,1.336V-18H43.8V0H40.248l-.2-1.359A3.739,3.739,0,0,1,36.955.234,4.274,4.274,0,0,1,33.369-1.5,7.991,7.991,0,0,1,32.045-6.434Zm3.949.246q0,3.375,1.969,3.375a1.944,1.944,0,0,0,1.875-1.1V-8.742a1.892,1.892,0,0,0-1.852-1.125q-1.828,0-1.98,2.953Zm9.551-.27a7.484,7.484,0,0,1,.738-3.381A5.28,5.28,0,0,1,48.4-12.117a6.388,6.388,0,0,1,3.246-.8,5.83,5.83,0,0,1,4.488,1.764,6.768,6.768,0,0,1,1.641,4.8v.141a6.566,6.566,0,0,1-1.646,4.705A5.846,5.846,0,0,1,51.674.234a5.912,5.912,0,0,1-4.348-1.623,6.348,6.348,0,0,1-1.77-4.4Zm3.949.246a4.718,4.718,0,0,0,.551,2.578,1.835,1.835,0,0,0,1.629.82q2.109,0,2.156-3.246v-.4q0-3.41-2.18-3.41-1.98,0-2.145,2.941Z" transform="translate(957.711 13124.672)" fill="#12263f"/>
      <path id="Trazado_115757" data-name="Trazado 115757" d="M26.295,17.223a6.231,6.231,0,0,1-.961,3.146,5.8,5.8,0,0,1-2.467,2.115,8.4,8.4,0,0,1-3.627.75,6.7,6.7,0,0,1-5.3-2.191,9.048,9.048,0,0,1-1.934-6.187v-.844a10.328,10.328,0,0,1,.873-4.389A6.615,6.615,0,0,1,15.4,6.717a7.013,7.013,0,0,1,3.8-1.025,7.354,7.354,0,0,1,4.992,1.635,6.459,6.459,0,0,1,2.145,4.506h-4.1a3.056,3.056,0,0,0-.785-2.238,3.229,3.229,0,0,0-2.25-.68,2.457,2.457,0,0,0-2.25,1.148,7.381,7.381,0,0,0-.75,3.668v1.207a8.167,8.167,0,0,0,.686,3.9,2.509,2.509,0,0,0,2.361,1.172,3.159,3.159,0,0,0,2.168-.668,2.835,2.835,0,0,0,.8-2.121Zm1.266-.68a7.484,7.484,0,0,1,.738-3.381,5.28,5.28,0,0,1,2.121-2.279,6.388,6.388,0,0,1,3.246-.8,5.83,5.83,0,0,1,4.488,1.764,6.768,6.768,0,0,1,1.641,4.8v.141a6.566,6.566,0,0,1-1.646,4.705,5.846,5.846,0,0,1-4.459,1.74,5.912,5.912,0,0,1-4.348-1.623,6.348,6.348,0,0,1-1.77-4.4Zm3.949.246a4.718,4.718,0,0,0,.551,2.578,1.835,1.835,0,0,0,1.629.82q2.109,0,2.156-3.246v-.4q0-3.41-2.18-3.41-1.98,0-2.145,2.941ZM45.162,10.32l.129,1.488a4.3,4.3,0,0,1,3.621-1.723,3.618,3.618,0,0,1,2.959,1.184,5.635,5.635,0,0,1,1.014,3.563V23H48.924V15a2.14,2.14,0,0,0-.387-1.412,1.789,1.789,0,0,0-1.406-.451,1.883,1.883,0,0,0-1.723.914V23H41.459V10.32Zm15.27,9.867a1.756,1.756,0,0,0,1.289-.451,1.654,1.654,0,0,0,.445-1.26h3.7A4.384,4.384,0,0,1,64.375,21.9a5.558,5.558,0,0,1-3.85,1.336A5.627,5.627,0,0,1,56.166,21.5a6.834,6.834,0,0,1-1.594-4.8v-.164a7.723,7.723,0,0,1,.709-3.393,5.162,5.162,0,0,1,2.045-2.262,6.1,6.1,0,0,1,3.164-.791,5.488,5.488,0,0,1,3.926,1.371,4.863,4.863,0,0,1,1.453,3.715h-3.7a2.168,2.168,0,0,0-.48-1.512,1.658,1.658,0,0,0-1.289-.527q-1.535,0-1.793,1.957a13.809,13.809,0,0,0-.082,1.711,5.424,5.424,0,0,0,.457,2.648A1.582,1.582,0,0,0,60.432,20.188ZM71.705,23H67.744V10.32h3.961ZM67.51,7.039a1.778,1.778,0,0,1,.609-1.391,2.579,2.579,0,0,1,3.164,0,1.778,1.778,0,0,1,.609,1.391,1.778,1.778,0,0,1-.609,1.391,2.579,2.579,0,0,1-3.164,0A1.778,1.778,0,0,1,67.51,7.039Zm13.266,12.4a.912.912,0,0,0-.527-.809,8.021,8.021,0,0,0-2-.633,9.138,9.138,0,0,1-2.437-.861,4.083,4.083,0,0,1-1.465-1.295,3.092,3.092,0,0,1-.5-1.746,3.5,3.5,0,0,1,1.441-2.877,5.938,5.938,0,0,1,3.773-1.131,6.579,6.579,0,0,1,4.031,1.137,3.555,3.555,0,0,1,1.523,2.988H80.646q0-1.523-1.605-1.523A1.591,1.591,0,0,0,78,13.033a1.07,1.07,0,0,0-.422.861.982.982,0,0,0,.516.855,4.872,4.872,0,0,0,1.646.539,14.228,14.228,0,0,1,1.986.5q2.859.984,2.859,3.527a3.321,3.321,0,0,1-1.541,2.824,6.758,6.758,0,0,1-3.99,1.09,6.9,6.9,0,0,1-2.906-.586,4.86,4.86,0,0,1-1.992-1.594,3.609,3.609,0,0,1-.715-2.121h3.691a1.526,1.526,0,0,0,.586,1.283,2.41,2.41,0,0,0,1.441.4,1.9,1.9,0,0,0,1.213-.328A1.05,1.05,0,0,0,80.775,19.438Zm5.156-2.895a7.484,7.484,0,0,1,.738-3.381,5.28,5.28,0,0,1,2.121-2.279,6.388,6.388,0,0,1,3.246-.8,5.83,5.83,0,0,1,4.488,1.764,6.768,6.768,0,0,1,1.641,4.8v.141a6.566,6.566,0,0,1-1.646,4.705,5.846,5.846,0,0,1-4.459,1.74,5.912,5.912,0,0,1-4.348-1.623,6.348,6.348,0,0,1-1.77-4.4Zm3.949.246a4.718,4.718,0,0,0,.551,2.578,1.835,1.835,0,0,0,1.629.82q2.109,0,2.156-3.246v-.4q0-3.41-2.18-3.41-1.98,0-2.145,2.941Z" transform="translate(1011.711 12781.387)" fill="#12263f"/>
      <path id="Trazado_115756" data-name="Trazado 115756" d="M-49.27-21.328l4.761,14.839,4.746-14.839H-33V0h-5.156V-4.98l.5-10.2L-42.81,0h-3.4l-5.171-15.19.5,10.21V0h-5.142V-21.328ZM-22.288.293a8.148,8.148,0,0,1-5.9-2.175,7.512,7.512,0,0,1-2.256-5.662v-.41a9.734,9.734,0,0,1,.9-4.292,6.592,6.592,0,0,1,2.629-2.878,7.938,7.938,0,0,1,4.1-1.018,6.861,6.861,0,0,1,5.273,2.073,8.145,8.145,0,0,1,1.934,5.779v1.919h-9.814a3.558,3.558,0,0,0,1.157,2.095,3.443,3.443,0,0,0,2.314.762,4.437,4.437,0,0,0,3.662-1.641l2.256,2.666A6.306,6.306,0,0,1-18.647-.461,8.836,8.836,0,0,1-22.288.293Zm-.557-12.627q-2.168,0-2.578,2.871h4.98v-.381a2.445,2.445,0,0,0-.6-1.838A2.39,2.39,0,0,0-22.844-12.334ZM-9.089-15.85l.161,1.86A5.375,5.375,0,0,1-4.4-16.143,4.522,4.522,0,0,1-.7-14.663,7.044,7.044,0,0,1,.564-10.21V0H-4.387V-10a2.675,2.675,0,0,0-.483-1.765,2.236,2.236,0,0,0-1.758-.564,2.354,2.354,0,0,0-2.153,1.143V0h-4.937V-15.85Zm20.684,11.4a1.14,1.14,0,0,0-.659-1.011,10.027,10.027,0,0,0-2.5-.791A11.422,11.422,0,0,1,5.383-7.332,5.1,5.1,0,0,1,3.552-8.95a3.865,3.865,0,0,1-.63-2.183,4.381,4.381,0,0,1,1.8-3.6,7.422,7.422,0,0,1,4.717-1.414,8.223,8.223,0,0,1,5.039,1.421,4.443,4.443,0,0,1,1.9,3.735H11.433q0-1.9-2.007-1.9a1.989,1.989,0,0,0-1.3.432A1.338,1.338,0,0,0,7.6-11.382a1.228,1.228,0,0,0,.645,1.069,6.09,6.09,0,0,0,2.058.674,17.785,17.785,0,0,1,2.483.63q3.574,1.23,3.574,4.409a4.151,4.151,0,0,1-1.926,3.53A8.447,8.447,0,0,1,9.441.293,8.62,8.62,0,0,1,5.808-.439a6.075,6.075,0,0,1-2.49-1.992,4.511,4.511,0,0,1-.894-2.651H7.039a1.908,1.908,0,0,0,.732,1.6,3.013,3.013,0,0,0,1.8.505,2.37,2.37,0,0,0,1.516-.41A1.312,1.312,0,0,0,11.594-4.453ZM27.59,0a5.574,5.574,0,0,1-.469-1.421A4.59,4.59,0,0,1,23.313.293,5.623,5.623,0,0,1,19.5-1.062a4.313,4.313,0,0,1-1.567-3.406,4.433,4.433,0,0,1,1.9-3.9,9.7,9.7,0,0,1,5.537-1.318H26.9v-.839q0-2.193-1.89-2.193a1.545,1.545,0,0,0-1.758,1.737H18.318a4.425,4.425,0,0,1,1.956-3.731,8.218,8.218,0,0,1,4.988-1.434,7.205,7.205,0,0,1,4.79,1.479,5.144,5.144,0,0,1,1.8,4.058v7.017a7.186,7.186,0,0,0,.674,3.34V0ZM24.5-3.223a2.754,2.754,0,0,0,1.531-.4,2.479,2.479,0,0,0,.872-.894V-7.046H25.466q-2.578,0-2.578,2.314a1.413,1.413,0,0,0,.454,1.091A1.643,1.643,0,0,0,24.5-3.223ZM39.9-15.85V.542a5.753,5.753,0,0,1-1.611,4.336A6.19,6.19,0,0,1,33.831,6.4,10.513,10.513,0,0,1,31.5,6.152V2.417a9.445,9.445,0,0,0,1.392.132A1.806,1.806,0,0,0,34.944.513V-15.85Zm-5.317-4.1a2.223,2.223,0,0,1,.762-1.739,2.863,2.863,0,0,1,1.978-.678,2.863,2.863,0,0,1,1.978.678,2.223,2.223,0,0,1,.762,1.739,2.223,2.223,0,0,1-.762,1.739,2.863,2.863,0,0,1-1.978.678,2.863,2.863,0,0,1-1.978-.678A2.223,2.223,0,0,1,34.578-19.951ZM50.354.293a8.148,8.148,0,0,1-5.9-2.175,7.512,7.512,0,0,1-2.256-5.662v-.41a9.734,9.734,0,0,1,.9-4.292,6.592,6.592,0,0,1,2.629-2.878,7.938,7.938,0,0,1,4.1-1.018A6.861,6.861,0,0,1,55.1-14.07a8.145,8.145,0,0,1,1.934,5.779v1.919H47.219a3.558,3.558,0,0,0,1.157,2.095,3.443,3.443,0,0,0,2.314.762,4.437,4.437,0,0,0,3.662-1.641L56.609-2.49A6.306,6.306,0,0,1,53.994-.461,8.836,8.836,0,0,1,50.354.293ZM49.8-12.334q-2.168,0-2.578,2.871H52.2v-.381a2.445,2.445,0,0,0-.6-1.838A2.39,2.39,0,0,0,49.8-12.334ZM-60.754,27.192a9.558,9.558,0,0,1-1.663,5.9,5.331,5.331,0,0,1-4.49,2.2A4.569,4.569,0,0,1-70.5,33.7v7.4h-4.937V19.15h4.614l.146,1.465a4.57,4.57,0,0,1,3.735-1.758,5.374,5.374,0,0,1,4.556,2.161,9.676,9.676,0,0,1,1.626,5.94Zm-4.937-.308q0-4.219-2.461-4.219a2.323,2.323,0,0,0-2.344,1.26v6.24a2.4,2.4,0,0,0,2.373,1.318q2.358,0,2.432-4.072Zm16.553,6.4a5.09,5.09,0,0,1-4.233,2.007,4.992,4.992,0,0,1-3.948-1.516,6.376,6.376,0,0,1-1.34-4.358V19.15h4.937v10.3a1.774,1.774,0,0,0,1.978,2.036,2.58,2.58,0,0,0,2.417-1.216V19.15h4.966V35h-4.629Zm22.192-6.079A9.66,9.66,0,0,1-28.557,33.2,5.4,5.4,0,0,1-33.1,35.293a4.684,4.684,0,0,1-3.9-1.919L-37.2,35h-4.424V12.5h4.937v7.925a4.519,4.519,0,0,1,3.56-1.567,5.4,5.4,0,0,1,4.57,2.124,9.71,9.71,0,0,1,1.611,5.977Zm-4.951-.315a6.443,6.443,0,0,0-.608-3.254,2.049,2.049,0,0,0-1.868-.973,2.364,2.364,0,0,0-2.314,1.272v6.288a2.377,2.377,0,0,0,2.344,1.258,2.1,2.1,0,0,0,2.212-1.7A12.182,12.182,0,0,0-31.9,26.892ZM-19.563,35h-4.951V12.5h4.951Zm8.247,0h-4.951V19.15h4.951ZM-16.56,15.049A2.223,2.223,0,0,1-15.8,13.31a2.863,2.863,0,0,1,1.978-.678,2.863,2.863,0,0,1,1.978.678,2.223,2.223,0,0,1,.762,1.739,2.223,2.223,0,0,1-.762,1.739,2.863,2.863,0,0,1-1.978.678,2.863,2.863,0,0,1-1.978-.678A2.223,2.223,0,0,1-16.56,15.049ZM-1.575,31.484A2.2,2.2,0,0,0,.037,30.92a2.068,2.068,0,0,0,.557-1.575H5.222a5.48,5.48,0,0,1-1.868,4.277,6.947,6.947,0,0,1-4.812,1.67,7.034,7.034,0,0,1-5.449-2.168A8.542,8.542,0,0,1-8.9,27.119v-.205a9.654,9.654,0,0,1,.886-4.241,6.453,6.453,0,0,1,2.556-2.827A7.622,7.622,0,0,1-1.5,18.857a6.86,6.86,0,0,1,4.907,1.714,6.079,6.079,0,0,1,1.816,4.644H.593a2.71,2.71,0,0,0-.6-1.89,2.073,2.073,0,0,0-1.611-.659q-1.919,0-2.241,2.446a17.261,17.261,0,0,0-.1,2.139,6.78,6.78,0,0,0,.571,3.311A1.978,1.978,0,0,0-1.575,31.484ZM12.517,35H7.566V19.15h4.951ZM7.273,15.049a2.223,2.223,0,0,1,.762-1.739,2.863,2.863,0,0,1,1.978-.678,2.863,2.863,0,0,1,1.978.678,2.366,2.366,0,0,1,0,3.478,2.863,2.863,0,0,1-1.978.678,2.863,2.863,0,0,1-1.978-.678A2.223,2.223,0,0,1,7.273,15.049Zm14.033.161v3.94h2.607v3.428H21.306v7.251a1.851,1.851,0,0,0,.322,1.245,1.729,1.729,0,0,0,1.274.352,7.242,7.242,0,0,0,1.23-.088v3.53a9.11,9.11,0,0,1-2.783.425,5.171,5.171,0,0,1-3.765-1.2,4.923,4.923,0,0,1-1.216-3.647V22.578H14.348V19.15H16.37V15.21ZM34.783,35a5.574,5.574,0,0,1-.469-1.421,4.59,4.59,0,0,1-3.809,1.714A5.623,5.623,0,0,1,26.7,33.938a4.313,4.313,0,0,1-1.567-3.406,4.433,4.433,0,0,1,1.9-3.9,9.7,9.7,0,0,1,5.537-1.318h1.523v-.839q0-2.193-1.89-2.193a1.545,1.545,0,0,0-1.758,1.737H25.51a4.425,4.425,0,0,1,1.956-3.731,8.218,8.218,0,0,1,4.988-1.434,7.205,7.205,0,0,1,4.79,1.479,5.144,5.144,0,0,1,1.8,4.058v7.017a7.186,7.186,0,0,0,.674,3.34V35Zm-3.091-3.223a2.754,2.754,0,0,0,1.531-.4,2.479,2.479,0,0,0,.872-.894V27.954H32.659q-2.578,0-2.578,2.314a1.413,1.413,0,0,0,.454,1.091A1.643,1.643,0,0,0,31.692,31.777Zm19.673-8.159L49.739,23.5q-2.329,0-2.988,1.465V35H41.814V19.15h4.629l.161,2.036a3.823,3.823,0,0,1,3.472-2.329,4.814,4.814,0,0,1,1.377.176ZM58.352,35H53.4V19.15h4.951ZM53.108,15.049a2.223,2.223,0,0,1,.762-1.739,3.223,3.223,0,0,1,3.955,0,2.366,2.366,0,0,1,0,3.478,3.223,3.223,0,0,1-3.955,0A2.223,2.223,0,0,1,53.108,15.049Zm7.661,11.88a9.355,9.355,0,0,1,.923-4.226,6.6,6.6,0,0,1,2.651-2.849,7.985,7.985,0,0,1,4.058-1,7.288,7.288,0,0,1,5.61,2.2,8.46,8.46,0,0,1,2.051,6v.176A8.208,8.208,0,0,1,74,33.118a7.307,7.307,0,0,1-5.574,2.175A7.39,7.39,0,0,1,63,33.264a7.935,7.935,0,0,1-2.212-5.5Zm4.937.308a5.9,5.9,0,0,0,.688,3.223,2.294,2.294,0,0,0,2.036,1.025q2.637,0,2.7-4.058v-.5q0-4.263-2.725-4.263-2.476,0-2.681,3.677ZM-45.667,70.293a8.148,8.148,0,0,1-5.9-2.175,7.512,7.512,0,0,1-2.256-5.662v-.41a9.734,9.734,0,0,1,.9-4.292A6.592,6.592,0,0,1-50.3,54.875a7.938,7.938,0,0,1,4.1-1.018A6.861,6.861,0,0,1-40.92,55.93a8.145,8.145,0,0,1,1.934,5.779v1.919H-48.8a3.558,3.558,0,0,0,1.157,2.095,3.443,3.443,0,0,0,2.314.762,4.437,4.437,0,0,0,3.662-1.641l2.256,2.666a6.306,6.306,0,0,1-2.615,2.029A8.836,8.836,0,0,1-45.667,70.293Zm-.557-12.627q-2.168,0-2.578,2.871h4.98v-.381a2.445,2.445,0,0,0-.6-1.838A2.39,2.39,0,0,0-46.223,57.666ZM-35.911,70V57.578h-2.3V54.15h2.3v-1.26a5.476,5.476,0,0,1,1.6-4.2,6.308,6.308,0,0,1,4.482-1.494,9.816,9.816,0,0,1,2.314.308l.015,3.633A4.51,4.51,0,0,0-28.718,51q-2.241,0-2.241,1.934V54.15h3.091v3.428h-3.091V70Zm17.095.293a8.148,8.148,0,0,1-5.9-2.175,7.512,7.512,0,0,1-2.256-5.662v-.41a9.734,9.734,0,0,1,.9-4.292,6.592,6.592,0,0,1,2.629-2.878,7.938,7.938,0,0,1,4.1-1.018A6.861,6.861,0,0,1-14.07,55.93a8.145,8.145,0,0,1,1.934,5.779v1.919h-9.814a3.558,3.558,0,0,0,1.157,2.095,3.443,3.443,0,0,0,2.314.762,4.437,4.437,0,0,0,3.662-1.641l2.256,2.666a6.306,6.306,0,0,1-2.615,2.029A8.836,8.836,0,0,1-18.816,70.293Zm-.557-12.627q-2.168,0-2.578,2.871h4.98v-.381a2.445,2.445,0,0,0-.6-1.838A2.39,2.39,0,0,0-19.373,57.666ZM-3.45,66.484a2.2,2.2,0,0,0,1.611-.564,2.068,2.068,0,0,0,.557-1.575H3.347a5.48,5.48,0,0,1-1.868,4.277,6.947,6.947,0,0,1-4.812,1.67,7.034,7.034,0,0,1-5.449-2.168,8.542,8.542,0,0,1-1.992-6.006v-.205a9.654,9.654,0,0,1,.886-4.241,6.453,6.453,0,0,1,2.556-2.827,7.622,7.622,0,0,1,3.955-.989,6.86,6.86,0,0,1,4.907,1.714,6.079,6.079,0,0,1,1.816,4.644H-1.282a2.71,2.71,0,0,0-.6-1.89,2.073,2.073,0,0,0-1.611-.659q-1.919,0-2.241,2.446a17.261,17.261,0,0,0-.1,2.139,6.78,6.78,0,0,0,.571,3.311A1.978,1.978,0,0,0-3.45,66.484ZM11.184,50.21v3.94h2.607v3.428H11.184v7.251a1.851,1.851,0,0,0,.322,1.245,1.729,1.729,0,0,0,1.274.352,7.242,7.242,0,0,0,1.23-.088v3.53a9.11,9.11,0,0,1-2.783.425,5.171,5.171,0,0,1-3.765-1.2,4.923,4.923,0,0,1-1.216-3.647V57.578H4.226V54.15H6.248V50.21ZM20.94,70H15.989V54.15H20.94ZM15.7,50.049a2.223,2.223,0,0,1,.762-1.739,2.863,2.863,0,0,1,1.978-.678,2.863,2.863,0,0,1,1.978.678,2.366,2.366,0,0,1,0,3.478,2.863,2.863,0,0,1-1.978.678,2.863,2.863,0,0,1-1.978-.678A2.223,2.223,0,0,1,15.7,50.049ZM30.3,64.126l2.5-9.976h5.2L32.834,70H27.8L22.625,54.15h5.215Zm8.335-2.2a9.355,9.355,0,0,1,.923-4.226,6.6,6.6,0,0,1,2.651-2.849,7.985,7.985,0,0,1,4.058-1,7.288,7.288,0,0,1,5.61,2.2,8.46,8.46,0,0,1,2.051,6v.176a8.208,8.208,0,0,1-2.058,5.881A7.307,7.307,0,0,1,46.3,70.293a7.39,7.39,0,0,1-5.435-2.029,7.935,7.935,0,0,1-2.212-5.5Zm4.937.308a5.9,5.9,0,0,0,.688,3.223A2.294,2.294,0,0,0,46.3,66.484q2.637,0,2.7-4.058v-.5q0-4.263-2.725-4.263-2.476,0-2.681,3.677Z" transform="translate(793.711 12868.127)" fill="#12263f"/>
      <g id="megafono" transform="translate(728.71 12683.461)">
        <path id="Trazado_102299" data-name="Trazado 102299" d="M127.088,82.568a7.508,7.508,0,0,1-6.211,11.258,147.52,147.52,0,0,0-61.479,16.1l-6.556,3.783c0,.03-.09-.155,15.869,27.6a5.311,5.311,0,0,1-1.942,7.251L61.6,151.545a5.306,5.306,0,0,1-7.248-1.945L38.432,122.028l-2.584,1.494a10.617,10.617,0,0,1-14.5-3.886L9.411,98.958a10.617,10.617,0,0,1,3.886-14.5l23.55-13.6A147.542,147.542,0,0,0,81.529,25.671a7.509,7.509,0,0,1,12.855.25l10.215,17.7A12.272,12.272,0,1,1,116.87,64.872Z" transform="translate(-5.634 -9.789)" fill="#e8e8e8"/>
        <path id="Trazado_102300" data-name="Trazado 102300" d="M352.651,95.526a12.271,12.271,0,0,1-4.493,16.762L335.886,91.033A12.274,12.274,0,0,1,352.651,95.526Z" transform="translate(-236.922 -57.204)" fill="#26ccda"/>
        <path id="Trazado_102301" data-name="Trazado 102301" d="M94.383,25.921a7.435,7.435,0,0,1-.241,7.826A172.872,172.872,0,0,1,44.063,83.19L16.47,99.121a12.384,12.384,0,0,0-4.443,4.367L9.411,98.959A10.617,10.617,0,0,1,13.3,84.46l23.55-13.6A147.542,147.542,0,0,0,81.529,25.671a7.509,7.509,0,0,1,12.855.25Z" transform="translate(-5.634 -9.789)" fill="#e8e8e8" style="mix-blend-mode: multiply;isolation: isolate"/>
        <path id="Trazado_102302" data-name="Trazado 102302" d="M36.847,187.442,59.4,226.5c-4.519,2.608-19.038,10.989-23.55,13.6a10.617,10.617,0,0,1-14.5-3.886L9.411,215.538a10.617,10.617,0,0,1,3.886-14.5Z" transform="translate(-5.634 -126.369)" fill="#f57c00"/>
        <path id="Trazado_102303" data-name="Trazado 102303" d="M43.988,199.813c-29.966,17.3-27.98,16.1-28.947,16.848a3.813,3.813,0,0,1-5.632-1.123,10.617,10.617,0,0,1,3.886-14.5l23.55-13.6Z" transform="translate(-5.634 -126.368)" fill="#ffa726"/>
        <path id="Trazado_102304" data-name="Trazado 102304" d="M130.019,340.335c-8.384,4.855-2.216,1.282-14.4,8.312l-4.308-7.457,14.411-8.318Z" transform="translate(-78.518 -228.95)" fill="#afafaf"/>
        <path id="Trazado_102305" data-name="Trazado 102305" d="M351.917,109.1a12.136,12.136,0,0,1-3.759,3.371L335.886,91.211a12.172,12.172,0,0,1,4.8-1.57Z" transform="translate(-236.922 -57.384)" fill="#26ccda" style="mix-blend-mode: multiply;isolation: isolate"/>
        <path id="Trazado_102306" data-name="Trazado 102306" d="M114.36,55.778a14.627,14.627,0,0,0-14.436-25L90.79,14.955A9.867,9.867,0,0,0,73.9,14.624,145.14,145.14,0,0,1,29.932,59.1a2.359,2.359,0,0,0-.788,3.1c.1.176,15.224,26.376,15.325,26.549a2.357,2.357,0,1,0,4.082-2.357L34.364,61.819A149.78,149.78,0,0,0,77.886,17.138a5.152,5.152,0,0,1,8.821.174l32.7,56.644a5.152,5.152,0,0,1-4.26,7.727A149.859,149.859,0,0,0,52.691,98.037c-.083.042-22.138,12.778-23.657,13.655a8.264,8.264,0,0,1-11.277-3.022L5.818,87.99A8.265,8.265,0,0,1,8.84,76.713l14.369-8.3a2.357,2.357,0,0,0-2.357-4.082l-14.369,8.3A12.984,12.984,0,0,0,1.735,90.347l11.939,20.679a12.984,12.984,0,0,0,17.717,4.747l.544-.314,14.74,25.531A7.659,7.659,0,0,0,57.144,143.8l5.17-2.985a7.659,7.659,0,0,0,2.8-10.468L54.672,112.248a2.357,2.357,0,0,0-4.082,2.357L61.036,132.7a2.947,2.947,0,0,1-1.08,4.029l-5.17,2.985a2.948,2.948,0,0,1-4.029-1.08L36.018,113.1l18.873-10.9a145.135,145.135,0,0,1,60.444-15.813A9.866,9.866,0,0,0,123.493,71.6Zm-.673-16.28a9.93,9.93,0,0,1-1.73,12.117l-9.63-16.68A9.911,9.911,0,0,1,113.686,39.5ZM136.74,29.019l-6.1,3.521a2.357,2.357,0,0,1-2.357-4.082l6.1-3.521a2.357,2.357,0,1,1,2.357,4.082ZM110.513,15.585,112,10.035a2.357,2.357,0,1,1,4.554,1.22l-1.487,5.55a2.357,2.357,0,1,1-4.554-1.22Zm30.828,38.6a2.358,2.358,0,0,1-2.275,1.747c-.427,0-.128.049-6.161-1.568a2.357,2.357,0,1,1,1.22-4.554l5.55,1.487a2.358,2.358,0,0,1,1.667,2.887Z" transform="translate(0 0)"/>
      </g>
      <g id="Grupo_54723" data-name="Grupo 54723" transform="translate(360.082 12386.207)">
        <path id="Trazado_102307" data-name="Trazado 102307" d="M243.541,85.743c-18.676,2.639-51.792,9.9-79.015,29.681-39.26,28.523-57.249,77.262-57.426,77.752l1.908.693c.177-.484,17.951-48.637,56.713-76.8,26.839-19.5,59.547-26.684,78.036-29.3l.713,6.676,12.439-9.067L242.836,79.13Z" transform="translate(48.183)" fill="#f57c00" stroke="#ef6e03" stroke-width="3"/>
        <path id="Trazado_102308" data-name="Trazado 102308" d="M72.641,360.277c-10.251-31.552-6.978-64.878-3.754-83.271l6.568,1.385-4.778-14.633L60.391,275.212l6.507,1.373c-3.263,18.577-6.588,52.317,3.811,84.32,14.995,46.151,55.79,78.324,56.2,78.645l1.249-1.6C127.751,437.63,87.439,405.824,72.641,360.277Z" transform="translate(0 190.453)" fill="#f57c00" stroke="#ef6e03" stroke-width="3"/>
        <path id="Trazado_102309" data-name="Trazado 102309" d="M294.867,457.987c-33.169,0-63.854-13.412-80.354-22.164L217.861,430l-15.4.024,7.716,13.321,3.315-5.764c16.663,8.841,47.725,22.432,81.37,22.432,48.528,0,91.733-28.856,92.163-29.149l-1.14-1.682C385.464,429.476,342.759,457.987,294.867,457.987Z" transform="translate(146.558 361.103)" fill="#f57c00" stroke="#ef6e03" stroke-width="3"/>
        <path id="Trazado_102310" data-name="Trazado 102310" d="M459.606,360.928c15-46.155.906-96.159.76-96.659l-1.952.563c.144.5,14.066,49.9-.74,95.471-10.249,31.542-32.487,56.583-45.907,69.573l-4.5-4.983-4.736,14.65,15.054-3.222-4.455-4.935C426.689,418.269,449.211,392.923,459.606,360.928Z" transform="translate(352.936 190.981)" fill="#f57c00" stroke="#ef6e03" stroke-width="3"/>
        <path id="Trazado_102311" data-name="Trazado 102311" d="M407.64,112.7c-39.26-28.525-91.174-30.575-91.694-30.591l-.067,2.029c.514.018,51.8,2.042,90.567,30.2,26.837,19.5,43.778,48.385,51.983,65.162L452.3,182.24l12.468,9.028,1.589-15.312-6.072,2.714C452.005,161.726,434.861,132.473,407.64,112.7Z" transform="translate(263.549 3.069)" fill="#f57c00" stroke="#ef6e03" stroke-width="3"/>
      </g>
      <g id="avion-de-papel" transform="translate(569.711 12982.229)">
        <g id="Grupo_54724" data-name="Grupo 54724" transform="translate(2.031 8.119)">
          <path id="Trazado_102312" data-name="Trazado 102312" d="M172.068,337.141l-8.316,32.241L188.4,348.27" transform="translate(-132.521 -271.895)" fill="#ffa726"/>
          <path id="Trazado_102313" data-name="Trazado 102313" d="M109.939,15.936,49.547,81.182l36.02,23.612a3.076,3.076,0,0,0,4.686-1.9l19.686-86.96L11.925,55.612a3.085,3.085,0,0,0-.214,5.621l23.284,11.56" transform="translate(-10 -15.936)" fill="#fdd835"/>
          <path id="Trazado_102314" data-name="Trazado 102314" d="M156,55.488,133.05,72.794l6.369,40.629L147.6,81.182l60.392-65.246L170.638,44.393" transform="translate(-108.055 -15.936)" fill="#ffa726"/>
        </g>
        <g id="Grupo_54727" data-name="Grupo 54727" transform="translate(0 6.126)">
          <g id="Grupo_54725" data-name="Grupo 54725" transform="translate(0 0)">
            <path id="Trazado_102315" data-name="Trazado 102315" d="M103.946,8.593A2.011,2.011,0,0,0,101.6,6.165c-.255.05-.422.083-.434.088L3.194,45.912a5.117,5.117,0,0,0-.355,9.323L25.182,66.329l6.092,38.863a2.031,2.031,0,0,0,1.988,2.446H33.4a2.031,2.031,0,0,0,1.71-.936L58.35,86.788,76.484,98.675a5.107,5.107,0,0,0,7.781-3.148L103.942,8.605a.11.11,0,0,0,0-.012ZM51.6,46.448a2.032,2.032,0,0,0-2.845-.4L26.805,62.6l-22.16-11a1.054,1.054,0,0,1,.073-1.919L88.679,15.691l-25.3,19.27a2.031,2.031,0,0,0,2.462,3.232L84.569,23.929,40.115,71.955a2.023,2.023,0,0,0-.452.731L33.83,95.269l-4.609-29.4L51.2,49.293a2.031,2.031,0,0,0,.4-2.845Zm-14.623,53.3,5.869-23.124,11.966,7.844ZM80.3,94.63a1.045,1.045,0,0,1-1.592.648L44.7,72.982,98.317,15.056Z" transform="translate(0 -6.126)"/>
          </g>
          <g id="Grupo_54726" data-name="Grupo 54726" transform="translate(55.298 33.95)">
            <path id="Trazado_102316" data-name="Trazado 102316" d="M274.261,177.318a2.03,2.03,0,1,1,2.008-1.733A2.05,2.05,0,0,1,274.261,177.318Z" transform="translate(-272.232 -173.261)"/>
          </g>
        </g>
      </g>
      <g id="filled_outline" data-name="filled outline" transform="translate(722.276 12434.502)">
        <path id="Trazado_102317" data-name="Trazado 102317" d="M128,376h22.133v7.378H128Z" transform="translate(-86.178 -277)" fill="#91591c"/>
        <path id="Trazado_102318" data-name="Trazado 102318" d="M208.906,288v46.111h-7.378L190,288Z" transform="translate(-133.883 -209.289)" fill="#b1712c"/>
        <path id="Trazado_102319" data-name="Trazado 102319" d="M80,288v46.111h7.378L98.906,288Z" transform="translate(-49.244 -209.289)" fill="#b1712c"/>
        <circle id="Elipse_4116" data-name="Elipse 4116" cx="35.312" cy="35.312" r="35.312" transform="translate(17.831 17.831)" fill="#26ccda"/>
        <circle id="Elipse_4117" data-name="Elipse 4117" cx="25.681" cy="25.681" r="25.681" transform="translate(27.461 27.461)" fill="#e8f2ff"/>
        <circle id="Elipse_4118" data-name="Elipse 4118" cx="16.586" cy="16.586" r="16.586" transform="translate(36.022 36.022)" fill="#26ccda"/>
        <circle id="Elipse_4119" data-name="Elipse 4119" cx="7.49" cy="7.49" r="7.49" transform="translate(45.652 45.652)" fill="#e8f2ff"/>
        <path id="Trazado_102320" data-name="Trazado 102320" d="M238.711,167.378H183.378L176,163.689,183.378,160h55.334Z" transform="translate(-123.111 -110.8)" fill="#fdd835"/>
        <path id="Trazado_102321" data-name="Trazado 102321" d="M395.667,120l-9.222,9.222H368L377.222,120Z" transform="translate(-270.844 -80.022)" fill="#f57c00"/>
        <path id="Trazado_102322" data-name="Trazado 102322" d="M395.667,201.222H377.222L368,192h18.444Z" transform="translate(-270.844 -135.422)" fill="#f57c00"/>
        <path id="Trazado_102323" data-name="Trazado 102323" d="M28.911,80.9v43.924a1.844,1.844,0,0,0,1.844,1.844h7.378a1.844,1.844,0,0,0,1.789-1.4l4.262-17.047H61.593l4.262,17.047a1.844,1.844,0,0,0,1.789,1.4h7.378a1.844,1.844,0,0,0,1.844-1.844V80.907A36.756,36.756,0,0,0,88.487,62.6l-3.56-.968a33.212,33.212,0,1,1,.7-14.274l-5.628,0A27.648,27.648,0,1,0,78.738,62.77l-3.445-1.318a23.975,23.975,0,1,1,.932-14.1H70.487a18.445,18.445,0,1,0-2.26,15.782l-3.065-2.052A14.756,14.756,0,1,1,52.889,38.133a14.589,14.589,0,0,1,9.268,3.273,14.854,14.854,0,0,1,4.411,5.949H60.263a9.221,9.221,0,1,0-7.374,14.755V58.422a5.533,5.533,0,1,1,3.838-9.514l-4.663,2.331a1.844,1.844,0,0,0,0,3.3l7.378,3.689a1.844,1.844,0,0,0,.825.195H96.392l8.682,8.682a1.845,1.845,0,0,0,1.3.54h18.445a1.845,1.845,0,0,0,1.3-3.149l-8.682-8.682v-5.85l8.682-8.682a1.845,1.845,0,0,0-1.3-3.149H106.378a1.845,1.845,0,0,0-1.3.54l-8.682,8.682H89.365A36.889,36.889,0,1,0,28.918,80.9Zm7.782,42.08H32.6v-39.3a36.905,36.905,0,0,0,3.689,2.144v5.8h3.689V87.444A36.558,36.558,0,0,0,45.2,88.969Zm8.413-18.445.922-3.689h13.72l.922,3.689Zm28.071,18.445H69.085l-8.5-34.013A36.778,36.778,0,0,0,65.8,87.436v4.186h3.689v-5.8a37.1,37.1,0,0,0,3.689-2.139ZM56.927,89.555l1.9,7.6H46.951l1.9-7.6a36.742,36.742,0,0,0,8.075,0Zm.087-36.666L60.7,51.045h53.054v3.689H60.7Zm44.6,5.533h4.005l5.533,5.533h-4.005Zm14.756,5.533-5.533-5.533h4.005l5.533,5.533Zm-1.528-16.6h-4.005l5.533-5.533h4.005Zm-7.694-5.533h4.005l-5.533,5.533h-4.005Z"/>
        <path id="Trazado_102324" data-name="Trazado 102324" d="M104,360h3.689v3.689H104Z" transform="translate(-67.711 -264.689)"/>
        <path id="Trazado_102325" data-name="Trazado 102325" d="M232,360h3.689v3.689H232Z" transform="translate(-166.2 -264.689)"/>
      </g>
      <g id="hacer-clic" transform="translate(1027.647 12655.893)">
        <path id="Trazado_102326" data-name="Trazado 102326" d="M92.875,141.132H65.226a3.8,3.8,0,0,1-3.784-3.8,3.817,3.817,0,0,0-1.655-3.137L29,113.083a5.738,5.738,0,0,1-2.168-6.617l.475-1.331,7.683-21.793a7.563,7.563,0,0,1,7.15-5.058H57.106a7.657,7.657,0,0,1,4.412,1.408l.7.514,3.822,2.738.286-.4A7.58,7.58,0,0,0,67.584,81a3.333,3.333,0,0,0-.951-4.45l-9.85-6.979a3.852,3.852,0,0,0-2.207-.7H48.644v-.095A28.848,28.848,0,0,1,48.8,57.252l-.037-.037,1.026-.913,7.531-7.226a7.647,7.647,0,0,0,.209-10.535l.115-.1a8.016,8.016,0,0,1,1.159-.589,6.321,6.321,0,0,1,8.329,2.491c3.8,5.7-7.587,11.315-1.9,22.724,3.137,6.275,11.581,12.512,13.292,13.787A43.928,43.928,0,0,1,92.894,111.9a46.523,46.523,0,0,0,.894,14.243l2.8,10.326a3.8,3.8,0,0,1-3.708,4.659Zm0,0" transform="translate(-20.555 -28.891)" fill="#fdd835"/>
        <g id="Grupo_54728" data-name="Grupo 54728" transform="translate(3.881 5.751)">
          <path id="Trazado_102327" data-name="Trazado 102327" d="M87.17,143.5H65.226a3.8,3.8,0,0,1-3.784-3.8,3.817,3.817,0,0,0-1.655-3.137L29,115.454a5.738,5.738,0,0,1-2.168-6.617l.475-1.331,7.683-21.793a7.563,7.563,0,0,1,7.15-5.058H51.4a7.657,7.657,0,0,1,4.412,1.408l4.527,3.251.285-.4a7.523,7.523,0,0,0,1.255-1.541,3.254,3.254,0,0,0,.342-.8l3.822,2.738.286-.4a7.58,7.58,0,0,0,1.255-1.541,3.333,3.333,0,0,0-.951-4.45l-9.85-6.979a3.852,3.852,0,0,0-2.207-.7H48.644v-.095A28.848,28.848,0,0,1,48.8,59.623l-.037-.037,1.026-.913,7.531-7.226a7.647,7.647,0,0,0,.209-10.535l.115-.1a8.015,8.015,0,0,1,1.159-.589,7.289,7.289,0,0,1,2.625,2.491c3.8,5.7-7.588,11.315-1.9,22.724C62.659,71.717,71.1,77.954,72.813,79.229a43.925,43.925,0,0,1,14.376,35.047,46.55,46.55,0,0,0,.894,14.243l2.8,10.326A3.8,3.8,0,0,1,87.17,143.5Zm0,0" transform="translate(-24.436 -37.013)" fill="#fdd835"/>
          <path id="Trazado_102328" data-name="Trazado 102328" d="M58.473,33.411v4.906l-.038.038L47.063,48.986V29.608a3.816,3.816,0,0,1,3.8-3.8,7.6,7.6,0,0,1,7.606,7.606Zm0,0" transform="translate(-40.406 -25.805)" fill="#fdd835"/>
          <path id="Trazado_102329" data-name="Trazado 102329" d="M50.073,49.127l-7.531,7.226-.532.475-.494.438-9.394,8.462a1.823,1.823,0,0,0-.494,1.5,9.337,9.337,0,0,1,.114,1.6v.095h-.723a7.625,7.625,0,0,0-7.207,5.058l-4.64,13.026-.552-.191A125.177,125.177,0,0,1,17.195,67.4a5.663,5.663,0,0,1,1.5-3.936l5.135-5.571h.018v-.019l11.372-10.63.038-.038,9.432-8.842a3.789,3.789,0,0,1,5.381,0,2.263,2.263,0,0,1,.209.229A7.647,7.647,0,0,1,50.073,49.127Zm0,0" transform="translate(-17.193 -34.693)" fill="#fdd835"/>
        </g>
        <path id="Trazado_102330" data-name="Trazado 102330" d="M125.695,130.594a.52.52,0,0,0-.019.171l-.019.019C125.675,130.727,125.675,130.651,125.695,130.594Zm0,0" transform="translate(-97.605 -101.491)" fill="#fdd7ad"/>
        <path id="Trazado_102331" data-name="Trazado 102331" d="M54.151,189.807a3.353,3.353,0,0,1-.475,1.731,7.58,7.58,0,0,1-1.255,1.541l-.286.4-4.526-3.251a7.657,7.657,0,0,0-4.412-1.408H28.233c-.247,0-.494.019-.723.038s-.456.057-.684.095c-.286.057-.551.133-.817.209a4.131,4.131,0,0,0-.628.229c-.019.018-.057.018-.077.037a3.437,3.437,0,0,0-.7.343,3.41,3.41,0,0,0-.665.4,3.837,3.837,0,0,0-.628.475,3.8,3.8,0,0,0-.571.533l-.38.438-.018.018c-.171.21-.324.419-.476.647-.095.152-.171.286-.265.438l-.057.114a2.337,2.337,0,0,0-.228.494,2.745,2.745,0,0,0-.228.551L13.4,215.67l-2.282-1.559a5.618,5.618,0,0,1-2.168-6.58l3.557-10.04,4.64-13.026a7.625,7.625,0,0,1,7.207-5.058H40.669a3.852,3.852,0,0,1,2.207.7l9.85,6.979A3.35,3.35,0,0,1,54.151,189.807Zm0,0" transform="translate(-6.647 -139.426)" fill="#fdd835"/>
        <path id="Trazado_102333" data-name="Trazado 102333" d="M123.576,146a26.475,26.475,0,0,1,.114-4.145A32.145,32.145,0,0,0,123.576,146Zm0,0" transform="translate(-95.962 -110.246)" fill="#fdd7ad"/>
        <path id="Trazado_102334" data-name="Trazado 102334" d="M126.3,125.133l-.628,1.388-.019.019c.019-.057.019-.133.038-.191.057-.266.114-.514.151-.742l-.037-.037Zm0,0" transform="translate(-97.605 -97.247)" fill="#fdd7ad"/>
        <path id="Trazado_102335" data-name="Trazado 102335" d="M84.042,49.124,76.511,56.35l-.532.475-.494.438-9.394,8.462a1.823,1.823,0,0,0-.494,1.5,9.337,9.337,0,0,1,.114,1.6v.095h-.722a7.592,7.592,0,0,0-3.955,1.1v-1.1c0-.628-.037-2.244-.114-2.663a1.822,1.822,0,0,1,.494-1.5l9.394-8.462.494-.438.532-.475,7.531-7.226a7.635,7.635,0,0,0,.247-10.478,3.729,3.729,0,0,1,1.75-.438,3.792,3.792,0,0,1,2.681,1.122,2.263,2.263,0,0,1,.209.229A7.647,7.647,0,0,1,84.042,49.124Zm0,0" transform="translate(-47.282 -28.939)" fill="#fdd835"/>
        <path id="Trazado_102336" data-name="Trazado 102336" d="M42.8,19.987a9.164,9.164,0,0,0-5.614.783,5.862,5.862,0,0,0-7.094.684l-6.232,5.835v-.508a9.508,9.508,0,0,0-9.508-9.507,5.7,5.7,0,0,0-5.7,5.7V41.6L3.988,46.651a7.56,7.56,0,0,0-2.012,5.256,125.052,125.052,0,0,0,1.464,19.8,1.827,1.827,0,0,0,.178.428l-3.1,8.73A7.521,7.521,0,0,0,3.395,89.68l1.086.738a7.622,7.622,0,0,0,2.882,8.747l30.789,21.107a1.9,1.9,0,0,1,.828,1.57,5.7,5.7,0,0,0,5.7,5.705H72.32a5.663,5.663,0,0,0,4.453-2.147,5.721,5.721,0,0,0,1.08-4.91l-2.776-10.268a45.218,45.218,0,0,1-.852-13.671C75.793,76.68,62.47,62.324,59.091,59.829c-6.216-4.582-10.852-9.359-12.724-13.108-2.8-5.624-.914-9.472.913-13.191,1.533-3.121,3.119-6.346.869-9.729A8.367,8.367,0,0,0,42.8,19.987Zm-28.448,1.09a5.7,5.7,0,0,1,5.705,5.7v4.07l-7.606,7.12V22.978a1.9,1.9,0,0,1,1.9-1.9ZM5.78,51.856A3.775,3.775,0,0,1,6.785,49.23L11.8,43.778a1.586,1.586,0,0,0,.13-.124L23.1,33.205a1.891,1.891,0,0,0,.294-.278l9.341-8.747a1.918,1.918,0,0,1,2.675,0l.13-.13a1.612,1.612,0,0,0,.148.151l-.12.154a5.7,5.7,0,0,1-.129,7.873L27.96,39.408,17.429,48.893a3.7,3.7,0,0,0-1,2.7,9.506,9.506,0,0,0-7.724,6.224L6.32,64.53C5.937,59.856,5.816,54.563,5.78,51.856ZM20.217,51.5l5.5-4.944a30.76,30.76,0,0,0,.181,4.944ZM4.093,82.165l8.2-23.074A5.726,5.726,0,0,1,17.706,55.3H34.024a1.924,1.924,0,0,1,1.1.354l9.843,6.975a1.451,1.451,0,0,1,.625,1.171,1.469,1.469,0,0,1-.2.761c-.067.111-.154.22-.234.329l-3.088-2.209a9.438,9.438,0,0,0-5.515-1.772H21.59a9.508,9.508,0,0,0-8.951,6.345L5.793,86.712l-.247-.167A3.728,3.728,0,0,1,4.093,82.165ZM43.875,31.878c-1.921,3.906-4.549,9.257-.9,16.567,2.915,5.844,9.94,11.575,13.869,14.467,2.525,1.858,15.038,15.132,13.6,33.366a49.062,49.062,0,0,0,.951,14.89l2.776,10.269a1.9,1.9,0,0,1-1.848,2.328H44.675a1.9,1.9,0,0,1-1.9-1.9,5.707,5.707,0,0,0-2.472-4.708L9.514,96.045a3.814,3.814,0,0,1-1.435-4.408l8.144-23.124a5.706,5.706,0,0,1,5.363-3.8H36.551a5.662,5.662,0,0,1,3.307,1.063l8.78,6.285a1.476,1.476,0,0,1,.4,1.949,5.674,5.674,0,0,1-8.029,1.811l-3.8-2.538a5.65,5.65,0,0,0-3.164-.963H28.184a5.655,5.655,0,0,0-5.423,3.942c-.112.355-.272.8-.453,1.293C20.939,81.336,17.745,90.19,24.993,93.1a1.9,1.9,0,1,0,1.415-3.528c-3.189-1.28-2.517-5.214-.523-10.723.2-.555.38-1.044.5-1.44a1.867,1.867,0,0,1,1.8-1.287h5.855a1.88,1.88,0,0,1,1.048.319l3.8,2.541A9.484,9.484,0,0,0,52.3,75.959a5.3,5.3,0,0,0-1.455-6.994l-2.6-1.87c.138-.19.289-.38.407-.57a5.241,5.241,0,0,0-1.479-6.98l-9.841-6.987A5.748,5.748,0,0,0,34.024,51.5h-4.3a26.929,26.929,0,0,1,.282-8.85l8.1-7.7A9.509,9.509,0,0,0,39.79,23.822a4.407,4.407,0,0,1,5.2,2.111C45.933,27.352,45.405,28.763,43.875,31.878Zm0,0" transform="translate(0 -13.423)"/>
        <path id="Trazado_102337" data-name="Trazado 102337" d="M151.643,358.265a1.9,1.9,0,0,0-1.206,3.613c4.389,1.471,15.784,6.749,15.784,13.408a1.9,1.9,0,0,0,3.8,0C170.018,364.521,152.395,358.51,151.643,358.265Zm0,0" transform="translate(-115.853 -278.351)"/>
        <path id="Trazado_102338" data-name="Trazado 102338" d="M206.119,324.756a1.9,1.9,0,1,0-3.028,2.3c2.9,3.8,7.728,8.356,14.245,8.356a1.9,1.9,0,1,0,0-3.8C212.376,331.611,208.5,327.882,206.119,324.756Zm0,0" transform="translate(-157.482 -251.802)"/>
        <path id="Trazado_102339" data-name="Trazado 102339" d="M215.563.638l-1.812,1.9A1.9,1.9,0,1,0,216.5,5.16l1.812-1.9a1.9,1.9,0,1,0-2.753-2.62Zm0,0" transform="translate(-165.626)"/>
        <path id="Trazado_102340" data-name="Trazado 102340" d="M242.563,36.321A1.9,1.9,0,0,0,240.217,35l-2.472.7a1.9,1.9,0,1,0,1.032,3.665l2.472-.695a1.9,1.9,0,0,0,1.314-2.349Zm0,0" transform="translate(-183.625 -27.147)"/>
        <path id="Trazado_102341" data-name="Trazado 102341" d="M232.06,75.623a1.9,1.9,0,0,0-1.029,3.662l2.472.7a1.9,1.9,0,1,0,1.029-3.663Zm0,0" transform="translate(-178.42 -58.714)"/>
      </g>
      <g id="persona" transform="translate(895.711 12967.865)">
        <circle id="Elipse_4120" data-name="Elipse 4120" cx="33.003" cy="33.003" r="33.003" transform="translate(28.997 28.997)" fill="#26ccda"/>
        <path id="Trazado_102342" data-name="Trazado 102342" d="M213.226,231.952V239.5a1.942,1.942,0,0,0,1.22,1.8l6.046,2.418a3.883,3.883,0,0,1,2.441,3.605v5.986a1.941,1.941,0,0,1-1.941,1.941h-27.18a1.941,1.941,0,0,1-1.941-1.941v-5.986a3.883,3.883,0,0,1,2.441-3.605l6.046-2.418a1.941,1.941,0,0,0,1.22-1.8v-7.543Z" transform="translate(-145.402 -175.776)" fill="#fdd835"/>
        <path id="Trazado_102343" data-name="Trazado 102343" d="M227.165,231.952V239.5a1.942,1.942,0,0,1-1.22,1.8l-.31.124a13.5,13.5,0,0,0,14.709,0l-.31-.124a1.941,1.941,0,0,1-1.22-1.8v-7.543Z" transform="translate(-170.989 -175.776)" fill="#ffa726"/>
        <path id="Trazado_102344" data-name="Trazado 102344" d="M239.466,181.663c0-3.217-3.477-5.824-7.766-5.824s-7.766,2.608-7.766,5.824v5.824a7.766,7.766,0,0,0,7.766,7.766h0a7.765,7.765,0,0,0,7.766-7.765v-5.824Z" transform="translate(-169.701 -133.253)" fill="#fdd835"/>
        <path id="Trazado_102345" data-name="Trazado 102345" d="M201.579,286.372a5.824,5.824,0,0,1-5.824-5.824v-2.4l-1.442.577a3.883,3.883,0,0,0-2.441,3.6v5.986a1.941,1.941,0,0,0,1.941,1.941h27.18a1.941,1.941,0,0,0,1.941-1.941v-1.941Z" transform="translate(-145.403 -210.782)" fill="#ffa726"/>
        <path id="Trazado_102346" data-name="Trazado 102346" d="M156.612,206.313a32.985,32.985,0,0,1-25.186-54.307A32.989,32.989,0,1,0,177.915,198.5,32.85,32.85,0,0,1,156.612,206.313Z" transform="translate(-90.729 -115.192)" fill="#26ccda" style="mix-blend-mode: multiply;isolation: isolate"/>
        <g id="Grupo_54729" data-name="Grupo 54729" transform="translate(1.817 1.817)">
          <path id="Trazado_102353" data-name="Trazado 102353" d="M3.882,0A3.882,3.882,0,1,1,0,3.882,3.882,3.882,0,0,1,3.882,0Z" transform="translate(56.301)" fill="#f57c00"/>
          <path id="Trazado_102355" data-name="Trazado 102355" d="M3.882,0A3.882,3.882,0,1,1,0,3.882,3.882,3.882,0,0,1,3.882,0Z" transform="translate(56.301 112.602)" fill="#f57c00"/>
          <path id="Trazado_102354" data-name="Trazado 102354" d="M3.882,0A3.882,3.882,0,1,1,0,3.882,3.882,3.882,0,0,1,3.882,0Z" transform="translate(0 56.301)" fill="#f57c00"/>
          <circle id="Elipse_4124" data-name="Elipse 4124" cx="3.882" cy="3.882" r="3.882" transform="translate(112.602 56.301)" fill="#f57c00"/>
        </g>
        <path id="Trazado_102347" data-name="Trazado 102347" d="M118.3,56.3a5.708,5.708,0,0,0-5.4,3.883H96.773A34.87,34.87,0,0,0,63.816,27.227V11.1a5.7,5.7,0,1,0-3.633,0V27.227A34.87,34.87,0,0,0,27.227,60.184H11.1a5.7,5.7,0,1,0,0,3.633H27.227A34.87,34.87,0,0,0,60.184,96.773V112.9a5.7,5.7,0,1,0,3.633,0V96.773A34.87,34.87,0,0,0,96.773,63.816H112.9a5.7,5.7,0,1,0,5.4-7.516ZM62,3.633A2.066,2.066,0,1,1,59.934,5.7,2.069,2.069,0,0,1,62,3.633ZM5.7,64.066A2.066,2.066,0,1,1,7.765,62,2.069,2.069,0,0,1,5.7,64.066Zm56.3,56.3a2.066,2.066,0,1,1,2.066-2.066A2.069,2.069,0,0,1,62,120.367Zm0-27.18A31.187,31.187,0,1,1,93.187,62,31.223,31.223,0,0,1,62,93.187Zm56.3-29.121A2.066,2.066,0,1,1,120.367,62,2.069,2.069,0,0,1,118.3,64.066Z"/>
        <path id="Trazado_102348" data-name="Trazado 102348" d="M215.484,193.824l-6.046-2.418a.124.124,0,0,1-.079-.116v-3.66c0-.016,0-.031,0-.047a9.531,9.531,0,0,0,1.944-5.777v-5.824c0-4.213-4.3-7.641-9.582-7.641s-9.582,3.427-9.582,7.641v5.824a9.531,9.531,0,0,0,1.944,5.777c0,.016,0,.031,0,.047v3.66a.124.124,0,0,1-.079.116l-6.046,2.418a5.672,5.672,0,0,0-3.583,5.292V205.1a3.762,3.762,0,0,0,3.758,3.758H203.66a1.816,1.816,0,1,0,0-3.633H188.129A.125.125,0,0,1,188,205.1v-5.986a2.056,2.056,0,0,1,1.3-1.919l6.046-2.418a3.74,3.74,0,0,0,2.362-3.489v-.784a9.548,9.548,0,0,0,8.015,0v.784a3.74,3.74,0,0,0,2.362,3.489l6.046,2.419a2.056,2.056,0,0,1,1.3,1.918V205.1a.125.125,0,0,1-.125.125h-3.883a1.816,1.816,0,1,0,0,3.633h3.883a3.762,3.762,0,0,0,3.758-3.758v-5.986A5.671,5.671,0,0,0,215.484,193.824ZM195.77,181.805v-5.824c0-2.172,2.724-4.008,5.949-4.008s5.949,1.835,5.949,4.008v5.824a5.949,5.949,0,1,1-11.9,0Z" transform="translate(-139.719 -127.571)"/>
        <path id="Trazado_102349" data-name="Trazado 102349" d="M84.767,119.14a1.839,1.839,0,0,0,.346.033A1.817,1.817,0,0,0,86.9,117.7,38.968,38.968,0,0,1,117.7,86.9a1.817,1.817,0,0,0-.689-3.567,42.6,42.6,0,0,0-33.684,33.684A1.817,1.817,0,0,0,84.767,119.14Z" transform="translate(-63.122 -63.122)"/>
        <path id="Trazado_102350" data-name="Trazado 102350" d="M282.035,86.9A38.968,38.968,0,0,1,312.841,117.7a1.817,1.817,0,0,0,1.782,1.472,1.84,1.84,0,0,0,.346-.033,1.817,1.817,0,0,0,1.439-2.128,42.6,42.6,0,0,0-33.684-33.684,1.817,1.817,0,1,0-.689,3.567Z" transform="translate(-212.614 -63.123)"/>
        <path id="Trazado_102351" data-name="Trazado 102351" d="M117.7,312.841A38.968,38.968,0,0,1,86.9,282.036a1.817,1.817,0,1,0-3.567.689,42.6,42.6,0,0,0,33.684,33.684,1.836,1.836,0,0,0,.346.033,1.817,1.817,0,0,0,.342-3.6Z" transform="translate(-63.122 -212.614)"/>
        <path id="Trazado_102352" data-name="Trazado 102352" d="M314.968,280.6a1.818,1.818,0,0,0-2.128,1.439,38.968,38.968,0,0,1-30.805,30.805,1.817,1.817,0,0,0,.342,3.6,1.84,1.84,0,0,0,.346-.033,42.6,42.6,0,0,0,33.684-33.684A1.817,1.817,0,0,0,314.968,280.6Z" transform="translate(-212.614 -212.615)"/>
      </g>
      <g id="divisa" transform="translate(481.71 12648.619)">
        <path id="Trazado_102356" data-name="Trazado 102356" d="M192.465,288.714,182.151,285.8a1.746,1.746,0,0,0-2,.837l-5.165,9.391a.514.514,0,0,1-.923-.048l-4.64-11.089-11.173-26.7,8.275-19.769,7.032,2.942,7.041,16.825,12.483,29.83A.513.513,0,0,1,192.465,288.714Zm0,0" transform="translate(-123.815 -186.55)" fill="#fdd835"/>
        <path id="Trazado_102357" data-name="Trazado 102357" d="M180.594,258.193l-11.175,26.7-11.173-26.7,8.275-19.769,7.032,2.943Zm0,0" transform="translate(-123.815 -186.55)" fill="#ffa726"/>
        <path id="Trazado_102358" data-name="Trazado 102358" d="M73.137,287.583l-5.166-9.391a1.743,1.743,0,0,0-2-.838l-10.314,2.912a.512.512,0,0,1-.612-.691l21.739-51.946L95.8,235.587l-21.74,51.946A.512.512,0,0,1,73.137,287.583Zm0,0" transform="translate(-43.034 -178.102)" fill="#fdd835"/>
        <path id="Trazado_102359" data-name="Trazado 102359" d="M51.2,9.237l6.345,5.23a7.287,7.287,0,0,0,3.94,1.632l8.185.789a7.293,7.293,0,0,1,6.56,6.56l.789,8.185a7.291,7.291,0,0,0,1.632,3.94l5.23,6.345a7.294,7.294,0,0,1,0,9.278l-5.23,6.345a7.291,7.291,0,0,0-1.632,3.94l-.789,8.185a7.292,7.292,0,0,1-6.56,6.56l-8.185.789a7.294,7.294,0,0,0-3.94,1.632L51.2,83.879a7.294,7.294,0,0,1-9.278,0l-6.345-5.23a7.288,7.288,0,0,0-3.94-1.632l-8.185-.789a7.292,7.292,0,0,1-6.56-6.56L16.1,61.482a7.292,7.292,0,0,0-1.633-3.94L9.237,51.2a7.294,7.294,0,0,1,0-9.278l5.23-6.345a7.292,7.292,0,0,0,1.633-3.94l.788-8.185a7.293,7.293,0,0,1,6.56-6.56l8.185-.789a7.282,7.282,0,0,0,3.94-1.632l6.345-5.23A7.294,7.294,0,0,1,51.2,9.237Zm0,0" transform="translate(-5.923 -5.923)" fill="#ffa726"/>
        <path id="Trazado_102360" data-name="Trazado 102360" d="M124.056,99.9A24.153,24.153,0,1,1,99.9,75.75,24.154,24.154,0,0,1,124.056,99.9Zm0,0" transform="translate(-59.268 -59.268)" fill="#26ccda"/>
        <path id="Trazado_102361" data-name="Trazado 102361" d="M164.952,75.746a24.179,24.179,0,0,0-6.065.768,24.161,24.161,0,0,1,0,46.771,24.156,24.156,0,1,0,6.065-47.539Zm0,0" transform="translate(-124.316 -59.265)" fill="#26ccda" style="mix-blend-mode: multiply;isolation: isolate"/>
        <path id="Trazado_102362" data-name="Trazado 102362" d="M122.765,162.078a3.4,3.4,0,0,1-2.4-1l-7.215-7.215a3.4,3.4,0,0,1,4.808-4.808l4.811,4.811,13.346-13.346a3.4,3.4,0,1,1,4.807,4.808l-15.749,15.749A3.4,3.4,0,0,1,122.765,162.078Zm0,0" transform="translate(-87.749 -109.171)" fill="#fff"/>
        <path id="Trazado_102363" data-name="Trazado 102363" d="M79.231,34.945,74,28.6a5.613,5.613,0,0,1-1.262-3.048l-.789-8.185A8.961,8.961,0,0,0,63.9,9.32l-8.185-.788A5.625,5.625,0,0,1,52.67,7.27L46.324,2.039a8.962,8.962,0,0,0-11.379,0L28.6,7.27a5.62,5.62,0,0,1-3.048,1.262l-8.185.788A8.962,8.962,0,0,0,9.32,17.367l-.788,8.185A5.625,5.625,0,0,1,7.27,28.6L2.039,34.945a8.962,8.962,0,0,0,0,11.379L7.27,52.67a5.625,5.625,0,0,1,1.262,3.048L9.32,63.9a8.962,8.962,0,0,0,8.047,8.047l5,.482L10.483,100.837a2.165,2.165,0,0,0,2.586,2.917l10.313-2.912a.093.093,0,0,1,.109.043l5.165,9.391a2.146,2.146,0,0,0,1.893,1.121l.113,0a2.156,2.156,0,0,0,1.888-1.326L45.1,80.077a8.916,8.916,0,0,0,1.225-.846L52.67,74a5.611,5.611,0,0,1,2.79-1.228L66.828,99.934l-8.044-2.271a3.385,3.385,0,0,0-3.9,1.631l-4.028,7.324L45.52,93.865a1.652,1.652,0,1,0-3.048,1.275l6.251,14.939a2.152,2.152,0,0,0,1.885,1.317c.038,0,.076,0,.113,0a2.147,2.147,0,0,0,1.893-1.122l5.164-9.39a.1.1,0,0,1,.109-.045L68.2,103.754a2.166,2.166,0,0,0,2.587-2.919L58.9,72.431l5-.482A8.961,8.961,0,0,0,71.95,63.9l.789-8.186A5.61,5.61,0,0,1,74,52.67l5.23-6.345A8.959,8.959,0,0,0,79.231,34.945ZM30.413,106.618l-4.029-7.325a3.384,3.384,0,0,0-3.9-1.629l-8.043,2.27L25.809,72.772A5.617,5.617,0,0,1,28.6,74l6.345,5.231a8.929,8.929,0,0,0,5.69,2.038c.13,0,.259,0,.389-.009ZM76.682,44.223l-5.23,6.345a8.907,8.907,0,0,0-2,4.832l-.788,8.185a5.651,5.651,0,0,1-5.075,5.075l-7.19.693c-.028,0-.057,0-.085.008l-.91.088a8.912,8.912,0,0,0-4.833,2l-6.345,5.23a5.65,5.65,0,0,1-7.177,0L30.7,71.451a8.906,8.906,0,0,0-4.833-2l-.914-.088c-.025,0-.05-.005-.076-.007l-7.2-.694a5.651,5.651,0,0,1-5.075-5.075L11.821,55.4a8.907,8.907,0,0,0-2-4.833l-5.23-6.345a5.651,5.651,0,0,1,0-7.177L9.819,30.7a8.907,8.907,0,0,0,2-4.833l.788-8.185a5.651,5.651,0,0,1,5.075-5.075l8.185-.788a8.912,8.912,0,0,0,4.833-2l6.345-5.23a5.649,5.649,0,0,1,7.177,0l6.345,5.23a8.906,8.906,0,0,0,4.833,2l8.185.788a5.651,5.651,0,0,1,5.075,5.075l.788,8.185a8.907,8.907,0,0,0,2,4.833l5.23,6.345A5.653,5.653,0,0,1,76.682,44.223Zm0,0"/>
        <path id="Trazado_102364" data-name="Trazado 102364" d="M93.962,68.156a26.061,26.061,0,0,0-3.3.209,1.652,1.652,0,0,0,.419,3.277,22.759,22.759,0,0,1,2.882-.183,22.482,22.482,0,1,1-9.208,1.963A1.652,1.652,0,0,0,83.4,70.409a25.818,25.818,0,1,0,10.561-2.253Zm0,0" transform="translate(-53.327 -53.327)"/>
        <path id="Trazado_102365" data-name="Trazado 102365" d="M106.048,141.959a5.057,5.057,0,0,0,0,7.143l7.215,7.216a5.054,5.054,0,0,0,7.144,0l15.749-15.75a5.052,5.052,0,1,0-7.144-7.144L116.835,145.6l-3.644-3.643A5.057,5.057,0,0,0,106.048,141.959Zm10.787,7.631a1.651,1.651,0,0,0,1.168-.484l13.346-13.346a1.748,1.748,0,1,1,2.471,2.471l-15.749,15.75a1.748,1.748,0,0,1-2.471,0l-7.216-7.215a1.748,1.748,0,0,1,2.471-2.472l4.811,4.811A1.652,1.652,0,0,0,116.835,149.59Zm0,0" transform="translate(-81.819 -103.238)"/>
      </g>
    </g>
    <rect id="Rectngulo_35151" data-name="Rectngulo 35151" width="1284" height="1016" transform="translate(180 20682)" fill="none"/>
  </g>
</svg>
